<?xml version="1.0" standalone="no"?>
<!DOCTYPE svg PUBLIC "-//W3C//DTD SVG 20010904//EN"
 "http://www.w3.org/TR/2001/REC-SVG-20010904/DTD/svg10.dtd">
<svg version="1.0" xmlns="http://www.w3.org/2000/svg"
 width="300.000000pt" height="300.000000pt" viewBox="0 0 300.000000 300.000000"
 preserveAspectRatio="xMidYMid meet">
<metadata>
Created by potrace 1.11, written by Peter Selinger 2001-2013
</metadata>
<g transform="translate(0.000000,300.000000) scale(0.100000,-0.100000)"
fill="#000000" stroke="none">
<path d="M1434 2891 c-54 -34 -78 -68 -82 -119 -3 -46 -28 -81 -58 -82 -6 0
-17 -7 -24 -15 -7 -8 -16 -12 -21 -10 -4 3 -11 0 -16 -7 -4 -7 -26 -22 -48
-33 -22 -11 -42 -22 -45 -26 -3 -3 -36 -23 -75 -44 -38 -21 -73 -43 -77 -49
-4 -6 -8 -7 -8 -3 0 5 -13 -1 -29 -12 -16 -12 -34 -21 -40 -21 -6 0 -11 -4
-11 -9 0 -5 -8 -11 -17 -14 -23 -7 -76 -39 -84 -50 -3 -5 -10 -8 -15 -8 -5 1
-16 -5 -26 -13 -9 -8 -19 -12 -22 -9 -3 4 -6 1 -6 -6 0 -7 -4 -9 -10 -6 -5 3
-10 2 -10 -2 0 -5 -18 -17 -40 -27 -22 -10 -46 -23 -53 -29 -13 -12 -51 -34
-124 -73 -36 -19 -49 -21 -85 -13 -38 9 -46 7 -82 -19 -39 -27 -41 -30 -41
-81 0 -46 4 -56 30 -80 l30 -26 2 -500 c2 -275 1 -510 -2 -523 -3 -12 -11 -22
-18 -22 -11 0 -54 -38 -85 -74 -13 -17 -17 -116 -4 -116 5 0 15 -12 23 -26 20
-38 78 -72 122 -72 20 0 40 4 43 9 3 5 9 7 12 5 4 -2 18 4 31 14 24 17 25 17
82 -16 31 -19 61 -34 65 -34 4 0 15 -6 23 -14 9 -8 41 -26 71 -42 30 -15 57
-31 60 -34 3 -3 46 -29 95 -56 104 -58 145 -81 235 -134 36 -21 81 -47 100
-58 181 -103 194 -112 197 -134 6 -41 25 -67 66 -87 30 -15 45 -17 65 -10 44
17 62 40 86 113 4 10 9 16 13 13 3 -4 14 3 24 15 11 11 19 18 19 14 0 -4 12 1
28 12 15 11 37 23 50 26 12 4 22 11 22 16 0 5 10 12 23 16 12 3 34 15 50 26
15 11 27 16 27 11 0 -4 4 -3 8 3 7 11 26 23 132 83 25 13 48 30 52 35 4 6 8 8
8 4 0 -5 30 12 68 35 37 24 70 44 75 45 4 1 17 8 30 15 127 79 250 147 264
147 10 0 27 -6 38 -13 11 -8 35 -13 53 -12 17 0 32 -3 32 -8 0 -5 7 -4 15 3 8
7 15 9 15 5 0 -4 19 8 41 26 84 66 85 171 1 238 l-39 32 -2 519 -2 518 25 25
c14 14 28 37 32 52 9 37 -18 90 -57 114 -30 18 -43 19 -101 5 -19 -4 -36 0
-57 15 -16 12 -34 21 -40 21 -6 0 -11 3 -11 8 0 4 -14 13 -31 21 -18 8 -60 31
-95 52 -35 22 -66 39 -70 39 -3 0 -18 8 -32 19 -26 18 -63 39 -147 84 -22 12
-42 24 -45 27 -3 3 -18 12 -35 20 -16 8 -48 26 -70 41 -22 14 -47 29 -55 32
-8 4 -37 20 -65 37 -27 16 -73 42 -101 56 -49 26 -52 29 -51 65 1 36 -15 81
-38 105 -47 49 -131 66 -181 35z m236 -286 c32 -19 62 -35 68 -35 6 0 12 -4
14 -8 3 -7 26 -21 151 -91 20 -12 53 -30 72 -41 19 -11 51 -29 70 -40 19 -11
52 -29 73 -41 20 -12 45 -28 56 -38 10 -9 21 -15 25 -15 13 2 51 -20 51 -29 0
-6 3 -7 6 -4 4 4 19 -2 34 -13 16 -11 33 -20 39 -20 6 0 11 -4 11 -10 0 -5 5
-10 12 -10 15 0 148 -80 148 -89 0 -11 -15 -27 -30 -34 -8 -4 -37 -20 -65 -36
-27 -16 -69 -39 -92 -52 -24 -12 -43 -26 -43 -31 0 -4 -9 -8 -20 -8 -11 0 -20
-4 -20 -10 0 -5 -7 -10 -15 -10 -8 0 -15 -4 -15 -10 0 -5 -6 -10 -13 -10 -7 0
-29 -11 -50 -25 -20 -14 -37 -22 -37 -18 0 4 -4 3 -8 -3 -4 -5 -72 -48 -152
-93 -80 -46 -156 -91 -170 -100 -46 -28 -85 -51 -120 -69 -19 -9 -43 -24 -53
-32 -10 -8 -20 -14 -23 -12 -2 2 -16 -6 -31 -18 -14 -11 -32 -20 -40 -20 -14
0 -74 28 -83 39 -3 3 -18 13 -35 21 -16 8 -32 17 -35 20 -3 3 -16 11 -30 18
-87 45 -106 55 -110 61 -6 7 -43 29 -85 49 -16 8 -38 22 -49 31 -10 9 -21 15
-25 15 -13 -3 -30 8 -35 22 -3 8 5 30 19 49 13 20 30 49 37 65 7 17 16 30 20
30 5 0 8 4 8 9 0 5 32 65 71 133 40 67 85 148 102 178 16 30 38 67 49 82 10
14 18 31 18 37 0 6 3 11 8 11 4 0 13 14 21 31 20 45 92 163 104 171 6 4 15 4
20 1 12 -7 97 17 97 28 0 16 22 9 80 -26z m-358 -87 c-27 -46 -85 -144 -127
-218 -43 -74 -116 -200 -161 -279 -46 -79 -85 -149 -87 -155 -5 -14 -61 15
-272 137 -38 22 -87 51 -107 64 -21 13 -38 21 -38 18 0 -3 -6 0 -14 7 -14 14
-11 38 6 38 5 0 29 14 53 30 24 17 46 30 50 30 3 0 24 12 48 27 23 15 44 28
47 28 3 1 20 11 39 22 19 12 38 20 43 17 4 -3 8 0 8 6 0 6 11 15 25 20 14 5
25 14 25 20 0 5 3 9 8 8 4 -2 57 26 117 62 61 35 113 63 118 62 4 -1 7 3 7 8
0 6 5 10 12 10 6 0 19 6 27 14 14 12 92 56 163 93 15 8 30 19 34 25 4 6 10 6
16 0 7 -7 -6 -38 -40 -94z m-823 -525 c6 -10 11 -14 11 -9 0 5 7 3 15 -4 8 -7
15 -9 15 -6 0 4 7 1 15 -6 34 -29 41 -33 55 -36 8 -2 17 -7 20 -10 3 -4 26
-18 53 -31 26 -13 47 -28 47 -32 0 -5 7 -6 15 -3 8 4 15 2 15 -4 0 -5 24 -22
53 -37 77 -40 79 -43 60 -72 -29 -43 -53 -87 -59 -105 -4 -10 -10 -18 -15 -18
-5 0 -9 -4 -9 -10 0 -5 -14 -33 -31 -62 -18 -29 -42 -72 -55 -95 -13 -24 -35
-62 -48 -85 -13 -24 -37 -67 -55 -96 -17 -29 -31 -57 -31 -62 0 -4 -3 -10 -7
-12 -5 -1 -24 -33 -43 -70 -19 -37 -38 -68 -42 -68 -5 0 -8 -7 -8 -15 0 -8 -6
-15 -13 -15 -11 0 -14 90 -14 490 l0 490 23 0 c13 0 28 -8 33 -17z m1971 -51
c-8 -15 -22 -38 -31 -52 -9 -14 -29 -49 -45 -78 -42 -77 -49 -88 -60 -103 -6
-8 -25 -39 -41 -69 -36 -65 -101 -181 -130 -230 -11 -19 -33 -57 -49 -85 -16
-27 -36 -62 -43 -77 -8 -16 -18 -28 -23 -28 -5 0 -40 18 -79 40 -39 22 -75 40
-80 40 -5 0 -9 3 -9 8 0 7 -4 10 -77 46 -21 11 -41 25 -45 30 -4 6 -8 7 -8 2
0 -5 -8 -2 -17 6 -10 9 -43 28 -73 43 l-54 27 29 24 c17 13 36 24 43 24 6 0
12 5 12 11 0 5 5 7 10 4 6 -3 10 -2 10 2 0 5 22 20 50 34 27 13 50 27 50 32 0
4 5 7 11 7 7 0 35 15 63 33 28 18 65 39 81 47 17 8 32 17 35 20 13 14 60 40
60 33 0 -5 4 -3 8 2 7 10 37 29 122 78 19 10 78 45 130 76 172 101 174 102
150 53z m105 -486 l0 -464 -24 -21 c-26 -23 -46 -27 -56 -11 -4 6 -11 8 -16 5
-5 -4 -12 1 -15 9 -3 9 -10 16 -16 16 -5 0 -48 23 -96 52 -48 28 -112 64 -142
81 -84 46 -82 43 -55 88 14 21 25 41 25 44 0 3 11 22 23 43 13 20 35 57 49 82
24 42 41 73 87 153 10 17 32 56 50 85 17 29 31 57 31 62 0 6 3 10 8 10 4 0 12
10 18 23 30 60 60 112 67 115 4 2 7 8 7 12 0 13 41 80 48 80 4 0 7 -209 7
-464z m-1555 245 c8 -12 144 -86 153 -83 4 1 7 -3 7 -8 0 -6 11 -15 24 -19 13
-5 47 -24 77 -43 30 -18 71 -42 92 -52 35 -18 36 -20 21 -38 -10 -10 -22 -18
-29 -18 -6 0 -20 -8 -31 -17 -27 -24 -65 -45 -71 -40 -2 3 -16 -6 -30 -19 -14
-13 -29 -21 -34 -18 -5 3 -9 1 -9 -3 0 -5 -30 -26 -67 -46 -38 -21 -89 -51
-115 -67 -27 -16 -48 -26 -48 -22 0 4 -6 0 -13 -8 -7 -8 -32 -26 -57 -39 -25
-14 -47 -27 -50 -30 -3 -3 -18 -13 -35 -21 -16 -8 -32 -17 -35 -20 -10 -10
-65 -41 -82 -47 -10 -3 -18 -9 -18 -14 0 -5 -5 -9 -11 -9 -6 0 -24 -9 -40 -21
-16 -11 -29 -17 -29 -12 -1 4 -9 -2 -19 -14 -17 -21 -20 -21 -32 -6 -11 13
-11 17 -1 20 6 3 12 11 12 19 0 8 5 14 10 14 6 0 10 9 10 20 0 11 5 20 10 20
6 0 20 19 31 43 11 23 25 51 32 62 50 82 87 147 87 155 0 4 4 10 8 12 5 2 22
28 39 58 59 106 110 195 141 248 18 29 32 57 32 62 0 19 56 20 70 1z m604
-344 c3 4 6 1 6 -5 0 -7 4 -12 10 -12 5 0 34 -16 65 -35 30 -20 55 -32 55 -28
0 4 7 -1 15 -11 8 -11 15 -16 15 -12 0 4 12 -1 28 -12 15 -10 56 -35 92 -55
36 -20 71 -41 78 -45 14 -9 14 -8 -48 -117 -50 -87 -59 -103 -89 -153 -17 -29
-31 -54 -31 -56 0 -2 -18 -33 -39 -68 -37 -61 -109 -188 -174 -308 -16 -30
-34 -61 -40 -68 -5 -7 -17 -27 -26 -44 -19 -39 -79 -57 -121 -37 -14 7 -28 12
-32 11 -5 -1 -8 1 -8 6 0 4 -17 16 -37 27 -21 11 -40 22 -43 25 -3 3 -23 14
-45 26 -53 28 -118 64 -130 74 -5 4 -35 21 -65 37 -127 70 -345 198 -348 205
-2 5 -7 8 -12 8 -5 0 -40 18 -78 40 -65 38 -71 44 -70 73 1 31 30 66 55 67 6
0 13 4 15 9 2 5 27 21 57 37 72 39 108 60 156 90 22 14 48 27 58 31 9 3 17 9
17 13 0 7 29 20 53 24 4 0 11 6 15 12 8 12 43 28 55 26 4 -1 7 1 7 6 0 4 17
16 38 27 20 11 39 22 42 25 3 3 26 17 53 30 26 14 47 29 47 33 0 5 4 6 9 3 5
-3 14 1 21 9 7 8 19 15 26 15 8 0 14 5 14 12 0 6 3 9 6 5 4 -3 22 5 42 18 19
13 39 22 44 19 4 -3 8 -1 8 5 0 6 15 18 33 27 17 9 35 22 39 28 4 6 8 7 8 3 0
-5 9 -1 21 7 19 13 25 12 74 -19 29 -19 55 -31 59 -28z m509 -298 c23 -12 57
-32 75 -46 17 -13 32 -21 32 -18 0 3 18 -6 39 -19 21 -14 42 -22 45 -19 3 4 6
2 6 -4 0 -5 25 -23 56 -39 31 -16 63 -39 71 -51 30 -45 15 -64 -102 -134 -151
-90 -291 -171 -345 -200 -25 -13 -50 -28 -56 -34 -6 -5 -28 -19 -49 -30 -22
-11 -48 -28 -59 -37 -10 -10 -23 -15 -28 -12 -4 3 -8 1 -8 -5 0 -6 -11 -13
-25 -17 -14 -3 -25 -10 -25 -14 0 -4 -15 -13 -32 -20 -18 -7 -38 -20 -45 -28
-7 -8 -19 -12 -28 -8 -14 5 -13 10 7 38 13 18 30 47 38 63 8 17 26 48 40 70
15 22 82 137 150 255 148 259 190 330 196 330 3 0 24 -10 47 -21z"/>
</g>
</svg>
