<?xml version="1.0" standalone="no"?>
<!DOCTYPE svg PUBLIC "-//W3C//DTD SVG 20010904//EN"
 "http://www.w3.org/TR/2001/REC-SVG-20010904/DTD/svg10.dtd">
<svg version="1.0" xmlns="http://www.w3.org/2000/svg"
 width="700.000000pt" height="700.000000pt" viewBox="0 0 700.000000 700.000000"
 preserveAspectRatio="xMidYMid meet">
<metadata>
Created by potrace 1.11, written by Peter Selinger 2001-2013
</metadata>
<g transform="translate(0.000000,700.000000) scale(0.100000,-0.100000)"
fill="#000000" stroke="none">
<path d="M3417 6714 c-1 -1 -58 -4 -127 -8 -69 -3 -136 -8 -150 -10 -14 -3
-47 -7 -75 -11 -149 -18 -292 -48 -455 -95 -575 -165 -1097 -491 -1495 -935
-38 -42 -75 -83 -82 -90 -7 -7 -54 -68 -105 -136 -210 -279 -366 -577 -479
-912 -39 -117 -101 -358 -114 -442 -3 -22 -10 -67 -15 -100 -23 -148 -34 -303
-33 -490 0 -119 10 -300 17 -343 2 -9 7 -44 11 -77 17 -155 82 -426 144 -606
231 -669 652 -1216 1256 -1631 215 -147 500 -286 786 -381 211 -71 421 -114
704 -146 79 -9 572 -8 610 2 11 2 52 8 90 12 105 10 254 40 405 79 991 256
1803 978 2184 1942 84 213 167 535 190 739 3 28 9 82 13 120 10 92 10 528 0
630 -55 538 -251 1066 -566 1520 -31 44 -60 85 -66 92 -5 6 -21 26 -35 44
-110 144 -324 364 -484 496 -358 297 -787 518 -1236 634 -117 31 -272 62 -370
74 -30 4 -66 9 -80 10 -94 12 -434 27 -443 19z m383 -118 c19 -3 55 -8 80 -11
88 -10 136 -18 250 -42 63 -13 122 -25 130 -28 550 -142 1027 -412 1420 -805
74 -74 149 -151 165 -170 57 -66 192 -245 241 -320 27 -41 52 -76 57 -78 4 -2
7 -7 7 -12 0 -5 19 -41 43 -82 183 -309 340 -764 381 -1103 4 -27 9 -66 11
-85 24 -179 24 -575 0 -722 -2 -13 -6 -45 -10 -73 -24 -193 -111 -529 -180
-690 -7 -16 -23 -55 -35 -85 -12 -30 -48 -107 -80 -171 -205 -410 -475 -744
-845 -1048 -128 -105 -364 -256 -531 -340 -162 -81 -409 -181 -514 -206 -8 -3
-40 -11 -70 -20 -56 -16 -202 -50 -255 -59 -16 -3 -39 -8 -50 -10 -19 -3 -118
-17 -160 -22 -212 -23 -589 -23 -712 0 -11 3 -45 7 -77 10 -98 11 -341 65
-479 107 -704 216 -1320 686 -1714 1309 -139 219 -295 559 -349 759 -69 257
-102 423 -121 616 -10 102 -10 455 0 563 34 377 132 731 300 1082 18 38 137
252 172 309 31 50 142 210 155 221 3 3 40 48 82 100 101 125 304 325 448 440
428 341 950 569 1480 645 19 3 49 7 65 10 17 2 66 7 110 11 44 3 81 8 83 9 6
5 464 -3 502 -9z"/>
<path d="M2865 4730 c-71 -9 -143 -20 -160 -24 -16 -3 -41 -8 -54 -11 -179
-34 -449 -132 -646 -235 -135 -71 -386 -237 -430 -284 -5 -6 -32 -29 -60 -51
-128 -102 -330 -320 -468 -505 -100 -132 -102 -102 16 -259 70 -93 213 -258
273 -316 324 -311 569 -475 916 -614 219 -87 433 -138 703 -168 133 -15 493
-8 593 12 10 2 43 6 73 10 277 34 670 163 969 318 177 92 447 264 526 335 10
9 53 44 94 77 41 33 131 115 199 182 95 92 129 119 138 111 14 -11 163 -205
163 -212 0 -2 20 -33 44 -68 24 -36 67 -109 95 -161 l52 -96 64 67 c36 37 65
73 65 80 1 42 -181 360 -286 501 -30 40 -54 77 -54 83 0 5 13 27 29 47 92 117
311 492 311 532 0 8 -29 45 -63 83 l-63 68 -17 -25 c-9 -15 -17 -29 -17 -32 0
-26 -194 -322 -283 -433 l-51 -62 -120 119 c-67 65 -139 134 -161 152 -22 19
-42 37 -45 40 -13 15 -224 172 -290 216 -237 159 -507 292 -779 385 -177 60
-431 120 -565 133 -28 3 -62 8 -76 11 -14 4 -133 8 -265 9 -185 2 -270 -1
-370 -15z m495 -183 c14 -3 45 -8 70 -11 668 -95 1350 -445 1880 -966 l69 -69
-106 -101 c-407 -389 -888 -676 -1403 -834 -275 -85 -513 -121 -800 -120 -205
0 -282 7 -445 39 -581 116 -1061 432 -1454 957 -51 68 -57 50 71 210 87 109
316 344 383 393 22 17 49 38 60 48 69 64 363 238 485 287 30 12 69 28 85 35
109 48 398 118 543 131 37 4 69 8 71 10 6 5 460 -4 491 -9z"/>
</g>
</svg>
