<?xml version="1.0" encoding="UTF-8" standalone="no"?><!DOCTYPE svg PUBLIC "-//W3C//DTD SVG 1.1//EN" "http://www.w3.org/Graphics/SVG/1.1/DTD/svg11.dtd"><svg width="100%" height="100%" viewBox="0 0 266 207" version="1.1" xmlns="http://www.w3.org/2000/svg" xmlns:xlink="http://www.w3.org/1999/xlink" xml:space="preserve" xmlns:serif="http://www.serif.com/" style="fill-rule:evenodd;clip-rule:evenodd;stroke-linejoin:round;stroke-miterlimit:2;"><path d="M80.406,197.58c-3.168,0 -5.728,-0.328 -7.384,-0.556c-30.976,-4.24 -61.234,-39.509 -60.949,-72.484c0.038,-4.46 0.635,-8.797 1.724,-13c0.151,0.272 0.442,0.45 0.763,0.45c0.04,0 0.081,-0.003 0.123,-0.01c0.477,-0.068 0.809,-0.509 0.741,-0.987c-0.169,-1.194 -0.291,-2.416 -0.364,-3.644c4.509,-13.125 13.815,-24.834 25.784,-34.744l0.09,8.035l13.75,-11.678l7.727,5.825l12.207,-16.188l0,27.097l-6.198,4.703l-0.276,0.213l-0.034,0.025c-0.728,0.6 -1.293,1.387 -1.621,2.29c-0.136,0.375 -0.232,0.772 -0.28,1.178l-0.194,0c-0.271,0.013 -0.581,0.007 -0.87,0.016c-0.482,0.019 -0.857,0.425 -0.838,0.906c0.018,0.466 0.396,0.841 0.858,0.841c0.016,0 0.031,0 0.047,-0.003c0.222,-0.006 0.458,-0.016 0.673,-0.016l0.13,0c0.052,0 0.104,0 0.156,0.003l0,49.6c-0.235,0.053 -0.471,0.103 -0.707,0.153c-0.472,0.1 -0.774,0.563 -0.674,1.035c0.086,0.409 0.449,0.69 0.852,0.69c0.06,0 0.12,-0.003 0.181,-0.018c0.116,-0.022 0.232,-0.047 0.348,-0.072l0,10.89c-1.167,-0.515 -2.345,-1.081 -3.513,-1.684c-0.128,-0.066 -0.264,-0.1 -0.399,-0.1c-0.316,0 -0.621,0.175 -0.776,0.472c-0.222,0.428 -0.054,0.956 0.374,1.178c1.418,0.731 2.853,1.409 4.265,2.016c0.016,0.006 0.032,0.012 0.049,0.018l0,9.11c0,0.078 0.001,0.156 0.005,0.234c0.004,0.097 0.011,0.197 0.021,0.294c0.002,0.025 0.005,0.05 0.008,0.078l0,0.003c0.007,0.056 0.014,0.113 0.023,0.169c0.005,0.037 0.011,0.075 0.016,0.112l0.009,0.044c0.003,0.016 0.006,0.031 0.009,0.05c0.031,0.163 0.069,0.322 0.114,0.481c0.002,0.007 0.004,0.013 0.006,0.019c0.002,0.006 0.003,0.013 0.005,0.016c0.011,0.037 0.022,0.075 0.033,0.112c0.016,0.05 0.033,0.1 0.051,0.15c0.026,0.072 0.052,0.144 0.08,0.213c0.008,0.022 0.017,0.04 0.025,0.062c0.069,0.169 0.148,0.335 0.234,0.494c0.001,0.003 0.002,0.003 0.003,0.006c0.001,0 0.001,0.003 0.003,0.007c0.097,0.175 0.204,0.346 0.321,0.512c0.017,0.025 0.034,0.05 0.052,0.075c0.062,0.088 0.128,0.169 0.197,0.25c0.056,0.069 0.112,0.134 0.168,0.194c0.386,0.428 0.843,0.794 1.35,1.075c0.008,0.006 0.017,0.012 0.025,0.015c0.023,0.013 0.047,0.025 0.07,0.038c0.24,0.128 0.49,0.234 0.749,0.325c0.065,0.022 0.133,0.044 0.202,0.066c0.031,0.009 0.062,0.018 0.093,0.028c0.089,0.025 0.179,0.047 0.269,0.068c0.015,0.004 0.03,0.007 0.047,0.01c0.029,0.006 0.058,0.012 0.088,0.019c0.046,0.009 0.092,0.018 0.138,0.025c0.089,0.015 0.179,0.028 0.269,0.04c0.045,0.006 0.09,0.01 0.136,0.013c0.153,0.015 0.308,0.022 0.465,0.025l131.471,0c0.149,0 0.297,-0.007 0.443,-0.019c0.013,0 0.027,-0.003 0.04,-0.003l0.055,-0.003c0.035,-0.007 0.065,-0.01 0.095,-0.016l0.052,-0.003c0.039,-0.003 0.073,-0.009 0.108,-0.013l0.017,-0.003c0.043,-0.009 0.091,-0.018 0.134,-0.028c0.034,-0.003 0.073,-0.009 0.108,-0.015c0.055,-0.013 0.111,-0.029 0.168,-0.041c0.108,-0.025 0.215,-0.05 0.323,-0.084c0.065,-0.019 0.125,-0.041 0.185,-0.063l0.056,-0.016l0.048,-0.018c0.262,-0.094 0.517,-0.21 0.758,-0.347c0.035,-0.019 0.069,-0.041 0.103,-0.063c0.035,-0.015 0.065,-0.034 0.095,-0.053c0.039,-0.022 0.078,-0.05 0.117,-0.075l0.069,-0.047c0.073,-0.047 0.142,-0.1 0.211,-0.147l0.026,-0.021c0.086,-0.066 0.172,-0.135 0.254,-0.207l0.03,-0.025c0.035,-0.031 0.069,-0.062 0.099,-0.09c0.03,-0.022 0.056,-0.05 0.082,-0.075c0.03,-0.028 0.061,-0.057 0.086,-0.085c0.061,-0.062 0.121,-0.122 0.177,-0.187c0.056,-0.06 0.112,-0.125 0.168,-0.194c0.044,-0.05 0.084,-0.103 0.125,-0.153c0.031,-0.041 0.063,-0.084 0.095,-0.125c0.026,-0.044 0.056,-0.084 0.086,-0.131c0.047,-0.069 0.095,-0.141 0.138,-0.216c0.026,-0.034 0.043,-0.072 0.065,-0.106c0.021,-0.041 0.043,-0.075 0.064,-0.113c0.022,-0.037 0.043,-0.081 0.061,-0.115c0.06,-0.113 0.112,-0.235 0.163,-0.35l0.013,-0.035c0.017,-0.043 0.035,-0.081 0.048,-0.122c0.021,-0.046 0.034,-0.09 0.052,-0.137l0.004,-0.013c0.001,-0.003 0.002,-0.006 0.003,-0.009c0.033,-0.087 0.062,-0.178 0.087,-0.272l0.009,-0.028c0.017,-0.056 0.03,-0.109 0.043,-0.166c0.009,-0.028 0.017,-0.059 0.021,-0.09l0.014,-0.069c0.001,-0.006 0.003,-0.012 0.005,-0.019l0.012,-0.04l0.004,-0.032c0.013,-0.059 0.026,-0.125 0.034,-0.184c0.009,-0.066 0.022,-0.128 0.026,-0.194c0.004,-0.025 0.009,-0.053 0.013,-0.081l0.005,-0.053c0.004,-0.044 0.008,-0.084 0.008,-0.125c0.004,-0.044 0.009,-0.084 0.009,-0.128c0.004,-0.094 0.009,-0.185 0.009,-0.275l0,-16.378c0.143,-0.263 0.141,-0.578 0,-0.838l0,-0.7c1.262,-0.178 2.528,-0.462 3.774,-0.853c0.46,-0.144 0.716,-0.631 0.573,-1.094c-0.117,-0.372 -0.461,-0.609 -0.834,-0.609c-0.085,0 -0.173,0.012 -0.259,0.037c-0.066,0.022 -0.132,0.041 -0.199,0.063c0.807,-1.231 1.521,-2.494 2.125,-3.759c0.209,-0.435 0.025,-0.957 -0.41,-1.163c-0.121,-0.059 -0.25,-0.087 -0.376,-0.087c-0.325,0 -0.637,0.184 -0.787,0.496c-0.631,1.319 -1.389,2.638 -2.253,3.922c-0.217,0.322 -0.19,0.735 0.037,1.025c-0.463,0.103 -0.928,0.188 -1.391,0.26l0,-25.71l8.014,-0.509c1.507,6.975 7.326,12.462 14.707,13.294c-6.779,24.612 -21.112,51.047 -45.662,57.862c-3.917,1.088 -7.789,1.591 -11.596,1.591c-11.251,0 -21.938,-4.394 -31.573,-11.1c-4.672,-3.25 -10.027,-4.869 -15.392,-4.869c-6.333,0 -12.681,2.256 -17.943,6.753c-3.677,3.141 -7.776,5.797 -12.329,7.678c-6.01,2.482 -11.636,3.128 -16.069,3.128Zm-26.101,-46.059c-0.274,0 -0.544,0.128 -0.714,0.369c-0.277,0.394 -0.184,0.937 0.21,1.215c1.267,0.894 2.593,1.763 3.944,2.585c0.142,0.084 0.298,0.125 0.452,0.125c0.295,0 0.583,-0.15 0.747,-0.419c0.25,-0.412 0.119,-0.95 -0.293,-1.2c-1.317,-0.797 -2.611,-1.644 -3.844,-2.516c-0.153,-0.106 -0.328,-0.159 -0.502,-0.159Zm-7.172,-5.928c-0.227,0 -0.453,0.087 -0.624,0.262c-0.312,0.322 -0.329,0.819 -0.054,1.16c0.059,0.084 0.133,0.159 0.219,0.222c1.055,1.022 2.188,2.031 3.371,3.006c0.162,0.134 0.359,0.2 0.554,0.2c0.251,0 0.501,-0.109 0.673,-0.319c0.307,-0.372 0.254,-0.922 -0.118,-1.228c-0.377,-0.309 -0.749,-0.625 -1.115,-0.941c0.542,0.082 1.083,0.154 1.622,0.213c0.033,0.003 0.067,0.003 0.099,0.003c0.441,0 0.815,-0.328 0.864,-0.775c0.053,-0.478 -0.292,-0.909 -0.771,-0.962c-1.42,-0.16 -2.854,-0.397 -4.267,-0.713c-0.139,-0.084 -0.296,-0.128 -0.453,-0.128Zm172.814,-1.247c-0.186,0 -0.373,0.059 -0.532,0.181c-1.204,0.928 -2.476,1.75 -3.778,2.444c-0.426,0.225 -0.587,0.753 -0.361,1.178c0.157,0.297 0.459,0.466 0.771,0.466c0.138,0 0.278,-0.035 0.409,-0.103c1.389,-0.738 2.743,-1.616 4.025,-2.603c0.381,-0.294 0.452,-0.841 0.158,-1.222c-0.172,-0.222 -0.43,-0.341 -0.692,-0.341Zm-158.896,2.003c-0.037,0 -0.074,0 -0.111,0.006c-0.361,0.044 -0.653,0.075 -0.9,0.1c-1.206,0.129 -2.433,0.2 -3.648,0.21c-0.482,0.003 -0.868,0.397 -0.864,0.881c0.004,0.478 0.394,0.863 0.872,0.863l0.008,0c1.271,-0.01 2.555,-0.085 3.853,-0.222c0.217,-0.022 0.516,-0.057 0.885,-0.1c0.479,-0.057 0.82,-0.491 0.763,-0.969c-0.053,-0.441 -0.428,-0.769 -0.858,-0.769Zm-22.636,-3.778c-0.325,0 -0.637,0.184 -0.787,0.497c-0.209,0.434 -0.025,0.956 0.409,1.162c1.429,0.688 2.904,1.297 4.383,1.819c0.096,0.031 0.194,0.05 0.29,0.05c0.359,0 0.697,-0.225 0.823,-0.584c0.16,-0.453 -0.08,-0.953 -0.534,-1.113c-1.42,-0.5 -2.835,-1.084 -4.207,-1.743c-0.122,-0.06 -0.25,-0.088 -0.377,-0.088Zm2.77,-4.106c-0.164,0 -0.33,0.044 -0.477,0.14c-0.404,0.266 -0.516,0.807 -0.252,1.21c0.838,1.278 1.795,2.559 2.844,3.809c0.172,0.203 0.419,0.31 0.668,0.31c0.198,0 0.397,-0.066 0.561,-0.204c0.368,-0.309 0.416,-0.859 0.106,-1.228c-1.004,-1.197 -1.919,-2.422 -2.72,-3.643c-0.167,-0.257 -0.446,-0.394 -0.73,-0.394Zm185.157,-0.828c-0.274,0 -0.544,0.128 -0.714,0.368c-0.876,1.241 -1.84,2.419 -2.865,3.497c-0.332,0.35 -0.317,0.9 0.032,1.235c0.169,0.159 0.385,0.237 0.6,0.237c0.231,0 0.462,-0.09 0.633,-0.272c1.083,-1.14 2.101,-2.381 3.026,-3.69c0.277,-0.394 0.184,-0.941 -0.21,-1.216c-0.153,-0.109 -0.329,-0.159 -0.502,-0.159Zm-195.825,0.05c-0.26,0 -0.518,0.115 -0.69,0.337c-0.295,0.381 -0.226,0.928 0.155,1.225c1.246,0.966 2.556,1.875 3.895,2.706c0.142,0.088 0.301,0.129 0.458,0.129c0.292,0 0.577,-0.147 0.742,-0.413c0.254,-0.409 0.127,-0.947 -0.283,-1.2c-1.286,-0.797 -2.545,-1.672 -3.743,-2.6c-0.159,-0.125 -0.347,-0.184 -0.534,-0.184Zm184.513,-2.853c-0.48,0 -0.854,0.362 -0.875,0.831c-0.066,1.425 -0.307,2.903 -0.716,4.39c-0.127,0.466 0.146,0.944 0.611,1.072c0.077,0.022 0.155,0.032 0.231,0.032c0.383,0 0.734,-0.254 0.841,-0.641c0.442,-1.613 0.703,-3.219 0.776,-4.772c0.022,-0.481 -0.35,-0.887 -0.831,-0.912l-0.037,0Zm-191.203,-3.588c-0.198,0 -0.396,0.066 -0.559,0.203c-0.37,0.31 -0.419,0.86 -0.11,1.228c1.008,1.207 2.096,2.372 3.236,3.469c0.17,0.163 0.387,0.244 0.605,0.244c0.229,0 0.457,-0.088 0.629,-0.266c0.334,-0.35 0.323,-0.9 -0.024,-1.234c-1.095,-1.053 -2.14,-2.175 -3.108,-3.331c-0.172,-0.207 -0.42,-0.313 -0.669,-0.313Zm13.493,-1.2c-0.075,0 -0.152,0.009 -0.229,0.031c-0.465,0.125 -0.741,0.603 -0.616,1.069c0.403,1.5 0.958,3.016 1.65,4.503c0.148,0.316 0.463,0.503 0.791,0.503c0.124,0 0.249,-0.025 0.368,-0.081c0.437,-0.203 0.626,-0.722 0.423,-1.159c-0.65,-1.397 -1.17,-2.816 -1.547,-4.219c-0.104,-0.388 -0.456,-0.647 -0.84,-0.647Zm175.983,-4.284c-0.11,0 -0.222,0.018 -0.33,0.062c-0.446,0.185 -0.659,0.694 -0.477,1.141c0.582,1.419 1.021,2.862 1.306,4.284c0.083,0.416 0.447,0.703 0.855,0.703c0.056,0 0.114,-0.006 0.172,-0.018c0.472,-0.094 0.778,-0.554 0.684,-1.025c-0.306,-1.532 -0.779,-3.082 -1.402,-4.607c-0.138,-0.337 -0.465,-0.54 -0.808,-0.54Zm-194.6,-2.257c-0.134,0 -0.269,0.032 -0.395,0.094c-0.429,0.219 -0.6,0.744 -0.382,1.175c0.715,1.403 1.52,2.781 2.393,4.1c0.168,0.253 0.445,0.391 0.728,0.391c0.166,0 0.333,-0.047 0.482,-0.144c0.401,-0.269 0.511,-0.809 0.245,-1.209c-0.837,-1.263 -1.608,-2.585 -2.293,-3.932c-0.154,-0.3 -0.461,-0.475 -0.778,-0.475Zm18.034,-2.671c-0.429,0 -0.8,0.315 -0.862,0.75c-0.158,1.1 -0.238,2.215 -0.238,3.318c0,0.5 0.017,1.003 0.049,1.5c0.03,0.463 0.413,0.816 0.869,0.816l0.058,-0.003c0.481,-0.031 0.845,-0.444 0.814,-0.925c-0.03,-0.46 -0.045,-0.925 -0.045,-1.388c0,-1.022 0.074,-2.053 0.22,-3.072c0.068,-0.475 -0.263,-0.918 -0.739,-0.987c-0.043,-0.006 -0.085,-0.009 -0.126,-0.009Zm-21.285,-6.025c-0.07,0 -0.141,0.009 -0.212,0.025c-0.467,0.118 -0.751,0.593 -0.633,1.059c0.387,1.541 0.861,3.066 1.409,4.534c0.131,0.35 0.464,0.566 0.817,0.566c0.102,0 0.205,-0.019 0.306,-0.056c0.451,-0.169 0.68,-0.669 0.511,-1.122c-0.525,-1.406 -0.98,-2.872 -1.351,-4.347c-0.1,-0.397 -0.456,-0.659 -0.847,-0.659Zm24.218,-2.76c-0.314,0 -0.619,0.172 -0.774,0.469c-0.753,1.45 -1.388,2.928 -1.887,4.394c-0.155,0.456 0.09,0.953 0.545,1.106c0.094,0.031 0.188,0.047 0.281,0.047c0.364,0 0.703,-0.228 0.826,-0.591c0.47,-1.384 1.07,-2.781 1.783,-4.15c0.222,-0.428 0.055,-0.953 -0.372,-1.178c-0.128,-0.066 -0.266,-0.097 -0.402,-0.097Zm5.335,-7.594c-0.236,0 -0.472,0.094 -0.644,0.282c-1.072,1.175 -2.076,2.425 -2.983,3.712c-0.277,0.394 -0.183,0.938 0.211,1.216c0.153,0.106 0.328,0.159 0.501,0.159c0.275,0 0.544,-0.131 0.714,-0.372c0.865,-1.228 1.822,-2.418 2.845,-3.537c0.325,-0.356 0.3,-0.906 -0.056,-1.235c-0.167,-0.15 -0.378,-0.225 -0.588,-0.225Zm7.087,-5.99c-0.16,0 -0.323,0.044 -0.468,0.134c-1.317,0.841 -2.607,1.791 -3.835,2.831c-0.367,0.313 -0.413,0.863 -0.101,1.232c0.172,0.203 0.418,0.306 0.665,0.306c0.2,0 0.4,-0.066 0.564,-0.206c1.167,-0.988 2.393,-1.894 3.644,-2.691c0.407,-0.259 0.526,-0.797 0.268,-1.203c-0.166,-0.263 -0.449,-0.403 -0.737,-0.403Zm8.492,-3.694c-0.068,0 -0.138,0.006 -0.207,0.025c-1.517,0.369 -3.044,0.888 -4.54,1.547c-0.441,0.194 -0.642,0.706 -0.448,1.147c0.144,0.328 0.464,0.522 0.8,0.522c0.116,0 0.236,-0.022 0.35,-0.072c1.402,-0.616 2.833,-1.103 4.25,-1.45c0.468,-0.113 0.755,-0.585 0.642,-1.053c-0.097,-0.4 -0.454,-0.666 -0.847,-0.666Zm162.239,11.172l-0.673,-10.594l2.657,-0.644c0.815,-0.196 1.321,-1.025 1.122,-1.84l-5.644,-23.266c-0.169,-0.694 -0.797,-1.165 -1.485,-1.165c-0.118,0 -0.238,0.015 -0.357,0.043l-20.396,4.95l0,-18.5c0,-3.237 -2.624,-5.862 -5.862,-5.862l-40.639,0l-11.076,-8.406c-0.963,-0.735 -2.112,-1.1 -3.261,-1.1c-1.148,0 -2.297,0.365 -3.26,1.1l-11.076,8.406l-41.067,0l0.07,-0.091c3.875,-1.531 7.789,-2.919 11.703,-4.156c2.039,-4.363 4.626,-8.575 7.874,-12.547c12.851,-15.722 31.95,-22.862 51.496,-22.862c19.276,0 38.987,6.94 53.589,19.437c26.181,22.406 29.402,57.097 29.31,74.063c-0.577,-0.1 -1.165,-0.175 -1.762,-0.216c-0.411,-0.028 -0.819,-0.044 -1.224,-0.044c-3.728,0 -7.21,1.216 -10.039,3.294Z" style="fill:#fff;fill-opacity:0.5;fill-rule:nonzero;"/><path d="M208.249,94.746l0,74.394c0,0.09 -0.005,0.181 -0.009,0.275c0,0.044 -0.005,0.084 -0.009,0.128c0,0.041 -0.004,0.081 -0.008,0.125l-0.005,0.053c-0.004,0.028 -0.009,0.056 -0.013,0.081c-0.004,0.066 -0.017,0.128 -0.026,0.194c-0.008,0.059 -0.021,0.125 -0.034,0.184c-0.004,0.032 -0.013,0.063 -0.021,0.091l-0.014,0.069c-0.004,0.031 -0.012,0.062 -0.021,0.09c-0.013,0.057 -0.03,0.113 -0.043,0.166l-0.009,0.028c-0.03,0.097 -0.056,0.191 -0.09,0.281l-0.004,0.013c-0.018,0.047 -0.035,0.097 -0.052,0.137c-0.017,0.044 -0.035,0.085 -0.048,0.122l-0.013,0.035c-0.051,0.115 -0.103,0.237 -0.163,0.35c-0.018,0.034 -0.039,0.078 -0.061,0.115c-0.021,0.038 -0.043,0.072 -0.064,0.113c-0.022,0.034 -0.039,0.072 -0.065,0.106c-0.043,0.075 -0.091,0.147 -0.138,0.216c-0.03,0.047 -0.06,0.087 -0.086,0.131c-0.073,0.094 -0.142,0.187 -0.22,0.278c-0.056,0.069 -0.112,0.134 -0.168,0.194c-0.056,0.065 -0.116,0.125 -0.177,0.187c-0.025,0.028 -0.056,0.057 -0.086,0.085c-0.026,0.025 -0.052,0.053 -0.082,0.075c-0.03,0.028 -0.064,0.059 -0.099,0.09l-0.03,0.025c-0.082,0.072 -0.168,0.141 -0.254,0.207l-0.026,0.021c-0.069,0.047 -0.138,0.1 -0.211,0.147l-0.069,0.047c-0.039,0.025 -0.078,0.053 -0.117,0.075c-0.03,0.019 -0.06,0.038 -0.095,0.053c-0.034,0.022 -0.068,0.044 -0.103,0.063c-0.241,0.137 -0.496,0.253 -0.758,0.347l-0.048,0.018l-0.056,0.016c-0.06,0.022 -0.12,0.044 -0.185,0.063c-0.108,0.034 -0.215,0.059 -0.323,0.084c-0.057,0.012 -0.113,0.028 -0.168,0.041c-0.035,0.006 -0.074,0.012 -0.108,0.015c-0.043,0.01 -0.091,0.019 -0.134,0.028l-0.017,0.003c-0.035,0.004 -0.069,0.01 -0.108,0.013l-0.052,0.003c-0.03,0.006 -0.064,0.009 -0.095,0.016l-0.055,0.003c-0.065,0.003 -0.134,0.009 -0.199,0.012c-0.094,0.003 -0.189,0.01 -0.284,0.01l-131.433,0c-0.095,0 -0.189,-0.007 -0.284,-0.01c-0.065,-0.003 -0.134,-0.009 -0.198,-0.012c-0.074,-0.003 -0.147,-0.013 -0.22,-0.025c-0.043,-0.006 -0.087,-0.01 -0.125,-0.019c-0.104,-0.012 -0.207,-0.034 -0.306,-0.056c-0.031,-0.003 -0.056,-0.013 -0.086,-0.022c-0.108,-0.025 -0.216,-0.05 -0.324,-0.084c-0.064,-0.022 -0.125,-0.041 -0.185,-0.063c-0.289,-0.097 -0.569,-0.222 -0.836,-0.366c-0.065,-0.037 -0.13,-0.078 -0.194,-0.115c-0.073,-0.044 -0.146,-0.091 -0.216,-0.138c-0.426,-0.29 -0.805,-0.634 -1.133,-1.031c-0.077,-0.091 -0.151,-0.184 -0.22,-0.284c-0.237,-0.328 -0.435,-0.682 -0.59,-1.06c-0.035,-0.087 -0.069,-0.181 -0.104,-0.272c-0.034,-0.09 -0.06,-0.184 -0.09,-0.281c-0.026,-0.094 -0.052,-0.187 -0.073,-0.284c-0.022,-0.091 -0.039,-0.175 -0.056,-0.266l-0.009,-0.044c-0.013,-0.084 -0.026,-0.175 -0.035,-0.262l-0.004,-0.022c-0.008,-0.069 -0.013,-0.134 -0.017,-0.203c-0.013,-0.131 -0.017,-0.266 -0.017,-0.403l0,-74.394c0,-0.641 0.112,-1.25 0.318,-1.819c0.328,-0.903 0.893,-1.69 1.621,-2.29l0.034,-0.025l0.276,-0.213c0.867,-0.615 1.927,-0.978 3.073,-0.978l131.433,0c0.129,0 0.254,0.006 0.379,0.019l0.069,0.003c0.121,0.009 0.246,0.022 0.362,0.041l0.082,0.012c0.103,0.016 0.207,0.038 0.306,0.063l0.078,0.018c0.125,0.032 0.245,0.066 0.366,0.103c0.112,0.035 0.228,0.079 0.336,0.122c0.155,0.06 0.306,0.132 0.453,0.21c0.082,0.04 0.163,0.084 0.241,0.131c0.138,0.078 0.271,0.162 0.396,0.256l0.005,0l0.275,0.213l0.035,0.025c0.073,0.056 0.138,0.118 0.203,0.178c0.052,0.044 0.099,0.09 0.146,0.137c0.147,0.144 0.285,0.294 0.414,0.457c0.06,0.075 0.116,0.146 0.168,0.221c0.224,0.304 0.414,0.638 0.564,0.991c0.044,0.094 0.082,0.194 0.121,0.291l0.004,0.015c0.061,0.16 0.108,0.322 0.151,0.485c0.022,0.084 0.039,0.159 0.056,0.243c0.013,0.063 0.026,0.125 0.035,0.188c0.013,0.066 0.021,0.131 0.03,0.194c0.013,0.078 0.022,0.156 0.026,0.234c0.008,0.066 0.013,0.134 0.013,0.197c0.004,0.091 0.009,0.187 0.009,0.278Z" style="fill:#d5dee3;fill-rule:nonzero;"/><path d="M207.929,92.927l-141.44,0c0.328,-0.903 0.893,-1.69 1.621,-2.29l0.034,-0.025l0.276,-0.213l65.529,-49.74c1.927,-1.466 4.595,-1.466 6.521,0l65.524,49.74l0.005,0l0.275,0.213l0.035,0.025c0.073,0.056 0.138,0.118 0.203,0.178c0.052,0.044 0.099,0.09 0.146,0.137c0.147,0.144 0.285,0.294 0.414,0.457c0.06,0.075 0.116,0.146 0.168,0.221c0.224,0.304 0.414,0.638 0.564,0.991c0.044,0.094 0.082,0.194 0.121,0.291l0.004,0.015Z" style="fill:#5d8fcb;fill-rule:nonzero;"/><path d="M198.047,170.587l-123.429,0l0,-115.66c0,-3.237 2.624,-5.862 5.862,-5.862l111.705,0c3.238,0 5.862,2.625 5.862,5.862l0,115.66Z" style="fill:#fff;fill-rule:nonzero;"/><path d="M182.569,75.955l-92.473,0c-0.782,0 -1.422,-0.637 -1.422,-1.421l0,-2.76c0,-0.781 0.64,-1.422 1.422,-1.422l92.473,0c0.782,0 1.422,0.641 1.422,1.422l0,2.76c0,0.784 -0.64,1.421 -1.422,1.421Z" style="fill:#dae6f5;fill-rule:nonzero;"/><path d="M182.569,87.924l-92.473,0c-0.782,0 -1.422,-0.637 -1.422,-1.419l0,-2.762c0,-0.781 0.64,-1.422 1.422,-1.422l92.473,0c0.782,0 1.421,0.641 1.421,1.422l0,2.762c0,0.782 -0.639,1.419 -1.421,1.419Z" style="fill:#dae6f5;fill-rule:nonzero;"/><path d="M182.569,99.896l-92.473,0c-0.782,0 -1.422,-0.641 -1.422,-1.422l0,-2.759c0,-0.785 0.64,-1.422 1.422,-1.422l92.473,0c0.782,0 1.421,0.637 1.421,1.422l0,2.759c0,0.781 -0.639,1.422 -1.421,1.422Z" style="fill:#dae6f5;fill-rule:nonzero;"/><path d="M182.569,111.865l-92.473,0c-0.782,0 -1.422,-0.641 -1.422,-1.422l0,-2.759c0,-0.785 0.64,-1.422 1.422,-1.422l92.473,0c0.782,0 1.421,0.637 1.421,1.422l0,2.759c0,0.781 -0.639,1.422 -1.421,1.422Z" style="fill:#dae6f5;fill-rule:nonzero;"/><path d="M182.569,123.834l-92.473,0c-0.782,0 -1.422,-0.641 -1.422,-1.422l0,-2.76c0,-0.784 0.64,-1.422 1.422,-1.422l92.473,0c0.782,0 1.421,0.638 1.421,1.422l0,2.76c0,0.781 -0.639,1.422 -1.421,1.422Z" style="fill:#dae6f5;fill-rule:nonzero;"/><path d="M137.212,133.937l0,0.006c-0.207,0.222 -0.453,0.428 -0.733,0.603l-64.693,39.916l-0.293,0c-0.539,0 -1.056,-0.078 -1.543,-0.228c-0.069,-0.022 -0.137,-0.044 -0.202,-0.066c-0.849,-0.294 -1.604,-0.797 -2.194,-1.453c-0.056,-0.06 -0.112,-0.125 -0.168,-0.194c-0.164,-0.194 -0.31,-0.403 -0.444,-0.625c-0.047,-0.072 -0.086,-0.147 -0.129,-0.219c-0.039,-0.078 -0.082,-0.156 -0.117,-0.234c-0.336,-0.697 -0.525,-1.478 -0.525,-2.303l0,-74.394c0,-0.641 0.112,-1.25 0.318,-1.819c0.328,-0.903 0.893,-1.69 1.621,-2.29l0.034,-0.025l0.276,-0.213c0.867,-0.615 1.927,-0.978 3.073,-0.978l1.215,0l5.681,3.506l52.363,32.31l1.969,1.215l3.758,2.319c0.28,0.172 0.526,0.378 0.733,0.603l0,0.003c1.167,1.282 1.167,3.285 0,4.56Z" style="fill:#477abd;fill-rule:nonzero;"/><path d="M208.249,94.746l0,74.394c0,0.09 -0.005,0.181 -0.009,0.275c0,0.044 -0.005,0.084 -0.009,0.128c0,0.041 -0.004,0.081 -0.008,0.125l-0.005,0.053c-0.004,0.028 -0.009,0.056 -0.013,0.081c-0.004,0.066 -0.017,0.128 -0.026,0.194c-0.008,0.059 -0.021,0.125 -0.034,0.184l-0.004,0.032l-0.017,0.059l-0.014,0.069c-0.004,0.031 -0.012,0.062 -0.021,0.09c-0.013,0.057 -0.026,0.11 -0.043,0.166l-0.009,0.028c-0.026,0.097 -0.056,0.191 -0.09,0.281l-0.004,0.013c-0.018,0.047 -0.031,0.091 -0.052,0.137c-0.013,0.041 -0.031,0.079 -0.048,0.122l-0.013,0.035c-0.051,0.115 -0.103,0.237 -0.163,0.35c-0.018,0.034 -0.039,0.078 -0.061,0.115c-0.021,0.038 -0.043,0.072 -0.064,0.113c-0.022,0.034 -0.039,0.072 -0.065,0.106c-0.043,0.075 -0.091,0.147 -0.138,0.216c-0.03,0.047 -0.06,0.087 -0.086,0.131c-0.073,0.097 -0.147,0.187 -0.22,0.278c-0.056,0.069 -0.112,0.134 -0.168,0.194c-0.056,0.065 -0.116,0.125 -0.177,0.187c-0.025,0.028 -0.056,0.057 -0.086,0.085c-0.026,0.025 -0.052,0.053 -0.082,0.075c-0.03,0.028 -0.064,0.059 -0.099,0.09l-0.03,0.025c-0.082,0.072 -0.168,0.141 -0.254,0.207l-0.026,0.021c-0.069,0.047 -0.138,0.1 -0.211,0.147l-0.069,0.047c-0.039,0.025 -0.078,0.053 -0.117,0.075c-0.03,0.019 -0.06,0.038 -0.095,0.053c-0.034,0.022 -0.068,0.044 -0.103,0.063c-0.241,0.137 -0.496,0.253 -0.758,0.347l-0.048,0.018l-0.056,0.016c-0.06,0.022 -0.12,0.044 -0.185,0.063c-0.108,0.034 -0.215,0.059 -0.323,0.084c-0.057,0.012 -0.113,0.028 -0.168,0.041c-0.035,0.006 -0.074,0.012 -0.108,0.015c-0.043,0.01 -0.091,0.019 -0.134,0.028l-0.013,0c-0.039,0.003 -0.077,0.013 -0.112,0.016l-0.052,0.003c-0.03,0.006 -0.06,0.009 -0.095,0.016l-0.055,0.003c-0.065,0.003 -0.134,0.009 -0.199,0.012c-0.094,0.003 -0.189,0.01 -0.284,0.01l-0.293,0l-64.693,-39.916c-0.28,-0.175 -0.526,-0.381 -0.728,-0.603l0,-0.006c-1.173,-1.278 -1.173,-3.275 0,-4.56l0,-0.003c0.202,-0.225 0.448,-0.431 0.728,-0.603l3.754,-2.319l1.969,-1.215l52.367,-32.31l5.681,-3.506l1.215,0c0.129,0 0.254,0.006 0.379,0.019l0.069,0.003c0.121,0.009 0.246,0.022 0.362,0.041l0.082,0.012c0.103,0.016 0.207,0.038 0.306,0.063l0.078,0.018c0.125,0.032 0.245,0.066 0.366,0.103c0.112,0.035 0.228,0.079 0.336,0.122c0.155,0.06 0.306,0.132 0.453,0.21c0.082,0.04 0.163,0.084 0.241,0.131c0.138,0.078 0.271,0.162 0.396,0.256l0.005,0l0.275,0.213l0.035,0.025c0.073,0.056 0.138,0.118 0.203,0.178c0.052,0.044 0.099,0.09 0.146,0.137c0.147,0.144 0.285,0.294 0.414,0.457c0.06,0.075 0.116,0.146 0.168,0.221c0.224,0.304 0.414,0.638 0.564,0.991c0.044,0.094 0.082,0.194 0.121,0.291l0.004,0.015c0.061,0.16 0.108,0.322 0.151,0.485c0.022,0.084 0.039,0.159 0.056,0.243c0.013,0.063 0.026,0.125 0.035,0.188c0.013,0.066 0.021,0.131 0.03,0.194c0.013,0.078 0.022,0.156 0.026,0.234c0.008,0.066 0.013,0.134 0.013,0.197c0.004,0.091 0.009,0.187 0.009,0.278Z" style="fill:#477abd;fill-rule:nonzero;"/><path d="M202.926,174.462l-131.454,0l131.454,0c0.095,0 0.19,-0.007 0.284,-0.01c0.052,-0.003 0.106,-0.006 0.159,-0.009c-0.146,0.012 -0.294,0.019 -0.443,0.019Z" style="fill:#c0c2c2;fill-rule:nonzero;"/><path d="M202.633,174.462l-130.847,0l6.277,-3.875l118.293,0l6.277,3.875Z" style="fill:#a7afb4;fill-rule:nonzero;"/><path d="M196.356,170.587l-118.293,0l10.601,-6.538c0.14,0.094 0.309,0.15 0.49,0.15l0.043,0c1.552,-0.075 3.136,-0.222 4.705,-0.431c0.477,-0.063 0.813,-0.503 0.749,-0.981c-0.058,-0.438 -0.431,-0.757 -0.862,-0.757c-0.039,0 -0.078,0.004 -0.118,0.01c-0.715,0.094 -1.432,0.175 -2.148,0.244l44.956,-27.738c0.28,-0.175 0.526,-0.381 0.733,-0.603l0,-0.006l0,0.006c0.202,0.222 0.448,0.428 0.728,0.603l49.393,30.475c0.139,0.206 0.362,0.344 0.609,0.375l8.414,5.191Zm-17.508,-5.894c-0.46,0 -0.856,0.366 -0.875,0.837c-0.02,0.482 0.355,0.888 0.836,0.907c0.415,0.015 0.829,0.025 1.244,0.025c1.165,0 2.354,-0.069 3.534,-0.203c0.478,-0.057 0.822,-0.488 0.767,-0.966c-0.05,-0.444 -0.428,-0.775 -0.863,-0.775c-0.034,0 -0.068,0.003 -0.103,0.006c-1.116,0.128 -2.229,0.194 -3.338,0.194c-0.391,0 -0.781,-0.009 -1.17,-0.025l-0.032,0Zm-9.059,-1.913c-0.348,0 -0.676,0.207 -0.812,0.55c-0.178,0.45 0.042,0.957 0.49,1.132c1.487,0.587 3.03,1.053 4.586,1.381c0.061,0.012 0.121,0.019 0.181,0.019c0.404,0 0.766,-0.282 0.853,-0.691c0.099,-0.472 -0.202,-0.934 -0.673,-1.034c-1.461,-0.31 -2.91,-0.744 -4.305,-1.297c-0.105,-0.041 -0.214,-0.06 -0.32,-0.06Zm-66.91,-2.693c-0.082,0 -0.165,0.009 -0.247,0.034c-1.471,0.434 -2.966,0.816 -4.446,1.131c-0.471,0.103 -0.77,0.566 -0.669,1.038c0.088,0.409 0.449,0.687 0.852,0.687c0.06,0 0.122,-0.006 0.184,-0.018c1.521,-0.329 3.06,-0.719 4.572,-1.166c0.463,-0.134 0.726,-0.619 0.59,-1.081c-0.111,-0.382 -0.459,-0.625 -0.836,-0.625Zm58.933,-2.025c-0.254,0 -0.506,0.109 -0.678,0.325c-0.303,0.375 -0.246,0.922 0.129,1.225c1.26,1.022 2.576,1.94 3.912,2.737c0.14,0.081 0.294,0.122 0.445,0.122c0.298,0 0.588,-0.153 0.751,-0.425c0.246,-0.416 0.11,-0.95 -0.304,-1.197c-1.264,-0.753 -2.512,-1.625 -3.706,-2.594c-0.162,-0.128 -0.356,-0.193 -0.549,-0.193Zm-50.217,-1.222c-0.121,0 -0.243,0.025 -0.36,0.078c-1.392,0.631 -2.821,1.219 -4.247,1.75c-0.451,0.169 -0.68,0.672 -0.512,1.122c0.131,0.353 0.463,0.569 0.818,0.569c0.1,0 0.204,-0.019 0.304,-0.057c1.462,-0.543 2.928,-1.15 4.357,-1.797c0.439,-0.196 0.634,-0.715 0.435,-1.153c-0.146,-0.322 -0.463,-0.512 -0.795,-0.512Zm43.767,-5.463c-0.185,0 -0.372,0.06 -0.531,0.182c-0.382,0.293 -0.453,0.84 -0.16,1.221c0.982,1.279 2.022,2.491 3.092,3.607c0.171,0.178 0.4,0.268 0.629,0.268c0.217,0 0.435,-0.081 0.604,-0.243c0.348,-0.335 0.359,-0.885 0.026,-1.235c-1.027,-1.068 -2.024,-2.231 -2.968,-3.459c-0.172,-0.225 -0.43,-0.341 -0.692,-0.341Zm-36.073,1.328c-0.161,0 -0.324,0.044 -0.469,0.138c-1.075,0.687 -2.242,1.372 -3.469,2.034c-0.424,0.228 -0.582,0.76 -0.352,1.182c0.157,0.293 0.458,0.459 0.768,0.459c0.14,0 0.282,-0.034 0.414,-0.106c1.263,-0.685 2.468,-1.391 3.578,-2.1c0.406,-0.26 0.525,-0.8 0.266,-1.203c-0.167,-0.263 -0.449,-0.404 -0.736,-0.404Zm31.145,-9.221c-0.13,0 -0.262,0.031 -0.387,0.093c-0.431,0.213 -0.607,0.738 -0.393,1.169c0.692,1.391 1.472,2.781 2.317,4.138c0.165,0.265 0.45,0.412 0.741,0.412c0.158,0 0.317,-0.044 0.461,-0.134c0.409,-0.253 0.533,-0.794 0.278,-1.2c-0.816,-1.31 -1.567,-2.653 -2.234,-3.994c-0.153,-0.306 -0.462,-0.484 -0.783,-0.484Z" style="fill:#c0c2c2;fill-rule:nonzero;"/><path d="M71.461,174.462l-0.006,0l0.006,0Z" style="fill:#c0c2c2;fill-rule:nonzero;"/><path d="M137.212,129.377l0,-0.003c-0.207,-0.225 -0.453,-0.431 -0.733,-0.603l-3.758,-2.319l-1.651,-1.018l2.432,-1.6l7.411,0l2.432,1.6l-1.651,1.018l-3.754,2.319c-0.28,0.172 -0.526,0.378 -0.728,0.603l0,0.003Z" style="fill:#c0c2c2;fill-rule:nonzero;"/><path d="M140.913,123.834l-7.411,0l0.271,-0.179c1.049,-0.69 2.242,-1.037 3.434,-1.037c1.193,0 2.386,0.347 3.435,1.037l0.271,0.179Z" style="fill:#aab3bd;fill-rule:nonzero;"/><path d="M71.786,174.462l-0.331,0c-2.921,-0.022 -5.284,-2.5 -5.284,-5.557l0,-0.775l8.129,-5.346c0.266,0.065 0.532,0.128 0.797,0.19c0.066,0.013 0.132,0.022 0.196,0.022c0.397,0 0.757,-0.275 0.85,-0.678c0.055,-0.241 0.005,-0.478 -0.119,-0.669l55.046,-36.215l1.651,1.018l3.758,2.319c0.28,0.172 0.526,0.378 0.733,0.603l0,0.003c-1.173,1.285 -1.173,3.282 0,4.56l0,0.006c-0.207,0.222 -0.453,0.428 -0.733,0.603l-44.956,27.738c-0.808,0.075 -1.614,0.134 -2.411,0.171c-0.481,0.022 -0.852,0.432 -0.829,0.913c0.014,0.284 0.162,0.531 0.381,0.681l-10.601,6.538l-6.277,3.875Zm8.078,-12.385c-0.428,0 -0.801,0.322 -0.859,0.76c-0.063,0.478 0.273,0.915 0.75,0.978c1.553,0.206 3.139,0.344 4.714,0.406l0.036,0c0.465,0 0.852,-0.369 0.871,-0.837c0.019,-0.482 -0.356,-0.888 -0.837,-0.907c-1.523,-0.059 -3.055,-0.193 -4.555,-0.39c-0.04,-0.007 -0.08,-0.01 -0.12,-0.01Z" style="fill:#3e73b9;fill-rule:nonzero;"/><path d="M202.926,174.462l-0.293,0l-6.277,-3.875l-8.414,-5.191c0.037,0.006 0.074,0.009 0.112,0.009c0.073,0 0.148,-0.012 0.222,-0.031c1.508,-0.394 3.029,-0.903 4.518,-1.506c0.446,-0.181 0.661,-0.691 0.479,-1.138c-0.138,-0.337 -0.464,-0.543 -0.808,-0.543c-0.11,0 -0.221,0.022 -0.329,0.065c-1.418,0.575 -2.867,1.06 -4.302,1.435c-0.466,0.122 -0.745,0.6 -0.623,1.065c0.026,0.1 0.068,0.188 0.122,0.269l-49.393,-30.475c-0.28,-0.175 -0.526,-0.381 -0.728,-0.603l0,-0.006c-1.173,-1.278 -1.173,-3.275 0,-4.56l0,-0.003c0.202,-0.225 0.448,-0.431 0.728,-0.603l3.754,-2.319l1.651,-1.018l52.938,34.825c-0.015,0.009 -0.031,0.018 -0.047,0.028c-0.421,0.234 -0.573,0.762 -0.34,1.184c0.16,0.288 0.457,0.45 0.764,0.45c0.143,0 0.289,-0.034 0.422,-0.109c0.28,-0.157 0.558,-0.316 0.836,-0.475l10.331,6.793l0,0.775c0,2.913 -2.148,5.304 -4.88,5.538c-0.053,0.003 -0.107,0.006 -0.159,0.009c-0.094,0.003 -0.189,0.01 -0.284,0.01Z" style="fill:#3e73b9;fill-rule:nonzero;"/><path d="M208.249,168.396l0,0.744c0,2.937 -2.384,5.322 -5.323,5.322l-131.433,0c-2.939,0 -5.322,-2.385 -5.322,-5.322l0,-0.744l67.602,-42.609c2.098,-1.322 4.771,-1.322 6.869,0l67.607,42.609Z" style="fill:#5d8fcb;fill-rule:nonzero;"/><path d="M131.427,63.987l-41.331,0c-0.782,0 -1.422,-0.638 -1.422,-1.422l0,-2.76c0,-0.781 0.64,-1.421 1.422,-1.421l41.331,0c0.782,0 1.422,0.64 1.422,1.421l0,2.76c0,0.784 -0.64,1.422 -1.422,1.422Z" style="fill:#477abd;fill-rule:nonzero;"/><path d="M47.039,61.565c-0.36,0 -0.696,-0.222 -0.823,-0.581c-0.16,-0.454 0.078,-0.954 0.532,-1.113c1.475,-0.522 2.994,-0.987 4.516,-1.384c0.465,-0.125 0.942,0.156 1.065,0.622c0.121,0.465 -0.157,0.943 -0.624,1.065c-1.474,0.385 -2.946,0.838 -4.376,1.341c-0.096,0.034 -0.194,0.05 -0.29,0.05Zm-8.474,3.834c-0.305,0 -0.601,-0.162 -0.761,-0.447c-0.236,-0.422 -0.086,-0.953 0.334,-1.187c1.365,-0.766 2.785,-1.481 4.222,-2.131c0.44,-0.2 0.956,-0.004 1.154,0.434c0.199,0.441 0.004,0.956 -0.435,1.156c-1.391,0.628 -2.767,1.322 -4.088,2.063c-0.135,0.075 -0.281,0.112 -0.426,0.112Zm-7.675,5.247c-0.251,0 -0.5,-0.109 -0.673,-0.319c-0.306,-0.368 -0.254,-0.918 0.118,-1.225c1.206,-0.997 2.479,-1.953 3.782,-2.843c0.398,-0.272 0.941,-0.172 1.213,0.228c0.272,0.397 0.169,0.937 -0.228,1.212c-1.26,0.86 -2.491,1.785 -3.657,2.747c-0.162,0.134 -0.359,0.2 -0.555,0.2Zm-6.58,6.563c-0.195,0 -0.392,-0.066 -0.555,-0.2c-0.371,-0.307 -0.423,-0.857 -0.116,-1.229c0.997,-1.206 2.07,-2.384 3.189,-3.5c0.341,-0.337 0.894,-0.337 1.234,0.004c0.34,0.34 0.339,0.893 -0.002,1.234c-1.079,1.075 -2.115,2.209 -3.077,3.375c-0.172,0.209 -0.421,0.316 -0.673,0.316Zm-5.17,7.718c-0.138,0 -0.278,-0.031 -0.408,-0.103c-0.425,-0.225 -0.588,-0.753 -0.362,-1.178c0.734,-1.384 1.554,-2.75 2.435,-4.066c0.269,-0.4 0.811,-0.506 1.211,-0.237c0.4,0.269 0.507,0.809 0.238,1.209c-0.848,1.266 -1.636,2.582 -2.343,3.913c-0.156,0.294 -0.458,0.462 -0.771,0.462Zm-3.457,8.613c-0.078,0 -0.158,-0.01 -0.237,-0.031c-0.463,-0.132 -0.733,-0.613 -0.603,-1.079c0.426,-1.512 0.94,-3.021 1.528,-4.487c0.18,-0.447 0.688,-0.663 1.135,-0.481c0.447,0.178 0.664,0.687 0.484,1.134c-0.565,1.406 -1.059,2.856 -1.468,4.309c-0.108,0.385 -0.458,0.635 -0.839,0.635Zm54.128,2.653c-0.052,0 -0.104,-0.006 -0.157,-0.016c-1.192,-0.215 -2.416,-0.328 -3.639,-0.328c-0.247,-0.003 -0.536,0.006 -0.803,0.016c-0.483,0.028 -0.887,-0.356 -0.905,-0.838c-0.019,-0.481 0.356,-0.887 0.838,-0.906c0.289,-0.009 0.599,-0.003 0.87,-0.016c1.327,0 2.657,0.122 3.952,0.357c0.474,0.087 0.788,0.54 0.702,1.015c-0.078,0.422 -0.445,0.716 -0.858,0.716Zm-13.622,1.819c-0.336,0 -0.656,-0.194 -0.8,-0.522c-0.194,-0.441 0.007,-0.953 0.448,-1.147c1.496,-0.659 3.023,-1.178 4.54,-1.547c0.468,-0.116 0.94,0.172 1.054,0.641c0.113,0.468 -0.174,0.94 -0.642,1.053c-1.417,0.347 -2.848,0.834 -4.25,1.45c-0.114,0.05 -0.234,0.072 -0.35,0.072Zm22.147,1.731c-0.168,0 -0.339,-0.05 -0.489,-0.15c-1.256,-0.853 -2.578,-1.572 -3.927,-2.141c-0.444,-0.187 -0.652,-0.697 -0.466,-1.14c0.187,-0.447 0.7,-0.653 1.142,-0.466c1.455,0.609 2.878,1.384 4.231,2.303c0.398,0.269 0.502,0.813 0.232,1.21c-0.169,0.25 -0.443,0.384 -0.723,0.384Zm-64.151,2.962l-0.051,0c-0.481,-0.028 -0.848,-0.44 -0.821,-0.921c0.092,-1.6 0.262,-3.185 0.506,-4.713c0.076,-0.475 0.523,-0.8 0.999,-0.722c0.476,0.075 0.8,0.522 0.724,0.997c-0.235,1.469 -0.398,2.997 -0.487,4.538c-0.027,0.465 -0.411,0.821 -0.87,0.821Zm34.168,0.263c-0.247,0 -0.493,-0.103 -0.665,-0.306c-0.312,-0.369 -0.266,-0.919 0.101,-1.232c1.228,-1.04 2.518,-1.99 3.835,-2.831c0.407,-0.259 0.946,-0.137 1.205,0.269c0.258,0.406 0.139,0.944 -0.268,1.203c-1.251,0.797 -2.477,1.703 -3.644,2.691c-0.164,0.14 -0.364,0.206 -0.564,0.206Zm36.621,3.234c-0.268,0 -0.533,-0.125 -0.704,-0.356c-0.895,-1.222 -1.887,-2.369 -2.948,-3.409c-0.345,-0.335 -0.351,-0.888 -0.014,-1.232c0.337,-0.343 0.889,-0.35 1.234,-0.012c1.129,1.103 2.185,2.322 3.135,3.622c0.285,0.387 0.201,0.934 -0.188,1.219c-0.155,0.112 -0.336,0.168 -0.515,0.168Zm-42.884,3.622c-0.173,0 -0.348,-0.053 -0.501,-0.159c-0.394,-0.278 -0.488,-0.822 -0.211,-1.216c0.907,-1.287 1.911,-2.537 2.983,-3.712c0.325,-0.353 0.877,-0.378 1.232,-0.057c0.356,0.329 0.381,0.879 0.056,1.235c-1.023,1.119 -1.98,2.309 -2.845,3.537c-0.17,0.241 -0.439,0.372 -0.714,0.372Zm-27.53,2.166c-0.428,0 -0.801,-0.316 -0.863,-0.75c-0.219,-1.547 -0.362,-3.135 -0.426,-4.719c-0.019,-0.481 0.356,-0.887 0.837,-0.909c0.494,-0.016 0.888,0.356 0.907,0.837c0.061,1.528 0.199,3.06 0.409,4.544c0.068,0.478 -0.264,0.919 -0.741,0.987c-0.042,0.007 -0.083,0.01 -0.123,0.01Zm74.63,2.462c-0.368,0 -0.71,-0.234 -0.83,-0.603c-0.457,-1.419 -1.037,-2.822 -1.725,-4.165c-0.219,-0.429 -0.049,-0.954 0.379,-1.172c0.43,-0.222 0.955,-0.05 1.175,0.378c0.73,1.428 1.346,2.915 1.832,4.422c0.148,0.459 -0.104,0.95 -0.562,1.1c-0.09,0.028 -0.18,0.04 -0.269,0.04Zm-51.355,3.613c-0.093,0 -0.187,-0.016 -0.281,-0.047c-0.455,-0.153 -0.7,-0.65 -0.545,-1.106c0.499,-1.466 1.134,-2.944 1.887,-4.394c0.223,-0.428 0.749,-0.594 1.176,-0.372c0.427,0.225 0.594,0.75 0.372,1.178c-0.713,1.369 -1.313,2.766 -1.783,4.15c-0.123,0.363 -0.462,0.591 -0.826,0.591Zm-21.002,2.928c-0.353,0 -0.686,-0.216 -0.817,-0.566c-0.548,-1.468 -1.022,-2.993 -1.409,-4.534c-0.118,-0.466 0.166,-0.941 0.633,-1.059c0.467,-0.116 0.941,0.165 1.059,0.634c0.371,1.475 0.826,2.941 1.351,4.347c0.169,0.453 -0.06,0.953 -0.511,1.122c-0.101,0.037 -0.204,0.056 -0.306,0.056Zm73.642,2.625l-0.038,0c-0.482,-0.022 -0.855,-0.428 -0.834,-0.909c0.015,-0.338 0.022,-0.675 0.021,-1.013c0,-1.141 -0.083,-2.306 -0.248,-3.466c-0.068,-0.478 0.264,-0.918 0.741,-0.987c0.476,-0.066 0.918,0.266 0.986,0.741c0.176,1.24 0.266,2.487 0.266,3.712c0,0.363 -0.008,0.725 -0.023,1.088c-0.021,0.468 -0.407,0.834 -0.871,0.834Zm-53.92,3.6c-0.456,0 -0.839,-0.353 -0.869,-0.816c-0.032,-0.497 -0.049,-1 -0.049,-1.5c0,-1.103 0.08,-2.218 0.238,-3.318c0.068,-0.479 0.508,-0.81 0.988,-0.741c0.476,0.069 0.807,0.512 0.739,0.987c-0.146,1.019 -0.22,2.05 -0.22,3.072c0,0.463 0.015,0.928 0.045,1.388c0.031,0.481 -0.333,0.894 -0.814,0.925l-0.058,0.003Zm-15.508,2.047c-0.283,0 -0.56,-0.138 -0.728,-0.391c-0.873,-1.319 -1.678,-2.697 -2.393,-4.1c-0.218,-0.431 -0.047,-0.956 0.382,-1.175c0.428,-0.219 0.954,-0.047 1.173,0.381c0.685,1.347 1.456,2.669 2.293,3.932c0.266,0.4 0.156,0.94 -0.245,1.209c-0.149,0.097 -0.316,0.144 -0.482,0.144Zm67.18,3.309c-0.13,0 -0.261,-0.031 -0.385,-0.09c-0.433,-0.216 -0.61,-0.738 -0.396,-1.169c0.612,-1.241 1.104,-2.566 1.462,-3.935l0.063,-0.246c0.116,-0.469 0.591,-0.754 1.058,-0.635c0.467,0.116 0.751,0.591 0.634,1.056l-0.067,0.263c-0.387,1.487 -0.921,2.922 -1.586,4.269c-0.152,0.309 -0.461,0.487 -0.783,0.487Zm-49.311,3.578c-0.328,0 -0.643,-0.187 -0.791,-0.503c-0.692,-1.487 -1.247,-3.003 -1.65,-4.503c-0.125,-0.466 0.151,-0.944 0.616,-1.069c0.466,-0.128 0.944,0.153 1.069,0.616c0.377,1.403 0.897,2.822 1.547,4.219c0.203,0.437 0.014,0.956 -0.423,1.159c-0.119,0.056 -0.244,0.081 -0.368,0.081Zm-11.917,0.238c-0.218,0 -0.435,-0.081 -0.605,-0.244c-1.14,-1.097 -2.228,-2.262 -3.236,-3.469c-0.309,-0.368 -0.26,-0.918 0.11,-1.228c0.369,-0.309 0.919,-0.259 1.228,0.11c0.968,1.156 2.013,2.278 3.108,3.331c0.347,0.334 0.358,0.884 0.024,1.234c-0.172,0.178 -0.4,0.266 -0.629,0.266Zm55.475,3.4c-0.249,0 -0.496,-0.106 -0.668,-0.313c-0.31,-0.368 -0.262,-0.918 0.107,-1.228c1.173,-0.984 2.229,-2.059 3.136,-3.187c0.302,-0.375 0.852,-0.438 1.227,-0.135c0.375,0.3 0.435,0.85 0.133,1.228c-0.979,1.216 -2.114,2.372 -3.375,3.429c-0.163,0.137 -0.362,0.206 -0.56,0.206Zm-48.139,2.294c-0.157,0 -0.316,-0.041 -0.458,-0.129c-1.339,-0.831 -2.649,-1.74 -3.895,-2.706c-0.381,-0.297 -0.45,-0.844 -0.155,-1.225c0.296,-0.381 0.844,-0.45 1.224,-0.153c1.198,0.928 2.457,1.803 3.743,2.6c0.41,0.253 0.537,0.791 0.283,1.2c-0.165,0.266 -0.45,0.413 -0.742,0.413Zm9.633,1.85c-0.249,0 -0.496,-0.107 -0.668,-0.31c-1.049,-1.25 -2.006,-2.531 -2.844,-3.809c-0.264,-0.403 -0.152,-0.944 0.252,-1.21c0.403,-0.262 0.943,-0.15 1.207,0.254c0.801,1.221 1.716,2.446 2.72,3.643c0.31,0.369 0.262,0.919 -0.106,1.228c-0.164,0.138 -0.363,0.204 -0.561,0.204Zm30.558,0.637c-0.338,0 -0.66,-0.2 -0.802,-0.528c-0.19,-0.444 0.015,-0.956 0.457,-1.147c1.438,-0.616 2.8,-1.306 4.05,-2.05c0.413,-0.247 0.949,-0.109 1.195,0.303c0.246,0.416 0.11,0.95 -0.304,1.197c-1.315,0.781 -2.745,1.506 -4.252,2.153c-0.112,0.047 -0.229,0.072 -0.344,0.072Zm-31.816,1.528c-0.096,0 -0.194,-0.019 -0.29,-0.05c-1.479,-0.522 -2.954,-1.131 -4.383,-1.819c-0.434,-0.206 -0.618,-0.728 -0.409,-1.162c0.208,-0.434 0.729,-0.619 1.164,-0.409c1.372,0.659 2.787,1.243 4.207,1.743c0.454,0.16 0.694,0.66 0.534,1.113c-0.126,0.359 -0.464,0.584 -0.823,0.584Zm22.932,1.231c-0.403,0 -0.766,-0.281 -0.852,-0.69c-0.1,-0.472 0.202,-0.935 0.674,-1.035c1.519,-0.318 3.01,-0.703 4.432,-1.143c0.463,-0.141 0.949,0.118 1.091,0.578c0.142,0.459 -0.116,0.947 -0.576,1.09c-1.473,0.454 -3.017,0.854 -4.588,1.182c-0.061,0.015 -0.121,0.018 -0.181,0.018Zm-9.242,1.079c-0.478,0 -0.868,-0.385 -0.872,-0.863c-0.004,-0.484 0.382,-0.878 0.864,-0.881c1.215,-0.01 2.442,-0.081 3.648,-0.21c0.247,-0.025 0.539,-0.056 0.9,-0.1c0.475,-0.062 0.912,0.285 0.969,0.763c0.057,0.478 -0.284,0.912 -0.763,0.969c-0.369,0.043 -0.668,0.078 -0.885,0.1c-1.298,0.137 -2.582,0.212 -3.853,0.222l-0.008,0Zm-5.801,2.034c-0.195,0 -0.392,-0.066 -0.554,-0.2c-1.183,-0.975 -2.316,-1.984 -3.371,-3.006c-0.086,-0.063 -0.16,-0.138 -0.219,-0.222c-0.275,-0.341 -0.258,-0.838 0.054,-1.16c0.289,-0.296 0.738,-0.34 1.077,-0.134c1.413,0.316 2.847,0.553 4.267,0.713c0.479,0.053 0.824,0.484 0.771,0.962c-0.053,0.478 -0.48,0.825 -0.963,0.772c-0.539,-0.059 -1.08,-0.131 -1.622,-0.213c0.366,0.316 0.738,0.632 1.115,0.941c0.372,0.306 0.425,0.856 0.118,1.228c-0.172,0.21 -0.422,0.319 -0.673,0.319Zm7.598,5.372c-0.154,0 -0.31,-0.041 -0.452,-0.125c-1.351,-0.822 -2.677,-1.691 -3.944,-2.585c-0.394,-0.278 -0.487,-0.821 -0.21,-1.215c0.278,-0.391 0.822,-0.485 1.216,-0.21c1.233,0.872 2.527,1.719 3.844,2.516c0.412,0.25 0.543,0.788 0.293,1.2c-0.164,0.269 -0.452,0.419 -0.747,0.419Zm57.57,0.703c-0.31,0 -0.611,-0.166 -0.768,-0.459c-0.23,-0.422 -0.072,-0.954 0.352,-1.182c1.227,-0.662 2.394,-1.347 3.469,-2.034c0.405,-0.259 0.945,-0.141 1.205,0.266c0.259,0.403 0.14,0.943 -0.266,1.203c-1.11,0.709 -2.315,1.415 -3.578,2.1c-0.132,0.072 -0.274,0.106 -0.414,0.106Zm-49.302,3.566c-0.115,0 -0.231,-0.025 -0.343,-0.072c-1.412,-0.607 -2.847,-1.285 -4.265,-2.016c-0.428,-0.222 -0.596,-0.75 -0.374,-1.178c0.221,-0.425 0.748,-0.594 1.175,-0.372c1.381,0.713 2.778,1.375 4.151,1.963c0.443,0.19 0.648,0.703 0.458,1.143c-0.142,0.332 -0.463,0.532 -0.802,0.532Zm40.829,0.275c-0.355,0 -0.687,-0.216 -0.818,-0.569c-0.168,-0.45 0.061,-0.953 0.512,-1.122c1.426,-0.531 2.855,-1.119 4.247,-1.75c0.439,-0.2 0.956,-0.003 1.155,0.434c0.199,0.438 0.004,0.957 -0.435,1.153c-1.429,0.647 -2.895,1.254 -4.357,1.797c-0.1,0.038 -0.204,0.057 -0.304,0.057Zm-8.925,2.618c-0.403,0 -0.764,-0.278 -0.852,-0.687c-0.101,-0.472 0.198,-0.935 0.669,-1.038c1.48,-0.315 2.975,-0.697 4.446,-1.131c0.462,-0.134 0.947,0.128 1.083,0.591c0.136,0.462 -0.127,0.947 -0.59,1.081c-1.512,0.447 -3.051,0.837 -4.572,1.166c-0.062,0.012 -0.124,0.018 -0.184,0.018Zm-23.076,0.019c-0.064,0 -0.13,-0.009 -0.196,-0.022c-1.529,-0.353 -3.063,-0.781 -4.558,-1.278c-0.457,-0.15 -0.705,-0.647 -0.553,-1.103c0.151,-0.456 0.646,-0.706 1.102,-0.553c1.443,0.478 2.924,0.894 4.4,1.234c0.469,0.106 0.762,0.575 0.655,1.044c-0.093,0.403 -0.453,0.678 -0.85,0.678Zm13.861,1.203c-0.462,0 -0.848,-0.362 -0.871,-0.831c-0.023,-0.481 0.348,-0.891 0.829,-0.913c1.504,-0.071 3.038,-0.212 4.559,-0.415c0.479,-0.066 0.916,0.272 0.98,0.747c0.064,0.478 -0.272,0.918 -0.749,0.981c-1.569,0.209 -3.153,0.356 -4.705,0.431l-0.043,0Zm-4.649,0.022l-0.036,0c-1.575,-0.062 -3.161,-0.2 -4.714,-0.406c-0.477,-0.063 -0.813,-0.5 -0.75,-0.978c0.064,-0.478 0.502,-0.816 0.979,-0.75c1.5,0.197 3.032,0.331 4.555,0.39c0.481,0.019 0.856,0.425 0.837,0.907c-0.019,0.468 -0.406,0.837 -0.871,0.837Z" style="fill:#fff;fill-rule:nonzero;"/><path d="M40.844,72.605l-0.092,-8.262c0.766,-0.391 1.544,-0.766 2.327,-1.119c0.439,-0.2 0.634,-0.715 0.435,-1.156c-0.145,-0.322 -0.462,-0.513 -0.795,-0.513c-0.12,0 -0.242,0.025 -0.359,0.079c-0.546,0.246 -1.091,0.503 -1.63,0.768l-0.046,-4.037l-15.956,-12.103l65.814,-8.782l-8.666,11.494c-0.081,0.031 -0.155,0.06 -0.236,0.091l-1.16,0c-1.981,0 -3.733,0.984 -4.794,2.49c-12.664,5.566 -24.707,12.66 -34.842,21.05Zm10.641,-14.15c-0.073,0 -0.147,0.01 -0.221,0.032c-1.522,0.397 -3.041,0.862 -4.516,1.384c-0.454,0.159 -0.692,0.659 -0.532,1.113c0.127,0.359 0.463,0.581 0.823,0.581c0.096,0 0.194,-0.016 0.29,-0.05c1.43,-0.503 2.902,-0.956 4.376,-1.341c0.467,-0.122 0.745,-0.6 0.624,-1.065c-0.103,-0.394 -0.457,-0.654 -0.844,-0.654Z" style="fill:#e1e2e1;fill-rule:nonzero;"/><path d="M40.934,80.64l-0.09,-8.035c10.135,-8.39 22.178,-15.484 34.842,-21.05c-0.673,0.954 -1.068,2.116 -1.068,3.372l0,3.672l-12.207,16.188l-7.727,-5.825l-13.75,11.678Zm40.872,-31.575l-0.166,0c0.081,-0.031 0.155,-0.06 0.236,-0.091l-0.07,0.091Z" style="fill:#e1e2e1;fill-rule:nonzero;"/><path d="M74.618,58.599l0,-3.672c0,-1.256 0.395,-2.418 1.068,-3.372c1.061,-1.506 2.813,-2.49 4.794,-2.49l1.326,0l-7.188,9.534Z" style="fill:#e2e3e2;fill-rule:nonzero;"/><path d="M40.752,64.343l-0.022,-1.941c0.539,-0.265 1.084,-0.522 1.63,-0.768c0.117,-0.054 0.239,-0.079 0.359,-0.079c0.333,0 0.65,0.191 0.795,0.513c0.199,0.441 0.004,0.956 -0.435,1.156c-0.783,0.353 -1.561,0.728 -2.327,1.119Zm6.287,-2.778c-0.36,0 -0.696,-0.222 -0.823,-0.581c-0.16,-0.454 0.078,-0.954 0.532,-1.113c1.475,-0.522 2.994,-0.987 4.516,-1.384c0.074,-0.022 0.148,-0.032 0.221,-0.032c0.387,0 0.741,0.26 0.844,0.654c0.121,0.465 -0.157,0.943 -0.624,1.065c-1.474,0.385 -2.946,0.838 -4.376,1.341c-0.096,0.034 -0.194,0.05 -0.29,0.05Z" style="fill:#e2e3e2;fill-rule:nonzero;"/><path d="M42.37,79.29l-0.365,-32.538l49.974,-10.622l-49.609,43.16Z" style="fill:#b2b5b6;fill-rule:nonzero;"/><path d="M42.229,57.096c0.252,-0.128 49.75,-20.966 49.75,-20.966l-65.815,8.782l16.065,12.184Z" style="fill:#fff;fill-rule:nonzero;"/><path d="M47.684,61.249l-5.314,18.041l22.79,-19.36l-17.476,1.319Z" style="fill:#898c8d;fill-rule:nonzero;"/><path d="M47.684,61.249l16.163,12.188l28.132,-37.307l-44.295,25.119Z" style="fill:#fff;fill-rule:nonzero;"/><path d="M208.249,123.752l0,-2.103l1.211,-0.075c0.336,0.447 0.66,0.916 0.971,1.4c0.166,0.263 0.448,0.403 0.735,0.403c0.161,0 0.323,-0.043 0.469,-0.137c0.406,-0.26 0.525,-0.8 0.265,-1.206c-0.128,-0.2 -0.258,-0.397 -0.391,-0.591l4.439,-0.281c0.062,0.706 0.168,1.4 0.315,2.081l-8.014,0.509Z" style="fill:#e1e2e1;fill-rule:nonzero;"/><path d="M159.688,115.349l-0.221,-3.484l1.627,0l0.16,2.519l-1.566,0.965Zm1.049,-9.087l-1.627,0l-0.31,-4.882c-0.041,-0.646 0.334,-1.231 0.893,-1.484l0.64,0l0.404,6.366Z" style="fill:#e2e3e2;fill-rule:nonzero;"/><path d="M160.333,99.896l-0.64,0c0.164,-0.075 0.343,-0.122 0.533,-0.134l0.098,-0.007l0.009,0.141Z" style="fill:#c5d1dc;fill-rule:nonzero;"/><path d="M161.094,111.865l-1.627,0l-0.357,-5.603l1.627,0l0.357,5.603Z" style="fill:#c5d1dc;fill-rule:nonzero;"/><path d="M161.841,126.699c-0.796,0 -1.471,-0.625 -1.522,-1.428l-0.631,-9.922l1.566,-0.965l0.552,8.69c0.051,0.803 0.726,1.428 1.522,1.428c0.032,0 0.065,0 0.097,-0.003l21.585,-1.372c-0.09,0.169 -0.179,0.338 -0.265,0.507c-0.218,0.428 -0.047,0.953 0.382,1.171c0.127,0.066 0.262,0.094 0.395,0.094c0.317,0 0.624,-0.172 0.778,-0.475c0.249,-0.487 0.517,-0.965 0.804,-1.428l21.145,-1.347l0,2.103l-46.311,2.944c-0.032,0.003 -0.064,0.003 -0.097,0.003Z" style="fill:#4074ba;fill-rule:nonzero;"/><path d="M222.236,120.762l-58.811,3.737c-0.837,0.053 -1.566,-0.587 -1.619,-1.425l-1.518,-23.89c-0.054,-0.838 0.588,-1.566 1.426,-1.619l58.81,-3.738c0.838,-0.053 1.567,0.588 1.62,1.425l1.518,23.891c0.054,0.837 -0.588,1.566 -1.426,1.619Z" style="fill:#fff;fill-rule:nonzero;"/><path d="M216.476,100.98l-26.59,1.691c-0.407,0.025 -0.762,-0.287 -0.788,-0.694l-0.062,-0.987c-0.026,-0.406 0.287,-0.763 0.694,-0.788l26.59,-1.69c0.408,-0.025 0.762,0.287 0.788,0.693l0.062,0.988c0.026,0.406 -0.286,0.762 -0.694,0.787Z" style="fill:#a1c0db;fill-rule:nonzero;"/><path d="M216.819,106.365l-26.59,1.69c-0.407,0.025 -0.762,-0.287 -0.788,-0.693l-0.063,-0.988c-0.026,-0.406 0.286,-0.762 0.694,-0.787l26.591,-1.691c0.407,-0.025 0.761,0.288 0.787,0.694l0.063,0.987c0.026,0.407 -0.287,0.763 -0.694,0.788Z" style="fill:#a1c0db;fill-rule:nonzero;"/><path d="M217.161,111.749l-26.59,1.691c-0.407,0.025 -0.762,-0.288 -0.788,-0.694l-0.063,-0.987c-0.026,-0.407 0.286,-0.763 0.694,-0.788l26.59,-1.691c0.407,-0.025 0.762,0.285 0.788,0.694l0.063,0.988c0.026,0.406 -0.286,0.762 -0.694,0.787Z" style="fill:#a1c0db;fill-rule:nonzero;"/><path d="M217.504,117.134l-26.59,1.69c-0.408,0.025 -0.763,-0.287 -0.788,-0.694l-0.063,-0.987c-0.027,-0.406 0.286,-0.763 0.693,-0.788l26.59,-1.69c0.408,-0.025 0.762,0.287 0.788,0.694l0.063,0.987c0.027,0.406 -0.286,0.763 -0.693,0.788Z" style="fill:#a1c0db;fill-rule:nonzero;"/><path d="M186.249,109.527c0.396,6.244 -4.343,11.625 -10.587,12.022c-6.243,0.397 -11.626,-4.34 -12.023,-10.584c-0.396,-6.244 4.343,-11.625 10.586,-12.025c6.244,-0.397 11.627,4.344 12.024,10.587Z" style="fill:#e4eef9;fill-rule:nonzero;"/><path d="M180.904,117.221c-0.582,0.513 -1.232,0.95 -1.937,1.3c-0.357,0.178 -0.728,0.331 -1.111,0.463c-0.406,0.137 -0.825,0.246 -1.255,0.325c-0.35,0.065 -0.708,0.109 -1.073,0.131c-0.364,0.025 -0.725,0.025 -1.082,0.006c-1.663,-0.094 -3.219,-0.641 -4.531,-1.528c0.581,-1.259 1.655,-2.256 2.985,-2.728l0.001,0l0.004,-0.003c0.228,-0.082 0.464,-0.147 0.707,-0.194l0.03,-0.006c0.212,-0.041 0.431,-0.069 0.654,-0.085l1.881,-0.118c0.222,-0.016 0.442,-0.016 0.659,0l0.03,0.003c0.248,0.015 0.49,0.05 0.727,0.103l0.003,0c1.379,0.3 2.573,1.156 3.308,2.331Z" style="fill:#686c6e;fill-rule:nonzero;"/><path d="M179.961,106.03l0.385,6.06c0.085,1.337 -0.927,2.487 -2.263,2.572l-5.696,0.362c-1.334,0.085 -2.486,-0.928 -2.571,-2.262l-0.385,-6.063c-0.342,-5.381 4.938,-5.475 4.938,-5.475c0,0 1.367,-0.147 2.751,0.419c1.239,0.509 2.492,1.594 2.791,3.875c0.022,0.162 0.038,0.334 0.05,0.512Z" style="fill:#282b2d;fill-rule:nonzero;"/><path d="M176.806,113.849l0.113,1.781c0.048,0.757 -0.645,1.422 -1.539,1.479c-0.895,0.056 -1.666,-0.516 -1.714,-1.272l-0.114,-1.782c-0.019,-0.312 0.087,-0.609 0.282,-0.853c0.045,-0.056 0.096,-0.112 0.15,-0.162c0.104,-0.097 0.224,-0.185 0.357,-0.253c0.22,-0.116 0.476,-0.191 0.751,-0.21c0.274,-0.015 0.537,0.025 0.771,0.113c0.141,0.053 0.27,0.122 0.385,0.206l0.018,0.013c0.054,0.04 0.105,0.084 0.152,0.128c0.225,0.218 0.368,0.5 0.388,0.812Z" style="fill:#f6b092;fill-rule:nonzero;"/><path d="M176.863,114.752l0,-0.012l0,0.012Z" style="fill:#9ea7b0;fill-rule:nonzero;"/><path d="M176.863,114.74l-0.034,-0.525l0,0l0.034,0.525Zm-3.287,-0.319c-0.622,-0.184 -1.188,-0.509 -1.659,-0.937c0.471,0.428 1.037,0.753 1.658,0.937" style="fill:#181a1d;fill-rule:nonzero;"/><path d="M174.818,115.28c-0.338,0 -0.668,-0.04 -0.985,-0.118l-0.001,0l-0.034,-0.032l-0.071,0.007c-0.036,-0.013 -0.072,-0.022 -0.108,-0.032l-0.043,-0.684l-0.001,0l0.002,0c0.38,0.113 0.782,0.172 1.196,0.172c0.09,0 0.181,0 0.272,-0.006l0.347,-0.022c0.509,-0.035 0.994,-0.156 1.437,-0.35l0.034,0.525l0,0.012l-0.165,0.194l-0.031,0.038c-0.386,0.146 -0.799,0.237 -1.231,0.265l-0.348,0.022c-0.09,0.006 -0.18,0.009 -0.27,0.009Z" style="fill:#a67b6a;fill-rule:nonzero;"/><path d="M177.17,114.043c0.156,-0.084 0.305,-0.181 0.448,-0.284c0.305,-0.225 0.577,-0.485 0.813,-0.779c0.12,-0.15 0.231,-0.306 0.332,-0.471l0.002,-0.004c-0.386,0.641 -0.936,1.175 -1.595,1.538Zm-5.256,-0.563c-0.001,-0.003 -0.003,-0.003 -0.004,-0.003c0.001,0 0.003,0 0.004,0.003Zm6.922,-1.096c0.001,-0.004 0.002,-0.004 0.003,-0.007c-0.001,0.003 -0.002,0.003 -0.003,0.007Zm0.008,-0.016c0.353,-0.638 0.547,-1.375 0.528,-2.15c0.019,0.775 -0.174,1.509 -0.528,2.15Zm0.528,-2.15c0,-0.006 0,-0.013 0,-0.019c0,0.006 0,0.013 0,0.019Zm-0.001,-0.028c0,-0.003 0,-0.006 0,-0.013c0,0.007 0,0.01 0,0.013Zm-0.001,-0.028l0,-0.003l0,0.003Zm-0.021,-0.366l-0.151,-2.362c0.001,0.006 0.001,0.015 0.002,0.021l0.149,2.341Z" style="fill:#181a1d;fill-rule:nonzero;"/><path d="M179.158,106.793l0.207,3.259c0.057,0.891 -0.17,1.738 -0.599,2.453l-0.003,0.004c-0.101,0.165 -0.212,0.321 -0.332,0.471c-0.236,0.294 -0.508,0.554 -0.813,0.779c-0.244,0.175 -0.507,0.331 -0.789,0.456c-0.443,0.194 -0.927,0.315 -1.437,0.35l-0.347,0.022c-0.51,0.031 -1.006,-0.028 -1.468,-0.166c-1.662,-0.494 -2.928,-1.984 -3.044,-3.806l-0.206,-3.244c-0.003,-0.047 -0.004,-0.091 -0.006,-0.137c-0.043,-1.238 0.453,-2.382 1.285,-3.191c0.131,-0.128 0.271,-0.25 0.419,-0.359c0.639,-0.482 1.419,-0.788 2.273,-0.844l0.348,-0.022c0.96,-0.059 1.869,0.209 2.617,0.706c0.398,0.266 0.751,0.597 1.039,0.978c0.12,0.157 0.227,0.319 0.323,0.491c0.303,0.537 0.491,1.147 0.533,1.8Z" style="fill:#f6b092;fill-rule:nonzero;"/><path d="M180.966,108.402c0.06,0.938 -0.653,1.747 -1.591,1.807l-0.216,-3.4c0.235,-0.013 0.463,0.018 0.672,0.093l0.003,0c0.623,0.222 1.088,0.797 1.132,1.5Z" style="fill:#f6b092;fill-rule:nonzero;"/><path d="M180.319,108.443c0.037,0.581 -0.404,1.081 -0.985,1.119l-0.134,-2.107c0.581,-0.034 1.082,0.407 1.119,0.988Z" style="fill:#df9082;fill-rule:nonzero;"/><path d="M177.595,114.89l0.001,0l-0.995,4.419c-0.35,0.065 -0.708,0.109 -1.073,0.131c-0.364,0.025 -0.725,0.025 -1.082,0.006l-1.546,-4.256l0,-0.003l0.898,-0.057l0.034,0.032l1.511,1.375l1.326,-1.557l0.03,-0.034l0.896,-0.056Z" style="fill:#4e5153;fill-rule:nonzero;"/><path d="M170.327,107.371l0.216,3.4c-0.938,0.059 -1.747,-0.653 -1.806,-1.594c-0.052,-0.806 0.468,-1.518 1.212,-1.737l0.078,-0.022l0.042,-0.009c0.084,-0.019 0.17,-0.032 0.258,-0.038Z" style="fill:#f6b092;fill-rule:nonzero;"/><path d="M169.383,109.137c0.037,0.581 0.538,1.022 1.119,0.984l-0.133,-2.103c-0.581,0.037 -1.023,0.537 -0.986,1.119Z" style="fill:#df9082;fill-rule:nonzero;"/><path d="M178.967,118.521c-0.357,0.178 -0.728,0.331 -1.111,0.463l-0.025,-0.391l1.136,-0.072Z" style="fill:#4e5153;fill-rule:nonzero;"/><path d="M177.595,114.89l0.001,0l-0.001,0Z" style="fill:#bdc6cf;fill-rule:nonzero;"/><path d="M176.662,117.352l-1.319,-0.815l1.292,0.731l0.96,-2.378l-0.933,2.462Z" style="fill:#474b4c;fill-rule:nonzero;"/><path d="M177.596,114.89l-0.961,2.378l-1.292,-0.731l1.355,-1.591l0.177,-0.206l0.721,0.15Z" style="fill:#e8e8e7;fill-rule:nonzero;"/><path d="M175.343,116.537l-0.001,0l0.001,0Z" style="fill:#c69580;fill-rule:nonzero;"/><path d="M172.901,115.187l0,0l0,0Z" style="fill:#bdc6cf;fill-rule:nonzero;"/><path d="M174.127,117.512l-1.226,-2.325l0,0l2.441,1.35l0.001,0l-1.216,0.975Z" style="fill:#474b4c;fill-rule:nonzero;"/><path d="M175.343,116.537l-1.188,0.89l-1.254,-2.24l0.695,-0.241l0.202,0.184l1.545,1.407Z" style="fill:#e8e8e7;fill-rule:nonzero;"/><path d="M179.954,105.918c-3.151,0.428 -3.033,-2.453 -2.791,-3.875c1.239,0.506 2.492,1.591 2.791,3.875Z" style="fill:#282b2d;fill-rule:nonzero;"/><path d="M178.179,103.53c-0.098,0.182 -1.064,2.216 -3.028,2.341c-1.964,0.125 -5.007,1.503 -4.979,3.466c0.029,1.959 -2.839,-5.819 3.086,-6.816c5.925,-0.997 4.921,1.009 4.921,1.009Z" style="fill:#282b2d;fill-rule:nonzero;"/><path d="M222.15,95.349l-0.006,-0.097c-0.051,-0.806 -0.727,-1.428 -1.523,-1.428c-0.032,0 -0.064,0 -0.097,0.003l-12.278,0.778c-0.002,-0.043 -0.004,-0.09 -0.006,-0.137c0,-0.063 -0.005,-0.131 -0.013,-0.197c-0.004,-0.078 -0.013,-0.156 -0.026,-0.234c-0.009,-0.063 -0.017,-0.128 -0.03,-0.194c-0.009,-0.063 -0.022,-0.125 -0.035,-0.188c-0.017,-0.084 -0.034,-0.159 -0.056,-0.243c-0.043,-0.163 -0.09,-0.325 -0.151,-0.485l-0.004,-0.015c-0.039,-0.097 -0.077,-0.197 -0.121,-0.291c-0.15,-0.353 -0.34,-0.687 -0.564,-0.991c-0.052,-0.075 -0.108,-0.146 -0.168,-0.221c-0.129,-0.163 -0.267,-0.313 -0.414,-0.457c-0.047,-0.047 -0.094,-0.093 -0.146,-0.137c-0.065,-0.06 -0.13,-0.122 -0.203,-0.178l-0.035,-0.025l-0.275,-0.213l-0.005,0l-7.947,-6.031l0,-10.941l20.396,-4.95c0.119,-0.028 0.239,-0.043 0.357,-0.043c0.688,0 1.316,0.471 1.485,1.165l5.644,23.266c0.199,0.815 -0.307,1.644 -1.122,1.84l-2.657,0.644Z" style="fill:#e1e2e1;fill-rule:nonzero;"/><path d="M207.929,92.927l-0.004,-0.015c-0.039,-0.097 -0.077,-0.197 -0.121,-0.291c-0.15,-0.353 -0.34,-0.687 -0.564,-0.991c-0.052,-0.075 -0.108,-0.146 -0.168,-0.221c-0.129,-0.163 -0.267,-0.313 -0.414,-0.457c-0.047,-0.047 -0.094,-0.093 -0.146,-0.137c-0.065,-0.06 -0.13,-0.122 -0.203,-0.178l-0.035,-0.025l-0.275,-0.213l-0.005,0c-0.125,-0.094 -0.258,-0.178 -0.396,-0.256c-0.078,-0.047 -0.159,-0.091 -0.241,-0.131c-0.147,-0.078 -0.298,-0.15 -0.453,-0.21c-0.108,-0.043 -0.224,-0.087 -0.336,-0.122c-0.121,-0.037 -0.241,-0.071 -0.366,-0.103l-0.078,-0.018c-0.099,-0.025 -0.203,-0.047 -0.306,-0.063l-0.082,-0.012c-0.116,-0.019 -0.241,-0.032 -0.362,-0.041l-0.069,-0.003c-0.125,-0.013 -0.25,-0.019 -0.379,-0.019l-1.215,0l-3.664,2.263l0,-7.316l7.947,6.031l0.005,0l0.275,0.213l0.035,0.025c0.073,0.056 0.138,0.118 0.203,0.178c0.052,0.044 0.099,0.09 0.146,0.137c0.147,0.144 0.285,0.294 0.414,0.457c0.06,0.075 0.116,0.146 0.168,0.221c0.224,0.304 0.414,0.638 0.564,0.991c0.044,0.094 0.082,0.194 0.121,0.291l0.004,0.015Z" style="fill:#5487c6;fill-rule:nonzero;"/><path d="M183.99,96.149l0,-0.434c0,-0.785 -0.639,-1.422 -1.421,-1.422l-20.072,0l-1.545,-6.369l21.617,0c0.782,0 1.421,-0.637 1.421,-1.419l0,-2.762c0,-0.781 -0.639,-1.422 -1.421,-1.422l-21.185,0l36.663,-8.894l0,18.257l-2.017,1.243l-4.44,2.738l-7.6,0.484Z" style="fill:#e2e3e2;fill-rule:nonzero;"/><path d="M182.569,87.924l-21.617,0l-0.9,-3.709c-0.198,-0.816 0.307,-1.644 1.123,-1.841l0.209,-0.053l21.185,0c0.782,0 1.421,0.641 1.421,1.422l0,2.762c0,0.782 -0.639,1.419 -1.421,1.419Z" style="fill:#c5d1dc;fill-rule:nonzero;"/><path d="M163.267,97.465l-0.77,-3.172l20.072,0c0.782,0 1.421,0.637 1.421,1.422l0,0.434l-20.723,1.316Z" style="fill:#c5d1dc;fill-rule:nonzero;"/><path d="M191.59,95.665l4.44,-2.738l2.017,-1.243l3.664,-2.263l1.215,0c0.129,0 0.254,0.006 0.379,0.019l0.069,0.003c0.121,0.009 0.246,0.022 0.362,0.041l0.082,0.012c0.103,0.016 0.207,0.038 0.306,0.063l0.078,0.018c0.125,0.032 0.245,0.066 0.366,0.103c0.112,0.035 0.228,0.079 0.336,0.122c0.155,0.06 0.306,0.132 0.453,0.21c0.082,0.04 0.163,0.084 0.241,0.131c0.138,0.078 0.271,0.162 0.396,0.256l0.005,0l0.275,0.213l0.035,0.025c0.073,0.056 0.138,0.118 0.203,0.178c0.052,0.044 0.099,0.09 0.146,0.137c0.147,0.144 0.285,0.294 0.414,0.457c0.06,0.075 0.116,0.146 0.168,0.221c0.224,0.304 0.414,0.638 0.564,0.991c0.044,0.094 0.082,0.194 0.121,0.291l0.004,0.015c0.061,0.16 0.108,0.322 0.151,0.485c0.022,0.084 0.039,0.159 0.056,0.243c0.013,0.063 0.026,0.125 0.035,0.188c0.013,0.066 0.021,0.131 0.03,0.194c0.013,0.078 0.022,0.156 0.026,0.234c0.008,0.066 0.013,0.134 0.013,0.197c0.002,0.047 0.004,0.094 0.006,0.137l-16.656,1.06Z" style="fill:#4074ba;fill-rule:nonzero;"/><path d="M165.035,104.755l-1.768,-7.29l20.723,-1.316l7.6,-0.484l16.656,-1.06l12.278,-0.778c0.033,-0.003 0.065,-0.003 0.097,-0.003c0.796,0 1.472,0.622 1.523,1.428l0.006,0.097l-15.581,3.781l-16.839,1.072c-0.407,0.025 -0.72,0.382 -0.694,0.788l0.062,0.987c0.025,0.391 0.353,0.694 0.741,0.694l0.047,0l2.842,-0.181l-8.053,1.953c-1.99,-3.331 -5.631,-5.525 -9.721,-5.525c-0.241,0 -0.485,0.006 -0.729,0.022c-3.998,0.256 -7.379,2.553 -9.19,5.815Z" style="fill:#e2e3e2;fill-rule:nonzero;"/><path d="M189.839,102.671c-0.388,0 -0.716,-0.303 -0.741,-0.694l-0.062,-0.987c-0.026,-0.406 0.287,-0.763 0.694,-0.788l16.839,-1.072l-13.841,3.36l-2.842,0.181l-0.047,0Z" style="fill:#95b0c9;fill-rule:nonzero;"/><path d="M167.181,108.643c-0.687,0 -1.316,-0.469 -1.485,-1.166l-0.661,-2.722c1.811,-3.262 5.192,-5.559 9.19,-5.815c0.244,-0.016 0.488,-0.022 0.729,-0.022c4.09,0 7.731,2.194 9.721,5.525l-4.754,1.153c-0.003,-0.025 -0.007,-0.053 -0.01,-0.078c-0.299,-2.281 -1.552,-3.366 -2.791,-3.875c-0.907,-0.372 -1.806,-0.434 -2.318,-0.434c-0.27,0 -0.433,0.015 -0.433,0.015c0,0 -5.28,0.094 -4.938,5.475l0.061,0.953c-0.232,0.157 -0.423,0.366 -0.555,0.61l-1.398,0.34c-0.12,0.028 -0.24,0.041 -0.358,0.041Z" style="fill:#ced6e0;fill-rule:nonzero;"/><path d="M169.492,107.652l-0.061,-0.953c-0.342,-5.381 4.938,-5.475 4.938,-5.475c0,0 0.163,-0.015 0.433,-0.015c0.512,0 1.411,0.062 2.318,0.434c1.239,0.509 2.492,1.594 2.791,3.875c0.003,0.025 0.007,0.053 0.01,0.078l-0.016,0.006c-0.369,-2.068 -1.562,-3.075 -2.742,-3.559c-0.015,0.091 -0.03,0.187 -0.044,0.287c-0.286,-0.053 -0.641,-0.087 -1.083,-0.087c-0.693,0 -1.598,0.081 -2.778,0.278c-3.294,0.556 -3.87,3.206 -3.738,5.113c-0.009,0.006 -0.019,0.012 -0.028,0.018Z" style="fill:#27292c;fill-rule:nonzero;"/><path d="M168.937,108.262c0.132,-0.244 0.323,-0.453 0.555,-0.61c0.009,-0.006 0.019,-0.012 0.028,-0.018c0.012,0.165 0.029,0.325 0.049,0.475l-0.632,0.153Z" style="fill:#d9a087;fill-rule:nonzero;"/><path d="M170.807,107.809c0.992,-1.122 2.942,-1.85 4.344,-1.938c0.956,-0.062 1.675,-0.575 2.173,-1.106c0.238,0.537 0.66,0.969 1.375,1.128l-7.892,1.916Z" style="fill:#d9a087;fill-rule:nonzero;"/><path d="M178.699,105.893c-0.715,-0.159 -1.137,-0.591 -1.375,-1.128c0.525,-0.56 0.805,-1.141 0.855,-1.235c0,0 0.457,-0.912 -1.06,-1.2c0.014,-0.1 0.029,-0.196 0.044,-0.287c1.18,0.484 2.373,1.491 2.742,3.559l-1.206,0.291Z" style="fill:#27292c;fill-rule:nonzero;"/><path d="M169.569,108.109c-0.02,-0.15 -0.037,-0.31 -0.049,-0.475c-0.132,-1.907 0.444,-4.557 3.738,-5.113c1.18,-0.197 2.085,-0.278 2.778,-0.278c0.442,0 0.797,0.034 1.083,0.087c1.517,0.288 1.06,1.2 1.06,1.2c-0.05,0.094 -0.33,0.675 -0.855,1.235c-0.498,0.531 -1.217,1.044 -2.173,1.106c-1.402,0.088 -3.352,0.816 -4.344,1.938l-1.238,0.3Z" style="fill:#27292c;fill-rule:nonzero;"/><path d="M226.665,92.462l-58.409,14.172c-0.502,0.121 -1.012,-0.188 -1.133,-0.691l-5.922,-24.403c-0.122,-0.503 0.189,-1.013 0.691,-1.135l58.409,-14.171c0.502,-0.122 1.012,0.187 1.133,0.69l5.922,24.403c0.122,0.503 -0.189,1.013 -0.691,1.135Z" style="fill:#fdb73a;fill-rule:nonzero;"/><path d="M188.501,87.837c1.461,6.022 -2.237,12.09 -8.26,13.55c-6.024,1.462 -12.091,-2.235 -13.553,-8.26c-1.461,-6.022 2.237,-12.09 8.26,-13.553c6.023,-1.459 12.091,2.238 13.553,8.263Z" style="fill:#fff;fill-rule:nonzero;"/><path d="M179.849,100.374c-0.063,0.016 -0.122,0.028 -0.183,0.038l-0.004,0c-1.891,0.4 -3.77,0.206 -5.457,-0.45c0.326,-1.419 1.241,-2.672 2.528,-3.4l0.004,-0.003c0.212,-0.122 0.436,-0.229 0.667,-0.316c0.212,-0.081 0.433,-0.153 0.662,-0.209l1.848,-0.447c0.225,-0.057 0.455,-0.094 0.68,-0.119l0.004,0c0.246,-0.028 0.493,-0.034 0.738,-0.025c1.043,0.044 2.041,0.394 2.868,0.994c0.315,0.225 0.604,0.493 0.865,0.784c-1.154,1.353 -2.691,2.4 -4.497,2.959c-0.082,0.029 -0.163,0.05 -0.25,0.072l-0.039,0.013l-0.003,0l-0.053,0.012l-0.047,0.013c-0.061,0.022 -0.127,0.037 -0.194,0.053l-0.046,0.012l-0.056,0.013l-0.017,0.003l-0.018,0.003Z" style="fill:#f4b34f;fill-rule:nonzero;"/><path d="M172.392,89.771c0,0 -2.096,-6.109 1.291,-7.059c3.386,-0.953 4.571,-2.157 5.459,-2.069c0.888,0.091 2.893,5.616 2.944,6.775c0.051,1.159 -9.694,2.353 -9.694,2.353Z" style="fill:#302816;fill-rule:nonzero;"/><path d="M180.373,94.549l0.424,1.747c0.18,0.741 -0.391,1.522 -1.268,1.734c-0.878,0.213 -1.743,-0.218 -1.923,-0.959l-0.424,-1.747c-0.074,-0.306 -0.021,-0.619 0.13,-0.897c0.035,-0.065 0.075,-0.128 0.12,-0.187c0.086,-0.116 0.191,-0.222 0.31,-0.313c0.198,-0.156 0.439,-0.275 0.708,-0.34c0.269,-0.066 0.538,-0.069 0.785,-0.022c0.149,0.028 0.289,0.072 0.418,0.134l0.02,0.013c0.061,0.028 0.119,0.062 0.174,0.1c0.261,0.178 0.452,0.431 0.526,0.737Z" style="fill:#997b56;fill-rule:nonzero;"/><path d="M181.63,87.79l0.617,2.544c0.435,1.79 -0.337,3.6 -1.787,4.571l0.163,0.672c-0.406,0.272 -0.864,0.478 -1.364,0.6l-0.341,0.082c-0.5,0.121 -1.002,0.15 -1.487,0.093l-0.162,-0.672c-1.735,-0.196 -3.25,-1.456 -3.685,-3.243l-0.617,-2.547c-0.284,-1.194 -0.031,-2.4 0.603,-3.353c0.577,-0.872 1.466,-1.535 2.553,-1.797l0.341,-0.081c0.976,-0.238 1.958,-0.116 2.807,0.278l0.001,0c1.137,0.531 2.035,1.55 2.358,2.853Z" style="fill:#7f6849;fill-rule:nonzero;"/><path d="M181.47,87.14l0.776,3.197c0.194,0.8 0.149,1.606 -0.093,2.337c-0.037,0.116 -0.083,0.228 -0.13,0.338c-0.057,0.137 -0.119,0.265 -0.19,0.393c-0.328,0.597 -0.798,1.113 -1.372,1.5c-0.407,0.272 -0.866,0.482 -1.366,0.604l-0.339,0.081c-0.5,0.122 -1.003,0.147 -1.485,0.09c-1.736,-0.196 -3.252,-1.456 -3.685,-3.243l-0.805,-3.316c-0.259,-1.219 0.035,-2.444 0.718,-3.391c0.11,-0.153 0.226,-0.293 0.353,-0.428c0.549,-0.59 1.27,-1.028 2.109,-1.234l0.339,-0.081c0.65,-0.157 1.306,-0.157 1.924,-0.013c0.125,0.025 0.245,0.053 0.365,0.094c0.146,0.047 0.289,0.097 0.43,0.159c1.186,0.519 2.124,1.566 2.451,2.913Z" style="fill:#997b56;fill-rule:nonzero;"/><path d="M183.547,88.418c0.223,0.919 -0.343,1.847 -1.263,2.069l-0.808,-3.332c0.231,-0.056 0.463,-0.062 0.683,-0.028l0.003,0.003c0.657,0.11 1.218,0.597 1.385,1.288Z" style="fill:#997b56;fill-rule:nonzero;"/><path d="M182.912,88.571c0.138,0.569 -0.212,1.144 -0.782,1.281l-0.501,-2.062c0.57,-0.138 1.145,0.212 1.283,0.781Z" style="fill:#7f6849;fill-rule:nonzero;"/><path d="M172.813,89.255l0.809,3.335c-0.92,0.225 -1.848,-0.341 -2.071,-1.263c-0.192,-0.79 0.199,-1.587 0.898,-1.937l0.074,-0.035l0.041,-0.015c0.08,-0.035 0.162,-0.063 0.249,-0.085Z" style="fill:#997b56;fill-rule:nonzero;"/><path d="M172.186,91.174c0.138,0.569 0.712,0.919 1.282,0.781l-0.501,-2.065c-0.57,0.14 -0.92,0.712 -0.781,1.284Z" style="fill:#7f6849;fill-rule:nonzero;"/><path d="M181.47,87.14l0.776,3.197c0.194,0.8 0.149,1.606 -0.093,2.337c-0.037,0.116 -0.083,0.228 -0.13,0.338c-0.636,-6.232 -1.86,-6.86 -3.289,-6.5c-1.538,0.381 -2.348,-1.428 -2.348,-1.428l2.203,-1.016c0.146,0.047 0.289,0.097 0.43,0.159c1.186,0.519 2.124,1.566 2.451,2.913Z" style="fill:#7f6849;fill-rule:nonzero;"/><path d="M181.085,97.474l0.573,0.597l-1.086,2.109c-0.082,0.029 -0.163,0.05 -0.25,0.072l-0.039,0.013l-0.003,0l-0.053,0.012l0.51,-3.237l0.002,-0.006l0.084,-0.535l0.003,-0.003l0.008,-0.056l-0.21,-0.863l1.25,1.285l-0.748,0.581l-0.041,0.031Z" style="fill:#c68c38;fill-rule:nonzero;"/><path d="M179.94,100.355l0.046,-0.012c0.067,-0.016 0.133,-0.031 0.194,-0.053l0.047,-0.013l0.053,-0.012l0.003,0l0.125,-0.381l0.661,-2.054l-0.13,-0.534l0.295,-0.466l-0.368,-0.675c0,0 -0.016,0.063 -0.059,0.175l-0.005,0.01l0.002,0.006c-0.114,0.316 -0.395,0.963 -0.911,1.416c-0.114,0.093 -0.232,0.184 -0.372,0.256c-0.216,-0.006 -0.423,-0.047 -0.614,-0.109c-0.597,-0.188 -1.073,-0.588 -1.289,-0.797l-0.004,-0.007c-0.09,-0.081 -0.134,-0.128 -0.134,-0.128l-0.017,0.769l0.475,0.278l0.13,0.535l1.315,1.309l0.496,0.497l0.005,0.003l0.056,-0.013Z" style="fill:#fff;fill-rule:nonzero;"/><path d="M181.126,97.443l0.532,0.628l-1.336,2.181l-0.039,0.013l-0.003,0l-0.053,0.012l-0.047,0.013l0.493,-3.11l-0.001,-0.003l0.132,-0.831l-0.002,-0.006l0.005,-0.01l-0.209,-0.862l1.276,1.394l-0.816,0.503l0.068,0.078Z" style="fill:#dd9d41;fill-rule:nonzero;"/><path d="M179.849,100.374c-0.063,0.016 -0.122,0.028 -0.183,0.038l-0.004,0l-2.007,-1.372l0.236,-0.791l-0.051,-0.009l-0.931,-0.172l0.522,-1.716l0.183,0.753l0.026,0.11l0.005,0.006l0.016,0.025l0.005,0.006l0.331,0.447l0.001,0.006l1.942,2.65l-0.056,0.013l-0.017,0.003l-0.018,0.003Z" style="fill:#c68c38;fill-rule:nonzero;"/><path d="M179.849,100.374l-2.194,-1.334l0.185,-0.8l0.024,-0.1l-0.955,-0.072l0.495,-1.825l0.027,0.109l0.183,0.753l0.004,0.007l0.504,0.684l0.001,0.003l1.863,2.544l-0.046,0.012l-0.056,0.013l-0.017,0.003l-0.018,0.003Z" style="fill:#dd9d41;fill-rule:nonzero;"/><path d="M178.74,83.393c0,0 -2.234,-0.122 -2.636,-0.025c-0.403,0.097 -0.911,0.272 -1.663,0.659c-0.752,0.385 -1.745,1.544 -1.745,1.544l-0.122,0.484c-0.093,0.163 -0.186,0.341 -0.183,0.385c0.004,0.044 0.008,0.181 0.01,0.306l-0.1,0.397c0.023,-0.016 0.08,-0.05 0.149,-0.097l0.19,0.316c0.012,-0.01 0.263,-0.703 0.894,-1.266c0.83,-0.547 2.033,-0.928 3.054,-0.503c1.854,0.775 4.626,-0.613 4.626,-0.613l-2.474,-1.587Z" style="fill:#302816;fill-rule:nonzero;"/><path d="M216.929,73.884l-25.892,6.281c-0.397,0.097 -0.801,-0.15 -0.897,-0.547l-0.233,-0.959c-0.096,-0.397 0.149,-0.8 0.546,-0.897l25.893,-6.282c0.397,-0.096 0.8,0.147 0.896,0.544l0.234,0.963c0.096,0.397 -0.15,0.8 -0.547,0.897Z" style="fill:#fff;fill-rule:nonzero;"/><path d="M218.201,79.127l-25.892,6.282c-0.397,0.096 -0.8,-0.15 -0.896,-0.547l-0.234,-0.96c-0.096,-0.397 0.15,-0.8 0.546,-0.897l25.893,-6.284c0.397,-0.094 0.8,0.15 0.897,0.547l0.233,0.962c0.096,0.397 -0.15,0.8 -0.547,0.897Z" style="fill:#fff;fill-rule:nonzero;"/><path d="M219.474,84.368l-25.893,6.284c-0.397,0.097 -0.8,-0.15 -0.897,-0.547l-0.233,-0.962c-0.096,-0.397 0.15,-0.8 0.547,-0.897l25.892,-6.281c0.397,-0.097 0.8,0.15 0.897,0.547l0.233,0.959c0.096,0.397 -0.15,0.803 -0.546,0.897Z" style="fill:#fff;fill-rule:nonzero;"/><path d="M220.746,89.612l-25.893,6.284c-0.397,0.094 -0.8,-0.15 -0.896,-0.547l-0.233,-0.962c-0.097,-0.397 0.149,-0.8 0.546,-0.897l25.893,-6.281c0.396,-0.097 0.8,0.15 0.896,0.546l0.233,0.96c0.096,0.397 -0.149,0.8 -0.546,0.897Z" style="fill:#fff;fill-rule:nonzero;"/><path d="M204.617,116.896c-0.144,0 -0.29,-0.037 -0.425,-0.112c-1.322,-0.741 -2.686,-1.2 -4.057,-1.372c-0.478,-0.06 -0.818,-0.494 -0.758,-0.972c0.059,-0.481 0.491,-0.819 0.973,-0.76c1.596,0.2 3.175,0.732 4.694,1.582c0.421,0.234 0.571,0.768 0.335,1.187c-0.16,0.285 -0.456,0.447 -0.762,0.447Zm-13.12,0.984c-0.274,0 -0.543,-0.128 -0.713,-0.368c-0.278,-0.394 -0.184,-0.941 0.209,-1.216c1.409,-0.994 2.89,-1.728 4.404,-2.178c0.461,-0.138 0.948,0.125 1.085,0.584c0.138,0.463 -0.124,0.95 -0.586,1.088c-1.332,0.397 -2.644,1.047 -3.897,1.931c-0.153,0.106 -0.329,0.159 -0.502,0.159Zm19.669,5.497c-0.287,0 -0.569,-0.14 -0.735,-0.403c-0.836,-1.303 -1.767,-2.481 -2.769,-3.497c-0.339,-0.343 -0.335,-0.897 0.008,-1.234c0.343,-0.338 0.895,-0.334 1.234,0.009c1.087,1.103 2.095,2.375 2.996,3.782c0.26,0.406 0.141,0.946 -0.265,1.206c-0.146,0.094 -0.308,0.137 -0.469,0.137Zm-25.644,1.522c-0.133,0 -0.268,-0.028 -0.395,-0.094c-0.429,-0.218 -0.6,-0.743 -0.382,-1.171c0.737,-1.45 1.638,-2.81 2.677,-4.041c0.31,-0.369 0.86,-0.413 1.229,-0.103c0.368,0.312 0.414,0.862 0.104,1.231c-0.953,1.128 -1.779,2.372 -2.455,3.703c-0.154,0.303 -0.461,0.475 -0.778,0.475Zm29.135,7.053c-0.408,0 -0.772,-0.287 -0.855,-0.703c-0.285,-1.422 -0.724,-2.865 -1.306,-4.284c-0.182,-0.447 0.031,-0.956 0.477,-1.141c0.446,-0.181 0.955,0.031 1.138,0.478c0.623,1.525 1.096,3.075 1.402,4.607c0.094,0.471 -0.212,0.931 -0.684,1.025c-0.058,0.012 -0.116,0.018 -0.172,0.018Zm-31.173,1.922c-0.462,0 -0.848,-0.362 -0.87,-0.831c-0.013,-0.269 -0.02,-0.538 -0.02,-0.806c0,-1.332 0.16,-2.694 0.478,-4.05c0.11,-0.469 0.582,-0.763 1.047,-0.65c0.47,0.109 0.761,0.578 0.651,1.047c-0.286,1.225 -0.431,2.456 -0.431,3.653c0,0.24 0.005,0.481 0.017,0.722c0.024,0.481 -0.347,0.89 -0.829,0.912l-0.043,0.003Zm45.267,1.531c-0.135,0 -0.272,-0.031 -0.399,-0.096c-0.428,-0.222 -0.596,-0.747 -0.375,-1.175c0.687,-1.332 1.296,-2.729 1.811,-4.157c0.163,-0.456 0.662,-0.69 1.116,-0.525c0.453,0.163 0.688,0.663 0.525,1.116c-0.54,1.5 -1.181,2.969 -1.902,4.366c-0.155,0.3 -0.46,0.471 -0.776,0.471Zm-14.47,5.754c-0.076,0 -0.154,-0.01 -0.231,-0.032c-0.465,-0.128 -0.738,-0.606 -0.611,-1.072c0.409,-1.487 0.65,-2.965 0.716,-4.39c0.022,-0.481 0.414,-0.85 0.912,-0.831c0.481,0.025 0.853,0.431 0.831,0.912c-0.073,1.553 -0.334,3.159 -0.776,4.772c-0.107,0.387 -0.458,0.641 -0.841,0.641Zm-27.594,1.29c-0.263,0 -0.524,-0.119 -0.695,-0.344c-1.017,-1.337 -1.818,-2.771 -2.382,-4.262c-0.17,-0.453 0.058,-0.956 0.508,-1.125c0.45,-0.169 0.954,0.056 1.124,0.506c0.504,1.335 1.224,2.622 2.139,3.825c0.292,0.385 0.217,0.931 -0.167,1.225c-0.157,0.119 -0.343,0.175 -0.527,0.175Zm36.708,0.525c-0.215,0 -0.431,-0.078 -0.6,-0.237c-0.349,-0.335 -0.364,-0.885 -0.032,-1.235c1.025,-1.078 1.989,-2.256 2.865,-3.497c0.278,-0.393 0.821,-0.487 1.216,-0.209c0.394,0.275 0.487,0.822 0.21,1.216c-0.925,1.309 -1.943,2.55 -3.026,3.69c-0.171,0.182 -0.402,0.272 -0.633,0.272Zm-29.613,5.391c-0.141,0 -0.283,-0.035 -0.415,-0.106c-1.448,-0.785 -2.794,-1.685 -4.001,-2.675c-0.372,-0.307 -0.426,-0.857 -0.12,-1.229c0.306,-0.371 0.856,-0.425 1.228,-0.121c1.121,0.921 2.374,1.759 3.724,2.49c0.424,0.231 0.581,0.76 0.351,1.185c-0.157,0.29 -0.457,0.456 -0.767,0.456Zm22.265,0.25c-0.312,0 -0.614,-0.169 -0.771,-0.466c-0.226,-0.425 -0.065,-0.953 0.361,-1.178c1.302,-0.694 2.574,-1.516 3.778,-2.444c0.382,-0.293 0.93,-0.222 1.224,0.16c0.294,0.381 0.223,0.928 -0.158,1.222c-1.282,0.987 -2.636,1.865 -4.025,2.603c-0.131,0.068 -0.271,0.103 -0.409,0.103Zm-63.335,0.681c-0.291,0 -0.576,-0.147 -0.741,-0.412c-0.845,-1.357 -1.625,-2.747 -2.317,-4.138c-0.214,-0.431 -0.038,-0.956 0.393,-1.169c0.431,-0.215 0.955,-0.04 1.17,0.391c0.667,1.341 1.418,2.684 2.234,3.994c0.255,0.406 0.131,0.947 -0.278,1.2c-0.144,0.09 -0.303,0.134 -0.461,0.134Zm49.862,1.978c-0.038,0 -0.075,0 -0.113,-0.006c-1.527,-0.197 -3.106,-0.566 -4.691,-1.097c-0.457,-0.153 -0.704,-0.647 -0.551,-1.103c0.154,-0.456 0.647,-0.703 1.104,-0.55c1.479,0.494 2.946,0.837 4.361,1.019c0.477,0.062 0.815,0.5 0.753,0.978c-0.056,0.44 -0.431,0.759 -0.863,0.759Zm4.638,0.069c-0.443,0 -0.823,-0.338 -0.867,-0.788c-0.047,-0.481 0.304,-0.906 0.784,-0.953c0.835,-0.081 1.674,-0.215 2.511,-0.4c-0.227,-0.29 -0.254,-0.703 -0.037,-1.025c0.864,-1.284 1.622,-2.603 2.253,-3.922c0.208,-0.434 0.729,-0.618 1.163,-0.409c0.435,0.206 0.619,0.728 0.41,1.163c-0.604,1.265 -1.318,2.528 -2.125,3.759c0.067,-0.022 0.133,-0.041 0.199,-0.063c0.462,-0.14 0.949,0.116 1.093,0.572c0.143,0.463 -0.113,0.95 -0.573,1.094c-1.559,0.488 -3.149,0.813 -4.725,0.966c-0.029,0.003 -0.058,0.006 -0.086,0.006Zm-2.998,5.181c-0.238,0 -0.475,-0.097 -0.648,-0.287c-0.322,-0.36 -0.294,-0.91 0.064,-1.232c1.135,-1.025 2.211,-2.112 3.197,-3.237c0.318,-0.363 0.869,-0.397 1.232,-0.081c0.361,0.318 0.398,0.868 0.08,1.231c-1.031,1.175 -2.155,2.312 -3.341,3.381c-0.167,0.15 -0.376,0.225 -0.584,0.225Zm-45.822,0.131c-0.229,0 -0.458,-0.09 -0.629,-0.268c-1.07,-1.116 -2.11,-2.328 -3.092,-3.607c-0.293,-0.381 -0.222,-0.928 0.16,-1.221c0.383,-0.294 0.929,-0.222 1.223,0.159c0.944,1.228 1.941,2.391 2.968,3.459c0.333,0.35 0.322,0.9 -0.026,1.235c-0.169,0.162 -0.387,0.243 -0.604,0.243Zm38.268,5.266c-0.307,0 -0.604,-0.162 -0.764,-0.45c-0.233,-0.422 -0.081,-0.95 0.34,-1.184c1.316,-0.732 2.61,-1.55 3.847,-2.432c0.391,-0.281 0.936,-0.19 1.217,0.2c0.28,0.394 0.189,0.938 -0.203,1.219c-1.29,0.922 -2.641,1.775 -4.015,2.538c-0.133,0.075 -0.279,0.109 -0.422,0.109Zm-31.04,0.55c-0.151,0 -0.305,-0.041 -0.445,-0.122c-1.336,-0.797 -2.652,-1.715 -3.912,-2.737c-0.375,-0.303 -0.432,-0.85 -0.129,-1.225c0.303,-0.375 0.852,-0.435 1.227,-0.132c1.194,0.969 2.442,1.841 3.706,2.594c0.414,0.247 0.55,0.781 0.304,1.197c-0.163,0.272 -0.453,0.425 -0.751,0.425Zm22.434,2.934c-0.387,0 -0.74,-0.259 -0.843,-0.653c-0.122,-0.465 0.157,-0.943 0.623,-1.065c1.435,-0.375 2.884,-0.86 4.302,-1.435c0.448,-0.181 0.956,0.032 1.137,0.478c0.182,0.447 -0.033,0.957 -0.479,1.138c-1.489,0.603 -3.01,1.112 -4.518,1.506c-0.074,0.019 -0.149,0.031 -0.222,0.031Zm-13.82,0.457c-0.06,0 -0.12,-0.007 -0.181,-0.019c-1.556,-0.328 -3.099,-0.794 -4.586,-1.381c-0.448,-0.175 -0.668,-0.682 -0.49,-1.132c0.177,-0.446 0.684,-0.665 1.132,-0.49c1.395,0.553 2.844,0.987 4.305,1.297c0.471,0.1 0.772,0.562 0.673,1.034c-0.087,0.409 -0.449,0.691 -0.853,0.691Zm5.819,0.6c-0.415,0 -0.829,-0.01 -1.244,-0.025c-0.481,-0.019 -0.856,-0.425 -0.836,-0.907c0.02,-0.481 0.433,-0.853 0.907,-0.837c1.494,0.062 2.999,0.006 4.508,-0.169c0.477,-0.056 0.911,0.291 0.966,0.769c0.055,0.478 -0.289,0.909 -0.767,0.966c-1.18,0.134 -2.369,0.203 -3.534,0.203Z" style="fill:#fff;fill-rule:nonzero;"/><path d="M232.897,136.643c-0.405,0 -0.814,-0.016 -1.224,-0.044c-0.235,-0.015 -0.47,-0.037 -0.703,-0.062c2.429,-8.822 3.889,-17.407 4.501,-24.775c0.131,-1.582 0.354,-4.682 0.377,-8.853c8.469,1.493 14.609,9.178 13.985,17.943c-0.637,8.953 -8.098,15.791 -16.936,15.791Z" style="fill:#e1e2e1;fill-rule:nonzero;"/><path d="M230.97,136.537c-7.381,-0.832 -13.2,-6.319 -14.707,-13.294l4.486,-0.284c0.837,-0.054 1.479,-0.782 1.426,-1.619l-0.036,-0.572l0.097,-0.006c0.838,-0.053 1.48,-0.782 1.426,-1.619l-0.839,-13.2c2.829,-2.078 6.311,-3.294 10.039,-3.294c0.405,0 0.813,0.016 1.224,0.044c0.597,0.041 1.185,0.116 1.762,0.216c-0.023,4.171 -0.246,7.271 -0.377,8.853c-0.612,7.368 -2.072,15.953 -4.501,24.775Zm-0.362,-7.138c-0.357,0 -0.692,0.222 -0.82,0.578c-0.515,1.428 -1.124,2.825 -1.811,4.157c-0.221,0.428 -0.053,0.953 0.375,1.175c0.127,0.065 0.264,0.096 0.399,0.096c0.316,0 0.621,-0.171 0.776,-0.471c0.721,-1.397 1.362,-2.866 1.902,-4.366c0.163,-0.453 -0.072,-0.953 -0.525,-1.116c-0.098,-0.037 -0.198,-0.053 -0.296,-0.053Z" style="fill:#e1e2e1;fill-rule:nonzero;"/><path d="M216.263,123.243c-0.147,-0.681 -0.253,-1.375 -0.315,-2.081l6.191,-0.394l0.036,0.572c0.053,0.837 -0.589,1.565 -1.426,1.619l-4.486,0.284Z" style="fill:#cccecd;fill-rule:nonzero;"/><path d="M215.948,121.162c-0.079,-0.891 -0.088,-1.8 -0.022,-2.722c0.029,-0.41 0.072,-0.816 0.129,-1.216l1.449,-0.09c0.407,-0.025 0.72,-0.382 0.693,-0.788l-0.063,-0.987c-0.025,-0.391 -0.353,-0.697 -0.74,-0.697c-0.016,0 -0.032,0.003 -0.048,0.003l-0.735,0.047c1.082,-3.578 3.301,-6.632 6.212,-8.769l0.839,13.2c0.054,0.837 -0.588,1.566 -1.426,1.619l-0.097,0.006l-6.191,0.394Z" style="fill:#e2e3e2;fill-rule:nonzero;"/><path d="M216.055,117.224c0.124,-0.859 0.311,-1.7 0.556,-2.512l0.735,-0.047c0.016,0 0.032,-0.003 0.048,-0.003c0.387,0 0.715,0.306 0.74,0.697l0.063,0.987c0.027,0.406 -0.286,0.763 -0.693,0.788l-1.449,0.09Z" style="fill:#95b0c9;fill-rule:nonzero;"/><path d="M228.751,135.405c-0.135,0 -0.272,-0.031 -0.399,-0.096c-0.428,-0.222 -0.596,-0.747 -0.375,-1.175c0.687,-1.332 1.296,-2.729 1.811,-4.157c0.128,-0.356 0.463,-0.578 0.82,-0.578c0.098,0 0.198,0.016 0.296,0.053c0.453,0.163 0.688,0.663 0.525,1.116c-0.54,1.5 -1.181,2.969 -1.902,4.366c-0.155,0.3 -0.46,0.471 -0.776,0.471Z" style="fill:#e2e3e2;fill-rule:nonzero;"/><path d="M253.446,118.821c-0.667,9.363 -8.797,16.416 -18.16,15.747c-9.363,-0.666 -16.413,-8.797 -15.747,-18.159c0.666,-9.363 8.796,-16.413 18.16,-15.747c9.363,0.665 16.413,8.797 15.747,18.159Z" style="fill:#fdb73a;fill-rule:nonzero;"/><path d="M232.385,118.546c-0.069,0.978 0.081,1.741 0.451,2.291c0.37,0.55 0.886,0.85 1.546,0.897c0.765,0.053 1.461,-0.204 2.087,-0.772c0.626,-0.572 1.123,-1.31 1.491,-2.222c0.367,-0.913 0.582,-1.803 0.644,-2.675c0.031,-0.431 0.008,-0.825 -0.069,-1.178c-0.077,-0.353 -0.206,-0.669 -0.387,-0.944c-0.182,-0.275 -0.408,-0.488 -0.679,-0.644c-0.272,-0.153 -0.587,-0.244 -0.945,-0.269c-0.717,-0.05 -1.383,0.182 -1.997,0.7c-0.614,0.516 -1.108,1.21 -1.48,2.082c-0.373,0.868 -0.594,1.781 -0.662,2.734Zm7.135,-5.856l0.402,-1.335l3.227,0.232l-2.481,8.628c-0.154,0.547 -0.237,0.909 -0.25,1.087c-0.013,0.188 0.023,0.338 0.11,0.45c0.085,0.113 0.194,0.175 0.324,0.185c0.44,0.031 1.029,-0.216 1.766,-0.741c0.738,-0.525 1.4,-1.266 1.988,-2.216c0.588,-0.953 0.923,-2.018 1.007,-3.19c0.069,-0.978 -0.05,-1.913 -0.36,-2.803c-0.309,-0.888 -0.791,-1.675 -1.447,-2.363c-0.655,-0.684 -1.486,-1.244 -2.49,-1.675c-1.006,-0.431 -2.16,-0.694 -3.463,-0.787c-1.329,-0.094 -2.559,-0.007 -3.691,0.259c-1.133,0.269 -2.142,0.697 -3.027,1.284c-0.885,0.588 -1.643,1.338 -2.273,2.25c-0.556,0.797 -1,1.691 -1.333,2.682c-0.332,0.993 -0.536,2.015 -0.611,3.065c-0.099,1.4 0.088,2.703 0.564,3.903c0.475,1.2 1.217,2.232 2.224,3.094c1.007,0.863 2.253,1.51 3.736,1.947c1.484,0.438 3.182,0.625 5.094,0.566c1.52,-0.072 2.821,-0.322 3.904,-0.753c1.083,-0.432 2.02,-1.079 2.809,-1.938l2.603,0.184c-0.485,0.844 -1.093,1.582 -1.822,2.216c-0.729,0.638 -1.566,1.156 -2.511,1.559c-0.946,0.404 -1.994,0.688 -3.144,0.854c-1.15,0.162 -2.393,0.196 -3.729,0.103c-2.004,-0.144 -3.79,-0.535 -5.357,-1.175c-1.568,-0.638 -2.865,-1.494 -3.89,-2.56c-1.025,-1.068 -1.77,-2.309 -2.234,-3.722c-0.465,-1.412 -0.638,-2.95 -0.52,-4.612c0.124,-1.734 0.528,-3.334 1.214,-4.803c0.686,-1.466 1.612,-2.716 2.779,-3.75c1.166,-1.035 2.556,-1.81 4.169,-2.325c1.613,-0.516 3.364,-0.706 5.254,-0.572c1.548,0.109 2.952,0.437 4.211,0.981c1.259,0.544 2.319,1.272 3.179,2.185c0.861,0.912 1.492,1.968 1.894,3.162c0.402,1.197 0.554,2.494 0.454,3.897c-0.078,1.091 -0.35,2.147 -0.815,3.166c-0.466,1.018 -1.093,1.918 -1.881,2.703c-0.789,0.781 -1.694,1.381 -2.714,1.797c-1.02,0.412 -2.1,0.581 -3.241,0.5c-0.66,-0.047 -1.165,-0.197 -1.516,-0.447c-0.35,-0.25 -0.569,-0.622 -0.657,-1.122c-0.759,0.65 -1.605,1.034 -2.538,1.153c-0.934,0.119 -1.82,-0.031 -2.658,-0.447c-0.839,-0.416 -1.495,-1.062 -1.969,-1.941c-0.474,-0.875 -0.667,-1.931 -0.58,-3.159c0.092,-1.278 0.456,-2.519 1.094,-3.719c0.638,-1.197 1.493,-2.156 2.563,-2.875c1.071,-0.718 2.245,-1.031 3.525,-0.94c1.466,0.103 2.502,0.731 3.108,1.878Z" style="fill:#fff;fill-rule:nonzero;"/><path d="M186.536,23.39l1.837,-0.966c0.416,-0.219 0.902,0.135 0.823,0.597l-0.351,2.047c-0.032,0.184 0.029,0.372 0.163,0.5l1.486,1.45c0.337,0.328 0.151,0.9 -0.314,0.969l-2.054,0.297c-0.185,0.028 -0.345,0.143 -0.427,0.312l-0.919,1.859c-0.208,0.422 -0.809,0.422 -1.017,0l-0.919,-1.859c-0.082,-0.169 -0.242,-0.284 -0.427,-0.312l-2.053,-0.297c-0.466,-0.069 -0.652,-0.641 -0.315,-0.969l1.486,-1.45c0.134,-0.128 0.195,-0.316 0.163,-0.5l-0.351,-2.047c-0.079,-0.462 0.407,-0.816 0.823,-0.597l1.838,0.966c0.165,0.087 0.362,0.087 0.528,0Z" style="fill:#4b3896;fill-rule:nonzero;"/><path d="M39.609,166.246c0,1.375 -1.114,2.488 -2.487,2.488c-1.374,0 -2.488,-1.113 -2.488,-2.488c0,-1.372 1.114,-2.487 2.488,-2.487c1.373,0 2.487,1.115 2.487,2.487Z" style="fill:#4b3896;fill-rule:nonzero;"/><path d="M140.332,193.177c0,1.241 -1.005,2.244 -2.244,2.244c-1.24,0 -2.245,-1.003 -2.245,-2.244c0,-1.24 1.005,-2.247 2.245,-2.247c1.239,0 2.244,1.007 2.244,2.247Z" style="fill:#4b3896;fill-rule:nonzero;"/><path d="M103.074,14.884c0,1.237 -1.005,2.243 -2.245,2.243c-1.239,0 -2.245,-1.006 -2.245,-2.243c0,-1.241 1.006,-2.247 2.245,-2.247c1.24,0 2.245,1.006 2.245,2.247Z" style="fill:#4b3896;fill-rule:nonzero;"/></svg>