<?xml version="1.0" encoding="UTF-8" standalone="no"?>
<!DOCTYPE svg PUBLIC "-//W3C//DTD SVG 1.1//EN" "http://www.w3.org/Graphics/SVG/1.1/DTD/svg11.dtd">
<svg width="100%" height="100%" viewBox="0 0 3439 4396" version="1.1" xmlns="http://www.w3.org/2000/svg" xmlns:xlink="http://www.w3.org/1999/xlink" xml:space="preserve" xmlns:serif="http://www.serif.com/" style="fill-rule:evenodd;clip-rule:evenodd;stroke-linejoin:round;stroke-miterlimit:2;">
    <g transform="matrix(4.16667,0,0,4.16667,81.8766,102.188)">
        <path d="M380.067,632.787C378.811,632.787 377.547,632.755 376.263,632.695C318.867,629.953 289.964,568.584 289.679,567.964L292.669,566.587C292.947,567.189 321.042,626.76 376.42,629.406C431.731,632.058 460.627,573.82 460.912,573.23L463.876,574.666C463.586,575.26 435.057,632.787 380.067,632.787Z" style="fill:rgb(161,214,195);fill-rule:nonzero;"/>
    </g>
    <g transform="matrix(4.16667,0,0,4.16667,81.8766,102.188)">
        <path d="M430.584,107.842L429.753,106.494C427.055,108.16 424.385,109.952 421.815,111.821L422.749,113.101C425.283,111.256 427.921,109.487 430.584,107.842Z" style="fill:white;fill-rule:nonzero;"/>
    </g>
    <g transform="matrix(4.16667,0,0,4.16667,81.8766,102.188)">
        <path d="M464.77,91.492C461.709,92.293 458.631,93.222 455.622,94.255L456.138,95.753C459.108,94.733 462.147,93.815 465.171,93.024L464.77,91.492Z" style="fill:white;fill-rule:nonzero;"/>
    </g>
    <g transform="matrix(4.16667,0,0,4.16667,81.8766,102.188)">
        <path d="M415.33,118.936L414.305,117.729C411.89,119.781 409.52,121.955 407.26,124.19L408.375,125.316C410.605,123.109 412.945,120.962 415.33,118.936Z" style="fill:white;fill-rule:nonzero;"/>
    </g>
    <g transform="matrix(4.16667,0,0,4.16667,81.8766,102.188)">
        <path d="M447.329,99.147L446.704,97.692C443.794,98.941 440.871,100.323 438.066,101.778L438.795,103.184C441.564,101.747 444.441,100.385 447.329,99.147Z" style="fill:white;fill-rule:nonzero;"/>
    </g>
    <g transform="matrix(4.16667,0,0,4.16667,81.8766,102.188)">
        <path d="M401.926,132.196L400.73,131.157C398.65,133.551 396.636,136.055 394.741,138.599L396.012,139.545C397.882,137.033 399.872,134.56 401.926,132.196Z" style="fill:white;fill-rule:nonzero;"/>
    </g>
    <g transform="matrix(4.16667,0,0,4.16667,81.8766,102.188)">
        <path d="M381.786,163.961L380.337,163.323C379.055,166.23 377.867,169.219 376.807,172.206L378.301,172.735C379.347,169.785 380.52,166.834 381.786,163.961Z" style="fill:white;fill-rule:nonzero;"/>
    </g>
    <g transform="matrix(4.16667,0,0,4.16667,81.8766,102.188)">
        <path d="M483.563,88.069C480.407,88.399 477.225,88.856 474.102,89.426L474.387,90.983C477.469,90.421 480.613,89.971 483.729,89.644L483.563,88.069Z" style="fill:white;fill-rule:nonzero;"/>
    </g>
    <g transform="matrix(4.16667,0,0,4.16667,81.8766,102.188)">
        <path d="M390.666,147.32L389.33,146.47C387.634,149.144 386.014,151.922 384.517,154.728L385.915,155.473C387.393,152.703 388.992,149.96 390.666,147.32Z" style="fill:white;fill-rule:nonzero;"/>
    </g>
    <g transform="matrix(4.16667,0,0,4.16667,81.8766,102.188)">
        <path d="M375.477,181.746L373.948,181.329C373.113,184.397 372.383,187.531 371.78,190.641L373.335,190.942C373.931,187.871 374.651,184.776 375.477,181.746Z" style="fill:white;fill-rule:nonzero;"/>
    </g>
    <g transform="matrix(4.16667,0,0,4.16667,81.8766,102.188)">
        <path d="M587.904,125.686C585.684,123.417 583.353,121.206 580.974,119.117L579.927,120.307C582.277,122.37 584.581,124.552 586.773,126.794L587.904,125.686Z" style="fill:white;fill-rule:nonzero;"/>
    </g>
    <g transform="matrix(4.16667,0,0,4.16667,81.8766,102.188)">
        <path d="M608.735,157.336L610.144,156.614C608.689,153.775 607.118,150.969 605.475,148.277L604.122,149.101C605.746,151.761 607.298,154.532 608.735,157.336Z" style="fill:white;fill-rule:nonzero;"/>
    </g>
    <g transform="matrix(4.16667,0,0,4.16667,81.8766,102.188)">
        <path d="M502.68,87.518C499.506,87.369 496.286,87.34 493.113,87.432L493.158,89.015C496.293,88.925 499.472,88.953 502.605,89.1L502.68,87.518Z" style="fill:white;fill-rule:nonzero;"/>
    </g>
    <g transform="matrix(4.16667,0,0,4.16667,81.8766,102.188)">
        <path d="M385.584,273.422L384.183,274.16C385.659,276.967 387.261,279.755 388.944,282.446L390.286,281.606C388.625,278.949 387.042,276.196 385.584,273.422Z" style="fill:white;fill-rule:nonzero;"/>
    </g>
    <g transform="matrix(4.16667,0,0,4.16667,81.8766,102.188)">
        <path d="M407.885,303.718L406.764,304.838C409.005,307.079 411.362,309.262 413.768,311.33L414.801,310.128C412.424,308.086 410.097,305.929 407.885,303.718Z" style="fill:white;fill-rule:nonzero;"/>
    </g>
    <g transform="matrix(4.16667,0,0,4.16667,81.8766,102.188)">
        <path d="M401.466,296.797C399.427,294.424 397.449,291.94 395.589,289.413L394.313,290.352C396.196,292.91 398.199,295.426 400.265,297.831L401.466,296.797Z" style="fill:white;fill-rule:nonzero;"/>
    </g>
    <g transform="matrix(4.16667,0,0,4.16667,81.8766,102.188)">
        <path d="M600.193,140.311C598.34,137.734 596.365,135.195 594.324,132.766L593.113,133.786C595.127,136.184 597.077,138.69 598.906,141.235L600.193,140.311Z" style="fill:white;fill-rule:nonzero;"/>
    </g>
    <g transform="matrix(4.16667,0,0,4.16667,81.8766,102.188)">
        <path d="M573.563,113.087C571.033,111.182 568.396,109.346 565.723,107.63L564.866,108.963C567.507,110.658 570.112,112.471 572.612,114.353L573.563,113.087Z" style="fill:white;fill-rule:nonzero;"/>
    </g>
    <g transform="matrix(4.16667,0,0,4.16667,81.8766,102.188)">
        <path d="M612.447,264.282L613.902,264.906C615.152,261.992 616.305,258.99 617.334,255.983L615.836,255.469C614.82,258.44 613.68,261.405 612.447,264.282Z" style="fill:white;fill-rule:nonzero;"/>
    </g>
    <g transform="matrix(4.16667,0,0,4.16667,81.8766,102.188)">
        <path d="M618.558,246.427L620.09,246.829C620.892,243.767 621.586,240.627 622.157,237.493L620.599,237.209C620.035,240.303 619.348,243.406 618.558,246.427Z" style="fill:white;fill-rule:nonzero;"/>
    </g>
    <g transform="matrix(4.16667,0,0,4.16667,81.8766,102.188)">
        <path d="M557.495,102.773C554.702,101.263 551.818,99.842 548.924,98.545L548.277,99.991C551.135,101.27 553.983,102.675 556.743,104.166L557.495,102.773Z" style="fill:white;fill-rule:nonzero;"/>
    </g>
    <g transform="matrix(4.16667,0,0,4.16667,81.8766,102.188)">
        <path d="M621.941,227.861L623.518,228.028C623.851,224.875 624.07,221.664 624.166,218.484L622.581,218.435C622.486,221.576 622.271,224.747 621.941,227.861Z" style="fill:white;fill-rule:nonzero;"/>
    </g>
    <g transform="matrix(4.16667,0,0,4.16667,81.8766,102.188)">
        <path d="M421.242,317.276C423.794,319.155 426.454,320.962 429.145,322.648L429.985,321.304C427.328,319.641 424.702,317.857 422.181,316.001L421.242,317.276Z" style="fill:white;fill-rule:nonzero;"/>
    </g>
    <g transform="matrix(4.16667,0,0,4.16667,81.8766,102.188)">
        <path d="M611.611,163.335C612.897,166.206 614.088,169.15 615.15,172.085L616.641,171.545C615.564,168.574 614.359,165.593 613.057,162.687L611.611,163.335Z" style="fill:white;fill-rule:nonzero;"/>
    </g>
    <g transform="matrix(4.16667,0,0,4.16667,81.8766,102.188)">
        <path d="M620.225,190.253L621.777,189.942C621.154,186.818 620.405,183.69 619.553,180.647L618.029,181.073C618.869,184.079 619.607,187.168 620.225,190.253Z" style="fill:white;fill-rule:nonzero;"/>
    </g>
    <g transform="matrix(4.16667,0,0,4.16667,81.8766,102.188)">
        <path d="M622.507,208.988L624.089,208.917C623.944,205.742 623.675,202.534 623.291,199.38L621.719,199.572C622.099,202.685 622.364,205.854 622.507,208.988Z" style="fill:white;fill-rule:nonzero;"/>
    </g>
    <g transform="matrix(4.16667,0,0,4.16667,81.8766,102.188)">
        <path d="M371.113,219.139L369.531,219.194C369.64,222.368 369.872,225.579 370.221,228.738L371.796,228.564C371.451,225.444 371.221,222.273 371.113,219.139Z" style="fill:white;fill-rule:nonzero;"/>
    </g>
    <g transform="matrix(4.16667,0,0,4.16667,81.8766,102.188)">
        <path d="M373.187,237.899L371.63,238.192C372.217,241.311 372.93,244.447 373.75,247.511L375.28,247.102C374.471,244.076 373.767,240.979 373.187,237.899Z" style="fill:white;fill-rule:nonzero;"/>
    </g>
    <g transform="matrix(4.16667,0,0,4.16667,81.8766,102.188)">
        <path d="M378.058,256.122L376.563,256.644C377.608,259.635 378.781,262.628 380.048,265.543L381.501,264.911C380.249,262.033 379.091,259.076 378.058,256.122Z" style="fill:white;fill-rule:nonzero;"/>
    </g>
    <g transform="matrix(4.16667,0,0,4.16667,81.8766,102.188)">
        <path d="M371.888,200.275L370.315,200.091C369.945,203.246 369.692,206.454 369.562,209.627L371.145,209.692C371.273,206.559 371.523,203.39 371.888,200.275Z" style="fill:white;fill-rule:nonzero;"/>
    </g>
    <g transform="matrix(4.16667,0,0,4.16667,81.8766,102.188)">
        <path d="M592.657,296.271L593.866,297.295C595.922,294.874 597.909,292.348 599.771,289.787L598.49,288.856C596.651,291.384 594.688,293.879 592.657,296.271Z" style="fill:white;fill-rule:nonzero;"/>
    </g>
    <g transform="matrix(4.16667,0,0,4.16667,81.8766,102.188)">
        <path d="M603.75,281.019L605.097,281.853C606.763,279.164 608.352,276.368 609.817,273.544L608.412,272.814C606.963,275.603 605.394,278.364 603.75,281.019Z" style="fill:white;fill-rule:nonzero;"/>
    </g>
    <g transform="matrix(4.16667,0,0,4.16667,81.8766,102.188)">
        <path d="M521.651,89.84C518.534,89.219 515.357,88.708 512.21,88.321L512.017,89.895C515.125,90.274 518.263,90.78 521.341,91.395L521.651,89.84Z" style="fill:white;fill-rule:nonzero;"/>
    </g>
    <g transform="matrix(4.16667,0,0,4.16667,81.8766,102.188)">
        <path d="M575.949,327.043C578.485,366.878 487.147,356.962 449.776,351.26C439.414,349.678 429.286,347.009 419.486,343.291C388.992,331.714 322.697,303.587 336.129,282.335C353.458,254.915 387.621,281.62 387.621,281.62C387.621,281.62 386.56,258.598 452.838,254.38C519.115,250.163 510.827,299.088 510.827,299.088C510.827,299.088 572.765,276.998 575.949,327.043Z" style="fill:url(#_Linear1);"/>
    </g>
    <g transform="matrix(4.16667,0,0,4.16667,81.8766,102.188)">
        <path d="M268.904,654.212C268.904,654.212 268.789,510.97 171.472,471.688C48.112,603.556 178.13,724.528 178.13,724.528L268.904,654.212Z" style="fill:rgb(52,42,112);fill-rule:nonzero;"/>
    </g>
    <g transform="matrix(4.16667,0,0,4.16667,81.8766,102.188)">
        <path d="M171.472,471.688C171.042,472.148 170.628,472.605 170.205,473.064L212.5,636.456L118.346,589.392C118.326,590.566 118.321,591.734 118.329,592.898L213.544,640.492L225.749,687.641L228.453,685.547L204.123,591.557L204.124,591.558L244.75,546.034C244.27,545.003 243.786,543.975 243.287,542.949L203.175,587.897L173.296,472.466C172.686,472.209 172.09,471.937 171.473,471.688L171.472,471.688Z" style="fill:white;fill-rule:nonzero;"/>
    </g>
    <g transform="matrix(4.16667,0,0,4.16667,81.8766,102.188)">
        <path d="M223.847,635.86C223.847,635.86 134.488,524.418 35.603,542.432C-3.558,656.789 117.343,719.849 117.343,719.849L241.791,730.649L223.847,635.86Z" style="fill:rgb(179,160,205);fill-rule:nonzero;"/>
    </g>
    <g transform="matrix(4.16667,0,0,4.16667,81.8766,102.188)">
        <path d="M144.268,567.359L134.176,629.892L37.949,542.051C37.167,542.178 36.386,542.29 35.603,542.432C35.448,542.882 35.318,543.325 35.169,543.773L86.707,590.819L28.21,597.222C28.256,597.78 28.319,598.33 28.372,598.883L28.533,600.35L89.8,593.643L175.688,672.045L73.381,686.558C74.333,687.5 75.283,688.427 76.232,689.33L178.7,674.794L239.688,730.467L241.791,730.649L241.213,727.6L136.954,632.427L147.171,569.116C146.21,568.525 145.242,567.94 144.268,567.359Z" style="fill:rgb(102,80,161);fill-rule:nonzero;"/>
    </g>
    <g transform="matrix(4.16667,0,0,4.16667,81.8766,102.188)">
        <path d="M209.46,702.676C209.46,702.676 94.792,670.024 46.476,733.878C105.357,886.421 284.63,824.029 284.63,824.029L209.46,702.676Z" style="fill:rgb(255,207,83);fill-rule:nonzero;"/>
    </g>
    <g transform="matrix(4.16667,0,0,4.16667,81.8766,102.188)">
        <path d="M46.477,733.881C46.704,734.469 46.939,735.043 47.17,735.626L205.41,767.764L137.976,824.135C139.135,824.544 140.297,824.938 141.461,825.322L209.355,768.565L271.161,781.118L268.154,777.295L147.822,752.856L110.63,697.338C109.516,697.548 108.404,697.772 107.292,698.007L143.439,751.965L47.571,732.496C47.207,732.957 46.835,733.405 46.478,733.876L46.477,733.881Z" style="fill:white;fill-rule:nonzero;"/>
    </g>
    <g transform="matrix(4.16667,0,0,4.16667,81.8766,102.188)">
        <path d="M547.507,190.611C547.507,190.611 559.805,64.158 657.729,35.665C764.149,175.194 626.642,279.485 626.642,279.485L547.507,190.611Z" style="fill:rgb(179,160,205);fill-rule:nonzero;"/>
    </g>
    <g transform="matrix(4.16667,0,0,4.16667,81.8766,102.188)">
        <path d="M657.729,35.665C658.1,36.15 658.457,36.634 658.821,37.118L601.997,190.977L697.622,154.651C697.526,155.788 697.417,156.918 697.296,158.042L600.593,194.778L584.196,239.176L581.786,236.887L614.473,148.381L614.473,148.382L579.63,100.404C580.195,99.455 580.763,98.508 581.346,97.565L615.747,144.935L655.891,36.239C656.505,36.05 657.108,35.846 657.729,35.665Z" style="fill:white;fill-rule:nonzero;"/>
    </g>
    <g transform="matrix(4.16667,0,0,4.16667,81.8766,102.188)">
        <path d="M591.083,189.294C591.083,189.294 688.349,90.255 782.204,117.313C792.699,162.251 780.081,197.127 760.89,222.909C733.226,260.075 688.763,280.926 642.437,280.282L564.492,279.197L591.083,189.294Z" style="fill:rgb(255,207,83);fill-rule:nonzero;"/>
    </g>
    <g transform="matrix(4.16667,0,0,4.16667,81.8766,102.188)">
        <path d="M674.706,130.82L678.367,192.267L779.972,116.716C780.716,116.915 781.46,117.098 782.204,117.313C782.309,117.763 782.391,118.204 782.492,118.651L728.074,159.116L784.009,171.009C783.911,171.544 783.797,172.069 783.691,172.599L783.393,174.002L724.808,161.544L634.119,228.977L731.624,252.984C730.612,253.801 729.603,254.606 728.598,255.386L630.94,231.342L566.543,279.225L564.492,279.197L565.347,276.304L675.434,194.447L671.728,132.236C672.714,131.758 673.708,131.287 674.706,130.82Z" style="fill:white;fill-rule:nonzero;"/>
    </g>
    <g transform="matrix(4.16667,0,0,4.16667,81.8766,102.188)">
        <path d="M0.546,79.261C-7.458,114.051 74.587,118.525 108.396,118.903C117.77,119.007 127.094,118.118 136.282,116.254C164.871,110.454 227.453,95.229 218.675,74.527C207.351,47.818 173.334,66.44 173.334,66.44C173.334,66.44 177.604,46.276 119.72,32.958C61.837,19.64 62.068,64.019 62.068,64.019C62.068,64.019 10.602,35.555 0.546,79.261Z" style="fill:url(#_Linear2);"/>
    </g>
    <g transform="matrix(4.16667,0,0,4.16667,81.8766,102.188)">
        <path d="M285.874,355.043L252.651,336.707L235.691,333.313L222.874,335.198L285.874,355.043Z" style="fill:url(#_Linear3);"/>
    </g>
    <g transform="matrix(4.16667,0,0,4.16667,81.8766,102.188)">
        <path d="M285.874,355.043L223.663,339.05L222.874,335.198" style="fill:rgb(185,188,188);fill-rule:nonzero;"/>
    </g>
    <g transform="matrix(4.16667,0,0,4.16667,81.8766,102.188)">
        <path d="M221.887,349.724L221.967,349.854L224.578,359.512L285.717,355.046L221.887,349.724Z" style="fill:rgb(146,149,149);fill-rule:nonzero;"/>
    </g>
    <g transform="matrix(4.16667,0,0,4.16667,81.8766,102.188)">
        <path d="M210.007,344.064L218.884,336.86L285.47,354.939L228.151,353.235L210.007,344.064Z" style="fill:url(#_Linear4);"/>
    </g>
    <g transform="matrix(4.16667,0,0,4.16667,81.8766,102.188)">
        <path d="M70.07,467.322C72.103,466.606 74.117,465.732 76.056,464.724C76.5,464.495 77.042,464.669 77.274,465.111C77.504,465.553 77.332,466.098 76.888,466.33C74.877,467.376 72.783,468.283 70.67,469.027C69.905,469.297 69.136,469.547 68.363,469.779C68.079,469.866 67.786,469.804 67.565,469.64C67.413,469.528 67.294,469.368 67.238,469.174C67.093,468.696 67.365,468.192 67.843,468.049C68.589,467.825 69.332,467.581 70.07,467.322Z" style="fill:white;fill-rule:nonzero;"/>
    </g>
    <g transform="matrix(4.16667,0,0,4.16667,81.8766,102.188)">
        <path d="M191.829,337.328C194.649,337.69 197.586,338.154 200.805,338.749C201.295,338.84 201.618,339.31 201.53,339.802C201.439,340.293 200.968,340.618 200.477,340.527C197.291,339.938 194.387,339.478 191.6,339.122C191.441,339.101 191.297,339.041 191.176,338.951C190.923,338.763 190.775,338.447 190.817,338.11C190.881,337.614 191.334,337.264 191.829,337.328Z" style="fill:white;fill-rule:nonzero;"/>
    </g>
    <g transform="matrix(4.16667,0,0,4.16667,81.8766,102.188)">
        <path d="M176.754,338.02C176.535,337.857 176.392,337.596 176.388,337.301C176.384,336.802 176.785,336.394 177.285,336.389C180.184,336.364 183.251,336.485 186.397,336.749C186.894,336.79 187.266,337.228 187.221,337.724C187.18,338.222 186.743,338.592 186.245,338.55C183.155,338.292 180.145,338.172 177.299,338.197C177.096,338.2 176.908,338.133 176.754,338.02Z" style="fill:white;fill-rule:nonzero;"/>
    </g>
    <g transform="matrix(4.16667,0,0,4.16667,81.8766,102.188)">
        <path d="M87.51,456.425C87.867,456.077 88.438,456.071 88.788,456.442C89.136,456.799 89.13,457.371 88.771,457.719C86.581,459.859 84.181,461.809 81.638,463.513C81.313,463.732 80.895,463.711 80.597,463.489L80.384,463.266C80.106,462.851 80.217,462.291 80.632,462.012C83.082,460.369 85.396,458.489 87.51,456.425Z" style="fill:white;fill-rule:nonzero;"/>
    </g>
    <g transform="matrix(4.16667,0,0,4.16667,81.8766,102.188)">
        <path d="M91.236,453.779C90.849,453.462 90.794,452.893 91.111,452.507C91.621,451.882 92.118,451.248 92.597,450.6C93.882,448.865 95.05,447.039 96.069,445.169C96.308,444.732 96.856,444.57 97.295,444.808C97.721,445.045 97.897,445.597 97.656,446.035C96.598,447.977 95.384,449.875 94.05,451.676C93.553,452.348 93.039,453.007 92.507,453.653C92.201,454.027 91.657,454.092 91.271,453.806L91.236,453.779Z" style="fill:white;fill-rule:nonzero;"/>
    </g>
    <g transform="matrix(4.16667,0,0,4.16667,81.8766,102.188)">
        <path d="M98.843,441.543L98.649,441.433C98.325,441.192 98.191,440.753 98.353,440.363C99.425,437.754 100.325,434.988 101.103,431.903C101.225,431.419 101.716,431.125 102.2,431.247C102.681,431.368 102.978,431.861 102.855,432.343C102.058,435.514 101.13,438.363 100.023,441.05C99.835,441.512 99.305,441.732 98.843,441.543Z" style="fill:white;fill-rule:nonzero;"/>
    </g>
    <g transform="matrix(4.16667,0,0,4.16667,81.8766,102.188)">
        <path d="M122.81,364.421C122.057,365.34 121.326,366.276 120.62,367.229C119.555,368.669 118.537,370.158 117.596,371.658C117.331,372.081 116.773,372.209 116.35,371.943L116.292,371.903C115.917,371.626 115.812,371.1 116.066,370.698C117.03,369.159 118.074,367.63 119.167,366.154C119.891,365.176 120.64,364.216 121.413,363.275C121.729,362.89 122.27,362.782 122.686,363.15C123.07,363.467 123.126,364.035 122.81,364.421Z" style="fill:white;fill-rule:nonzero;"/>
    </g>
    <g transform="matrix(4.16667,0,0,4.16667,81.8766,102.188)">
        <path d="M114.932,376.298C113.551,378.945 112.345,381.689 111.35,384.454C111.181,384.924 110.663,385.168 110.193,384.999L109.961,384.875C109.649,384.643 109.51,384.226 109.649,383.842C110.671,381 111.909,378.18 113.33,375.461C113.561,375.018 114.107,374.847 114.549,375.078C114.986,375.304 115.165,375.854 114.932,376.298Z" style="fill:white;fill-rule:nonzero;"/>
    </g>
    <g transform="matrix(4.16667,0,0,4.16667,81.8766,102.188)">
        <path d="M132.903,354.345C130.603,356.232 128.401,358.273 126.359,360.414C126.042,360.748 125.529,360.784 125.168,360.517L125.081,360.443C124.72,360.099 124.707,359.527 125.051,359.166C127.144,356.973 129.399,354.88 131.754,352.947C132.14,352.63 132.711,352.682 133.027,353.073C133.344,353.459 133.287,354.027 132.903,354.345Z" style="fill:white;fill-rule:nonzero;"/>
    </g>
    <g transform="matrix(4.16667,0,0,4.16667,81.8766,102.188)">
        <path d="M149.566,344.059C149.258,344.196 148.915,344.146 148.662,343.959C148.54,343.869 148.44,343.747 148.374,343.598C148.171,343.142 148.378,342.607 148.835,342.406C151.635,341.167 154.524,340.104 157.42,339.246C157.902,339.105 158.402,339.379 158.543,339.856C158.686,340.335 158.412,340.837 157.934,340.979C155.111,341.816 152.296,342.851 149.566,344.059Z" style="fill:white;fill-rule:nonzero;"/>
    </g>
    <g transform="matrix(4.16667,0,0,4.16667,81.8766,102.188)">
        <path d="M105.032,413.398C104.868,413.379 104.721,413.318 104.597,413.226C104.348,413.042 104.198,412.729 104.237,412.398L104.366,411.26C104.665,408.64 104.963,406.018 105.31,403.405C105.375,402.911 105.831,402.563 106.325,402.628C106.82,402.696 107.167,403.146 107.103,403.643C106.758,406.245 106.46,408.856 106.163,411.465L106.033,412.602C105.977,413.099 105.528,413.455 105.032,413.398Z" style="fill:white;fill-rule:nonzero;"/>
    </g>
    <g transform="matrix(4.16667,0,0,4.16667,81.8766,102.188)">
        <path d="M137.164,351.098C136.836,351.33 136.41,351.312 136.104,351.086L135.903,350.88C135.616,350.473 135.713,349.909 136.122,349.621C138.614,347.863 141.232,346.247 143.902,344.816C144.344,344.582 144.888,344.749 145.125,345.187C145.361,345.627 145.196,346.174 144.755,346.411C142.15,347.805 139.596,349.382 137.164,351.098Z" style="fill:white;fill-rule:nonzero;"/>
    </g>
    <g transform="matrix(4.16667,0,0,4.16667,81.8766,102.188)">
        <path d="M104.608,416.99C105.107,417.055 105.455,417.503 105.392,418.001C104.948,421.521 104.511,424.378 104.021,426.992C103.929,427.482 103.457,427.804 102.965,427.711C102.826,427.685 102.701,427.629 102.595,427.55C102.325,427.351 102.178,427.009 102.244,426.657C102.728,424.081 103.159,421.258 103.6,417.774C103.661,417.279 104.114,416.928 104.608,416.99Z" style="fill:white;fill-rule:nonzero;"/>
    </g>
    <g transform="matrix(4.16667,0,0,4.16667,81.8766,102.188)">
        <path d="M62.667,469.322C63.155,469.226 63.631,469.544 63.727,470.035C63.824,470.524 63.505,470.999 63.015,471.095C60.197,471.651 57.231,472.035 53.949,472.266C53.724,472.282 53.515,472.215 53.347,472.09C53.143,471.939 53.003,471.702 52.983,471.428C52.948,470.93 53.323,470.498 53.821,470.462C57.028,470.236 59.921,469.861 62.667,469.322Z" style="fill:white;fill-rule:nonzero;"/>
    </g>
    <g transform="matrix(4.16667,0,0,4.16667,81.8766,102.188)">
        <path d="M109.119,388.452C109.599,388.584 109.888,389.076 109.757,389.559C109.044,392.218 108.435,395.081 107.893,398.309C107.812,398.802 107.344,399.133 106.854,399.051C106.707,399.027 106.576,398.969 106.464,398.886C106.2,398.691 106.052,398.357 106.111,398.01C106.661,394.723 107.283,391.805 108.012,389.091C108.141,388.609 108.637,388.322 109.119,388.452Z" style="fill:white;fill-rule:nonzero;"/>
    </g>
    <g transform="matrix(4.16667,0,0,4.16667,81.8766,102.188)">
        <path d="M168.639,336.925C169.694,336.8 170.751,336.699 171.808,336.618C172.304,336.582 172.741,336.953 172.778,337.451C172.815,337.949 172.443,338.384 171.945,338.421C170.913,338.499 169.883,338.598 168.853,338.72C166.942,338.947 165.014,339.265 163.12,339.666C162.856,339.721 162.595,339.657 162.395,339.508C162.223,339.381 162.096,339.194 162.049,338.969C161.945,338.481 162.257,338.001 162.746,337.898C164.693,337.485 166.676,337.159 168.639,336.925Z" style="fill:white;fill-rule:nonzero;"/>
    </g>
    <g transform="matrix(4.16667,0,0,4.16667,81.8766,102.188)">
        <path d="M243.869,944.584C242.575,933.178 245.856,923.012 253.72,914.083C260.222,906.483 268.436,902.118 278.354,900.993C291.744,899.474 302.929,903.646 311.919,913.509C317.666,919.89 321.017,927.296 321.974,935.725C323.455,948.786 319.731,959.504 310.804,967.882C304.606,973.774 296.714,977.267 287.129,978.354C273.739,979.873 262.641,975.776 253.838,966.056C248.092,959.677 244.769,952.519 243.869,944.584ZM297.083,685.639C294.409,704.943 291.822,728.871 289.319,757.43C286.813,785.992 284.592,820.921 282.65,862.23L261.06,864.679C249.866,824.418 239.76,790.832 230.743,763.908C221.725,736.989 213.97,714.399 207.481,696.134C204.31,687.661 201.326,679.384 198.535,671.302C195.74,663.228 193.001,655.146 190.317,647.052C187.63,638.965 185.56,631.91 184.106,625.888C182.647,619.872 181.687,614.788 181.217,610.642C179.412,594.724 183.741,580.316 194.208,567.418C205.108,554.476 218.954,547.049 235.75,545.144C251.888,543.314 266.939,547.462 280.899,557.586C294.423,567.762 302.088,580.81 303.894,596.727C304.933,605.887 304.75,617.894 303.343,632.742C301.93,647.595 299.845,665.227 297.083,685.639Z" style="fill:rgb(87,196,196);fill-rule:nonzero;"/>
    </g>
    <g transform="matrix(4.16667,0,0,4.16667,81.8766,102.188)">
        <path d="M602.987,252.694C602.987,252.694 708.649,232.483 755.185,305.227C667.253,425.003 549.69,338.207 549.69,338.207L602.987,252.694Z" style="fill:rgb(52,42,112);fill-rule:nonzero;"/>
    </g>
    <g transform="matrix(4.16667,0,0,4.16667,81.8766,102.188)">
        <path d="M755.185,305.227C754.878,305.644 754.571,306.049 754.264,306.461L615.704,297.046L668.053,366.052C667.106,366.247 666.163,366.427 665.22,366.598L612.281,296.814L572.297,294.098L573.581,291.593L653.287,297.008L653.286,297.008L683.939,257.245C684.845,257.476 685.751,257.712 686.656,257.96L656.391,297.22L754.279,303.871C754.58,304.325 754.89,304.765 755.185,305.227Z" style="fill:white;fill-rule:nonzero;"/>
    </g>
    <g transform="matrix(4.16667,0,0,4.16667,81.8766,102.188)">
        <path d="M433.053,527.644C436.763,504.432 455.052,490.628 477.011,494.138C498.964,497.647 511.416,516.364 507.705,539.577C504.196,561.532 487.06,576.163 463.848,572.453C441.889,568.942 429.543,549.599 433.053,527.644ZM448.259,442.022L462.243,425.512C463.896,391.034 481.103,355.827 518.485,323.2C552.027,294.464 571.621,272.505 576.132,244.274C581.246,212.282 564.581,187.745 525.162,180.798C502.58,177.189 476.28,174.391 458.692,183.802L449.956,148.19C473.061,136.442 510.423,132.12 543.672,137.435C615.817,148.966 641.318,198.721 633.697,246.399C626.879,289.056 598.13,315.985 562.302,346.93C529.484,375.14 515.034,401.137 511.805,433.433L511.986,451.37L448.259,442.022Z" style="fill:rgb(102,80,161);fill-rule:nonzero;"/>
    </g>
    <g transform="matrix(4.16667,0,0,4.16667,81.8766,102.188)">
        <path d="M418.493,526.679C422.202,503.467 440.492,489.665 462.45,493.173C484.404,496.683 496.855,515.399 493.145,538.612C489.635,560.567 472.5,575.198 449.287,571.488C427.329,567.978 414.983,548.635 418.493,526.679ZM446.33,441.058L447.683,424.547C449.335,390.07 466.542,354.863 503.924,322.235C537.467,293.5 557.06,271.541 561.572,243.309C566.686,211.317 550.02,186.78 510.602,179.834C488.02,176.224 461.72,179.742 444.132,189.154L435.396,147.225C458.501,135.478 495.863,131.156 529.112,136.47C601.257,148.002 626.758,197.756 619.137,245.435C612.319,288.092 583.569,315.02 547.742,345.965C514.924,374.175 500.475,400.172 497.245,432.469L495.262,448.878L446.33,441.058Z" style="fill:rgb(75,56,150);fill-rule:nonzero;"/>
    </g>
    <g transform="matrix(4.16667,0,0,4.16667,81.8766,102.188)">
        <path d="M256.324,946.512C255.03,935.107 258.312,924.941 266.175,916.011C272.678,908.412 280.891,904.046 290.809,902.921C304.199,901.403 315.384,905.575 324.375,915.438C330.121,921.819 333.472,929.225 334.429,937.654C335.91,950.715 332.186,961.433 323.259,969.811C317.061,975.704 309.169,979.196 299.584,980.283C286.194,981.801 275.096,977.705 266.293,967.985C260.547,961.606 257.224,954.449 256.324,946.512ZM309.538,687.569C306.864,706.872 304.277,730.8 301.774,759.359C299.268,787.92 297.047,822.85 295.105,864.159L262.989,866.608C251.795,826.346 252.215,792.761 243.198,765.836C234.18,738.918 226.425,716.328 219.937,698.063C216.765,689.589 213.781,681.313 210.989,673.232C208.195,665.157 205.457,657.076 202.771,648.982C200.085,640.895 198.015,633.838 196.561,627.817C195.103,621.8 194.142,616.717 193.672,612.572C191.867,596.654 196.196,582.246 206.663,569.348C217.563,556.405 231.409,548.978 248.206,547.074C264.343,545.243 279.394,549.391 293.354,559.515C306.878,569.691 314.543,582.739 316.349,598.657C317.388,607.816 317.205,619.823 315.798,634.67C314.385,649.524 312.3,667.157 309.538,687.569Z" style="fill:rgb(75,56,150);fill-rule:nonzero;"/>
    </g>
    <g transform="matrix(4.16667,0,0,4.16667,81.8766,102.188)">
        <path d="M243.869,944.584C242.575,933.178 245.856,923.012 253.72,914.083C260.222,906.483 268.436,902.118 278.354,900.993C291.744,899.474 302.929,903.646 311.919,913.509C317.666,919.89 321.017,927.296 321.974,935.725C323.455,948.786 319.731,959.504 310.804,967.882C304.606,973.774 296.714,977.267 287.129,978.354C273.739,979.873 262.641,975.776 253.838,966.056C248.092,959.677 244.769,952.519 243.869,944.584ZM297.083,685.639C294.409,704.943 291.822,728.871 289.319,757.43C286.813,785.992 284.592,820.921 282.65,862.23L261.06,864.679C249.866,824.418 239.76,790.832 230.743,763.908C221.725,736.989 213.97,714.399 207.481,696.134C204.31,687.661 201.326,679.384 198.535,671.302C195.74,663.228 193.001,655.146 190.317,647.052C187.63,638.965 185.56,631.91 184.106,625.888C182.647,619.872 181.687,614.788 181.217,610.642C179.412,594.724 183.741,580.316 194.208,567.418C205.108,554.476 218.954,547.049 235.75,545.144C251.888,543.314 266.939,547.462 280.899,557.586C294.423,567.762 302.088,580.81 303.894,596.727C304.933,605.887 304.75,617.894 303.343,632.742C301.93,647.595 299.845,665.227 297.083,685.639Z" style="fill:rgb(102,80,161);fill-rule:nonzero;"/>
    </g>
    <g transform="matrix(4.16667,0,0,4.16667,81.8766,102.188)">
        <path d="M584.849,768.161L583.022,780.647L574.798,771.473L548.729,737.174L584.849,768.161Z" style="fill:rgb(188,190,190);fill-rule:nonzero;"/>
    </g>
    <g transform="matrix(4.16667,0,0,4.16667,81.8766,102.188)">
        <path d="M583.022,780.647L567.095,767.829L572.646,768.64L583.022,780.647Z" style="fill:rgb(146,149,149);fill-rule:nonzero;"/>
    </g>
    <g transform="matrix(4.16667,0,0,4.16667,81.8766,102.188)">
        <path d="M584.849,768.161L594.092,761.277L548.729,737.174L584.849,768.161Z" style="fill:url(#_Linear5);"/>
    </g>
    <g transform="matrix(4.16667,0,0,4.16667,81.8766,102.188)">
        <path d="M548.729,737.174L574.798,771.473L560.676,780.833L548.729,737.174Z" style="fill:url(#_Linear6);"/>
    </g>
    <g transform="matrix(4.16667,0,0,4.16667,81.8766,102.188)">
        <path d="M572.807,787.288C572.926,787.304 573.05,787.3 573.174,787.27C573.688,787.145 574.004,786.626 573.878,786.11C573.482,784.485 572.938,782.9 572.262,781.403C572.045,780.917 571.477,780.703 570.992,780.922C570.509,781.141 570.294,781.71 570.513,782.192C571.142,783.583 571.646,785.053 572.014,786.565C572.109,786.957 572.432,787.232 572.807,787.288Z" style="fill:white;fill-rule:nonzero;"/>
    </g>
    <g transform="matrix(4.16667,0,0,4.16667,81.8766,102.188)">
        <path d="M537.595,793.472C536.115,790.906 533.597,788.744 530.861,787.688C530.366,787.498 530.119,786.942 530.31,786.448C530.501,785.953 531.057,785.71 531.551,785.897C534.731,787.123 537.541,789.535 539.259,792.514C539.523,792.973 539.365,793.56 538.906,793.825C538.712,793.937 538.495,793.973 538.289,793.943C538.008,793.902 537.748,793.737 537.595,793.472ZM518.166,793.157C517.672,792.965 517.426,792.408 517.619,791.915C518.638,789.293 520.388,787.29 522.681,786.12C523.512,785.697 524.401,785.396 525.321,785.224C525.841,785.126 526.344,785.471 526.44,785.993C526.537,786.513 526.193,787.014 525.672,787.112C524.932,787.249 524.219,787.491 523.552,787.83C521.659,788.796 520.266,790.404 519.408,792.61C519.242,793.035 518.809,793.275 518.375,793.211L518.166,793.157ZM572.193,802.592C571.685,802.443 571.393,801.91 571.542,801.401C571.944,800.03 572.252,798.623 572.457,797.219C572.706,795.522 572.806,793.807 572.756,792.124C572.74,791.594 573.157,791.152 573.687,791.137C574.221,791.119 574.66,791.537 574.674,792.068C574.729,793.862 574.621,795.689 574.356,797.497C574.138,798.989 573.812,800.484 573.384,801.941C573.248,802.406 572.792,802.689 572.325,802.621L572.193,802.592ZM540.15,808.024C540.314,804.219 540.118,801.234 539.533,798.628C539.417,798.111 539.742,797.597 540.259,797.481C540.775,797.368 541.289,797.691 541.406,798.208C542.03,800.983 542.239,804.129 542.068,808.108C542.045,808.637 541.598,809.048 541.067,809.026L540.969,809.016C540.488,808.946 540.128,808.522 540.15,808.024ZM519.107,807.704C518.702,806.93 518.336,806.133 518.02,805.336C517.099,803.027 516.603,800.48 516.584,797.972C516.58,797.442 517.005,797.009 517.536,797.005C518.063,797.001 518.5,797.427 518.503,797.958C518.521,800.229 518.969,802.536 519.802,804.626C520.096,805.363 520.432,806.099 520.807,806.814C521.052,807.284 520.87,807.864 520.401,808.109C520.215,808.207 520.012,808.237 519.818,808.209C519.525,808.166 519.255,807.987 519.107,807.704ZM563.998,815.581C563.625,815.205 563.627,814.596 564.003,814.223C566.188,812.054 568.029,809.503 569.472,806.642C569.71,806.169 570.289,805.977 570.761,806.218C571.235,806.458 571.424,807.034 571.186,807.507C569.648,810.552 567.687,813.271 565.355,815.585C565.133,815.807 564.828,815.896 564.54,815.854C564.341,815.825 564.15,815.733 563.998,815.581ZM530.151,819.06C527.196,817.326 524.616,815.182 522.484,812.686C522.14,812.282 522.187,811.677 522.59,811.333C522.995,810.987 523.602,811.036 523.943,811.438C525.936,813.772 528.352,815.779 531.123,817.404C531.58,817.672 531.732,818.26 531.465,818.717C531.261,819.065 530.873,819.236 530.498,819.181C530.379,819.165 530.261,819.125 530.151,819.06ZM550.233,822.225C550.136,821.705 550.48,821.204 551.002,821.108C552.914,820.752 554.761,820.182 556.489,819.413C557.567,818.931 558.625,818.364 559.634,817.723C560.081,817.44 560.674,817.569 560.958,818.019C561.243,818.466 561.11,819.059 560.663,819.343C559.575,820.035 558.434,820.647 557.271,821.166C555.404,821.997 553.413,822.612 551.352,822.995C551.245,823.015 551.14,823.015 551.038,823.001C550.643,822.943 550.31,822.64 550.233,822.225ZM539.379,824.441C538.856,824.357 538.5,823.866 538.583,823.341C538.625,823.076 538.667,822.809 538.708,822.543C537.651,822.281 536.605,821.964 535.576,821.595C535.078,821.417 534.818,820.867 534.997,820.367C535.175,819.869 535.715,819.61 536.225,819.788C537.131,820.114 538.051,820.395 538.982,820.632C539.271,818.498 539.52,816.244 539.74,813.784C539.787,813.256 540.253,812.866 540.782,812.914C541.303,812.96 541.7,813.426 541.651,813.955C541.424,816.504 541.165,818.836 540.862,821.048C542.371,821.331 543.902,821.495 545.413,821.536C545.948,821.545 546.361,821.993 546.347,822.521C546.333,823.051 545.891,823.468 545.362,823.455C543.774,823.411 542.168,823.24 540.587,822.949C540.552,823.181 540.515,823.413 540.479,823.645C540.395,824.164 539.911,824.519 539.392,824.443L539.379,824.441ZM535.398,839.413C534.902,839.226 534.649,838.674 534.834,838.178C535.879,835.374 536.779,832.287 537.51,829.001C537.625,828.482 538.16,828.154 538.654,828.272C539.172,828.386 539.499,828.899 539.383,829.417C538.634,832.789 537.709,835.961 536.633,838.847C536.472,839.28 536.034,839.526 535.596,839.462L535.398,839.413ZM527.603,852.741C527.193,852.404 527.133,851.798 527.469,851.389L527.741,851.051C529.553,848.759 531.176,846.189 532.566,843.414C532.802,842.941 533.381,842.746 533.853,842.987C534.327,843.223 534.519,843.8 534.281,844.275C532.834,847.165 531.14,849.845 529.246,852.244L528.954,852.607C528.731,852.876 528.394,852.994 528.072,852.947C527.905,852.922 527.742,852.853 527.603,852.741ZM515.182,861.834C514.958,861.354 515.164,860.784 515.643,860.558C518.495,859.221 521.149,857.497 523.531,855.435C523.932,855.088 524.54,855.133 524.886,855.533C525.232,855.934 525.189,856.542 524.788,856.888C522.271,859.065 519.469,860.883 516.458,862.295C516.283,862.379 516.093,862.403 515.914,862.376C515.606,862.332 515.323,862.137 515.182,861.834ZM500.038,864.303C500.082,863.776 500.545,863.383 501.074,863.426C504.066,863.672 507.185,863.364 510.345,862.509C510.854,862.376 511.384,862.672 511.522,863.185C511.66,863.698 511.358,864.224 510.847,864.364C507.472,865.276 504.13,865.605 500.916,865.339L500.854,865.333C500.357,865.259 499.996,864.811 500.038,864.303Z" style="fill:white;fill-rule:nonzero;"/>
    </g>
    <g transform="matrix(4.16667,0,0,4.16667,81.8766,102.188)">
        <path d="M495.08,864.12C495.525,864.185 495.969,863.928 496.123,863.489C496.299,862.987 496.036,862.441 495.536,862.264C494.091,861.756 492.704,861.09 491.413,860.28C490.965,859.996 490.371,860.132 490.09,860.581C489.809,861.03 489.943,861.623 490.393,861.904C491.804,862.791 493.32,863.521 494.899,864.077L495.08,864.12Z" style="fill:white;fill-rule:nonzero;"/>
    </g>
    <g transform="matrix(4.16667,0,0,4.16667,81.8766,102.188)">
        <path d="M473.021,218.896L471.941,225.344C473.944,226.733 476.574,226.821 478.667,225.57L479.043,225.344L480.637,218.896L473.021,218.896Z" style="fill:rgb(250,176,138);fill-rule:nonzero;"/>
    </g>
    <g transform="matrix(4.16667,0,0,4.16667,81.8766,102.188)">
        <path d="M524.7,69.72C518.972,88.625 499.749,117.648 499.749,117.648L514.932,111.434L525.664,86.64C525.664,86.64 530.428,50.814 524.7,69.72Z" style="fill:rgb(161,214,195);fill-rule:nonzero;"/>
    </g>
    <g transform="matrix(4.16667,0,0,4.16667,81.8766,102.188)">
        <path d="M483.438,145.634L471.463,219.471L482.107,219.471C482.107,219.471 506.016,153.039 508.526,133.506C508.526,122.443 484.357,133.506 484.357,133.506L483.438,145.634Z" style="fill:rgb(26,45,86);fill-rule:nonzero;"/>
    </g>
    <g transform="matrix(4.16667,0,0,4.16667,81.8766,102.188)">
        <path d="M523.089,39.884L527.062,50.167L535.662,43.943L529.857,31.818L523.089,39.884Z" style="fill:rgb(247,155,130);fill-rule:nonzero;"/>
    </g>
    <g transform="matrix(4.16667,0,0,4.16667,81.8766,102.188)">
        <path d="M519.849,41.589C518.517,41.83 517.247,41.889 516.494,41.499C511.506,36.739 512.724,20.839 512.724,20.839L518.296,16.987L527.074,20.205L529.619,30.156C530.299,32.813 529.55,35.655 527.603,37.811C525.432,39.706 522.753,41.064 519.849,41.589Z" style="fill:rgb(250,176,138);fill-rule:nonzero;"/>
    </g>
    <g transform="matrix(4.16667,0,0,4.16667,81.8766,102.188)">
        <path d="M525.526,23.553C524.746,21.954 522.875,21.2 521.216,21.842C520.005,22.31 518.543,22.8 517.098,23.103C513.654,23.823 507.233,23.761 506.136,18.52C505.039,13.278 511.854,13.728 511.854,13.728L520.908,14.353C523.588,14.537 526.252,13.995 528.716,12.921C530.892,11.974 532.826,13.991 533.292,15.342C534.313,18.3 533.248,23.356 532.355,26.599C531.839,28.475 530.992,30.237 529.857,31.818L525.526,23.553Z" style="fill:rgb(26,45,86);fill-rule:nonzero;"/>
    </g>
    <g transform="matrix(4.16667,0,0,4.16667,81.8766,102.188)">
        <path d="M530.614,25.802C529.705,25.284 528.295,25.713 527.465,26.76C526.636,27.806 526.7,29.073 527.61,29.591C528.519,30.107 529.929,29.679 530.759,28.632C531.588,27.586 531.523,26.318 530.614,25.802Z" style="fill:rgb(250,176,138);fill-rule:nonzero;"/>
    </g>
    <g transform="matrix(4.16667,0,0,4.16667,81.8766,102.188)">
        <path d="M471.744,224.661C471.744,224.661 471.715,231.515 457.946,235.63C455.121,236.475 456.04,237.31 455.509,238.498L471.354,238.498L477.559,231.523L479.488,233.18L483.962,228.786C483.962,228.786 483.185,222.424 479.778,222.369C476.968,223.327 471.744,224.661 471.744,224.661Z" style="fill:rgb(26,45,86);fill-rule:nonzero;"/>
    </g>
    <g transform="matrix(4.16667,0,0,4.16667,81.8766,102.188)">
        <path d="M510.872,216.886L513.445,222.822C515.789,223.49 518.307,222.724 519.883,220.866L520.168,220.531L518.088,214.427L510.872,216.886Z" style="fill:rgb(250,176,138);fill-rule:nonzero;"/>
    </g>
    <g transform="matrix(4.16667,0,0,4.16667,81.8766,102.188)">
        <path d="M525.174,47.287C525.174,47.287 524.078,45.599 533.816,40.563C548.495,55.241 553.313,111.434 553.313,111.434L514.932,111.434C513.635,79.366 525.174,47.287 525.174,47.287Z" style="fill:rgb(161,214,195);fill-rule:nonzero;"/>
    </g>
    <g transform="matrix(4.16667,0,0,4.16667,81.8766,102.188)">
        <path d="M487.25,109.914C487.08,109.188 487.404,108.436 488.049,108.062L494.305,104.434C495.853,103.537 497.677,103.242 499.429,103.606L506.212,103.877L507.1,104.949L508.509,110.944C507.147,110.616 506.349,110.408 506.349,110.408L502.042,110.527C502.042,110.527 493.914,118.076 489.885,111.51C489.718,118.496 487.672,117.96 487.672,117.96L487.25,109.914Z" style="fill:rgb(250,176,138);fill-rule:nonzero;"/>
    </g>
    <g transform="matrix(4.16667,0,0,4.16667,81.8766,102.188)">
        <path d="M553.313,111.434L553.893,116.195L553.916,116.387C554.946,125.476 548.958,133.903 540.15,136.371C540.15,136.371 522.68,142.156 500.629,143.364C515.104,161.949 519.109,214.101 519.109,214.101L509.782,217.488L473.766,131.7C471.463,126.219 474.716,119.997 480.531,118.759L514.932,111.434L553.313,111.434Z" style="fill:rgb(1,63,96);fill-rule:nonzero;"/>
    </g>
    <g transform="matrix(4.16667,0,0,4.16667,81.8766,102.188)">
        <path d="M529.318,65.644C529.318,65.644 536.464,72.187 540.669,78.897C541.838,80.762 541.664,83.175 540.22,84.837C532.227,94.042 503.746,102.883 503.746,102.883L505.59,113.272C505.59,113.272 546.006,105.323 560.322,90.965C575.011,76.231 537.036,45.459 537.036,45.459" style="fill:rgb(161,214,195);fill-rule:nonzero;"/>
    </g>
    <g transform="matrix(4.16667,0,0,4.16667,81.8766,102.188)">
        <path d="M540.187,79.2C541.233,80.87 541.074,82.984 539.789,84.463C536.143,88.663 526.416,93.149 517.925,96.4C517.937,96.923 517.917,96.956 517.925,97.578C526.839,94.229 536.67,89.794 540.649,85.211C542.266,83.352 542.467,80.692 541.153,78.595C536.955,71.896 529.773,65.289 529.702,65.224L528.932,66.064C529.003,66.13 536.072,72.634 540.187,79.2Z" style="fill:white;fill-rule:nonzero;"/>
    </g>
    <g transform="matrix(4.16667,0,0,4.16667,81.8766,102.188)">
        <path d="M551.896,96.736C536.373,105.113 513.629,111.113 505.508,112.81C505.59,113.272 505.663,113.652 505.75,113.91C513.565,112.312 536.095,106.528 552.05,98.049C552.03,97.61 551.965,97.148 551.896,96.736Z" style="fill:white;fill-rule:nonzero;"/>
    </g>
    <g transform="matrix(4.16667,0,0,4.16667,81.8766,102.188)">
        <path d="M472.152,122.443L460.189,79.674L462.384,79.059L473.792,119.843L508.137,113.877L508.526,116.123L472.152,122.443Z" style="fill:rgb(18,139,140);fill-rule:nonzero;"/>
    </g>
    <g transform="matrix(4.16667,0,0,4.16667,81.8766,102.188)">
        <path d="M512.875,221.507C512.875,221.507 513.417,228.42 499.647,232.536C496.823,233.38 497.741,234.215 497.211,235.404L513.057,235.404L519.261,228.428L521.19,230.086L525.664,225.691C525.664,225.691 523.575,219.331 520.168,219.275C517.357,220.233 512.875,221.507 512.875,221.507Z" style="fill:rgb(26,45,86);fill-rule:nonzero;"/>
    </g>
    <g transform="matrix(4.16667,0,0,4.16667,81.8766,102.188)">
        <path d="M484.359,73.736L483.197,73.333C467.223,67.794 450.059,66.867 433.505,70.31C414.504,74.263 388.735,77.535 374.494,70.48C364.774,65.667 353.293,40.023 355.601,23.962C357.367,11.662 368.194,2.592 380.574,1.535C399.335,-0.065 434.213,-1.078 450.993,11.072C474.593,28.162 474.593,58.273 474.593,58.273L484.359,73.736Z" style="fill:rgb(18,139,140);fill-rule:nonzero;"/>
    </g>
    <g transform="matrix(4.16667,0,0,4.16667,81.8766,102.188)">
        <path d="M112.907,773.798C112.907,773.798 118.597,765.085 120.603,762.741C127.88,755.213 114.177,718.744 123.018,712.908C131.859,707.073 195.712,699.779 202.686,712.908C209.661,726.038 213.197,766.635 200.23,772.306C187.263,777.976 136.191,773.927 130.532,772.085C121.029,768.991 112.907,773.798 112.907,773.798Z" style="fill:rgb(1,63,96);fill-rule:nonzero;"/>
    </g>
    <g transform="matrix(4.16667,0,0,4.16667,81.8766,102.188)">
        <path d="M441.478,28.991L375.72,28.991C374.267,28.991 373.078,27.803 373.078,26.35C373.078,24.897 374.267,23.708 375.72,23.708L441.478,23.708C442.931,23.708 444.119,24.897 444.119,26.35C444.119,27.803 442.931,28.991 441.478,28.991Z" style="fill:white;fill-rule:nonzero;"/>
    </g>
    <g transform="matrix(4.16667,0,0,4.16667,81.8766,102.188)">
        <path d="M447.442,40.781L381.685,40.781C380.232,40.781 379.043,39.593 379.043,38.14C379.043,36.687 380.232,35.498 381.685,35.498L447.442,35.498C448.896,35.498 450.084,36.687 450.084,38.14C450.084,39.593 448.896,40.781 447.442,40.781Z" style="fill:white;fill-rule:nonzero;"/>
    </g>
    <g transform="matrix(4.16667,0,0,4.16667,81.8766,102.188)">
        <path d="M380.088,52.201C380.088,55.352 382.642,57.905 385.792,57.905C388.942,57.905 391.496,55.352 391.496,52.201C391.496,49.052 388.942,46.498 385.792,46.498C382.642,46.498 380.088,49.052 380.088,52.201Z" style="fill:white;fill-rule:nonzero;"/>
    </g>
    <g transform="matrix(4.16667,0,0,4.16667,81.8766,102.188)">
        <path d="M449.011,54.844L399.146,54.844C398.556,54.844 398.073,54.36 398.073,53.77L398.073,50.634C398.073,50.043 398.556,49.56 399.146,49.56L449.011,49.56C449.601,49.56 450.084,50.043 450.084,50.634L450.084,53.77C450.084,54.36 449.601,54.844 449.011,54.844Z" style="fill:white;fill-rule:nonzero;"/>
    </g>
    <g transform="matrix(4.16667,0,0,4.16667,81.8766,102.188)">
        <path d="M87.323,771.414L85.131,781.81L74.205,778.793L81.351,763.873L87.323,771.414Z" style="fill:rgb(247,155,130);fill-rule:nonzero;"/>
    </g>
    <g transform="matrix(4.16667,0,0,4.16667,81.8766,102.188)">
        <path d="M90.05,774.313C91.314,774.678 92.536,774.862 93.302,774.56C98.597,770.457 99.003,754.968 99.003,754.968L94.002,750.69L85.197,752.925L81.747,762.291C80.826,764.79 81.266,767.611 82.934,769.888C84.842,771.937 87.297,773.517 90.05,774.313Z" style="fill:rgb(250,176,138);fill-rule:nonzero;"/>
    </g>
    <g transform="matrix(4.16667,0,0,4.16667,81.8766,102.188)">
        <path d="M84.635,758.678C85.548,757.21 86.513,753.462 88.053,754.247C89.176,754.819 93.184,756.283 94.551,756.719C97.808,757.759 104.021,758.338 105.603,753.382C106.394,750.905 104.672,748.001 103.354,746.879C102.058,745.779 100.361,745.27 98.662,745.317C94.675,745.425 89.036,746.672 87.261,745.686C84.275,744.025 80.494,744.88 79.673,747.606C78.796,750.518 78.917,755.357 79.457,758.579C79.77,760.444 80.412,762.231 81.351,763.873L84.635,758.678Z" style="fill:rgb(26,45,86);fill-rule:nonzero;"/>
    </g>
    <g transform="matrix(4.16667,0,0,4.16667,81.8766,102.188)">
        <path d="M81.219,757.982C82.149,757.573 83.469,758.127 84.167,759.222C84.864,760.316 84.676,761.535 83.745,761.943C82.815,762.353 81.495,761.797 80.797,760.704C80.1,759.61 80.289,758.391 81.219,757.982Z" style="fill:rgb(250,176,138);fill-rule:nonzero;"/>
    </g>
    <g transform="matrix(4.16667,0,0,4.16667,81.8766,102.188)">
        <path d="M78.943,776.481C58.604,775.343 56.88,793.435 55.173,813.095C53.214,835.657 54.727,860.284 54.727,860.284L102.061,860.284C102.061,860.284 102.05,839.321 101.555,818.357C101.075,798.021 100.452,777.684 78.943,776.481Z" style="fill:rgb(18,139,140);fill-rule:nonzero;"/>
    </g>
    <g transform="matrix(4.16667,0,0,4.16667,81.8766,102.188)">
        <path d="M99.521,849.911C99.521,849.911 104.169,846.702 105.896,847.467C107.622,848.233 106.263,851.462 106.263,851.462L99.521,849.911Z" style="fill:rgb(247,155,130);fill-rule:nonzero;"/>
    </g>
    <g transform="matrix(4.16667,0,0,4.16667,81.8766,102.188)">
        <path d="M66.229,815.652L64.017,830.645L100.263,848.711L96.31,852.638C96.31,852.638 55.612,845.312 49.861,839.934C44.11,834.557 48.091,813.056 48.091,813.056L66.229,815.652Z" style="fill:rgb(250,176,138);fill-rule:nonzero;"/>
    </g>
    <g transform="matrix(4.16667,0,0,4.16667,81.8766,102.188)">
        <path d="M106.813,839.327C115.111,836.396 110.046,807.85 110.046,807.85L105.141,807.803C105.141,807.803 98.514,842.258 106.813,839.327Z" style="fill:rgb(247,155,130);fill-rule:nonzero;"/>
    </g>
    <g transform="matrix(4.16667,0,0,4.16667,81.8766,102.188)">
        <path d="M94.098,851.878L102.635,857.364C106.071,858.942 109.113,856.475 111.588,852.994C113.125,850.834 111.559,847.874 108.908,847.913C105.838,847.959 102.113,848.583 100.263,848.711L94.098,851.878Z" style="fill:rgb(250,176,138);fill-rule:nonzero;"/>
    </g>
    <g transform="matrix(4.16667,0,0,4.16667,81.8766,102.188)">
        <path d="M111.351,807.863L105.556,811.342C105.556,811.342 81.107,771.79 93.193,782.206C105.803,793.072 111.351,807.863 111.351,807.863Z" style="fill:rgb(18,139,140);fill-rule:nonzero;"/>
    </g>
    <g transform="matrix(4.16667,0,0,4.16667,81.8766,102.188)">
        <path d="M82.591,992.867C82.591,992.867 82.616,998.535 93.999,1001.94C96.335,1002.63 95.575,1003.33 96.013,1004.31L82.913,1004.31L77.784,998.541L76.189,999.912L72.49,996.278C72.49,996.278 74.217,991.019 77.034,990.973C79.357,991.765 82.591,992.867 82.591,992.867Z" style="fill:rgb(26,45,86);fill-rule:nonzero;"/>
    </g>
    <g transform="matrix(4.16667,0,0,4.16667,81.8766,102.188)">
        <path d="M84.72,987.96L82.591,992.867C80.653,993.419 78.571,992.787 77.268,991.25L77.034,990.973L78.753,985.926L84.72,987.96Z" style="fill:rgb(250,176,138);fill-rule:nonzero;"/>
    </g>
    <g transform="matrix(4.16667,0,0,4.16667,81.8766,102.188)">
        <path d="M48.177,812.871C48.177,812.871 55.899,776.948 74.153,777.781C92.406,778.615 66.219,815.452 66.219,815.452L48.177,812.871Z" style="fill:rgb(18,139,140);fill-rule:nonzero;"/>
    </g>
    <g transform="matrix(4.16667,0,0,4.16667,81.8766,102.188)">
        <path d="M106.706,839.934C118.208,830.645 95.614,782.097 95.614,782.097L90.139,782.648C90.139,782.648 90.559,847.022 106.706,839.934Z" style="fill:rgb(250,176,138);fill-rule:nonzero;"/>
    </g>
    <g transform="matrix(4.16667,0,0,4.16667,81.8766,102.188)">
        <path d="M87.323,778.269L86.628,774.711L77.23,772.841L74.205,776.599L87.323,778.269Z" style="fill:white;fill-rule:nonzero;"/>
    </g>
    <g transform="matrix(4.16667,0,0,4.16667,81.8766,102.188)">
        <path d="M95.614,782.097L96.31,772.841C96.31,772.841 91.692,765.757 87.323,767.66C86.52,769.597 87.916,773.51 87.916,773.51L90.139,782.648L95.614,782.097Z" style="fill:rgb(250,176,138);fill-rule:nonzero;"/>
    </g>
    <g transform="matrix(4.16667,0,0,4.16667,81.8766,102.188)">
        <path d="M102.061,860.284C102.061,860.284 108.656,901.645 107.105,920.778C105.556,939.911 84.588,989.898 84.588,989.898L75.46,987.245C75.46,987.245 74.769,953.803 83.73,931.85C85.696,927.034 85.61,921.633 83.736,916.781C76.376,897.726 73.506,885.056 73.506,885.056L74.205,860.284L102.061,860.284Z" style="fill:rgb(26,45,86);fill-rule:nonzero;"/>
    </g>
    <g transform="matrix(4.16667,0,0,4.16667,81.8766,102.188)">
        <path d="M95.038,781.711L95.201,781.696L95.857,772.961C95.244,772.071 91.311,766.632 87.67,767.996C87.189,769.507 87.976,772.357 88.347,773.406L88.373,773.511C88.065,773.43 87.739,773.381 87.399,773.352C87.085,772.381 86.179,769.263 86.913,767.49L86.982,767.325L87.147,767.252C91.796,765.238 96.484,772.296 96.68,772.599L96.763,772.725L96.026,782.501L95.485,782.555C95.36,782.262 95.208,781.981 95.038,781.711Z" style="fill:rgb(247,155,130);fill-rule:nonzero;"/>
    </g>
    <g transform="matrix(4.16667,0,0,4.16667,81.8766,102.188)">
        <path d="M64.82,995.863C64.82,995.863 68.906,999.653 78.22,1002.02C80.271,1002.55 82.482,1001.85 82.482,1005.23L71.178,1005.23L61.777,1003.61L61.777,1005.23L56.699,1005.23C56.699,1005.23 55.285,996.928 58.251,995.863L64.82,995.863Z" style="fill:rgb(26,45,86);fill-rule:nonzero;"/>
    </g>
    <g transform="matrix(4.16667,0,0,4.16667,81.8766,102.188)">
        <path d="M63.822,989.898L64.82,995.863C62.967,997.148 60.534,997.229 58.6,996.072L58.251,995.863L58.757,989.898L63.822,989.898Z" style="fill:rgb(250,176,138);fill-rule:nonzero;"/>
    </g>
    <g transform="matrix(4.16667,0,0,4.16667,81.8766,102.188)">
        <path d="M88.127,860.284L66.168,991.668L57.381,991.668C57.381,991.668 49.813,956.275 55.659,927.694C56.672,922.736 56.803,917.626 56.048,912.623C50.483,875.718 54.727,860.284 54.727,860.284L88.127,860.284Z" style="fill:rgb(1,63,96);fill-rule:nonzero;"/>
    </g>
    <g transform="matrix(4.16667,0,0,4.16667,81.8766,102.188)">
        <path d="M131.983,740.382C131.983,743.532 134.537,746.085 137.687,746.085C140.837,746.085 143.391,743.532 143.391,740.382C143.391,737.232 140.837,734.678 137.687,734.678C134.537,734.678 131.983,737.232 131.983,740.382Z" style="fill:white;fill-rule:nonzero;"/>
    </g>
    <g transform="matrix(4.16667,0,0,4.16667,81.8766,102.188)">
        <path d="M157.247,740.382C157.247,743.532 159.8,746.085 162.95,746.085C166.1,746.085 168.654,743.532 168.654,740.382C168.654,737.232 166.1,734.678 162.95,734.678C159.8,734.678 157.247,737.232 157.247,740.382Z" style="fill:white;fill-rule:nonzero;"/>
    </g>
    <g transform="matrix(4.16667,0,0,4.16667,81.8766,102.188)">
        <path d="M182.509,740.382C182.509,743.532 185.063,746.085 188.213,746.085C191.363,746.085 193.917,743.532 193.917,740.382C193.917,737.232 191.363,734.678 188.213,734.678C185.063,734.678 182.509,737.232 182.509,740.382Z" style="fill:white;fill-rule:nonzero;"/>
    </g>
    <g transform="matrix(4.16667,0,0,4.16667,81.8766,102.188)">
        <path d="M393.115,544.712L399.364,544.716C405.204,544.72 410.494,548.164 412.861,553.502L418.805,566.905L406.438,572.826L410.401,575.499L412.597,595.84L367.236,595.077L365.517,544.415L392.875,545.018L393.115,544.712Z" style="fill:rgb(255,207,83);fill-rule:nonzero;"/>
    </g>
    <g transform="matrix(4.16667,0,0,4.16667,81.8766,102.188)">
        <path d="M388.15,534.435C388.15,534.435 388.723,540.547 389.574,543.126C390.245,544.963 393.115,544.712 393.115,544.712C393.115,544.712 390.908,554.394 382.802,554.394C374.696,554.394 373.443,546.086 373.443,546.086L379.198,545.201L376.54,536.357L388.15,534.435Z" style="fill:rgb(247,155,130);fill-rule:nonzero;"/>
    </g>
    <g transform="matrix(4.16667,0,0,4.16667,81.8766,102.188)">
        <path d="M391.436,520.89L389.583,509.959L370.674,518.391L371.82,524.79C371.82,524.79 373.281,540.375 383.347,538.52C394.233,536.515 391.921,520.751 391.436,520.89Z" style="fill:rgb(250,176,138);fill-rule:nonzero;"/>
    </g>
    <g transform="matrix(4.16667,0,0,4.16667,81.8766,102.188)">
        <path d="M418.805,566.905L421.357,575.96C423.22,582.567 421.232,589.661 416.208,594.336L404.623,604.053L400.899,593.179L407.307,586.763C409.411,584.657 410.038,581.489 408.896,578.74L406.438,572.826L418.805,566.905Z" style="fill:rgb(250,176,138);fill-rule:nonzero;"/>
    </g>
    <g transform="matrix(4.16667,0,0,4.16667,81.8766,102.188)">
        <path d="M356.994,569.252L355.575,573.657C352.99,581.684 354.983,590.482 360.775,596.611L367.809,604.053L371.438,586.653L361.411,569.252L356.994,569.252Z" style="fill:rgb(250,176,138);fill-rule:nonzero;"/>
    </g>
    <g transform="matrix(4.16667,0,0,4.16667,81.8766,102.188)">
        <path d="M355.575,573.657L361.888,577.314L362.95,566.844L357.304,566.844L355.575,573.657Z" style="fill:rgb(255,207,83);fill-rule:nonzero;"/>
    </g>
    <g transform="matrix(4.16667,0,0,4.16667,81.8766,102.188)">
        <path d="M371.832,525.465C383.982,528.027 390.828,514.497 390.828,514.497C390.828,514.497 390.457,517.321 391.604,521.501C395.694,516.195 393.021,509.51 393.021,509.51C393.021,509.51 389.713,502.208 374.971,505.786C357.782,509.959 354.917,533.576 354.917,533.576C354.917,533.576 353.66,538.718 358.086,546.961C359.336,549.29 359.267,552.158 357.659,554.255C353.979,559.057 354.917,564.982 354.917,564.982C354.917,564.982 355.276,568.07 357.914,570.091C360.378,571.982 361.373,576.033 360.384,578.977C358.268,585.281 360.074,588.869 360.074,588.869C360.074,588.869 361.225,592.918 367.522,593.167C376.705,593.527 376.511,586.234 375.683,582.126C375.369,580.563 375.777,578.946 376.842,577.759C377.968,576.505 379.192,574.546 379.269,571.905C379.333,569.676 378.464,567.319 377.488,565.401C376.225,562.915 376.443,559.956 378.097,557.71C380.442,554.526 383.47,548.19 381.774,544.081C378.91,537.135 374.017,534.817 371.832,525.465Z" style="fill:rgb(26,45,86);fill-rule:nonzero;"/>
    </g>
    <g transform="matrix(4.16667,0,0,4.16667,81.8766,102.188)">
        <rect x="365.517" y="579.271" width="45.955" height="27.504" style="fill:rgb(18,139,140);fill-rule:nonzero;"/>
    </g>
    <g transform="matrix(4.16667,0,0,4.16667,81.8766,102.188)">
        <rect x="365.517" y="605.628" width="45.955" height="2.292" style="fill:rgb(193,174,195);fill-rule:nonzero;"/>
    </g>
    <g transform="matrix(4.16667,0,0,4.16667,81.8766,102.188)">
        <path d="M386.656,590.493C386.656,591.507 387.479,592.331 388.495,592.331C389.51,592.331 390.333,591.507 390.333,590.493C390.333,589.477 389.51,588.654 388.495,588.654C387.479,588.654 386.656,589.477 386.656,590.493Z" style="fill:white;fill-rule:nonzero;"/>
    </g>
    <g transform="matrix(4.16667,0,0,4.16667,81.8766,102.188)">
        <path d="M444.37,599.436C450.291,617.232 371.757,625.189 371.757,625.189L369.882,615.13C369.882,615.13 438.449,581.64 444.37,599.436Z" style="fill:rgb(26,45,86);fill-rule:nonzero;"/>
    </g>
    <g transform="matrix(4.16667,0,0,4.16667,81.8766,102.188)">
        <path d="M367.012,625.154L355.748,625.827L353.615,623.483L354.698,619.237L365.344,617.702L367.012,625.154Z" style="fill:rgb(250,176,138);fill-rule:nonzero;"/>
    </g>
    <g transform="matrix(4.16667,0,0,4.16667,81.8766,102.188)">
        <path d="M355.748,619.085L344.288,617.702C344.288,617.702 339.849,616.537 335.886,617.183L335.886,627.584C338.854,627.927 341.805,627.545 341.805,627.545L355.748,625.827L355.59,625.586C354.308,623.646 354.371,620.96 355.748,619.085Z" style="fill:rgb(18,139,140);fill-rule:nonzero;"/>
    </g>
    <g transform="matrix(4.16667,0,0,4.16667,81.8766,102.188)">
        <path d="M330.059,621.764C330.828,618.825 333.284,617.595 335.944,617.173L335.944,627.59C332.493,627.202 328.992,625.843 330.059,621.764Z" style="fill:rgb(87,196,196);fill-rule:nonzero;"/>
    </g>
    <g transform="matrix(4.16667,0,0,4.16667,81.8766,102.188)">
        <path d="M349.552,619.846L349.552,624.323" style="fill:none;fill-rule:nonzero;"/>
    </g>
    <g transform="matrix(4.16667,0,0,4.16667,81.8766,102.188)">
        <rect x="348.979" y="619.846" width="1.146" height="4.477" style="fill:white;fill-rule:nonzero;"/>
    </g>
    <g transform="matrix(4.16667,0,0,4.16667,81.8766,102.188)">
        <path d="M346.723,619.846L346.723,624.323" style="fill:none;fill-rule:nonzero;"/>
    </g>
    <g transform="matrix(4.16667,0,0,4.16667,81.8766,102.188)">
        <rect x="346.15" y="619.846" width="1.146" height="4.477" style="fill:white;fill-rule:nonzero;"/>
    </g>
    <g transform="matrix(4.16667,0,0,4.16667,81.8766,102.188)">
        <path d="M369.882,613.603L371.983,626.59L367.017,627.545L364.534,615.13L369.882,613.603Z" style="fill:rgb(87,196,196);fill-rule:nonzero;"/>
    </g>
    <g transform="matrix(4.16667,0,0,4.16667,81.8766,102.188)">
        <path d="M391.42,521.368C390.913,522.686 391.215,524.03 392.095,524.368C392.975,524.707 394.1,523.912 394.607,522.593C395.114,521.274 394.812,519.931 393.932,519.592C393.052,519.254 391.927,520.048 391.42,521.368Z" style="fill:rgb(250,176,138);fill-rule:nonzero;"/>
    </g>
    <g transform="matrix(4.16667,0,0,4.16667,81.8766,102.188)">
        <path d="M330.183,599.436C324.262,617.232 402.795,625.189 402.795,625.189L404.671,615.13C404.671,615.13 336.104,581.64 330.183,599.436Z" style="fill:rgb(26,45,86);fill-rule:nonzero;"/>
    </g>
    <g transform="matrix(4.16667,0,0,4.16667,81.8766,102.188)">
        <path d="M407.541,625.154L418.805,625.827L420.937,623.483L419.855,619.237L409.208,617.702L407.541,625.154Z" style="fill:rgb(250,176,138);fill-rule:nonzero;"/>
    </g>
    <g transform="matrix(4.16667,0,0,4.16667,81.8766,102.188)">
        <path d="M438.704,617.19C434.732,616.53 430.264,617.702 430.264,617.702L418.805,619.085C420.182,620.96 420.245,623.646 418.963,625.586L418.805,625.827L432.747,627.545C432.747,627.545 435.723,627.931 438.704,627.58L438.704,617.19Z" style="fill:rgb(18,139,140);fill-rule:nonzero;"/>
    </g>
    <g transform="matrix(4.16667,0,0,4.16667,81.8766,102.188)">
        <path d="M444.493,621.764C443.725,618.825 441.269,617.595 438.608,617.173L438.608,627.59C442.06,627.202 445.561,625.843 444.493,621.764Z" style="fill:rgb(87,196,196);fill-rule:nonzero;"/>
    </g>
    <g transform="matrix(4.16667,0,0,4.16667,81.8766,102.188)">
        <path d="M425,619.846L425,624.323" style="fill:none;fill-rule:nonzero;"/>
    </g>
    <g transform="matrix(4.16667,0,0,4.16667,81.8766,102.188)">
        <rect x="424.427" y="619.846" width="1.146" height="4.477" style="fill:white;fill-rule:nonzero;"/>
    </g>
    <g transform="matrix(4.16667,0,0,4.16667,81.8766,102.188)">
        <path d="M427.829,619.846L427.829,624.323" style="fill:none;fill-rule:nonzero;"/>
    </g>
    <g transform="matrix(4.16667,0,0,4.16667,81.8766,102.188)">
        <rect x="427.256" y="619.846" width="1.146" height="4.477" style="fill:white;fill-rule:nonzero;"/>
    </g>
    <g transform="matrix(4.16667,0,0,4.16667,81.8766,102.188)">
        <path d="M404.671,613.603L402.57,626.59L407.536,627.545L410.019,615.13L404.671,613.603Z" style="fill:rgb(87,196,196);fill-rule:nonzero;"/>
    </g>
    <g transform="matrix(4.16667,0,0,4.16667,81.8766,102.188)">
        <path d="M644.894,576.077C644.894,576.077 643.06,578.613 634.42,580.813C632.518,581.297 630.467,581.628 630.467,584.767L638.997,584.767L647.717,583.259L647.717,584.767L652.426,584.767C652.426,584.767 653.738,577.064 650.987,576.077L644.894,576.077Z" style="fill:rgb(26,45,86);fill-rule:nonzero;"/>
    </g>
    <g transform="matrix(4.16667,0,0,4.16667,81.8766,102.188)">
        <path d="M644.446,570.543L644.894,576.077C646.612,577.267 648.869,577.343 650.664,576.269L650.987,576.077L650.987,570.543L644.446,570.543Z" style="fill:rgb(250,176,138);fill-rule:nonzero;"/>
    </g>
    <g transform="matrix(4.16667,0,0,4.16667,81.8766,102.188)">
        <path d="M688.64,577.178C688.64,577.178 686.807,579.715 678.167,581.916C676.265,582.401 674.214,582.731 674.214,585.87L682.743,585.87L691.463,584.361L691.463,585.87L696.173,585.87C696.173,585.87 697.485,578.167 694.734,577.178L688.64,577.178Z" style="fill:rgb(26,45,86);fill-rule:nonzero;"/>
    </g>
    <g transform="matrix(4.16667,0,0,4.16667,81.8766,102.188)">
        <path d="M688.192,571.646L688.64,577.178C690.359,578.37 692.616,578.446 694.41,577.373L694.734,577.178L694.734,571.646L688.192,571.646Z" style="fill:rgb(250,176,138);fill-rule:nonzero;"/>
    </g>
    <g transform="matrix(4.16667,0,0,4.16667,81.8766,102.188)">
        <path d="M640.97,434.57L643.093,573.546L653.218,573.546C653.218,573.546 668.63,461.341 665.34,434.57C662.05,407.797 640.97,434.57 640.97,434.57Z" style="fill:rgb(26,45,86);fill-rule:nonzero;"/>
    </g>
    <g transform="matrix(4.16667,0,0,4.16667,81.8766,102.188)">
        <path d="M651.672,434.54C651.672,434.54 655.196,477.232 663.292,500.865C671.388,524.497 686.007,573.546 686.007,573.546L696.486,573.546C696.486,573.546 678.985,471.049 682.988,434.54L651.672,434.54Z" style="fill:rgb(1,63,96);fill-rule:nonzero;"/>
    </g>
    <g transform="matrix(4.16667,0,0,4.16667,81.8766,102.188)">
        <path d="M642.548,363.801C642.548,363.801 630.069,392.901 626.902,392.901C624.369,392.901 627.852,369.139 627.852,369.139L617.401,369.139C617.401,369.139 604.259,409.867 614.709,417.308C625.16,424.751 648.121,396.248 648.121,396.248L642.548,363.801Z" style="fill:rgb(87,196,196);fill-rule:nonzero;"/>
    </g>
    <g transform="matrix(4.16667,0,0,4.16667,81.8766,102.188)">
        <path d="M679.757,438.234L675.976,447.585C674.154,451.257 667.461,451.35 663.017,450.183C662.349,450.008 662.116,449.178 662.581,448.669C665.021,445.992 671.355,439.132 673.551,437.597L679.757,438.234Z" style="fill:rgb(250,176,138);fill-rule:nonzero;"/>
    </g>
    <g transform="matrix(4.16667,0,0,4.16667,81.8766,102.188)">
        <path d="M652.878,357.72C648.8,357.758 644.91,359.779 642.832,363.289C642.105,364.515 641.603,365.873 641.603,367.281L641.603,434.54L679.79,434.54L679.79,371.657C679.79,371.657 679.009,357.674 665.34,357.674C659.521,357.674 655.537,357.696 652.878,357.72Z" style="fill:rgb(87,196,196);fill-rule:nonzero;"/>
    </g>
    <g transform="matrix(4.16667,0,0,4.16667,81.8766,102.188)">
        <path d="M642.236,434.569L642.236,374.161L640.97,374.204L640.97,434.569L642.236,434.569Z" style="fill:url(#_Linear7);"/>
    </g>
    <g transform="matrix(4.16667,0,0,4.16667,81.8766,102.188)">
        <path d="M666.844,344.841L662.772,360.171C662.772,360.171 659.294,362.995 654.689,361.771C650.084,360.548 650.966,357.228 650.966,357.228L653.576,347.403L660.863,347.437L666.844,344.841Z" style="fill:rgb(247,155,130);fill-rule:nonzero;"/>
    </g>
    <g transform="matrix(4.16667,0,0,4.16667,81.8766,102.188)">
        <path d="M652.215,350.16C650.809,349.741 649.557,349.159 649.033,348.363C646.674,340.76 655.997,324.432 655.997,324.432L670.129,331.033L667.475,342.929C666.767,346.105 664.59,348.754 661.611,350.065C658.551,350.984 655.277,351.073 652.215,350.16Z" style="fill:rgb(250,176,138);fill-rule:nonzero;"/>
    </g>
    <g transform="matrix(4.16667,0,0,4.16667,81.8766,102.188)">
        <path d="M663.067,329.487C663.067,329.487 657.896,329.1 652.959,326.803C648.022,324.505 652.854,319.676 652.854,319.676C652.854,319.676 656.225,322.445 663.308,323.248C668.087,323.79 669.561,323.225 672.092,325.581C675.53,328.782 672.639,335.767 672.639,335.767L666.358,350.503L665.531,350.284C665.531,350.284 667.748,341.118 668.572,338.016C668.081,336.374 667.141,336.124 666.324,336.285C665.439,336.46 664.767,337.191 664.536,338.064L660.31,353.972C660.31,353.972 649.019,355.649 646.65,354.173C644.282,352.696 649.137,341.366 649.137,341.366C649.137,341.366 652.453,340.866 654.07,344.056C655.673,347.218 659.149,345.295 659.149,345.295L663.067,329.487Z" style="fill:rgb(26,45,86);fill-rule:nonzero;"/>
    </g>
    <g transform="matrix(4.16667,0,0,4.16667,81.8766,102.188)">
        <path d="M619.407,369.139L619.775,367.132C620.591,362.688 624.837,357.162 629.116,355.711L633.553,355.711L632.178,365.19L625.917,369.139L619.407,369.139Z" style="fill:rgb(250,176,138);fill-rule:nonzero;"/>
    </g>
    <g transform="matrix(4.16667,0,0,4.16667,81.8766,102.188)">
        <path d="M667.717,336.226C666.604,335.83 665.221,336.629 664.629,338.012C664.036,339.395 664.458,340.837 665.571,341.234C666.685,341.63 668.067,340.833 668.66,339.449C669.252,338.066 668.831,336.624 667.717,336.226Z" style="fill:rgb(250,176,138);fill-rule:nonzero;"/>
    </g>
    <g transform="matrix(4.16667,0,0,4.16667,81.8766,102.188)">
        <path d="M630.35,364.138L621.708,369.139L627.219,369.139L636.367,361.485C636.367,361.485 635.703,360.148 633.63,361.276C631.557,362.405 630.35,364.138 630.35,364.138Z" style="fill:rgb(250,176,138);fill-rule:nonzero;"/>
    </g>
    <g transform="matrix(4.16667,0,0,4.16667,81.8766,102.188)">
        <path d="M675.725,361.883C675.725,361.883 697.314,385.867 697.314,400.242C697.314,414.617 679.79,439.952 679.79,439.952L671.134,437.419C671.134,437.419 678.946,406.066 678.946,397.726C678.946,389.386 662.9,377.158 662.9,377.158" style="fill:rgb(87,196,196);fill-rule:nonzero;"/>
    </g>
    <g transform="matrix(4.16667,0,0,4.16667,81.8766,102.188)">
        <path d="M678.313,397.726C678.313,404.907 671.957,431.16 670.463,437.276C670.902,437.391 671.083,437.425 671.746,437.597C673.583,430.042 679.579,404.784 679.579,397.726C679.579,389.171 663.949,377.161 663.284,376.654L662.516,377.662C662.674,377.782 678.313,389.792 678.313,397.726Z" style="fill:url(#_Linear8);"/>
    </g>
    <g transform="matrix(4.16667,0,0,4.16667,81.8766,102.188)">
        <path d="M635.999,349.807C635.999,349.807 636.612,359.248 629.991,365.936C629.582,366.349 628.939,366.619 628.277,366.626C626.935,366.637 626.066,366.057 625.376,365.763C624.362,365.332 623.928,364.731 623.744,364.253C623.587,363.845 623.703,363.397 624.024,363.027C625.395,361.452 629.703,355.987 628.734,350.551C632.08,348.479 635.999,349.807 635.999,349.807Z" style="fill:rgb(3,103,107);fill-rule:nonzero;"/>
    </g>
    <g transform="matrix(4.16667,0,0,4.16667,81.8766,102.188)">
        <path d="M624.626,365.343C624.015,364.934 623.915,364.697 623.744,364.253C623.587,363.845 623.703,363.397 624.024,363.027C625.395,361.452 629.703,355.987 628.734,350.551C629.917,349.819 631.168,349.516 632.295,349.424C631.757,355.194 630.044,358.88 624.626,365.343Z" style="fill:rgb(18,139,140);fill-rule:nonzero;"/>
    </g>
    <g transform="matrix(4.16667,0,0,4.16667,81.8766,102.188)">
        <path d="M629.962,356.771C629.525,358.056 628.762,358.96 628.256,358.789C627.751,358.617 627.695,357.435 628.131,356.149C628.568,354.864 629.332,353.961 629.837,354.132C630.343,354.304 630.398,355.486 629.962,356.771Z" style="fill:rgb(3,103,107);fill-rule:nonzero;"/>
    </g>
    <g transform="matrix(4.16667,0,0,4.16667,81.8766,102.188)">
        <path d="M629.936,354.184L629.406,353.986L629.412,354.266L629.758,354.455L629.936,354.184Z" style="fill:rgb(248,155,76);fill-rule:nonzero;"/>
    </g>
    <g transform="matrix(4.16667,0,0,4.16667,81.8766,102.188)">
        <path d="M628.38,358.807L627.735,358.596L628.5,358.581L628.38,358.807Z" style="fill:rgb(238,67,102);fill-rule:nonzero;"/>
    </g>
    <g transform="matrix(4.16667,0,0,4.16667,81.8766,102.188)">
        <path d="M629.531,356.625C629.094,357.91 628.331,358.813 627.825,358.642C627.321,358.47 627.264,357.289 627.701,356.003C628.138,354.717 628.901,353.814 629.406,353.986C629.912,354.158 629.967,355.338 629.531,356.625Z" style="fill:rgb(87,196,196);fill-rule:nonzero;"/>
    </g>
    <g transform="matrix(4.16667,0,0,4.16667,81.8766,102.188)">
        <path d="M639.286,342.328L640.302,342.455C642.243,342.698 643.642,344.41 643.41,346.259L643.075,348.929C642.844,350.779 641.065,352.092 639.124,351.849L638.108,351.722L639.286,342.328Z" style="fill:rgb(3,103,107);fill-rule:nonzero;"/>
    </g>
    <g transform="matrix(4.16667,0,0,4.16667,81.8766,102.188)">
        <path d="M607.912,341.08C606.998,348.368 607.932,354.487 609.999,354.746C612.066,355.005 614.482,349.307 615.396,342.018C616.31,334.729 615.375,328.611 613.309,328.352C611.242,328.092 608.825,333.792 607.912,341.08Z" style="fill:rgb(26,45,86);fill-rule:nonzero;"/>
    </g>
    <g transform="matrix(4.16667,0,0,4.16667,81.8766,102.188)">
        <path d="M616.17,337.175L612.972,338.729L612.436,342.999L615.138,346.147L616.889,340.728L616.17,337.175Z" style="fill:white;fill-rule:nonzero;"/>
    </g>
    <g transform="matrix(4.16667,0,0,4.16667,81.8766,102.188)">
        <path d="M615.396,342.018C616.165,335.893 615.623,330.609 614.206,328.919L614.214,328.912C625.489,339.413 639.866,342.496 639.866,342.496L638.698,351.811C638.698,351.811 619.181,348.242 611.014,354.426L611.004,354.419C612.797,353.137 614.628,348.147 615.396,342.018Z" style="fill:rgb(255,207,83);fill-rule:nonzero;"/>
    </g>
    <g transform="matrix(4.16667,0,0,4.16667,81.8766,102.188)">
        <path d="M612.301,340.804C612.153,341.988 612.213,342.97 612.436,342.999C612.66,343.027 612.961,342.089 613.109,340.906C613.258,339.721 613.197,338.739 612.974,338.711C612.751,338.683 612.45,339.62 612.301,340.804Z" style="fill:rgb(255,207,83);fill-rule:nonzero;"/>
    </g>
    <g transform="matrix(4.16667,0,0,4.16667,81.8766,102.188)">
        <path d="M624.21,362.256C624.515,362.37 625.585,363.044 629.038,363.044C631.551,363.044 632.682,359.954 633.111,358.274C633.263,357.682 633.396,356.843 632.657,356.466L628.619,355.906L624.21,362.256Z" style="fill:rgb(250,176,138);fill-rule:nonzero;"/>
    </g>
    <defs>
        <linearGradient id="_Linear1" x1="0" y1="0" x2="1" y2="0" gradientUnits="userSpaceOnUse" gradientTransform="matrix(-242.202,39.7371,39.7371,242.202,577.38,322.097)"><stop offset="0" style="stop-color:white;stop-opacity:1"/><stop offset="1" style="stop-color:rgb(177,224,233);stop-opacity:1"/></linearGradient>
        <linearGradient id="_Linear2" x1="0" y1="0" x2="1" y2="0" gradientUnits="userSpaceOnUse" gradientTransform="matrix(219.511,0,0,219.511,0,74.6875)"><stop offset="0" style="stop-color:white;stop-opacity:1"/><stop offset="1" style="stop-color:rgb(177,224,233);stop-opacity:1"/></linearGradient>
        <linearGradient id="_Linear3" x1="0" y1="0" x2="1" y2="0" gradientUnits="userSpaceOnUse" gradientTransform="matrix(63.0003,0,0,63.0003,222.874,344.178)"><stop offset="0" style="stop-color:rgb(234,246,243);stop-opacity:1"/><stop offset="1" style="stop-color:rgb(177,224,233);stop-opacity:1"/></linearGradient>
        <linearGradient id="_Linear4" x1="0" y1="0" x2="1" y2="0" gradientUnits="userSpaceOnUse" gradientTransform="matrix(75.4628,0,0,75.4628,210.007,345.899)"><stop offset="0" style="stop-color:rgb(234,246,243);stop-opacity:1"/><stop offset="1" style="stop-color:rgb(177,224,233);stop-opacity:1"/></linearGradient>
        <linearGradient id="_Linear5" x1="0" y1="0" x2="1" y2="0" gradientUnits="userSpaceOnUse" gradientTransform="matrix(41.5984,29.4243,-29.4243,41.5984,549.33,736.326)"><stop offset="0" style="stop-color:rgb(234,246,243);stop-opacity:1"/><stop offset="1" style="stop-color:rgb(177,224,233);stop-opacity:1"/></linearGradient>
        <linearGradient id="_Linear6" x1="0" y1="0" x2="1" y2="0" gradientUnits="userSpaceOnUse" gradientTransform="matrix(33.5461,23.7286,-23.7286,33.5461,540.43,748.908)"><stop offset="0" style="stop-color:rgb(234,246,243);stop-opacity:1"/><stop offset="1" style="stop-color:rgb(177,224,233);stop-opacity:1"/></linearGradient>
        <linearGradient id="_Linear7" x1="0" y1="0" x2="1" y2="0" gradientUnits="userSpaceOnUse" gradientTransform="matrix(-1.2668,0,0,1.2668,642.237,404.365)"><stop offset="0" style="stop-color:rgb(213,236,229);stop-opacity:1"/><stop offset="1" style="stop-color:rgb(177,224,233);stop-opacity:1"/></linearGradient>
        <linearGradient id="_Linear8" x1="0" y1="0" x2="1" y2="0" gradientUnits="userSpaceOnUse" gradientTransform="matrix(-17.0635,0,0,17.0635,679.579,407.126)"><stop offset="0" style="stop-color:rgb(213,236,229);stop-opacity:1"/><stop offset="1" style="stop-color:rgb(177,224,233);stop-opacity:1"/></linearGradient>
    </defs>
</svg>
