<?xml version="1.0" encoding="UTF-8" standalone="no"?><!DOCTYPE svg PUBLIC "-//W3C//DTD SVG 1.1//EN" "http://www.w3.org/Graphics/SVG/1.1/DTD/svg11.dtd"><svg width="100%" height="100%" viewBox="0 0 3157 1997" version="1.1" xmlns="http://www.w3.org/2000/svg" xmlns:xlink="http://www.w3.org/1999/xlink" xml:space="preserve" xmlns:serif="http://www.serif.com/" style="fill-rule:evenodd;clip-rule:evenodd;stroke-linejoin:round;stroke-miterlimit:2;"><path d="M1574.24,1996.63c-833.438,0 -1509.07,-73.656 -1509.07,-164.497c0,-90.875 675.634,-164.528 1509.07,-164.528c833.469,0 1509.09,73.653 1509.09,164.528c0,90.841 -675.624,164.497 -1509.09,164.497Z" style="fill:#cdc7da;fill-opacity:0.3;fill-rule:nonzero;"/><path d="M431.837,1133.01c1.313,-9.352 4.219,-18.64 8.844,-27.478c12.344,-23.621 34.281,-39.025 58.563,-43.925l0,17.531l-43.563,25.372c0.032,0.691 0.188,1.35 0.188,2.053c0,13.823 -10.532,25.179 -24.032,26.447Zm-84.812,-61.649l-164.259,-94.035c-6.825,6.703 -16.157,10.856 -26.479,10.856c-20.89,0 -37.828,-16.937 -37.828,-37.831c0,-17.45 11.882,-31.994 27.95,-36.359l-0.934,-254.11c-9.266,-4.143 -15.747,-13.406 -15.747,-24.215c0,-14.672 11.891,-26.563 26.559,-26.563c5.757,0 11.044,1.875 15.394,4.985l220.75,-128.532c-0.584,-2.647 -0.947,-5.371 -0.947,-8.19c0,-20.894 16.941,-37.832 37.835,-37.832c20.893,0 37.831,16.938 37.831,37.832c0,3.141 -0.5,6.14 -1.219,9.059l33.313,19.069l0,25.128l-44.469,-25.45c-6.719,6.169 -15.594,10.022 -25.456,10.022c-2.982,0 -5.838,-0.438 -8.613,-1.094l-113.056,195.853l121.3,69.61l70.294,-40.932l0,25.235l-48.469,28.222l48.469,27.812l0,25.138l-70.207,-40.288l-235.937,137.372c0.597,2.66 1.019,5.384 1.019,8.228c0,2.7 -0.306,5.325 -0.844,7.863l163.856,93.806l-10.106,19.341Zm-50.275,-342.525l-111.034,192.35l221.49,-128.966l-110.456,-63.384Zm-124.988,-71.725c-1.412,1.015 -2.887,1.947 -4.484,2.678l0.91,248.134l109.643,-189.941l-106.069,-60.871Zm228.207,-150.713l-217.391,126.575c0.094,0.897 0.275,1.769 0.275,2.694c0,0.869 -0.109,1.712 -0.194,2.562l106.075,60.869l111.235,-192.7Zm99.275,456.934c-0.032,-0.028 -0.063,-0.059 -0.094,-0.09l0.094,-0.181l0,0.271Z" style="fill:#fff;fill-rule:nonzero;"/><path d="M2731.93,1667.18c-14.656,0 -26.562,-11.89 -26.562,-26.559c0,-1.072 0.187,-2.087 0.312,-3.125l-215.906,-123.61l43.875,0l183.219,104.885c4.281,-2.963 9.468,-4.713 15.062,-4.713c0.875,0 1.719,0.132 2.563,0.216l118.375,-205.906l-121.219,-69.566l-83.156,48.428l0,-25.234l61.343,-35.722l-61.343,-35.203l0,-25.138l83.062,47.682l245.906,-143.166c-0.093,-0.9 -0.218,-1.8 -0.218,-2.728c0,-0.856 0.187,-1.663 0.25,-2.497l-220.094,-125.997c-6.719,6.166 -15.625,10.025 -25.469,10.025c-2.969,0 -5.843,-0.444 -8.593,-1.1l-74.844,129.663l0,-43.625l54.094,-93.738l-54.094,31.506l0,-25.234l46.562,-27.116c-0.593,-2.64 -0.937,-5.371 -0.937,-8.19c0,-20.891 16.937,-37.829 37.812,-37.829c20.906,0 37.844,16.938 37.844,37.829c0,3.144 -0.5,6.147 -1.219,9.062l219.719,125.781c4.375,-3.175 9.719,-5.103 15.531,-5.103c14.688,0 26.563,11.891 26.563,26.563c0,10.734 -6.407,19.931 -15.563,24.119l0.938,254.84c15,5.019 25.906,19.028 25.906,35.728c0,20.891 -16.938,37.828 -37.844,37.828c-9.781,0 -18.594,-3.806 -25.312,-9.89l-220.188,128.218c0.031,0.688 0.188,1.35 0.188,2.057c0,14.669 -11.875,26.559 -26.563,26.559Zm139.875,-247.959l-110.656,192.437l206.094,-119.996c-0.75,-2.975 -1.25,-6.044 -1.25,-9.254c0,-2.947 0.437,-5.771 1.094,-8.512l-95.282,-54.675Zm121.25,-210.912l-110.406,192.012l95.281,54.662c4.438,-4.168 9.938,-7.287 16,-8.937l-0.875,-237.737Zm-19.062,-10.61l-220.594,128.444l110.344,63.325l110.25,-191.769Zm-515.094,324.537c-8.969,0 -17.219,-3.125 -23.688,-8.35l47.344,0c-6.468,5.216 -14.687,8.35 -23.656,8.35Z" style="fill:#fff;fill-rule:nonzero;"/><path d="M499.244,1296.49c-6.031,-0.657 -12.031,-1.682 -18,-3.079c2.531,-7.202 0.5,-14.731 -5.125,-17.671l-44.857,-23.472c-1.565,-0.819 -3.262,-1.21 -4.993,-1.21c-4.491,0 -9.206,2.616 -12.438,7.082c-10.965,-9.9 -20.272,-21.225 -27.787,-33.532c7.622,-3.056 12.059,-10.237 10.062,-16.612l-15.112,-48.341c-1.647,-5.218 -7.11,-8.409 -13.407,-8.409c-1.265,0 -2.565,0.128 -3.874,0.394c-0.632,-13.825 0.612,-27.822 3.856,-41.616c1.743,0.513 3.49,0.763 5.178,0.763c4.981,0 9.409,-2.182 11.5,-6.2l4.797,-9.176l14.025,8.032c-0.122,1.031 -0.316,2.053 -0.316,3.118c0,14.673 11.894,26.566 26.566,26.566c0.85,0 1.69,-0.04 2.518,-0.119c-4.871,34.607 12.063,70.132 44.75,87.247c7.313,3.829 14.938,6.482 22.657,8.029l0,68.206Zm-84.994,-211.775l-15.091,-8.641l8.566,-16.381c2.803,-5.375 0.553,-12.303 -5.034,-16.813c10.393,-11.543 22.372,-21.265 35.396,-28.99c2.844,4.993 7.563,8.115 12.313,8.115c1.031,0 2.094,-0.159 3.156,-0.484l14.719,-4.613l-36.375,63.313c-0.866,-0.084 -1.706,-0.222 -2.581,-0.222c-5.603,0 -10.785,1.756 -15.069,4.716Zm44.306,-7.11l40.406,-70.287l0.282,-0.091l0,46.678l-40.688,23.7Z" style="fill:#f9e669;fill-opacity:0.3;fill-rule:nonzero;"/><path d="M429.319,1133.13c-14.672,0 -26.566,-11.893 -26.566,-26.566c0,-1.065 0.194,-2.087 0.316,-3.118l-14.025,-8.032l10.115,-19.337l15.091,8.641c4.284,-2.96 9.466,-4.716 15.069,-4.716c0.875,0 1.715,0.138 2.581,0.222l36.375,-63.313l30.687,-9.59l-40.406,70.287l40.688,-23.7l0,7.7c-24.282,4.9 -46.219,20.304 -58.563,43.925c-4.625,8.838 -7.531,18.126 -8.844,27.478c-0.828,0.079 -1.668,0.119 -2.518,0.119Z" style="fill:#fff;fill-rule:nonzero;"/><path d="M372.747,1110.79c-1.688,0 -3.435,-0.25 -5.178,-0.763c-1.225,-0.362 -2.447,-0.853 -3.644,-1.478l-14.191,-7.431c-7.925,-4.141 -11.665,-12.635 -8.359,-18.947l5.65,-10.809l42.019,24.052l-4.797,9.176c-2.091,4.018 -6.519,6.2 -11.5,6.2Zm26.412,-34.713l-42.028,-24.056l7.725,-14.781c2.1,-4.013 6.535,-6.191 11.516,-6.191c2.875,0 5.931,0.725 8.831,2.234l14.172,7.428c1.203,0.632 2.312,1.363 3.316,2.172c5.587,4.51 7.837,11.438 5.034,16.813l-8.566,16.381Z" style="fill:#f9e669;fill-opacity:0.3;fill-rule:nonzero;"/><path d="M389.044,1095.41l-42.019,-24.052l10.106,-19.341l42.028,24.056l-10.115,19.337Z" style="fill:#fff;fill-rule:nonzero;"/><path d="M450.4,1022.01c-4.75,0 -9.469,-3.122 -12.313,-8.115c-0.687,-1.216 -1.25,-2.541 -1.718,-3.96l-4.782,-15.278c-2.668,-8.534 0.688,-17.178 7.5,-19.306l48.313,-15.122c1.031,-0.325 2.094,-0.481 3.156,-0.481c3.031,0 6.063,1.275 8.594,3.497l-30.875,53.668l-14.719,4.613c-1.062,0.325 -2.125,0.484 -3.156,0.484Zm48.562,-14.687l0.282,-0.509l0,0.418l-0.282,0.091Z" style="fill:#f9e669;fill-opacity:0.3;fill-rule:nonzero;"/><path d="M468.275,1016.91l30.875,-53.668c0.031,0.031 0.062,0.062 0.094,0.09l0,43.479l-0.282,0.509l-30.687,9.59Z" style="fill:#fff;fill-rule:nonzero;"/><path d="M363.341,1230.86c-6.307,0 -11.779,-3.193 -13.41,-8.418l-15.134,-48.307c-2.125,-6.834 3.062,-14.515 11.581,-17.194l15.297,-4.768c0.678,-0.213 1.359,-0.387 2.038,-0.528c1.309,-0.266 2.609,-0.394 3.874,-0.394c6.297,0 11.76,3.191 13.407,8.409l15.112,48.341c1.997,6.375 -2.44,13.556 -10.062,16.612c-0.5,0.197 -1.01,0.382 -1.535,0.544l-15.275,4.788c-1.984,0.622 -3.978,0.915 -5.893,0.915Z" style="fill:#f9e669;fill-opacity:0.3;fill-rule:nonzero;"/><path d="M458.681,1319.83c-1.719,0 -3.437,-0.388 -5,-1.203l-44.847,-23.478c-6.331,-3.322 -8.103,-12.407 -3.953,-20.335l7.416,-14.19c0.459,-0.879 0.975,-1.703 1.534,-2.475c3.232,-4.466 7.947,-7.082 12.438,-7.082c1.731,0 3.428,0.391 4.993,1.21l44.857,23.472c5.625,2.94 7.656,10.469 5.125,17.671c-0.344,0.898 -0.719,1.788 -1.188,2.666l-7.406,14.185c-3.125,5.962 -8.687,9.559 -13.969,9.559Z" style="fill:#f9e669;fill-opacity:0.3;fill-rule:nonzero;"/><path d="M2648.49,317.634l0,-56.859c15.094,-7.731 28,-20.025 36.468,-36.16c21.719,-41.537 5.594,-93.003 -35.937,-114.743c-12.531,-6.578 -26,-9.697 -39.281,-9.697c-28.282,0 -55.688,14.15 -71.657,39.128l-57.312,0l20.594,-39.35c2.812,-5.378 0.562,-12.303 -5.031,-16.815c10.374,-11.544 22.375,-21.263 35.406,-28.988c2.843,4.991 7.562,8.112 12.281,8.112c1.062,0 2.125,-0.156 3.156,-0.484l48.344,-15.115c5.344,-1.676 8.531,-7.351 8.406,-13.835c1.969,-0.078 3.969,-0.118 5.969,-0.118c11.469,0 23.062,1.303 34.469,3.971c-2.563,7.213 -0.532,14.775 5.125,17.725l44.843,23.466c1.563,0.819 3.251,1.203 5,1.206c4.501,0 9.219,-2.628 12.469,-7.122c11.25,10.163 20.75,21.828 28.375,34.516c-5.531,3.572 -8.437,9.538 -6.75,14.941l15.125,48.325c1.625,5.209 7.063,8.4 13.344,8.424c0.656,13.926 -0.562,28.048 -3.844,41.941c-1.781,-0.54 -3.594,-0.806 -5.312,-0.806c-4.969,0 -9.406,2.181 -11.5,6.191l-23.469,44.865c-2.844,5.41 -0.531,12.397 5.156,16.897c-8.687,9.656 -18.5,18.035 -29.125,25.034c-2.781,-3.224 -6.469,-5.14 -10.187,-5.14c-1.032,0 -2.094,0.156 -3.125,0.484l-32,10.006Z" style="fill:#f9e669;fill-opacity:0.3;fill-rule:nonzero;"/><path d="M2699.34,79.078c-1.749,-0.003 -3.437,-0.387 -5,-1.206l-44.843,-23.466c-5.657,-2.95 -7.688,-10.512 -5.125,-17.725c0.312,-0.887 0.718,-1.769 1.156,-2.634l7.406,-14.185c3.125,-5.952 8.719,-9.546 13.969,-9.546c1.719,0 3.437,0.39 5,1.215l44.875,23.46c6.312,3.309 8.094,12.421 3.938,20.334l-7.407,14.194c-0.468,0.862 -0.969,1.678 -1.5,2.437c-3.25,4.494 -7.968,7.122 -12.469,7.122Z" style="fill:#f9e669;fill-opacity:0.3;fill-rule:nonzero;"/><path d="M2480.78,139.303l-40.594,0c-5.687,-4.503 -8,-11.487 -5.156,-16.878l23.469,-44.931c2.093,-4.013 6.531,-6.188 11.531,-6.188c2.875,0 5.906,0.722 8.813,2.234l14.187,7.426c1.187,0.631 2.312,1.362 3.313,2.172c5.593,4.512 7.843,11.437 5.031,16.815l-20.594,39.35Z" style="fill:#f9e669;fill-opacity:0.3;fill-rule:nonzero;"/><path d="M2544.03,62.262c-4.719,0 -9.438,-3.121 -12.281,-8.112c-0.688,-1.216 -1.281,-2.544 -1.719,-3.962l-4.813,-15.279c-2.656,-8.531 0.719,-17.178 7.532,-19.306l48.312,-15.119c1.031,-0.328 2.094,-0.484 3.156,-0.484c5.876,0 11.751,4.837 14.032,12.062l4.781,15.285c0.562,1.843 0.875,3.694 0.906,5.481c0.125,6.484 -3.062,12.159 -8.406,13.835l-48.344,15.115c-1.031,0.328 -2.094,0.484 -3.156,0.484Z" style="fill:#f9e669;fill-opacity:0.3;fill-rule:nonzero;"/><path d="M2648.49,368.347l0,-50.713l32,-10.006c1.031,-0.328 2.093,-0.484 3.125,-0.484c3.718,0 7.406,1.916 10.187,5.14c1.656,1.897 3,4.247 3.813,6.925l4.812,15.279c2.657,8.54 -0.687,17.19 -7.531,19.315l-46.406,14.544Z" style="fill:#f9e669;fill-opacity:0.3;fill-rule:nonzero;"/><path d="M2761.96,178.162l-0.063,0c-6.281,-0.024 -11.719,-3.215 -13.344,-8.424l-15.125,-48.325c-1.687,-5.403 1.219,-11.369 6.75,-14.941c1.438,-0.938 3.063,-1.709 4.844,-2.266l15.281,-4.778c1.969,-0.628 3.969,-0.925 5.906,-0.925c6.313,0 11.75,3.194 13.407,8.425l15.125,48.363c2.125,6.809 -3.063,14.506 -11.594,17.175l-15.281,4.781c-1.969,0.622 -3.969,0.915 -5.906,0.915Z" style="fill:#f9e669;fill-opacity:0.3;fill-rule:nonzero;"/><path d="M2749.12,298.985c-2.875,0 -5.906,-0.723 -8.813,-2.238l-14.187,-7.428c-1.156,-0.603 -2.219,-1.3 -3.188,-2.069c-5.687,-4.5 -8,-11.487 -5.156,-16.897l23.469,-44.865c2.094,-4.01 6.531,-6.191 11.5,-6.191c1.718,0 3.531,0.266 5.312,0.806c1.188,0.359 2.375,0.841 3.532,1.45l14.187,7.413c7.906,4.14 11.656,12.618 8.344,18.95l-23.469,44.875c-2.094,4.015 -6.531,6.194 -11.531,6.194Z" style="fill:#f9e669;fill-opacity:0.3;fill-rule:nonzero;"/><rect x="586.869" y="212.641" width="1733.34" height="1155.96" style="fill:#b5d0ed;fill-rule:nonzero;"/><rect x="585.369" y="212.544" width="1733.34" height="114.728" style="fill:#9c87bf;fill-rule:nonzero;"/><path d="M957.494,272.363c0,16.712 -14.125,30.256 -31.594,30.256l-287.25,0c-17.438,0 -31.594,-13.544 -31.594,-30.256c0,-16.707 14.156,-30.251 31.594,-30.251l287.25,0c17.469,0 31.594,13.544 31.594,30.251Z" style="fill:#fff;fill-rule:nonzero;"/><path d="M2286.81,274.131c0,15.625 -11.687,28.291 -26.125,28.291l-127.312,0c-14.438,0 -26.125,-12.666 -26.125,-28.291l0,-3.531c0,-15.625 11.687,-28.29 26.125,-28.29l127.312,0c14.438,0 26.125,12.665 26.125,28.29l0,3.531Z" style="fill:#fff;fill-rule:nonzero;"/><rect x="499.244" y="139.303" width="2149.25" height="1374.58" style="fill:#988ac1;fill-rule:nonzero;"/><rect x="595.056" y="233.788" width="1957.59" height="1155.96" style="fill:#9edcf3;fill-rule:nonzero;"/><path d="M2651.62,1513.89l-2146.56,0l-499.231,211.463l3145.01,0l-499.218,-211.463Z" style="fill:#b3a0cd;fill-rule:nonzero;"/><path d="M3156.68,1725.35l-3156.68,0l64.066,111.159l3025.21,0l67.406,-111.159Z" style="fill:#9c87bf;fill-rule:nonzero;"/><path d="M2096.56,1658.19l-1037.81,0l-65.282,41.943l1169.75,0l-66.657,-41.943Z" style="fill:#988ac1;fill-rule:nonzero;"/><path d="M1544.28,183.447c0,-14.722 13.5,-26.656 30.125,-26.656c16.625,0 30.094,11.934 30.094,26.656c0,14.722 -13.469,26.656 -30.094,26.656c-16.625,0 -30.125,-11.934 -30.125,-26.656Z" style="fill:#b3a0cd;fill-rule:nonzero;"/><path d="M2592.15,1549.59l-2031.06,0l-192.79,84.14l2416.66,0l-192.812,-84.14Z" style="fill:#988ac1;fill-rule:nonzero;"/><rect x="402.637" y="1567.16" width="2362.36" height="9.888" style="fill:#b3a0cd;fill-rule:nonzero;"/><rect x="402.637" y="1600.26" width="2362.36" height="9.887" style="fill:#b3a0cd;fill-rule:nonzero;"/><path d="M486.462,1662.18l0.126,-0.119l-8.532,-7.747c1.719,-1.916 5.782,-6.394 123.032,-69.678c57.531,-31.063 114.812,-61.406 115.374,-61.707l5.407,10.191c-90.188,47.763 -227.281,121.547 -235.407,129.06Z" style="fill:#b3a0cd;fill-rule:nonzero;"/><path d="M672.119,1655.22l-7.375,-8.872l135.375,-112.438l7.343,8.872l-135.343,112.438Z" style="fill:#b3a0cd;fill-rule:nonzero;"/><path d="M845.713,1609.29l-8.126,-8.179l67.282,-66.853l8.125,8.178l-67.281,66.854Z" style="fill:#b3a0cd;fill-rule:nonzero;"/><path d="M960.4,1610.29l-8.719,-7.547l66.813,-77.175l8.719,7.547l-66.813,77.175Z" style="fill:#b3a0cd;fill-rule:nonzero;"/><path d="M1058.62,1609.88l-9.344,-6.731l49,-68.172l9.375,6.732l-49.031,68.171Z" style="fill:#b3a0cd;fill-rule:nonzero;"/><path d="M1135.99,1653.67l-9.969,-5.766l64.875,-112.434l9.969,5.762l-64.875,112.438Z" style="fill:#b3a0cd;fill-rule:nonzero;"/><path d="M1247.28,1653.13l-10.531,-4.694l50.062,-112.437l10.531,4.694l-50.062,112.437Z" style="fill:#b3a0cd;fill-rule:nonzero;"/><path d="M1367.4,1652.03l-11.281,-2.506l25.062,-112.434l11.25,2.506l-25.031,112.434Z" style="fill:#b3a0cd;fill-rule:nonzero;"/><path d="M1459.71,1651.4l-11.438,-1.231l12.031,-112.435l11.469,1.232l-12.062,112.434Z" style="fill:#b3a0cd;fill-rule:nonzero;"/><path d="M1542.03,1651.13l-11.531,-0.694l6.781,-112.434l11.5,0.694l-6.75,112.434Z" style="fill:#b3a0cd;fill-rule:nonzero;"/><path d="M2682.99,1662.18c-8.125,-7.516 -145.219,-81.297 -235.375,-129.06l5.375,-10.191c0.593,0.301 57.844,30.644 115.406,61.707c117.219,63.284 121.281,67.762 123.031,69.678l-8.562,7.747l0.125,0.119Z" style="fill:#b3a0cd;fill-rule:nonzero;"/><path d="M2497.34,1655.22l-135.343,-112.438l7.375,-8.872l135.343,112.438l-7.375,8.872Z" style="fill:#b3a0cd;fill-rule:nonzero;"/><path d="M2361.46,1654.72l-105.125,-112.438l8.407,-7.872l105.156,112.432l-8.438,7.878Z" style="fill:#b3a0cd;fill-rule:nonzero;"/><path d="M2241.9,1648.25l-99.625,-115.131l8.719,-7.547l99.625,115.131l-8.719,7.547Z" style="fill:#b3a0cd;fill-rule:nonzero;"/><path d="M2138.12,1647.84l-76.282,-106.124l9.344,-6.732l76.313,106.128l-9.375,6.728Z" style="fill:#b3a0cd;fill-rule:nonzero;"/><path d="M2033.46,1653.67l-64.876,-112.438l10,-5.765l64.875,112.437l-9.999,5.766Z" style="fill:#b3a0cd;fill-rule:nonzero;"/><path d="M1922.21,1653.13l-50.094,-112.437l10.531,-4.694l50.094,112.437l-10.531,4.694Z" style="fill:#b3a0cd;fill-rule:nonzero;"/><path d="M1802.09,1652.03l-25.031,-112.434l11.25,-2.506l25.031,112.434l-11.25,2.506Z" style="fill:#b3a0cd;fill-rule:nonzero;"/><path d="M1709.74,1651.4l-12.063,-112.434l11.469,-1.232l12.062,112.435l-11.468,1.231Z" style="fill:#b3a0cd;fill-rule:nonzero;"/><path d="M1627.46,1651.13l-6.781,-112.434l11.5,-0.694l6.782,112.434l-11.501,0.694Z" style="fill:#b3a0cd;fill-rule:nonzero;"/><path d="M1481.21,1318.47l-652.782,0c-11.156,0 -20.187,-11.675 -20.187,-26.094l0,-449.953c0,-14.413 9.031,-26.09 20.187,-26.09l652.782,0c11.156,0 20.218,11.677 20.218,26.09l0,449.953c0,14.419 -9.062,26.094 -20.218,26.094Zm-536.157,-238.572l0,58.519l527.313,0l0,-58.519l-527.313,0Zm-99.531,-86.959l0,53.622l626.844,0l0,-53.622l-626.844,0Zm-5.719,-123.394l0,82.619l632.563,0l0,-82.619l-632.563,0Z" style="fill:#77cdd6;fill-rule:nonzero;"/><rect x="839.806" y="869.547" width="632.562" height="82.619" style="fill:#c5e9f7;fill-rule:nonzero;"/><rect x="845.525" y="992.941" width="626.844" height="53.622" style="fill:#c5e9f7;fill-rule:nonzero;"/><rect x="945.056" y="1079.9" width="527.312" height="58.519" style="fill:#c5e9f7;fill-rule:nonzero;"/><path d="M808.244,775.912l0,-37.337l305.593,-190.753l14.969,28.213l-320.562,199.877Zm346.625,-216.125l-15,-28.228l0.406,-0.243l14.688,28.403l-0.094,0.068Z" style="fill:#7985c1;fill-rule:nonzero;"/><path d="M1169.18,652.119l-1.156,-2.238l1.187,2.222l-0.031,0.016Zm1.219,-0.732l24.875,-15.506l-14.844,-27.934l303.75,-184.481l15.594,27.874l-329.375,200.047Z" style="fill:#7985c1;fill-rule:nonzero;"/><path d="M1169.21,652.119l0,-0.016l-1.187,-2.222l-39.219,-73.846l-14.969,-28.213l-0.156,-0.266l26.063,-16.24l0.125,0.243l15,28.228l25.562,48.16l14.844,27.934l-24.875,15.506l-1.188,0.732Z" style="fill:#7985c1;fill-rule:nonzero;"/><path d="M1515.34,479.231l-15.562,-27.891l-15.594,-27.874l-16.687,-29.894l113.312,-15.75l-65.469,101.409Z" style="fill:#7985c1;fill-rule:nonzero;"/><path d="M1786.84,571.656l-43.281,-17.025c0.406,-3.231 0.656,-6.512 0.656,-9.853c0,-41.915 -34.093,-76.018 -75.999,-76.018l0,-45.644c67.062,0 121.656,54.578 121.656,121.662c0,9.235 -1.063,18.222 -3.032,26.878Z" style="fill:#7482ac;fill-rule:nonzero;"/><path d="M1691.59,651.525l-18.156,-34.006c19.875,-8.963 34.406,-27.744 37.313,-50.144l36.469,14.35c-6.969,30.803 -27.813,56.397 -55.626,69.8Z" style="fill:#8b94c9;fill-rule:nonzero;"/><path d="M1596.53,519.875l-30.281,-23.694c18.812,-24.118 48.094,-39.681 80.969,-39.681l0,38.478c-20.594,0 -38.938,9.769 -50.688,24.897Z" style="fill:#8b94c9;fill-rule:nonzero;"/><path d="M1647.21,661.644c-56.563,0 -102.594,-46.016 -102.594,-102.572c0,-23.688 8.094,-45.507 21.625,-62.891l30.281,23.694c-8.375,10.85 -13.406,24.444 -13.406,39.197c0,35.338 28.75,64.09 64.094,64.09c9.343,0 18.218,-2.031 26.218,-5.643l18.156,34.006c-13.437,6.478 -28.5,10.119 -44.374,10.119Z" style="fill:#8b94c9;fill-rule:nonzero;"/><rect x="1227.34" y="733.897" width="289.625" height="33.872" style="fill:#b395bd;fill-rule:nonzero;"/><rect x="1227.34" y="677.422" width="234.594" height="33.875" style="fill:#b395bd;fill-rule:nonzero;"/><rect x="1848.37" y="1284.6" width="289.625" height="33.875" style="fill:#7482ac;fill-rule:nonzero;"/><rect x="1848.37" y="1228.12" width="234.594" height="33.872" style="fill:#7482ac;fill-rule:nonzero;"/><path d="M1756.37,1093.06l-37.344,-12.081c0.187,-2.744 0.219,-5.519 0.031,-8.334c-2.094,-33.966 -30.406,-60.191 -64,-60.191c-1.312,0 -2.656,0.04 -4,0.125l-2.406,-38.453c2.156,-0.131 4.312,-0.2 6.438,-0.2c53.75,0 99.062,41.969 102.437,96.328c0.469,7.781 0.062,15.416 -1.156,22.806Z" style="fill:#a1b3dc;fill-rule:nonzero;"/><path d="M1705.12,1166.31l-20.25,-32.878c19.312,-10.19 32.656,-29.884 34.156,-52.459l37.344,12.081c-5.063,31.238 -24.282,58.11 -51.25,73.256Z" style="fill:#7985c1;fill-rule:nonzero;"/><path d="M1601.96,1040.61l-31.719,-21.806c17.25,-25.262 45.562,-42.637 78.406,-44.681l2.406,38.453c-20.593,1.281 -38.312,12.178 -49.093,28.034Z" style="fill:#7985c1;fill-rule:nonzero;"/><path d="M1654.96,1179.4c-53.751,0 -99.063,-42.013 -102.438,-96.406c-1.469,-23.669 5.25,-45.972 17.719,-64.188l31.719,21.806c-7.719,11.357 -11.907,25.25 -10.969,39.991c2.093,33.99 30.406,60.225 64,60.225c1.343,0 2.687,-0.041 4.031,-0.125c9.313,-0.578 18.062,-3.156 25.844,-7.266l20.25,32.878c-13.031,7.316 -27.844,11.894 -43.719,12.885c-2.156,0.134 -4.313,0.2 -6.437,0.2Z" style="fill:#8b94c9;fill-rule:nonzero;"/><path d="M1755.03,831.494l-37.344,-12.081c0.188,-2.744 0.219,-5.519 0.031,-8.335c-2.093,-33.965 -30.406,-60.19 -64,-60.19c-1.312,0 -2.656,0.04 -4,0.124l-2.406,-38.452c2.157,-0.135 4.313,-0.201 6.438,-0.201c53.75,0 99.062,41.969 102.437,96.329c0.469,7.778 0.032,15.415 -1.156,22.806Z" style="fill:#a1b3dc;fill-rule:nonzero;"/><path d="M1703.78,904.747l-20.25,-32.875c19.312,-10.191 32.625,-29.887 34.156,-52.459l37.344,12.081c-5.062,31.237 -24.281,58.109 -51.25,73.253Z" style="fill:#8b94c9;fill-rule:nonzero;"/><path d="M1600.62,779.047l-31.75,-21.806c17.281,-25.263 45.594,-42.638 78.437,-44.681l2.406,38.452c-20.593,1.279 -38.312,12.178 -49.093,28.035Z" style="fill:#7482ac;fill-rule:nonzero;"/><path d="M1653.62,917.834c-53.75,0 -99.063,-42.012 -102.438,-96.409c-1.469,-23.666 5.25,-45.972 17.688,-64.184l31.75,21.806c-7.719,11.356 -11.907,25.25 -11,39.991c2.125,33.99 30.437,60.225 64.031,60.225c1.313,0 2.656,-0.041 4,-0.126c9.344,-0.581 18.094,-3.156 25.875,-7.265l20.25,32.875c-13.031,7.319 -27.844,11.897 -43.719,12.884c-2.156,0.135 -4.312,0.203 -6.437,0.203Z" style="fill:#7985c1;fill-rule:nonzero;"/><path d="M1875.34,432.59c-14.907,0 -26.969,-12.071 -26.969,-26.959c0,-14.884 12.062,-26.953 26.969,-26.953c14.875,0 26.937,12.069 26.937,26.953c0,14.888 -12.062,26.959 -26.937,26.959Z" style="fill:#aca9cd;fill-rule:nonzero;"/><path d="M1875.34,530.666c-14.907,0 -26.969,-12.066 -26.969,-26.954c0,-14.884 12.062,-26.977 26.969,-26.977c14.875,0 26.937,12.093 26.937,26.977c0,14.888 -12.062,26.954 -26.937,26.954Z" style="fill:#83d1dd;fill-rule:nonzero;"/><rect x="1929.15" y="395.491" width="437.188" height="20.406" style="fill:#83d1dd;fill-rule:nonzero;"/><rect x="1929.15" y="493.509" width="277.906" height="20.406" style="fill:#a0bfe5;fill-rule:nonzero;"/><rect x="1929.15" y="444.491" width="201.875" height="20.419" style="fill:#83d1dd;fill-rule:nonzero;"/><path d="M1875.34,635.744c-14.907,0 -26.969,-12.072 -26.969,-26.96c0,-14.884 12.062,-26.956 26.969,-26.956c14.875,0 26.937,12.072 26.937,26.956c0,14.888 -12.062,26.96 -26.937,26.96Z" style="fill:#aca9cd;fill-rule:nonzero;"/><path d="M1875.34,733.819c-14.907,0 -26.969,-12.066 -26.969,-26.953c0,-14.888 12.062,-26.979 26.969,-26.979c14.875,0 26.937,12.091 26.937,26.979c0,14.887 -12.062,26.953 -26.937,26.953Z" style="fill:#83d1dd;fill-rule:nonzero;"/><rect x="1929.15" y="598.64" width="380.375" height="20.409" style="fill:#90a9d7;fill-rule:nonzero;"/><rect x="1929.15" y="696.663" width="241.781" height="20.403" style="fill:#90a9d7;fill-rule:nonzero;"/><rect x="1929.15" y="647.644" width="201.875" height="20.422" style="fill:#839ed1;fill-rule:nonzero;"/><path d="M1875.34,838.894c-14.907,0 -26.969,-12.069 -26.969,-26.957c0,-14.887 12.062,-26.956 26.969,-26.956c14.875,0 26.937,12.069 26.937,26.956c0,14.888 -12.062,26.957 -26.937,26.957Z" style="fill:#aca9cd;fill-rule:nonzero;"/><path d="M1875.34,936.975c-14.907,0 -26.969,-12.069 -26.969,-26.956c0,-14.888 12.062,-26.978 26.969,-26.978c14.875,0 26.937,12.09 26.937,26.978c0,14.887 -12.062,26.956 -26.937,26.956Z" style="fill:#83d1dd;fill-rule:nonzero;"/><rect x="1929.15" y="801.794" width="277.906" height="20.406" style="fill:#aca9cd;fill-rule:nonzero;"/><rect x="1929.15" y="899.812" width="356.531" height="20.406" style="fill:#839ed1;fill-rule:nonzero;"/><rect x="1929.15" y="850.8" width="201.875" height="20.419" style="fill:#a0bfe5;fill-rule:nonzero;"/><path d="M1875.34,1042.05c-14.907,0 -26.969,-12.069 -26.969,-26.956c0,-14.888 12.062,-26.957 26.969,-26.957c14.875,0 26.937,12.069 26.937,26.957c0,14.887 -12.062,26.956 -26.937,26.956Z" style="fill:#aca9cd;fill-rule:nonzero;"/><path d="M1875.34,1140.13c-14.907,0 -26.969,-12.069 -26.969,-26.953c0,-14.887 12.062,-26.978 26.969,-26.978c14.875,0 26.937,12.091 26.937,26.978c0,14.884 -12.062,26.953 -26.937,26.953Z" style="fill:#83d1dd;fill-rule:nonzero;"/><rect x="1929.15" y="1004.95" width="437.188" height="20.403" style="fill:#a0bfe5;fill-rule:nonzero;"/><rect x="1929.15" y="1102.97" width="277.906" height="20.403" style="fill:#a0bfe5;fill-rule:nonzero;"/><rect x="1929.15" y="1053.95" width="201.875" height="20.422" style="fill:#90a9d7;fill-rule:nonzero;"/><path d="M1532.21,939.5c3.657,10.4 23.438,12.172 14.032,12.165c-12.375,-0.015 -57.688,5.516 -52.313,20.788c16.157,45.772 94.688,4.06 126.313,2.716c0.437,0.362 22.468,0.05 24.75,-14.059c1.469,-8.822 -1.594,-19.116 -8.75,-21.45c-4.813,-1.582 -10.375,-1.035 -15,0.643c-19.875,7.216 -26.5,9.707 -49.844,-1.594c-9.812,-4.759 -42.094,-7.522 -39.188,0.791Z" style="fill:#d9a38b;fill-rule:nonzero;"/><path d="M2143.15,1877.31c-0.156,-8.406 -1.094,-16.759 -2.75,-24.965c-0.187,-0.969 -1.094,-1.319 -1.906,-1.185c-12.5,2.029 -25.407,5.131 -35.063,14.36c-0.531,0.509 -0.562,1.128 -0.375,1.665l-0.094,0.397c-0.249,8.859 1.188,16.787 0.907,27.95c-0.157,7.019 16.312,5.744 21.656,6.3c7.312,0.753 19,4.61 21.344,-4.434c1.375,-5.272 -3.563,-11.36 -3.719,-20.088Z" style="fill:#d9a38b;fill-rule:nonzero;"/><path d="M1895.43,1883.42c0.406,-8.394 -0.156,-16.776 -1.25,-25.05c-0.093,-0.969 -0.937,-1.356 -1.687,-1.26c-11.469,1.453 -23.375,3.988 -32.625,12.772c-0.531,0.488 -0.594,1.1 -0.438,1.632l-0.125,0.406c-0.656,8.837 -3.156,18.875 -0.5,27.44c2.063,6.622 14.5,6.975 19.313,7.772c6.656,1.075 13.5,2.247 16.093,-6.7c1.501,-5.191 0.969,-11.631 1.219,-17.012Z" style="fill:#d9a38b;fill-rule:nonzero;"/><path d="M2168.31,1931.63c-3.375,-3.004 -6.812,1.549 -10.593,-3.038c-3.407,-4.116 -3.532,-8.256 -4.751,-13.119c-1.312,-5.15 -0.593,-12.753 -6.874,-26.2c0,0 -30.188,4.216 -42.282,0.994c-0.875,-0.234 -12.281,40.631 7,49.184c7.938,3.534 18,4.032 26.75,4.513c8.438,0.462 17.938,-0.085 25.5,-3.885c1.75,-0.856 6.938,-6.943 5.25,-8.449Z" style="fill:#6650a1;fill-rule:nonzero;"/><path d="M1857.78,1886.33c-0.125,0.019 -10.562,22.956 -35.156,33.409c-9.907,4.201 -27.219,7.45 -37.844,6.066c-14.719,-1.934 -14.375,6.191 -11.156,9.394c11.25,11.147 21,7.993 39.062,7.672c22.656,-0.416 52.875,-1.382 73.781,-1.594c17.219,-0.178 8.875,-53.05 8.875,-53.05c0,0 -21.937,-3.087 -37.562,-1.897Z" style="fill:#6650a1;fill-rule:nonzero;"/><path d="M2141.81,1919.52c-10.75,-1.103 -29.687,-3.187 -39.375,6.941c-1.125,1.19 1.906,-37.269 1.375,-36.191c-3.062,6.54 -15.062,56.315 6.344,54.153c11.656,-1.181 23.875,1.837 35.375,0.881c5.5,-0.465 18.562,0.106 23.094,-4.425c14.75,-14.769 -18.375,-20.497 -26.813,-21.359Z" style="fill:#472e8c;fill-rule:nonzero;"/><path d="M1771.21,1919.64c-8.062,4.646 0.5,14.744 5.251,20.128c11.906,13.384 109.593,6.15 113.781,0.394c0.406,-0.51 -93.813,0.306 -93.563,-0.413c1.188,-3.231 -13.062,-27.25 -25.469,-20.109Z" style="fill:#472e8c;fill-rule:nonzero;"/><path d="M2030.24,1030.5c-21.438,11.153 24.437,430.944 27.375,463.347c18.625,205.853 44.656,375.853 44.656,375.853c0,0 40.313,2.7 41.187,-2.018c17.844,-95.76 30.751,-268.654 36.813,-383.482c5.938,-112.241 131.5,-398.016 53.313,-454.247c-40.907,-29.428 -153.876,-25.193 -203.344,0.547Z" style="fill:#4b3896;fill-rule:nonzero;"/><path d="M1858.93,1871.39l36.188,0.863c0,0 103.125,-278.725 38.312,-398.434c65.625,-37.228 109.407,-194.241 130.875,-240.801c109.188,-236.827 22.657,-180.424 -1.781,-177.896c-0.875,0.093 -74.531,-57.675 -138.531,3.797c-25.563,24.525 -80.281,320.343 -95.344,371.743c-13.906,47.479 30.281,440.728 30.281,440.728Z" style="fill:#4b3896;fill-rule:nonzero;"/><path d="M2043.12,1080.81c-0.156,-2.146 -7.281,-17.731 -14.969,-23.815c-3.344,-2.622 5.375,-7.707 8.719,-5.047c14.219,11.228 -27,224.606 -48.313,280.862c-26.5,70.113 -56.656,141.916 -55.125,141.004c18.407,-10.875 25.813,-17.997 38.656,-37.485c58.657,-88.922 66.532,-134.865 66.594,-137.044c1.032,-43.325 7.188,-181.634 4.438,-218.475Z" style="fill:#342a70;fill-rule:nonzero;"/><path d="M2240.56,1215.79c0.032,-2.1 -13.562,7.165 -14.625,7.09l-0.406,-0.134c-20.437,-0.812 -29.437,-23.256 -32.094,-21.875c-15.062,7.719 -34.781,64.925 -38.25,76.647c-7,23.809 -45.25,33.087 -60.281,36.781c-25.906,6.366 -35.313,35.906 -36.969,49.616c-4.5,36.984 149.938,-3.919 161.656,-18.597c5.907,-7.385 7.563,-24.7 9.251,-34.816c4.906,-29.378 11.531,-66.969 11.718,-94.712Z" style="fill:#342a70;fill-rule:nonzero;"/><path d="M2242.53,1151.53c-0.031,-22.884 -0.812,-45.337 -3.375,-68.112c-2.281,-20.103 -2.812,-56.647 -28.5,-61.091c-15.844,-2.737 -36.469,11.31 -50.125,16.931c-21.125,8.691 -42.594,15.56 -65.156,19.116c-10.5,1.66 -48.156,2.875 -44.969,20.238c-0.188,1.046 0.219,2.103 1.469,2.409c18,4.297 32.968,6.697 51.594,5.041c21.093,-1.882 41.937,-6.347 62.656,-10.616c6.187,-1.272 12.156,-3.684 18.281,-5.191c14.625,-3.599 14.375,11.172 17.594,20.903c6.969,20.832 9.093,46.579 10.187,68.335c0.719,14.509 -2.562,25.037 -13.031,35.022c-5.688,5.415 -10.969,10.097 -15.031,16.896c-3.375,5.654 -6,16.163 -0.656,21.594c7.093,7.21 21.656,2.21 29.562,-0.512c10.875,-3.719 19.656,-13.231 23.563,-23.885c6.812,-18.518 6,-37.628 5.937,-57.078Z" style="fill:#342a70;fill-rule:nonzero;"/><path d="M2079.28,642.494c-28.594,19.353 -70.312,16.403 -101.562,5.581c-1.813,-0.619 -3.344,-0.456 -4.626,0.163c-3.812,-0.729 -7.906,1.29 -7.437,6.165c1.781,17.309 4.875,34.41 5.031,51.863c0.125,18.343 -3.531,37.09 -5.062,55.393c-2.969,35.829 -2.188,72.026 0.719,107.819c2.843,34.728 8.031,69.784 13.718,104.138c2.125,12.812 -7.594,50.674 -0.531,61.787c4.937,7.781 72.937,9.634 81.969,1.96c7.406,-6.247 -7.907,-51.885 -7.75,-60.344c0.281,-15.7 3.625,-30.988 5.594,-46.56c2.562,-20.394 4.093,-40.968 5.468,-61.478c2.531,-38.09 3.157,-76.193 8.157,-114.091c4.625,-35.006 4,-71.14 16.062,-104.777c1.906,-5.375 -4.969,-10.838 -9.75,-7.619Z" style="fill:#f8f7f7;fill-rule:nonzero;"/><path d="M2116.78,655.922c-6.406,-20.16 -25.75,-23.235 -44.187,-19.766c-11.594,2.185 -22.625,6.778 -34.188,9.263c-15,3.241 -30.813,-3.628 -46.188,-3.188c-10.093,0.294 -14.593,-10.959 -26.281,-4.222c-7.093,4.072 -7,13.347 -3.812,19.728c1.25,2.529 3.343,3.497 5.437,3.391c13.969,23.488 41.563,35.525 68.594,34.163c9.75,-0.485 8.625,9.531 8.125,17.118c-0.562,8.294 -2.063,16.591 -2.813,24.879c-1.968,22.353 -4.093,44.684 -6.749,66.971c-5.313,44.241 -14.157,88.191 -22.844,131.866c-3.656,18.425 -7.281,35.013 -18.782,50.25c-9.218,12.185 -16.968,22.944 -14.343,38.794c3.875,23.512 39.5,21.953 55.687,14.34c9.657,-4.54 13.469,-17.381 16.719,-26.484c7.344,-20.644 13.656,-41.659 19.656,-62.741c11.5,-40.275 23.188,-81.012 31.188,-122.134c7.031,-36.135 9.875,-72.788 14.719,-109.181c2.75,-20.541 6.468,-42.819 0.062,-63.047Z" style="fill:#d1cae2;fill-rule:nonzero;"/><path d="M2137.21,509.412c-0.187,-24.903 -20.781,-39.162 -43,-43.312c-24.656,-4.603 -52.124,1.9 -75.781,-7.028c-3.218,-1.219 -5.719,0.122 -7.062,2.331c-2.157,0.891 -4.688,2.847 -4.125,5.781c8.593,44.788 -24.219,50.094 -37.063,74.357c-5.468,10.331 -5.937,21.356 -7.531,32.918c-1.906,13.666 2.75,26.31 4.844,39.578c1.531,9.644 7.094,21.994 7.094,21.994c0,0 19.093,14.338 39.562,14.313c60.187,-0.056 73,-14.407 70.906,-17.081c-18.25,-23.188 2.469,-48.694 19.031,-66.129c15.282,-16.134 33.313,-33.878 33.125,-57.722Z" style="fill:#d9a38b;fill-rule:nonzero;"/><path d="M1982.56,944.51c-7.156,-15.429 -45.656,-129.054 -73.562,-111.157c-5.75,3.666 -43.594,195.191 -37.282,214.628c6.844,20.906 29.657,28.738 50.282,31.869c35.031,5.306 72.406,-1.994 75.969,-9.016c5.343,-10.578 -3.969,-101.65 -15.407,-126.324Z" style="fill:#6650a1;fill-rule:nonzero;"/><path d="M1951.28,637.869c-37.875,5.022 -111.219,196.356 -125.5,203.9c-19.406,10.237 -225.219,104.497 -225.219,104.497l0,32.462c0,0 250.75,-30.715 264.063,-37.15c24.844,-12.012 77.094,-74.528 90.375,-122.759c14.75,-53.828 19.594,-182.788 19.594,-182.788c0,0 -11.657,0.288 -23.313,1.838Z" style="fill:#5e4da0;fill-rule:nonzero;"/><path d="M2173.84,917.272c-3.876,-18.691 -11.563,-43.509 -31.469,-50.869c-22.875,-8.478 -45.219,6.925 -61.75,21.372c-9.719,8.475 -18.219,18.319 -26.157,28.419c-7.5,9.506 -25.843,96.556 -29.625,125.268c-1.124,8.188 -3.656,21.35 2.063,28.326c6.531,7.99 17.406,12.5 27.219,14.209c50.375,8.784 152.937,-32.722 160.375,-43.928c3.156,-4.741 -0.188,-12.547 0.5,-17.997c1.125,-8.925 -1.094,-25.559 0.625,-34.397c5.625,-29.547 -35.719,-41.15 -41.781,-70.403Z" style="fill:#6650a1;fill-rule:nonzero;"/><path d="M2218.43,825.459c1.5,-5.962 -71.406,21.875 -76.906,26.36c-1.125,0.9 -6.062,7.206 -5.375,10.112c-0.531,2.981 37.969,25.86 37.531,76.76c-0.469,55.787 16.781,115.537 16.781,115.537c0,0 16.75,-4.519 21.563,-13.278c3.625,-6.622 17.188,-197.097 6.406,-215.491Z" style="fill:#5e4da0;fill-rule:nonzero;"/><path d="M2093.15,652.994c1.25,23.387 4.219,38.912 4.875,62.328c0.625,21.981 4.688,42.869 8.875,64.325c4.406,22.578 104.25,122.6 100.406,167.69c-5.562,64.644 19.625,291.45 19.625,291.45l31.532,0.297c0,0 59.718,-256.971 54.062,-319.987c-5.313,-59.378 -62.969,-226.325 -97.469,-268.588c-26.625,-32.647 -130,-16.912 -130,-16.912l8.094,19.397Z" style="fill:#6650a1;fill-rule:nonzero;"/><path d="M2162.59,782.691c-6.718,-5.025 -30.093,-21.538 -34.375,-25.754c-2.781,-2.724 24.688,-33.084 22.344,-49.843c-2.437,-17.541 -65.5,-73.831 -65.5,-73.831c0,0 -0.343,10.796 -0.219,15.043c0.344,13.706 4.344,26.057 8.844,38.9c2.657,7.606 4.75,15.191 5.219,23.275c0.5,9.566 -3.594,18.91 -5.562,28.107c-3.157,14.749 -1.719,29.531 2.937,43.774c4.469,13.688 15.406,22.26 22.937,34.054c9.469,14.821 -15.781,32.137 -24.562,41.865c-11.844,13.11 -25.375,25.706 -34.406,40.913c-12.594,21.228 -27.563,98.384 -27.563,98.384c0,0 84.219,-87.888 115.375,-124.422c22.063,-25.919 50,-63.872 14.531,-90.465Z" style="fill:#472e8c;fill-rule:nonzero;"/><path d="M2108.71,762.262c2.907,-14.634 32.657,-39.031 29.375,-52.606c-3.281,-13.669 -53.031,-76.393 -53.031,-76.393l-49.968,352.887c0,0 111.031,-135.984 126.437,-158.55c14.625,-21.413 -55.031,-54.269 -52.813,-65.338Z" style="fill:#56439b;fill-rule:nonzero;"/><path d="M1911.43,867.259c22.063,36.6 82.375,125.101 82.375,125.101c0,0 -7.093,-74.704 -15.656,-95.701c-6.094,-15.021 -15.875,-27.784 -24.312,-40.959c-6.219,-9.763 -24.876,-27.641 -16.626,-41.375c6.563,-10.9 15.563,-18.575 19.875,-31.472c4.438,-13.413 6.407,-27.503 4.844,-41.806c-1,-8.925 -3.656,-18.084 -2.656,-27.213c0.813,-7.725 2.875,-14.896 5.406,-22.056c4.25,-12.069 8.094,-23.718 9.157,-36.841c0.343,-4.056 0.75,-18.906 0.75,-18.906c0,0 -52.375,55.244 -55.313,71.931c-2.813,15.947 16.781,46.432 14.437,48.907c-3.562,3.831 -22.75,18.475 -28.281,22.944c-29.187,23.693 -9.656,61.493 6,87.446Z" style="fill:#472e8c;fill-rule:nonzero;"/><path d="M1903.62,822.919c10.656,22.4 89,158.372 89,158.372l-18.031,-345.26c0,0 -42.376,62.081 -45.75,75.009c-3.376,12.854 18.343,37.754 19.749,51.916c1.063,10.725 -55.093,38.691 -44.968,59.963Z" style="fill:#56439b;fill-rule:nonzero;"/><path d="M2155.15,491.172c-4.344,-5.132 -10.781,-8.713 -16.531,-11.969c-9.563,-5.444 -13.688,-12.281 -15.469,-22.822c-2.906,-17.4 -4.563,-33.287 -14.156,-48.694c-19.531,-31.368 -68.157,-31.099 -97.031,-15.568c-1.344,0.734 -1.782,1.953 -1.626,3.122c-35.156,27.581 -20.624,81.262 23.094,91.928c19.5,4.756 39.813,2.15 59.219,8.556c36.031,11.928 -2.25,53.565 -20.094,64.919c-15.406,9.809 -41.687,2.7 -55.5,-6.885c-10.468,-7.284 -18.031,-17.428 -30.625,-21.403c-23.875,-7.531 -35.594,21.069 -37.062,39.197c-2.094,25.422 10.125,50.438 31.937,63.522c22.938,13.759 51.688,6.494 71.813,-8.797c28.968,-21.997 44.718,-55.959 76.969,-74.287c10.968,-6.225 24.656,-13.41 29.749,-25.769c5.125,-12.406 4,-24.766 -4.687,-35.05Z" style="fill:#472e8c;"/><path d="M2108.24,548.322c-25.782,7.543 -14.375,46.475 7.656,31.106c28.906,-20.14 18.156,-38.647 -7.656,-31.106Z" style="fill:#d9a38b;fill-rule:nonzero;"/><path d="M1977.71,563.772c-1.126,7.819 -2.563,17.137 6.374,20.806c11.219,4.613 34.719,-19.294 25.75,-16.344c-0.25,0.094 -1.468,0.344 -1.812,0.657c-10.875,3.525 -20.719,1.353 -26.75,-7.957c-0.719,-1.153 -2.781,-2.609 -3.562,2.838Z" style="fill:#f8f7f7;fill-rule:nonzero;"/><path d="M2280.81,1339.75c-6.437,6.853 -15.312,7.953 -23.969,7.422c-13.937,-0.831 -27.906,-2.206 -41.843,-3.309c-9.594,-0.769 -28.313,0.096 -35.688,-8.844c-5.531,-6.725 -4.937,-16.375 -5.406,-24.866c-0.031,-0.728 0.281,-1.178 0.719,-1.437c-0.781,-0.866 -0.75,-2.71 0.687,-3.185c18.313,-6.143 79.438,-9.984 90.938,-11.221c3.343,-0.344 7.5,-0.838 10.781,0.39c13.469,5.025 12.531,35.747 3.781,45.05Zm161.844,237.672c-3.75,-32.353 -9.313,-63.972 -10.719,-96.678c-1.344,-31.975 -4.031,-100.106 -5.406,-101.338c-1.937,-9.793 -5.5,-19.125 -12.937,-25.262c-11.126,-9.172 -90.532,-1.978 -101.625,-8.085c-15.5,-8.531 -6.5,-73.665 -10.094,-73.578c-40.188,1.025 -81.094,3.06 -120.907,8.879c-33.687,4.903 -21.937,34.362 -18.999,60.297c-19.094,-3.054 -95.907,-0.422 -102.719,17.49c-7.406,19.512 0.094,107.45 6.125,127.212c1.25,4.094 4.125,6.01 8.031,5.46c24.563,-3.441 1.719,103.419 11.156,110.022c27.625,19.278 270.344,17.334 322.813,5.425c5.031,11.119 14.469,26.272 26.094,16.784c11.968,-9.765 10.812,-32.497 9.187,-46.628Z" style="fill:#331e56;fill-rule:nonzero;"/><path d="M2416.4,1370.99c-0.469,-0.844 -1.531,-1.519 -2.437,-1.132c-10.188,4.451 -10.688,30.394 -13.001,40.163c-3.031,12.787 -6.375,26.141 -11.624,38.066c-5.875,13.284 -15.469,16.718 -25.563,23.181c-5.5,0.037 -11.062,0.606 -16.187,1.222c-41.219,5 -207.532,5.665 -245,11.712c-16.719,2.719 -11.282,11.025 -8.125,27.122c0.156,0.79 -4.282,76.772 4.375,81.866c8.5,4.993 194.093,4.993 236.218,5.981c20.625,0.49 58.781,10.515 64.532,-21.419c1.999,-11.209 0.718,-61.312 -0.844,-78.2c1.25,-26.069 6.187,-51.959 14,-76.575c5.437,-17.028 13.062,-34.984 3.656,-51.987Z" style="fill:#522d83;fill-rule:nonzero;"/><path d="M2119.24,1495.35c6.25,4.694 13.343,2.944 19.656,3.087c10.031,0.203 19.719,-2.278 29.781,-1.943c1.438,0.04 2.219,-1.132 2.344,-3.197c0.594,-9.163 0.813,-30.409 0.813,-30.409l-58.438,0.428c0,0 0.812,28.265 5.844,32.034Z" style="fill:#fba92d;fill-rule:nonzero;"/><path d="M2281.24,1493.06c6.25,4.678 13.343,2.947 19.656,3.075c10.031,0.235 19.719,-2.272 29.75,-1.94c1.469,0.04 2.25,-1.125 2.375,-3.185c0.594,-9.175 0.813,-30.418 0.813,-30.418l-58.438,0.425c0,0 0.812,28.272 5.844,32.043Z" style="fill:#fba92d;fill-rule:nonzero;"/><path d="M2258.06,1231.23c-13.719,-1.872 -16.031,-1.125 -29.781,-1.494c-0.687,-0.003 -3.875,23.528 -5.063,26.834c-8.749,10.613 -24.093,4.038 -26.25,23.304c-0.093,0.862 0.438,1.822 1.094,2.034c6.532,2.122 13.063,1.703 19.75,1.813c7.5,0.137 -2.187,13.931 -8.219,13.581c-1.968,-0.122 -5.218,-0.834 -7.125,0.566c-12.093,8.928 4.657,20.284 10.813,22.953c15.25,6.593 31.281,6.712 44.594,-5.01c17,-14.956 1.094,-84.45 0.187,-84.581Z" style="fill:#d9a38b;fill-rule:nonzero;"/><path d="M2260.12,1239.1l-34.188,-0.325l-1.094,-19.603l38.063,0.359l-2.781,19.569Z" style="fill:#f8f7f7;fill-rule:nonzero;"/><path d="M1600.56,978.728l0,-32.462l19.688,-9.019l-0.063,39.056l-19.625,2.425Z" style="fill:#f8f7f7;fill-rule:nonzero;"/><path d="M1366.99,1213.01c-2.438,-14.487 -22.125,-21.437 -22.531,-40.847c-0.032,-1.724 -37.813,-1.665 -30.063,14.203c9.062,18.56 2.062,30.975 4.156,40.238c3.563,15.531 51.938,7.428 48.438,-13.594Z" style="fill:#d9a38b;"/><path d="M1382.24,1211.38c-0.938,0 -1.844,0.116 -2.75,0.35l-59.344,15.022c-7.594,1.928 -11.781,11.272 -9.375,20.825c2.094,8.231 8.562,14.2 15.375,14.2c0.937,0 1.875,-0.115 2.781,-0.343l59.344,-15.032c3.469,-0.884 6.406,-3.406 8.188,-7.106c1.968,-4.037 2.375,-8.906 1.156,-13.713c-2.063,-8.227 -8.532,-14.203 -15.375,-14.203Zm-56.094,62.057c-12.281,0 -23.25,-9.46 -26.687,-23c-3.969,-15.775 4,-31.472 17.812,-34.982l59.344,-15.028c1.844,-0.465 3.75,-0.703 5.625,-0.703c12.281,0 23.25,9.456 26.687,22.997c1.875,7.472 1.188,15.172 -1.968,21.678c-3.344,6.838 -8.969,11.566 -15.844,13.307l-59.344,15.028c-1.844,0.468 -3.719,0.703 -5.625,0.703Z" style="fill:#d68c29;fill-rule:nonzero;"/><path d="M1551.18,1399.21l-255.562,68.274l-18.938,-9.203l-31.75,-180.412l236.688,-77.484l18.906,9.206l50.656,189.619Z" style="fill:#d68c29;"/><path d="M1532.28,1390.01l-255.594,68.278l-50.687,-189.618l255.625,-68.278l50.656,189.618Z" style="fill:#fba92d;"/><path d="M1358.28,1208.69c-11.969,3.943 -24.406,5.868 -36.313,10.018c-7.906,2.753 -5.906,21.856 25.5,14.297c31.438,-7.569 18.719,-26.925 10.813,-24.315Z" style="fill:#e7c1a4;"/><path d="M1237.78,723.894c-14.969,-51.516 -36.312,-43.709 -71.125,-51.585c-7.188,-1.634 -0.781,7.441 1.094,12.794c-3.875,2.069 -6.344,6.825 -3.125,11.51c37.781,55.368 38.875,219.702 68.312,279.156c15.719,31.653 60.188,177.537 82.438,210.178c2.469,3.593 30.187,1.987 29.781,-12.281c-0.312,-10.288 -40.906,-126.878 -66.813,-243.669c-17.687,-79.669 -31.25,-174.141 -40.562,-206.103Z" style="fill:#f89840;"/><path d="M1257.37,501.75c-7.688,-22.4 -20,-46.828 -20,-46.828c0,0 -28.5,-6.044 -52.813,-10.669c-30,-5.706 -40.344,12.244 -53.969,44.675c-9.312,22.256 15.188,91.813 35.813,115.916c0.562,0.646 1.188,1.087 1.813,1.369c-8.125,23.378 -20.813,46.812 -19.282,71.728c1.407,24.128 26.719,39.243 48.031,47.237c2.688,0.997 22.219,20.578 21.813,18.013c-8.938,-56.982 -2.344,-107.854 0.937,-142.057c34.532,1.204 31.657,-16.875 37.344,-29.909c7.063,-16.156 6.344,-51.934 0.313,-69.475Z" style="fill:#e7c1a4;fill-rule:nonzero;"/><path d="M1219.71,601.131c-3.281,34.206 -9.875,85.075 -0.937,142.06c0.406,2.568 -19.156,-17.013 -21.813,-18.01c-21.312,-7.994 -46.624,-23.106 -48.031,-47.24c-1.531,-24.919 11.157,-48.353 19.282,-71.728c3.499,-0.157 4.937,9.774 51.499,-5.082Z" style="fill:#dab097;fill-rule:nonzero;"/><path d="M1156.06,618.025c22.906,-53.666 -12.406,-94.706 -4.937,-130.094c32,3.744 62.812,38.282 31.781,74.285c32.188,-7.957 13.406,-38.181 9.875,-65.872c14.219,-12.26 27.781,-21.563 51.906,-26.403c-3.156,-25.11 -23.156,-36.35 -40.5,-46.047c-22.25,-12.11 -46.906,-4.241 -75.75,-2.244c-2.062,-26.016 -69.687,-39.678 -119.625,68.713c-15.5,33.728 19.031,91.068 1.688,106.64c-43,38.613 -79.094,173.181 -45.625,209.988c23.093,25.431 69.25,37.44 98.062,19.6c11.813,-7.316 39.657,-47.325 32.031,-103.229c-2.312,-17.149 -33.937,-37.853 -19.249,-66.487c13.499,-26.388 26.343,-46.334 7.906,-80.09c-33.313,-61.138 22.843,-143.816 29,-140.194c-35.719,57.296 -24.75,94.99 37.843,152.528l5.594,28.906Z" style="fill:#342a70;"/><path d="M1252.15,1863.34c38.687,10.91 -2.344,11.298 37.594,6.788l10.156,-130.459l-42.594,3.368l-5.156,120.303Z" style="fill:#d9a38b;"/><path d="M1385.68,1945.57c12.438,-10.866 5.531,-25.997 5.531,-25.997c-14.937,-21.75 -69.718,-13.997 -75.843,-19.453c-18.938,-17.369 -15.532,-24.45 -22.406,-53.629c0,0 -11.813,4.319 -40.438,1.497c-3.5,20.254 -32.438,77.063 1.281,95.013c23.313,12.362 124.938,8.556 131.875,2.569Z" style="fill:#0d153c;"/><path d="M975.369,1850.66c34.468,15.135 -3.625,10.172 34,11.16l26.312,-119.766l-39.968,-2.384l-20.344,110.99Z" style="fill:#d9a38b;"/><path d="M1088.65,1944.26c12.937,-8.459 8.5,-23.403 8.5,-23.403c-11.063,-22.122 -62.906,-22.025 -67.875,-27.878c-15.344,-18.575 -11.25,-24.703 -13.844,-52.678c0,0 -11.531,2.478 -37.718,-3.835c-5.907,18.341 -40.094,67.326 -11.126,88.332c20.032,14.509 114.844,24.121 122.063,19.462Z" style="fill:#0d153c;"/><path d="M1191.12,1148.97c-10.125,-60.009 -61.282,-170.063 -120.375,-109.822c-0.188,0.156 -8.032,12.462 -11.031,15.191c-80.844,73.29 39.843,356.056 39.843,356.056c0,0 -29.062,37.784 -47.844,90.293c-35.562,99.432 -72.562,316.151 -72.562,316.151l42.188,4.525c0,0 160.281,-302.31 185.749,-385.819c16.407,-53.747 1.594,-182.506 -15.968,-286.575Z" style="fill:#342a70;fill-rule:nonzero;"/><path d="M1292.06,1086.34c0,0 -108.344,-48.988 -142.937,-46.734c-8.375,0.543 -89.938,1.259 -90.656,8.102c-14.876,145.741 124.656,292.113 129.812,373.81c10,157.794 61.594,406.706 61.594,406.706l46.437,0l19.094,-390.231l-23.344,-351.653Z" style="fill:#4b3896;"/><path d="M1228.53,748.597c-9.656,-113.966 -71.688,-113.613 -73.187,-111.034c-65.875,113.003 -88.438,338.562 -109.719,415.675c-5.125,18.496 -17.969,44.618 -10.407,38.612c52.344,-41.55 256.844,-5.506 256.844,-5.506c0,0 -15,-101.063 -19.187,-128.472c-18.719,-122.781 -37.532,-128.744 -44.344,-209.275Z" style="fill:#fdb73a;"/><path d="M1337.37,914.681c-16.875,-8.35 -41.063,-15.159 -57.188,-24.125c-23.719,-13.178 -26.375,-48.515 -31.312,-72.134c-5.469,-26.294 -10.25,-130.497 -42.625,-148.909c-2.282,-1.304 -5.875,3.453 -6.375,4.896c-5.313,14.491 -3.781,29.819 -3.313,44.985c0.719,21.891 -1,43.344 1.188,65.278c3.625,36.625 12.437,74.384 24,109.331c7.094,21.375 24,29.309 45.344,31.819c15.968,1.875 47.937,8.903 60.531,-4.953c0.75,-0.835 10.781,-5.678 9.75,-6.188Z" style="fill:#f89840;"/><path d="M1264.65,975.259c-21.125,-6.531 -35.844,-16.853 -55.188,-28.321c-21.437,-12.694 -30.437,-38.869 -36.906,-61.36c-6.281,-21.825 -30.687,-147.856 -31.593,-153.119c-0.438,-2.599 -24.782,147.944 -12.188,211.622c4.594,23.225 23.25,32.382 44.844,36.013c32.594,5.49 93,-4.225 91.031,-4.835Z" style="fill:#f89840;"/><path d="M1484.9,952.766c-20.406,10.112 -26.219,7.859 -43.625,1.331c-4.063,-1.516 -8.937,-2.028 -13.125,-0.619c-6.281,2.088 -8.906,11.341 -7.625,19.281c2.031,12.697 12.75,13.91 20.312,13.322c0.563,-0.059 1,-0.3 1.375,-0.625c27.688,1.281 96.5,38.975 110.532,-2.159c4.687,-13.728 -35,-18.803 -45.813,-18.819c-8.218,-0.019 9.063,-1.562 12.25,-10.915c2.531,-7.463 -25.719,-5.054 -34.281,-0.797Z" style="fill:#e7c1a4;fill-rule:nonzero;"/><path d="M1452.18,987.906l0.219,-30.972c0,0 -181.531,-72.343 -211.313,-64.781c-2.468,-76.484 -14.999,-265.703 -67.875,-235.319c-59.718,34.253 -35.875,278.991 15.594,300.213c73.938,30.497 263.375,30.859 263.375,30.859Z" style="fill:#fdb73a;"/><path d="M1248.28,626.569c0.094,-0.238 0.375,-0.963 0.813,-2.116c-0.407,1.11 -0.719,1.869 -0.813,2.116Z" style="fill:#dab097;fill-rule:nonzero;"/></svg>