<?xml version="1.0" encoding="UTF-8" standalone="no"?>
<!DOCTYPE svg PUBLIC "-//W3C//DTD SVG 1.1//EN" "http://www.w3.org/Graphics/SVG/1.1/DTD/svg11.dtd">
<svg width="100%" height="100%" viewBox="0 0 796 796" version="1.1" xmlns="http://www.w3.org/2000/svg" xmlns:xlink="http://www.w3.org/1999/xlink" xml:space="preserve" xmlns:serif="http://www.serif.com/" style="fill-rule:evenodd;clip-rule:evenodd;">
    <g transform="matrix(0,-1,-1,0,397.82,38.424)">
        <path d="M-359.396,-359.397C-557.885,-359.397 -718.793,-198.489 -718.793,0C-718.793,198.489 -557.885,359.396 -359.396,359.396C-160.907,359.396 0,198.489 0,0C0,-198.489 -160.907,-359.397 -359.396,-359.397Z" style="fill:none;fill-rule:nonzero;stroke:white;stroke-width:12px;"/>
    </g>
    <g transform="matrix(1,0,0,1,671.017,647.234)">
        <path d="M0,-332.649C-41.85,-247.181 -138.367,-166.063 -245.645,-138.714C-352.429,-111.511 -467.305,-136.887 -548.016,-256.955L-561.763,-249.414C-390.653,0 -74.245,-115.252 15.371,-315.973L0,-332.649Z" style="fill:white;fill-rule:nonzero;"/>
    </g>
    <g transform="matrix(1,0,0,1,671.017,148.406)">
        <path d="M0,332.649C-41.85,247.181 -138.367,166.063 -245.645,138.715C-352.429,111.511 -467.305,136.888 -548.016,256.955L-561.763,249.414C-390.653,0 -74.245,115.253 15.371,315.973L0,332.649Z" style="fill:white;fill-rule:nonzero;"/>
    </g>
</svg>
