<?xml version="1.0" encoding="UTF-8" standalone="no"?>
<!DOCTYPE svg PUBLIC "-//W3C//DTD SVG 1.1//EN" "http://www.w3.org/Graphics/SVG/1.1/DTD/svg11.dtd">
<svg width="100%" height="100%" viewBox="0 0 3801 2194" version="1.1" xmlns="http://www.w3.org/2000/svg" xmlns:xlink="http://www.w3.org/1999/xlink" xml:space="preserve" xmlns:serif="http://www.serif.com/" style="fill-rule:evenodd;clip-rule:evenodd;stroke-linejoin:round;stroke-miterlimit:2;">
    <g transform="matrix(4.16667,0,0,4.16667,-3557.96,-3104.9)">
        <path d="M1546.48,985.265C1547.46,987.446 1547.61,989.915 1546.89,992.199L1545.63,1001.19L1544.08,1002.23L1538.33,1004.61C1538.95,1002.84 1538.33,1001.01 1538.33,1001.01L1535.8,991.702C1535.8,991.702 1531.88,975.999 1542.54,976.669C1542.48,963.878 1546.05,965.991 1546.05,965.991L1546.29,977.049L1546.48,985.265Z" style="fill:rgb(90,60,49);fill-rule:nonzero;"/>
    </g>
    <g transform="matrix(4.16667,0,0,4.16667,-3557.96,-3104.9)">
        <path d="M1573,1016.37C1573,1016.37 1565.55,1044.81 1559.19,1045.32C1552.84,1045.83 1546.22,1000.26 1546.22,1000.26L1537.58,1001.3C1537.58,1001.3 1534.22,1066.84 1553.61,1068.03C1573,1069.22 1575.56,1054.73 1575.56,1054.73L1573,1016.37Z" style="fill:rgb(87,196,196);fill-rule:nonzero;"/>
    </g>
    <g transform="matrix(4.16667,0,0,4.16667,-3557.96,-3104.9)">
        <path d="M1573.81,1094.14L1624.54,1094.14L1624.54,1017.1C1610.05,994.983 1591.99,1001.01 1591.99,1001.01C1591.99,1001.01 1575.56,1001.3 1573,1016.37C1573,1027.27 1573.81,1094.14 1573.81,1094.14Z" style="fill:rgb(18,139,140);fill-rule:nonzero;"/>
    </g>
    <g transform="matrix(4.16667,0,0,4.16667,-3557.96,-3104.9)">
        <path d="M1597.91,990.774L1598.66,1001.67L1598.31,1002.01C1594.73,1005.41 1589.14,1005.49 1585.48,1002.19L1585.31,993.991L1597.91,990.774Z" style="fill:rgb(73,44,36);fill-rule:nonzero;"/>
    </g>
    <g transform="matrix(4.16667,0,0,4.16667,-3557.96,-3104.9)">
        <path d="M1601.9,968.018L1600.98,986.022C1599.19,985.95 1598.14,987.873 1598.48,989.557C1598.29,989.966 1598.19,990.42 1598.18,990.883C1595.07,993.109 1589.42,996.013 1582.14,994.619C1570.74,992.438 1577.62,970.413 1577.62,970.413L1601.9,968.018Z" style="fill:rgb(90,60,49);fill-rule:nonzero;"/>
    </g>
    <g transform="matrix(4.16667,0,0,4.16667,-3557.96,-3104.9)">
        <path d="M1607.63,981.541C1607.71,980.22 1609.51,977.42 1610.51,976.554C1616.96,970.973 1611.19,966.904 1609.15,965.588C1606.88,964.134 1607.33,960.028 1604.4,957.734C1599.92,954.231 1595.61,957.862 1592.74,957.331C1589.87,956.799 1588.09,952.987 1583.93,955.007C1579.76,957.027 1580.22,960.298 1578.88,961.679C1577.55,963.059 1575.09,959.245 1571.03,963.603C1564.84,970.234 1576.97,973.07 1576.97,973.07C1576.97,973.07 1583.61,975.817 1592.39,972.37C1593.6,971.896 1595.03,972.158 1595.79,973.203C1597.89,976.07 1597.92,991.09 1597.92,991.09L1600.85,988.653C1600.85,988.653 1607.24,987.588 1607.63,981.541Z" style="fill:rgb(26,45,86);fill-rule:nonzero;"/>
    </g>
    <g transform="matrix(4.16667,0,0,4.16667,-3557.96,-3104.9)">
        <path d="M1600.79,983.015C1600.21,984.428 1598.6,985.105 1597.18,984.526C1595.77,983.948 1595.09,982.334 1595.67,980.92C1596.25,979.507 1597.87,978.831 1599.28,979.41C1600.69,979.988 1601.37,981.602 1600.79,983.015Z" style="fill:rgb(90,60,49);fill-rule:nonzero;"/>
    </g>
    <g transform="matrix(4.16667,0,0,4.16667,-3557.96,-3104.9)">
        <path d="M1585.31,1239.41C1585.31,1239.41 1582.45,1243.37 1568.97,1246.8C1566.01,1247.56 1562.81,1248.07 1562.81,1252.97L1576.11,1252.97L1589.71,1250.61L1589.71,1252.97L1597.06,1252.97C1597.06,1252.97 1599.1,1240.95 1594.81,1239.41L1585.31,1239.41Z" style="fill:rgb(26,45,86);fill-rule:nonzero;"/>
    </g>
    <g transform="matrix(4.16667,0,0,4.16667,-3557.96,-3104.9)">
        <path d="M1584.61,1230.78L1585.31,1239.41C1587.99,1241.27 1591.51,1241.39 1594.31,1239.71L1594.81,1239.41L1594.81,1230.78L1584.61,1230.78Z" style="fill:rgb(90,60,49);fill-rule:nonzero;"/>
    </g>
    <g transform="matrix(4.16667,0,0,4.16667,-3557.96,-3104.9)">
        <path d="M1623.1,1239.41C1623.1,1239.41 1620.24,1243.37 1606.76,1246.8C1603.8,1247.56 1600.6,1248.07 1600.6,1252.97L1613.9,1252.97L1627.5,1250.61L1627.5,1252.97L1634.85,1252.97C1634.85,1252.97 1636.89,1240.95 1632.6,1239.41L1623.1,1239.41Z" style="fill:rgb(26,45,86);fill-rule:nonzero;"/>
    </g>
    <g transform="matrix(4.16667,0,0,4.16667,-3557.96,-3104.9)">
        <path d="M1622.4,1230.78L1623.1,1239.41C1625.78,1241.27 1629.3,1241.39 1632.1,1239.71L1632.6,1239.41L1632.6,1230.78L1622.4,1230.78Z" style="fill:rgb(90,60,49);fill-rule:nonzero;"/>
    </g>
    <g transform="matrix(4.16667,0,0,4.16667,-3557.96,-3104.9)">
        <path d="M1624.51,1017.1C1624.51,1017.1 1639.71,1052.19 1620.31,1070.11C1600.91,1088.04 1574.58,1084.99 1574.58,1084.99L1574.58,1074.88C1574.58,1074.88 1598.38,1072.87 1606.01,1056.96C1613.64,1041.04 1602.96,1027.27 1602.96,1027.27" style="fill:rgb(18,139,140);fill-rule:nonzero;"/>
    </g>
    <g transform="matrix(4.16667,0,0,4.16667,-3557.96,-3104.9)">
        <path d="M1576.13,1083.6L1563.99,1083.86C1559.06,1083.58 1555.77,1076.22 1554.96,1070.75C1554.83,1069.93 1555.64,1069.27 1556.43,1069.55C1560.55,1070.98 1571.15,1074.73 1573.89,1076.43L1576.13,1083.6Z" style="fill:rgb(90,60,49);fill-rule:nonzero;"/>
    </g>
    <g transform="matrix(4.16667,0,0,4.16667,-3557.96,-3104.9)">
        <path d="M1573.81,1094.14C1558.68,1136.86 1582.33,1231.45 1582.33,1231.45L1595.81,1231.45C1595.81,1231.45 1589.45,1097.32 1607,1094.14L1573.81,1094.14Z" style="fill:rgb(26,45,86);fill-rule:nonzero;"/>
    </g>
    <g transform="matrix(4.16667,0,0,4.16667,-3557.96,-3104.9)">
        <path d="M1608.72,1046.34C1608.56,1049.67 1607.78,1053.25 1606.01,1056.96C1598.38,1072.87 1573.34,1074.98 1573.34,1074.98L1573.34,1085.19C1573.34,1085.19 1600.91,1088.04 1620.31,1070.11C1627.34,1063.61 1629.82,1054.86 1630.13,1046.34L1608.72,1046.34Z" style="fill:rgb(87,196,196);fill-rule:nonzero;"/>
    </g>
    <g transform="matrix(4.16667,0,0,4.16667,-3557.96,-3104.9)">
        <path d="M1608.6,1047.88C1609.13,1047.64 1609.67,1047.41 1610.19,1047.16C1611.11,1035.4 1604.23,1026.53 1604.14,1026.42L1602.95,1027.37C1603.03,1027.48 1609.88,1036.32 1608.6,1047.88Z" style="fill:rgb(87,196,196);fill-rule:nonzero;"/>
    </g>
    <g transform="matrix(4.16667,0,0,4.16667,-3557.96,-3104.9)">
        <path d="M1544.15,986.617C1544.15,986.617 1546.94,985.776 1547.38,980.67C1547.82,975.565 1550.23,977.143 1550.23,977.143C1550.23,977.143 1548.98,997.274 1545.77,998.031C1542.56,998.788 1544.15,986.617 1544.15,986.617Z" style="fill:rgb(90,60,49);fill-rule:nonzero;"/>
    </g>
    <g transform="matrix(4.16667,0,0,4.16667,-3557.96,-3104.9)">
        <path d="M1588.73,1094.14C1584.61,1146.52 1618.06,1231.45 1618.06,1231.45L1634.08,1231.45C1634.08,1231.45 1623.19,1177.14 1622.97,1126.18C1622.92,1115.15 1623.37,1104.27 1624.54,1094.14L1588.73,1094.14Z" style="fill:rgb(1,63,96);fill-rule:nonzero;"/>
    </g>
    <g transform="matrix(4.16667,0,0,4.16667,-3557.96,-3104.9)">
        <path d="M1606.59,853.676L1344.18,853.676C1344.18,853.676 1329.95,835.674 1344.18,823.561C1352.04,816.876 1361.31,817.568 1368.05,819.532C1372.44,820.812 1376.81,817.851 1377.78,813.381C1379.37,805.981 1384.29,796.295 1398.41,790.573C1412.31,784.944 1421.1,793.541 1426.18,802.373C1427.86,805.279 1432.31,804.842 1433.32,801.645C1437.73,787.701 1453.08,769.215 1503.52,769.215C1567.67,769.215 1560.54,803.32 1554.81,817.495C1553.81,819.957 1555.92,822.506 1558.52,821.952C1568.41,819.835 1586.78,817.094 1595.02,823.561C1606.59,832.642 1606.59,853.676 1606.59,853.676Z" style="fill:white;fill-rule:nonzero;"/>
    </g>
    <g transform="matrix(4.16667,0,0,4.16667,-3557.96,-3104.9)">
        <path d="M1137.69,905.09C1141.95,900.958 1143.72,896.488 1141.7,891.727C1130.4,865.082 1096.47,883.66 1096.47,883.66C1096.47,883.66 1100.73,863.543 1042.98,850.256C985.237,836.97 985.467,881.244 985.467,881.244C985.467,881.244 934.125,852.847 924.092,896.45C923.375,899.568 923.386,902.441 924.019,905.09L1137.69,905.09Z" style="fill:white;fill-rule:nonzero;"/>
    </g>
    <g transform="matrix(4.16667,0,0,4.16667,-3557.96,-3104.9)">
        <path d="M1730.64,821.728L1736.16,829.914L1726.57,828.939L1693.42,822.83L1730.64,821.728Z" style="fill:rgb(175,177,177);fill-rule:nonzero;"/>
    </g>
    <g transform="matrix(4.16667,0,0,4.16667,-3557.96,-3104.9)">
        <path d="M1736.16,829.914L1720.19,830.888L1723.83,828.434L1736.16,829.914Z" style="fill:rgb(146,149,149);fill-rule:nonzero;"/>
    </g>
    <g transform="matrix(4.16667,0,0,4.16667,-3557.96,-3104.9)">
        <path d="M1730.64,821.728L1732.36,812.876L1693.42,822.83L1730.64,821.728Z" style="fill:white;fill-rule:nonzero;"/>
    </g>
    <g transform="matrix(4.16667,0,0,4.16667,-3557.96,-3104.9)">
        <path d="M1693.42,822.83L1726.57,828.939L1723.33,841.793L1693.42,822.83Z" style="fill:white;fill-rule:nonzero;"/>
    </g>
    <g transform="matrix(4.16667,0,0,4.16667,-3557.96,-3104.9)">
        <path d="M1733.75,839.136L1733.95,838.933C1734.18,838.589 1734.09,838.124 1733.74,837.891C1732.66,837.16 1731.51,836.529 1730.33,836.019C1729.95,835.852 1729.51,836.028 1729.34,836.411C1729.18,836.791 1729.35,837.233 1729.73,837.397C1730.83,837.871 1731.9,838.456 1732.91,839.136C1733.17,839.312 1733.5,839.302 1733.75,839.136Z" style="fill:white;fill-rule:nonzero;"/>
    </g>
    <g transform="matrix(4.16667,0,0,4.16667,-3557.96,-3104.9)">
        <path d="M1716.63,861.263C1714.43,860.558 1711.83,860.633 1709.69,861.464C1709.3,861.615 1708.87,861.423 1708.72,861.037C1708.57,860.65 1708.76,860.216 1709.15,860.065C1711.63,859.098 1714.53,859.014 1717.09,859.833C1717.49,859.959 1717.7,860.381 1717.58,860.777C1717.52,860.943 1717.42,861.079 1717.28,861.17C1717.1,861.294 1716.86,861.335 1716.63,861.263ZM1705.23,871.316C1704.84,871.464 1704.4,871.272 1704.26,870.884C1703.47,868.833 1703.42,866.751 1704.13,864.866C1704.39,864.184 1704.75,863.542 1705.19,862.958C1705.44,862.626 1705.91,862.562 1706.24,862.812C1706.57,863.062 1706.64,863.534 1706.38,863.864C1706.03,864.334 1705.74,864.849 1705.54,865.397C1704.95,866.953 1704.99,868.617 1705.66,870.345C1705.79,870.677 1705.66,871.045 1705.38,871.237L1705.23,871.316ZM1741.45,848.313C1741.08,848.495 1740.63,848.34 1740.45,847.967C1739.96,846.962 1739.4,845.986 1738.77,845.066C1738.02,843.954 1737.18,842.909 1736.26,841.96C1735.98,841.663 1735.98,841.187 1736.28,840.9C1736.58,840.608 1737.06,840.619 1737.34,840.918C1738.32,841.927 1739.22,843.041 1740.02,844.226C1740.68,845.204 1741.28,846.241 1741.8,847.309C1741.96,847.65 1741.85,848.054 1741.54,848.26L1741.45,848.313ZM1725.78,868.335C1723.87,866.048 1722.18,864.423 1720.47,863.225C1720.13,862.987 1720.05,862.518 1720.29,862.179C1720.52,861.841 1720.99,861.757 1721.33,861.995C1723.15,863.272 1724.93,864.982 1726.93,867.374C1727.2,867.692 1727.15,868.165 1726.83,868.431L1726.77,868.477C1726.46,868.69 1726.03,868.634 1725.78,868.335ZM1713.43,879.235C1712.79,879.001 1712.16,878.733 1711.56,878.438C1709.81,877.587 1708.18,876.376 1706.85,874.934C1706.57,874.629 1706.59,874.155 1706.89,873.874C1707.19,873.593 1707.67,873.61 1707.95,873.915C1709.16,875.22 1710.63,876.317 1712.22,877.088C1712.77,877.36 1713.36,877.608 1713.95,877.825C1714.34,877.966 1714.54,878.398 1714.4,878.788C1714.34,878.942 1714.24,879.067 1714.11,879.152C1713.92,879.282 1713.67,879.321 1713.43,879.235ZM1743.55,860.144C1743.14,860.124 1742.82,859.77 1742.84,859.356C1742.96,856.95 1742.68,854.505 1742.01,852.089C1741.9,851.691 1742.13,851.275 1742.53,851.166C1742.93,851.054 1743.35,851.288 1743.46,851.687C1744.17,854.259 1744.47,856.865 1744.34,859.432C1744.33,859.677 1744.2,859.889 1744.01,860.017C1743.88,860.105 1743.72,860.152 1743.55,860.144ZM1725.81,879.987C1723.18,880.54 1720.56,880.659 1718.01,880.337C1717.6,880.286 1717.31,879.911 1717.36,879.5C1717.41,879.085 1717.79,878.794 1718.2,878.848C1720.58,879.148 1723.04,879.037 1725.5,878.517C1725.9,878.431 1726.3,878.691 1726.39,879.096C1726.45,879.405 1726.32,879.709 1726.07,879.875C1725.99,879.927 1725.9,879.966 1725.81,879.987ZM1739.09,871.239C1738.76,870.989 1738.7,870.518 1738.95,870.187C1739.87,868.975 1740.63,867.672 1741.23,866.316C1741.6,865.47 1741.91,864.585 1742.16,863.682C1742.27,863.283 1742.68,863.045 1743.08,863.156C1743.48,863.264 1743.72,863.678 1743.61,864.078C1743.34,865.05 1743,866.005 1742.6,866.918C1741.96,868.382 1741.13,869.788 1740.14,871.095L1739.96,871.263C1739.71,871.438 1739.35,871.438 1739.09,871.239ZM1733.98,878.239C1733.63,878.465 1733.17,878.369 1732.94,878.022C1732.82,877.845 1732.71,877.669 1732.59,877.494C1731.84,877.899 1731.07,878.267 1730.28,878.595C1729.9,878.754 1729.46,878.574 1729.3,878.19C1729.14,877.808 1729.31,877.374 1729.7,877.209C1730.4,876.919 1731.08,876.597 1731.74,876.244C1730.79,874.857 1729.74,873.422 1728.57,871.882C1728.32,871.553 1728.39,871.082 1728.72,870.831C1729.04,870.584 1729.52,870.644 1729.77,870.975C1730.98,872.57 1732.06,874.056 1733.05,875.495C1734.07,874.863 1735.04,874.151 1735.94,873.379C1736.25,873.103 1736.73,873.144 1737,873.458C1737.27,873.771 1737.23,874.246 1736.92,874.516C1735.98,875.328 1734.96,876.074 1733.89,876.739C1733.99,876.892 1734.09,877.045 1734.2,877.199C1734.42,877.543 1734.33,878.003 1733.99,878.233L1733.98,878.239ZM1739.56,888.996C1739.18,889.15 1738.74,888.963 1738.59,888.58C1737.71,886.406 1736.61,884.147 1735.3,881.861C1735.09,881.501 1735.23,881.029 1735.58,880.836C1735.94,880.629 1736.4,880.754 1736.6,881.115C1737.95,883.46 1739.08,885.783 1739.98,888.018C1740.11,888.354 1739.99,888.727 1739.7,888.921L1739.56,888.996ZM1742.07,900.813C1741.66,900.834 1741.31,900.515 1741.28,900.102L1741.26,899.763C1741.1,897.483 1740.69,895.14 1740.03,892.803C1739.92,892.405 1740.15,891.987 1740.55,891.878C1740.95,891.765 1741.37,891.998 1741.48,892.398C1742.16,894.832 1742.59,897.275 1742.76,899.66L1742.79,900.024C1742.8,900.297 1742.67,900.543 1742.45,900.685C1742.34,900.759 1742.21,900.805 1742.07,900.813ZM1739.68,912.616C1739.3,912.457 1739.12,912.018 1739.27,911.635C1740.22,909.359 1740.85,906.963 1741.14,904.516C1741.19,904.105 1741.56,903.811 1741.97,903.86C1742.38,903.91 1742.68,904.284 1742.63,904.696C1742.32,907.28 1741.66,909.807 1740.66,912.21C1740.6,912.352 1740.51,912.465 1740.39,912.544C1740.19,912.681 1739.92,912.716 1739.68,912.616ZM1732.22,922.023C1731.97,921.695 1732.03,921.223 1732.36,920.969C1734.22,919.536 1735.86,917.713 1737.24,915.555C1737.46,915.21 1737.92,915.102 1738.27,915.326C1738.62,915.55 1738.73,916.013 1738.5,916.364C1737.03,918.668 1735.27,920.62 1733.27,922.16L1733.23,922.187C1732.91,922.408 1732.46,922.338 1732.22,922.023Z" style="fill:white;fill-rule:nonzero;"/>
    </g>
    <g transform="matrix(4.16667,0,0,4.16667,-3557.96,-3104.9)">
        <path d="M1729.25,924.529C1729.55,924.332 1729.67,923.949 1729.52,923.613C1729.36,923.231 1728.92,923.053 1728.54,923.214C1727.44,923.682 1726.28,924.027 1725.11,924.239C1724.7,924.31 1724.43,924.703 1724.5,925.109C1724.58,925.518 1724.97,925.789 1725.38,925.715C1726.66,925.485 1727.92,925.109 1729.13,924.598L1729.25,924.529Z" style="fill:white;fill-rule:nonzero;"/>
    </g>
    <g transform="matrix(4.16667,0,0,4.16667,-3557.96,-3104.9)">
        <path d="M1348.48,764.793L1319.64,757.712L1306.14,758.605L1296.84,762.641L1348.48,764.793Z" style="fill:white;fill-rule:nonzero;"/>
    </g>
    <g transform="matrix(4.16667,0,0,4.16667,-3557.96,-3104.9)">
        <path d="M1348.48,764.793L1298.22,765.39L1296.84,762.641" style="fill:rgb(175,177,177);fill-rule:nonzero;"/>
    </g>
    <g transform="matrix(4.16667,0,0,4.16667,-3557.96,-3104.9)">
        <path d="M1299.06,773.815L1299.14,773.897L1303.08,780.661L1348.36,764.829L1299.06,773.815Z" style="fill:rgb(175,177,177);fill-rule:nonzero;"/>
    </g>
    <g transform="matrix(4.16667,0,0,4.16667,-3557.96,-3104.9)">
        <path d="M1288.93,771.96L1294.17,764.71L1348.15,764.797L1304.5,775.191L1288.93,771.96Z" style="fill:white;fill-rule:nonzero;"/>
    </g>
    <g transform="matrix(4.16667,0,0,4.16667,-3557.96,-3104.9)">
        <path d="M1208.34,893.585C1209.73,892.63 1211.07,891.559 1212.33,890.403C1212.62,890.139 1213.06,890.16 1213.33,890.446C1213.59,890.734 1213.58,891.18 1213.29,891.446C1211.98,892.646 1210.58,893.758 1209.14,894.751C1208.62,895.111 1208.09,895.457 1207.55,895.789C1207.35,895.912 1207.12,895.925 1206.92,895.847C1206.78,895.793 1206.66,895.696 1206.58,895.561C1206.37,895.229 1206.47,894.793 1206.8,894.588C1207.32,894.266 1207.83,893.931 1208.34,893.585Z" style="fill:white;fill-rule:nonzero;"/>
    </g>
    <g transform="matrix(4.16667,0,0,4.16667,-3557.96,-3104.9)">
        <path d="M1273.83,770.577C1276.03,770.275 1278.34,770.027 1280.9,769.821C1281.28,769.79 1281.62,770.079 1281.66,770.468C1281.69,770.857 1281.4,771.199 1281.01,771.23C1278.48,771.435 1276.2,771.679 1274.02,771.978C1273.89,771.995 1273.77,771.978 1273.66,771.935C1273.43,771.845 1273.26,771.636 1273.22,771.374C1273.17,770.986 1273.44,770.629 1273.83,770.577Z" style="fill:white;fill-rule:nonzero;"/>
    </g>
    <g transform="matrix(4.16667,0,0,4.16667,-3557.96,-3104.9)">
        <path d="M1262.58,774.17C1262.38,774.092 1262.22,773.924 1262.16,773.703C1262.05,773.327 1262.27,772.936 1262.65,772.832C1264.83,772.221 1267.17,771.688 1269.6,771.246C1269.99,771.175 1270.36,771.43 1270.43,771.815C1270.5,772.2 1270.24,772.568 1269.86,772.637C1267.47,773.072 1265.17,773.595 1263.03,774.194C1262.87,774.237 1262.72,774.225 1262.58,774.17Z" style="fill:white;fill-rule:nonzero;"/>
    </g>
    <g transform="matrix(4.16667,0,0,4.16667,-3557.96,-3104.9)">
        <path d="M1219.29,881.8C1219.49,881.463 1219.92,881.343 1220.26,881.552C1220.6,881.751 1220.71,882.183 1220.51,882.52C1219.29,884.583 1217.88,886.545 1216.3,888.35C1216.1,888.582 1215.78,888.651 1215.51,888.544L1215.3,888.419C1215.01,888.163 1214.98,887.716 1215.24,887.422C1216.75,885.681 1218.12,883.79 1219.29,881.8Z" style="fill:white;fill-rule:nonzero;"/>
    </g>
    <g transform="matrix(4.16667,0,0,4.16667,-3557.96,-3104.9)">
        <path d="M1221.57,879.042C1221.21,878.881 1221.05,878.462 1221.21,878.106C1221.47,877.531 1221.72,876.95 1221.95,876.363C1222.57,874.791 1223.08,873.172 1223.46,871.553C1223.56,871.173 1223.94,870.939 1224.32,871.031C1224.69,871.123 1224.93,871.504 1224.84,871.883C1224.44,873.566 1223.91,875.247 1223.27,876.879C1223.03,877.489 1222.77,878.091 1222.5,878.687C1222.35,879.033 1221.95,879.192 1221.6,879.055L1221.57,879.042Z" style="fill:white;fill-rule:nonzero;"/>
    </g>
    <g transform="matrix(4.16667,0,0,4.16667,-3557.96,-3104.9)">
        <path d="M1224.82,868.248L1224.65,868.205C1224.36,868.088 1224.17,867.785 1224.21,867.457C1224.49,865.268 1224.6,862.995 1224.56,860.505C1224.56,860.115 1224.87,859.793 1225.26,859.787C1225.65,859.78 1225.97,860.092 1225.98,860.481C1226.02,863.04 1225.9,865.38 1225.61,867.635C1225.56,868.023 1225.21,868.297 1224.82,868.248Z" style="fill:white;fill-rule:nonzero;"/>
    </g>
    <g transform="matrix(4.16667,0,0,4.16667,-3557.96,-3104.9)">
        <path d="M1227.21,805.107C1226.83,805.955 1226.47,806.811 1226.13,807.674C1225.62,808.979 1225.15,810.311 1224.75,811.636C1224.63,812.009 1224.24,812.219 1223.86,812.105L1223.81,812.087C1223.47,811.954 1223.28,811.578 1223.39,811.223C1223.81,809.864 1224.29,808.496 1224.81,807.159C1225.16,806.272 1225.53,805.394 1225.92,804.526C1226.08,804.17 1226.47,803.979 1226.86,804.172C1227.21,804.333 1227.37,804.751 1227.21,805.107Z" style="fill:white;fill-rule:nonzero;"/>
    </g>
    <g transform="matrix(4.16667,0,0,4.16667,-3557.96,-3104.9)">
        <path d="M1223.68,815.684C1223.17,817.964 1222.82,820.284 1222.63,822.575C1222.6,822.964 1222.26,823.253 1221.87,823.222L1221.67,823.175C1221.39,823.065 1221.2,822.778 1221.23,822.46C1221.42,820.104 1221.78,817.721 1222.3,815.378C1222.38,814.997 1222.76,814.756 1223.14,814.84C1223.52,814.922 1223.76,815.301 1223.68,815.684Z" style="fill:white;fill-rule:nonzero;"/>
    </g>
    <g transform="matrix(4.16667,0,0,4.16667,-3557.96,-3104.9)">
        <path d="M1232.78,795.439C1231.43,797.333 1230.18,799.324 1229.07,801.356C1228.9,801.673 1228.52,801.805 1228.2,801.677L1228.11,801.639C1227.77,801.453 1227.65,801.024 1227.83,800.68C1228.97,798.597 1230.24,796.557 1231.63,794.617C1231.85,794.299 1232.3,794.221 1232.62,794.453C1232.93,794.679 1233.01,795.121 1232.78,795.439Z" style="fill:white;fill-rule:nonzero;"/>
    </g>
    <g transform="matrix(4.16667,0,0,4.16667,-3557.96,-3104.9)">
        <path d="M1243.27,784.273C1243.07,784.439 1242.8,784.471 1242.57,784.381C1242.46,784.338 1242.36,784.267 1242.28,784.168C1242.03,783.865 1242.08,783.418 1242.38,783.173C1244.25,781.667 1246.21,780.276 1248.22,779.037C1248.56,778.833 1248.99,778.937 1249.2,779.269C1249.4,779.601 1249.3,780.037 1248.96,780.242C1247,781.449 1245.09,782.805 1243.27,784.273Z" style="fill:white;fill-rule:nonzero;"/>
    </g>
    <g transform="matrix(4.16667,0,0,4.16667,-3557.96,-3104.9)">
        <path d="M1223.76,845.727C1223.63,845.746 1223.51,845.73 1223.4,845.686C1223.17,845.596 1222.99,845.391 1222.96,845.133L1222.82,844.248C1222.51,842.208 1222.21,840.166 1221.93,838.122C1221.88,837.734 1222.16,837.379 1222.54,837.328C1222.93,837.278 1223.28,837.547 1223.34,837.936C1223.61,839.971 1223.91,842.004 1224.22,844.036L1224.35,844.921C1224.41,845.308 1224.15,845.668 1223.76,845.727Z" style="fill:white;fill-rule:nonzero;"/>
    </g>
    <g transform="matrix(4.16667,0,0,4.16667,-3557.96,-3104.9)">
        <path d="M1235.34,792.118C1235.14,792.359 1234.81,792.433 1234.54,792.325L1234.34,792.21C1234.04,791.96 1234,791.515 1234.25,791.214C1235.77,789.378 1237.42,787.624 1239.15,786C1239.43,785.732 1239.88,785.748 1240.15,786.03C1240.41,786.314 1240.4,786.761 1240.12,787.03C1238.43,788.614 1236.83,790.326 1235.34,792.118Z" style="fill:white;fill-rule:nonzero;"/>
    </g>
    <g transform="matrix(4.16667,0,0,4.16667,-3557.96,-3104.9)">
        <path d="M1224.17,848.526C1224.56,848.474 1224.92,848.741 1224.97,849.13C1225.35,851.879 1225.6,854.126 1225.77,856.201C1225.8,856.59 1225.51,856.93 1225.12,856.96C1225.01,856.968 1224.9,856.952 1224.8,856.914C1224.56,856.818 1224.38,856.59 1224.36,856.31C1224.2,854.265 1223.95,852.046 1223.57,849.324C1223.52,848.937 1223.79,848.581 1224.17,848.526Z" style="fill:white;fill-rule:nonzero;"/>
    </g>
    <g transform="matrix(4.16667,0,0,4.16667,-3557.96,-3104.9)">
        <path d="M1203.15,896.604C1203.5,896.432 1203.93,896.576 1204.1,896.926C1204.27,897.276 1204.13,897.701 1203.78,897.873C1201.76,898.867 1199.6,899.761 1197.17,900.605C1197,900.663 1196.83,900.655 1196.68,900.595C1196.49,900.522 1196.34,900.372 1196.27,900.168C1196.14,899.799 1196.34,899.397 1196.71,899.268C1199.08,898.444 1201.19,897.571 1203.15,896.604Z" style="fill:white;fill-rule:nonzero;"/>
    </g>
    <g transform="matrix(4.16667,0,0,4.16667,-3557.96,-3104.9)">
        <path d="M1221.76,826.049C1222.15,826.051 1222.47,826.365 1222.47,826.756C1222.48,828.91 1222.6,831.196 1222.85,833.746C1222.89,834.134 1222.6,834.48 1222.21,834.518C1222.1,834.529 1221.99,834.512 1221.89,834.473C1221.65,834.379 1221.47,834.157 1221.44,833.883C1221.19,831.288 1221.06,828.957 1221.06,826.758C1221.06,826.368 1221.37,826.05 1221.76,826.049Z" style="fill:white;fill-rule:nonzero;"/>
    </g>
    <g transform="matrix(4.16667,0,0,4.16667,-3557.96,-3104.9)">
        <path d="M1256.23,774.998C1257,774.688 1257.78,774.396 1258.56,774.12C1258.92,773.991 1259.33,774.182 1259.46,774.551C1259.59,774.919 1259.4,775.325 1259.03,775.455C1258.26,775.723 1257.51,776.008 1256.75,776.31C1255.36,776.871 1253.96,777.504 1252.61,778.193C1252.43,778.289 1252.22,778.293 1252.04,778.221C1251.88,778.161 1251.75,778.044 1251.66,777.885C1251.49,777.537 1251.62,777.11 1251.97,776.933C1253.36,776.225 1254.79,775.575 1256.23,774.998Z" style="fill:white;fill-rule:nonzero;"/>
    </g>
    <g transform="matrix(4.16667,0,0,4.16667,-3557.96,-3104.9)">
        <path d="M1423.15,1241.67C1423.15,1241.67 1418.05,1246.4 1406.41,1249.37C1403.84,1250.02 1401.08,1249.15 1401.08,1253.38L1415.21,1253.38L1426.96,1251.34L1426.96,1253.38L1433.3,1253.38C1433.3,1253.38 1435.07,1243 1431.36,1241.67L1423.15,1241.67Z" style="fill:rgb(26,45,86);fill-rule:nonzero;"/>
    </g>
    <g transform="matrix(4.16667,0,0,4.16667,-3557.96,-3104.9)">
        <path d="M1424.4,1234.21L1423.15,1241.67C1425.47,1243.27 1428.51,1243.37 1430.93,1241.93L1431.36,1241.67L1433.2,1234.21L1424.4,1234.21Z" style="fill:rgb(250,176,138);fill-rule:nonzero;"/>
    </g>
    <g transform="matrix(4.16667,0,0,4.16667,-3557.96,-3104.9)">
        <path d="M1441.34,1057.41C1441.34,1057.41 1449.08,1090.15 1431.87,1134.14C1428.79,1142.01 1428.18,1150.65 1430.05,1158.88C1438.22,1194.87 1434.22,1235.15 1434.22,1235.15L1423.41,1235.06L1382.92,1078.48L1441.34,1057.41Z" style="fill:rgb(52,42,112);fill-rule:nonzero;"/>
    </g>
    <g transform="matrix(4.16667,0,0,4.16667,-3557.96,-3104.9)">
        <path d="M1392.23,973.093L1396.66,985.986L1407.57,978.693L1400.96,963.44L1392.23,973.093Z" style="fill:rgb(250,176,138);fill-rule:nonzero;"/>
    </g>
    <g transform="matrix(4.16667,0,0,4.16667,-3557.96,-3104.9)">
        <path d="M1388.14,975.051C1386.48,975.287 1384.91,975.301 1384,974.785C1378.06,968.671 1380.3,949.078 1380.3,949.078L1387.36,944.576L1398.06,948.959L1400.75,961.376C1401.46,964.69 1400.41,968.168 1397.9,970.741C1395.13,972.983 1391.75,974.538 1388.14,975.051Z" style="fill:rgb(253,205,162);fill-rule:nonzero;"/>
    </g>
    <g transform="matrix(4.16667,0,0,4.16667,-3557.96,-3104.9)">
        <path d="M1395.99,953.025C1395.1,951.013 1392.83,949.995 1390.75,950.71C1389.23,951.232 1387.4,951.77 1385.6,952.078C1381.31,952.809 1375.7,952.038 1374.58,945.51C1373.47,938.983 1381.87,939.854 1381.87,939.854C1381.87,939.854 1393.1,939.543 1400.3,943.237C1403.74,945.004 1405.55,953.14 1404.29,957.105C1403.57,959.399 1402.44,961.539 1400.96,963.44L1395.99,953.025Z" style="fill:rgb(26,45,86);fill-rule:nonzero;"/>
    </g>
    <g transform="matrix(4.16667,0,0,4.16667,-3557.96,-3104.9)">
        <path d="M1402.18,956.04C1401.08,955.358 1399.32,955.823 1398.24,957.078C1397.17,958.333 1397.19,959.902 1398.29,960.584C1399.39,961.264 1401.15,960.799 1402.22,959.544C1403.3,958.29 1403.28,956.72 1402.18,956.04Z" style="fill:rgb(253,205,162);fill-rule:nonzero;"/>
    </g>
    <g transform="matrix(4.16667,0,0,4.16667,-3557.96,-3104.9)">
        <path d="M1400.52,977.305C1366.82,990.02 1380.95,1068.69 1380.95,1068.69L1442.05,1070.05C1442.05,1070.05 1449.82,972.054 1400.52,977.305Z" style="fill:rgb(255,207,83);fill-rule:nonzero;"/>
    </g>
    <g transform="matrix(4.16667,0,0,4.16667,-3557.96,-3104.9)">
        <path d="M1431.74,1011.37C1431.74,1011.37 1417.44,1061.37 1404.35,1061.68C1391.25,1061.98 1358.33,1013.07 1358.33,1013.07L1366.29,1008.15C1366.29,1008.15 1385.61,1024.91 1393.56,1031.81C1398.39,1017 1405.3,996.517 1405.3,996.517L1431.74,1011.37Z" style="fill:rgb(255,207,83);fill-rule:nonzero;"/>
    </g>
    <g transform="matrix(4.16667,0,0,4.16667,-3557.96,-3104.9)">
        <path d="M1365.5,1008.64L1393.84,1032.84L1394.12,1031.99C1397.71,1020.98 1402.5,1006.69 1404.68,1000.19C1404.39,999.969 1404.1,999.737 1403.8,999.521C1404.1,999.727 1404.4,999.934 1404.7,1000.14L1404.73,1000.04C1404.4,999.772 1404.08,999.501 1403.76,999.231C1401.74,1005.26 1396.95,1019.54 1393.27,1030.79L1366.29,1008.15L1365.5,1008.64Z" style="fill:rgb(249,164,39);fill-rule:nonzero;"/>
    </g>
    <g transform="matrix(4.16667,0,0,4.16667,-3557.96,-3104.9)">
        <path d="M1428.6,1019.41C1423.93,1033.51 1413.67,1060.87 1404.33,1061.09C1395.37,1061.27 1376.94,1036.95 1366.57,1022.75C1366.18,1023.25 1366.18,1023.13 1365.78,1023.61C1376.02,1037.62 1393.7,1060.97 1403.43,1062.21C1403.75,1062.25 1404.06,1062.27 1404.36,1062.26C1414.49,1062.03 1424.98,1034.21 1429.72,1019.85C1429.34,1019.71 1428.97,1019.56 1428.6,1019.41Z" style="fill:rgb(249,164,39);fill-rule:nonzero;"/>
    </g>
    <g transform="matrix(4.16667,0,0,4.16667,-3557.96,-3104.9)">
        <path d="M1393.79,977.641L1405.21,973.249L1409.18,977.495L1392.83,981.961L1393.79,977.641Z" style="fill:white;fill-rule:nonzero;"/>
    </g>
    <g transform="matrix(4.16667,0,0,4.16667,-3557.96,-3104.9)">
        <path d="M1383.2,1241.67C1383.2,1241.67 1378.09,1246.4 1366.45,1249.37C1363.89,1250.02 1361.13,1249.15 1361.13,1253.38L1375.25,1253.38L1387,1251.34L1387,1253.38L1393.34,1253.38C1393.34,1253.38 1395.11,1243 1391.41,1241.67L1383.2,1241.67Z" style="fill:rgb(26,45,86);fill-rule:nonzero;"/>
    </g>
    <g transform="matrix(4.16667,0,0,4.16667,-3557.96,-3104.9)">
        <path d="M1384.44,1234.21L1383.2,1241.67C1385.51,1243.27 1388.55,1243.37 1390.97,1241.93L1391.41,1241.67L1393.25,1234.21L1384.44,1234.21Z" style="fill:rgb(253,205,162);fill-rule:nonzero;"/>
    </g>
    <g transform="matrix(4.16667,0,0,4.16667,-3557.96,-3104.9)">
        <path d="M1442.66,1065.91C1442.66,1065.91 1442.66,1099.55 1415.79,1138.4C1410.98,1145.35 1408.4,1153.61 1408.32,1162.06C1408,1198.96 1395.39,1234.66 1395.39,1234.66L1384.33,1234.66L1380.95,1068.69L1442.66,1065.91Z" style="fill:rgb(75,56,150);fill-rule:nonzero;"/>
    </g>
    <g transform="matrix(4.16667,0,0,4.16667,-3557.96,-3104.9)">
        <path d="M1360.36,1006.57L1345.75,980.342L1347.81,979.197L1362.42,1005.43L1360.36,1006.57Z" style="fill:rgb(18,139,140);fill-rule:nonzero;"/>
    </g>
    <g transform="matrix(4.16667,0,0,4.16667,-3557.96,-3104.9)">
        <path d="M1359.18,1012.55L1354.86,1009.03C1351.54,1005.19 1349.73,1000.27 1349.75,995.198L1349.94,987.889C1351.44,988.659 1352.37,991.251 1353.11,992.761L1358.56,1001.82L1365.5,1008.64L1359.18,1012.55Z" style="fill:rgb(253,205,162);fill-rule:nonzero;"/>
    </g>
    <g transform="matrix(4.16667,0,0,4.16667,-3557.96,-3104.9)">
        <path d="M1357.86,1005.12C1358.76,1004.33 1362.75,1008.7 1362.98,1006.91C1362.98,1006.91 1362.01,999.263 1360.35,997.303C1358.69,995.344 1357.79,990.449 1357.79,990.449C1357.79,990.449 1356.05,990.443 1356.14,993.191C1356.19,994.556 1357.2,996.5 1357.31,998.535C1357.43,1000.6 1356.67,1002.76 1357.86,1005.12Z" style="fill:rgb(253,205,162);fill-rule:nonzero;"/>
    </g>
    <g transform="matrix(4.16667,0,0,4.16667,-3557.96,-3104.9)">
        <path d="M1181.82,1030.5L1161.38,1085.27L1165.67,1086.93C1165.67,1086.93 1181.65,1062.34 1197.63,1034.1C1212.64,1007.58 1181.82,1030.5 1181.82,1030.5Z" style="fill:rgb(208,151,105);fill-rule:nonzero;"/>
    </g>
    <g transform="matrix(4.16667,0,0,4.16667,-3557.96,-3104.9)">
        <path d="M1181.82,1030.5C1181.82,1030.5 1192.25,1006.22 1206.38,1006.22C1220.51,1006.22 1205.07,1008.02 1223.06,1006.22C1235.36,1004.99 1246.25,1026.34 1246.25,1026.34L1232.49,1033.72L1231.02,1066.84L1197.9,1066.84L1196.01,1034.87L1181.82,1030.5Z" style="fill:rgb(102,80,161);fill-rule:nonzero;"/>
    </g>
    <g transform="matrix(4.16667,0,0,4.16667,-3557.96,-3104.9)">
        <path d="M1206.38,996.389L1206.38,1006.22L1206.46,1006.28C1210.4,1009.2 1215.74,1009.35 1219.84,1006.66L1220.51,1006.22L1218.32,994.904L1206.38,996.389Z" style="fill:rgb(183,136,96);fill-rule:nonzero;"/>
    </g>
    <g transform="matrix(4.16667,0,0,4.16667,-3557.96,-3104.9)">
        <path d="M1199.7,975.837C1199.7,975.837 1198.88,997.974 1211.59,997.974C1224.29,997.974 1224.29,973.788 1224.29,973.788L1213.23,962.719L1199.7,975.837Z" style="fill:rgb(208,151,105);fill-rule:nonzero;"/>
    </g>
    <g transform="matrix(4.16667,0,0,4.16667,-3557.96,-3104.9)">
        <path d="M1214.87,968.869C1214.87,968.869 1210.23,976.569 1205,979.849C1202.47,981.44 1201.19,984.375 1201.82,987.297C1202.62,990.975 1206.99,994.116 1206.42,997.579C1205.5,1003.21 1208.29,1008.9 1211.46,1013.64C1221.13,1028.1 1211.99,1051.68 1198.46,1051.68C1183.21,1051.68 1185.19,1033.76 1186.32,1030.55C1187.54,1027.06 1186.62,1023.12 1183.86,1020.66C1181.85,1018.88 1180.02,1016.54 1180.02,1013.96C1180.02,1010.86 1182.77,1005.61 1185.3,1001.44C1187.88,997.18 1190.76,988.387 1191.29,983.437C1193.96,958.312 1211.68,958.246 1212.48,958.312C1221.24,959.041 1229.12,966.527 1229.27,975.312C1229.44,985.533 1232.6,1006.45 1235.36,1010.27C1226.31,1014.23 1214.5,1007.81 1217.88,993.461C1218.54,990.652 1224.03,982.841 1223.78,980.346C1222.81,970.458 1214.87,968.869 1214.87,968.869Z" style="fill:rgb(52,42,112);fill-rule:nonzero;"/>
    </g>
    <g transform="matrix(4.16667,0,0,4.16667,-3557.96,-3104.9)">
        <path d="M1241.16,1232.63L1243.43,1238.55C1243.99,1240.18 1245.08,1241.55 1246.53,1242.48C1248.13,1243.51 1250.64,1244.78 1254.36,1245.88C1249.8,1249.77 1242.55,1245.87 1238.4,1242.99C1236.37,1241.59 1234.94,1239.5 1234.34,1237.11L1233.39,1232.63L1241.16,1232.63Z" style="fill:rgb(208,151,105);fill-rule:nonzero;"/>
    </g>
    <g transform="matrix(4.16667,0,0,4.16667,-3557.96,-3104.9)">
        <path d="M1233.88,1235.71C1233.88,1235.71 1230.8,1238.13 1231.36,1241.22C1231.93,1244.31 1232.73,1251.55 1232.73,1251.55L1235.9,1251.55L1235.8,1244.8C1235.81,1244.36 1242.6,1251.55 1243.75,1251.55L1260.54,1251.55C1260.54,1251.55 1261.65,1247 1251.8,1245.53C1241.94,1244.07 1233.88,1235.71 1233.88,1235.71Z" style="fill:rgb(75,56,150);fill-rule:nonzero;"/>
    </g>
    <g transform="matrix(4.16667,0,0,4.16667,-3557.96,-3104.9)">
        <path d="M1216.28,974.561C1214.65,975.668 1212.89,976.61 1211.05,977.405C1209.43,979.816 1207.41,981.926 1205.1,983.71C1206.18,987.129 1206.71,990.69 1206.58,994.139C1206.55,994.906 1206.47,995.653 1206.38,996.389C1207.8,997.378 1209.51,997.974 1211.59,997.974C1220.29,997.974 1223.03,986.626 1223.9,979.476C1221.06,978.342 1218.52,976.637 1216.28,974.561Z" style="fill:rgb(208,151,105);fill-rule:nonzero;"/>
    </g>
    <g transform="matrix(4.16667,0,0,4.16667,-3557.96,-3104.9)">
        <path d="M1221.08,983.939C1220.19,983.02 1220.37,981.305 1221.46,980.109C1222.56,978.913 1224.17,978.687 1225.05,979.605C1225.93,980.524 1225.76,982.238 1224.67,983.435C1223.57,984.631 1221.96,984.857 1221.08,983.939Z" style="fill:rgb(208,151,105);fill-rule:nonzero;"/>
    </g>
    <g transform="matrix(4.16667,0,0,4.16667,-3557.96,-3104.9)">
        <path d="M1238.7,1157.03C1250.94,1093.69 1231.09,1066.84 1231.09,1066.84L1197.87,1066.84C1197.87,1066.84 1180.02,1092.67 1190.26,1157.03C1190.26,1157.03 1184.13,1186.55 1187.81,1232.63L1195.57,1232.63L1205.05,1164.82L1214.48,1103.63L1223.91,1164.82L1233.39,1232.63L1241.16,1232.63C1244.83,1186.55 1238.7,1157.03 1238.7,1157.03Z" style="fill:rgb(216,211,233);fill-rule:nonzero;"/>
    </g>
    <g transform="matrix(4.16667,0,0,4.16667,-3557.96,-3104.9)">
        <path d="M1246.25,1026.34C1246.25,1026.34 1262.83,1057.82 1255.86,1062.33C1248.89,1066.84 1221.61,1050.3 1221.61,1050.3L1223.06,1045.79L1238.19,1046.35L1232.49,1033.72L1246.25,1026.34Z" style="fill:rgb(208,151,105);fill-rule:nonzero;"/>
    </g>
    <g transform="matrix(4.16667,0,0,4.16667,-3557.96,-3104.9)">
        <path d="M1187.48,1236.56L1185.66,1246.43C1185.14,1249.22 1185.64,1252.11 1187.11,1254.54C1188.47,1256.8 1190.28,1259.11 1192.02,1259.11C1193.95,1259.11 1196.13,1256.61 1197.63,1254.49C1198.85,1252.77 1199.29,1250.61 1198.83,1248.55L1195.98,1235.71L1187.48,1236.56Z" style="fill:rgb(75,56,150);fill-rule:nonzero;"/>
    </g>
    <g transform="matrix(4.16667,0,0,4.16667,-3557.96,-3104.9)">
        <path d="M1255.06,1052.94C1243.94,1045.9 1224.11,1047.16 1223.91,1047.18L1223.83,1045.95C1224.7,1045.89 1244.26,1044.65 1255.72,1051.9L1255.06,1052.94Z" style="fill:rgb(183,136,96);fill-rule:nonzero;"/>
    </g>
    <g transform="matrix(4.16667,0,0,4.16667,-3557.96,-3104.9)">
        <path d="M1164.21,1089.82C1163.73,1090.11 1162.19,1091.23 1160.64,1094.7C1159.25,1097.82 1158.4,1105.18 1155.45,1102.71C1154.73,1099.02 1153.43,1094.75 1153.43,1094.75C1153.22,1092.48 1155.33,1089.32 1157.05,1087.61L1163.02,1082.95C1163.02,1082.95 1166.8,1083.68 1166.99,1083.68L1167.44,1084.34C1166.21,1085.7 1164.92,1088.18 1164.21,1089.82Z" style="fill:rgb(208,151,105);fill-rule:nonzero;"/>
    </g>
    <g transform="matrix(4.16667,0,0,4.16667,-3557.96,-3104.9)">
        <path d="M1162.32,1090.4C1162.32,1090.4 1162.12,1090.45 1161.79,1090.62C1161.75,1090.13 1161.68,1089.65 1161.6,1089.17C1162.13,1087.47 1162.61,1085.75 1163.12,1084.05C1164.12,1084.51 1165.53,1085.15 1165.64,1085.18L1164.66,1097.07C1164.66,1097.07 1163.13,1097.53 1162.49,1095.08C1161.85,1092.62 1162.32,1090.4 1162.32,1090.4Z" style="fill:rgb(208,151,105);fill-rule:nonzero;"/>
    </g>
    <g transform="matrix(4.16667,0,0,4.16667,-3557.96,-3104.9)">
        <path d="M1187.81,1232.63L1186.73,1245.6C1186.61,1247.09 1187.37,1248.54 1188.71,1249.21C1189.56,1249.64 1190.67,1249.98 1192.06,1249.98C1193.4,1249.98 1194.48,1249.66 1195.32,1249.26C1196.73,1248.58 1197.48,1247.01 1197.28,1245.46L1195.57,1232.63L1187.81,1232.63Z" style="fill:rgb(208,151,105);fill-rule:nonzero;"/>
    </g>
    <g transform="matrix(4.16667,0,0,4.16667,-3557.96,-3104.9)">
        <path d="M1217.31,1044.12L1215.83,1023.97C1215.77,1023.11 1215.05,1022.45 1214.19,1022.45L1204.67,1022.45C1203.72,1022.45 1202.97,1023.27 1203.04,1024.22L1204.6,1044.36C1204.67,1045.22 1205.38,1045.87 1206.24,1045.87L1215.67,1045.87C1216.62,1045.87 1217.37,1045.07 1217.31,1044.12Z" style="fill:white;fill-rule:nonzero;"/>
    </g>
    <g transform="matrix(4.16667,0,0,4.16667,-3557.96,-3104.9)">
        <path d="M1220.36,1043.39C1219.77,1043.34 1217.79,1042.99 1214.71,1040.41C1211.94,1038.09 1207.72,1031.49 1206.06,1035.21C1207.09,1039.05 1207.83,1043.71 1207.83,1043.71C1208.68,1045.95 1212.15,1047.98 1214.58,1048.82L1222.41,1050.47C1222.41,1050.47 1225.67,1048.03 1225.84,1047.94L1225.23,1046.38C1223.43,1045.65 1221.8,1044.63 1220.36,1043.39Z" style="fill:rgb(208,151,105);fill-rule:nonzero;"/>
    </g>
    <g transform="matrix(4.16667,0,0,4.16667,-3557.96,-3104.9)">
        <path d="M1218.29,1043.71C1218.29,1043.71 1218.08,1043.76 1217.69,1043.76C1217.88,1044.24 1218.04,1044.73 1218.19,1045.22C1219.48,1046.59 1220.72,1048 1222,1049.39C1222.74,1048.48 1223.78,1047.22 1223.87,1047.14L1217.43,1036.29C1217.43,1036.29 1215.75,1036.57 1216.29,1039.19C1216.82,1041.82 1218.29,1043.71 1218.29,1043.71Z" style="fill:rgb(208,151,105);fill-rule:nonzero;"/>
    </g>
    <g transform="matrix(4.16667,0,0,4.16667,-3557.96,-3104.9)">
        <path d="M1207.83,1029.37C1207.83,1030.21 1208.5,1030.88 1209.33,1030.88C1210.17,1030.88 1210.84,1030.21 1210.84,1029.37C1210.84,1028.54 1210.17,1027.86 1209.33,1027.86C1208.5,1027.86 1207.83,1028.54 1207.83,1029.37Z" style="fill:rgb(87,196,196);fill-rule:nonzero;"/>
    </g>
    <g transform="matrix(4.16667,0,0,4.16667,-3557.96,-3104.9)">
        <path d="M1321.36,1011.69L1334.87,1037.13L1319.98,1036.41L1318.94,1010.87L1321.36,1011.69Z" style="fill:rgb(255,216,152);fill-rule:nonzero;"/>
    </g>
    <g transform="matrix(4.16667,0,0,4.16667,-3557.96,-3104.9)">
        <path d="M1300.15,1000.41L1312.62,1000.39L1317.8,1081.05L1295.43,1081.05L1300.15,1000.41Z" style="fill:white;fill-rule:nonzero;"/>
    </g>
    <g transform="matrix(4.16667,0,0,4.16667,-3557.96,-3104.9)">
        <path d="M1277.23,1237.19C1277.23,1237.19 1274.15,1239.61 1274.72,1242.7C1275.28,1245.79 1276.08,1253.03 1276.08,1253.03L1279.25,1253.03L1279.16,1246.28C1279.16,1245.84 1285.96,1253.03 1287.11,1253.03L1303.89,1253.03C1303.89,1253.03 1305,1248.47 1295.15,1247.01C1285.29,1245.55 1277.23,1237.19 1277.23,1237.19Z" style="fill:rgb(1,63,96);fill-rule:nonzero;"/>
    </g>
    <g transform="matrix(4.16667,0,0,4.16667,-3557.96,-3104.9)">
        <path d="M1284.51,1234.11L1286.78,1240.03C1287.34,1241.65 1288.43,1243.03 1289.88,1243.96C1291.48,1244.98 1293.99,1246.41 1297.72,1247.52C1293.16,1251.41 1285.9,1247.34 1281.75,1244.47C1279.73,1243.07 1278.29,1240.98 1277.69,1238.59L1276.74,1234.11L1284.51,1234.11Z" style="fill:rgb(255,216,152);fill-rule:nonzero;"/>
    </g>
    <g transform="matrix(4.16667,0,0,4.16667,-3557.96,-3104.9)">
        <path d="M1309.2,1237.19C1309.2,1237.19 1306.12,1239.61 1306.68,1242.7C1307.25,1245.79 1308.05,1253.03 1308.05,1253.03L1311.22,1253.03L1311.12,1246.28C1311.13,1245.84 1317.92,1253.03 1319.07,1253.03L1335.85,1253.03C1335.85,1253.03 1336.97,1248.47 1327.12,1247.01C1317.26,1245.55 1309.2,1237.19 1309.2,1237.19Z" style="fill:rgb(1,63,96);fill-rule:nonzero;"/>
    </g>
    <g transform="matrix(4.16667,0,0,4.16667,-3557.96,-3104.9)">
        <path d="M1316.48,1234.11L1318.75,1240.03C1319.31,1241.65 1320.4,1243.03 1321.85,1243.96C1323.45,1244.98 1325.96,1246.41 1329.68,1247.52C1325.12,1251.41 1317.87,1247.34 1313.72,1244.47C1311.69,1243.07 1310.26,1240.98 1309.66,1238.59L1308.71,1234.11L1316.48,1234.11Z" style="fill:rgb(253,197,125);fill-rule:nonzero;"/>
    </g>
    <g transform="matrix(4.16667,0,0,4.16667,-3557.96,-3104.9)">
        <path d="M1290.57,1081.05C1290.57,1081.05 1288.48,1093.11 1300.53,1152.36C1290.77,1183.24 1306.4,1234.91 1306.4,1234.91L1317.8,1234.91L1325.55,1081.05L1290.57,1081.05Z" style="fill:rgb(18,75,148);fill-rule:nonzero;"/>
    </g>
    <g transform="matrix(4.16667,0,0,4.16667,-3557.96,-3104.9)">
        <path d="M1311.25,1000.41L1315.3,1098.27L1328.71,1092.53C1328.71,1092.53 1322.67,1074.16 1323.24,1048.64C1321.19,1030.18 1331.66,1039.91 1318.83,1004.37C1314.06,1000.39 1311.25,1000.41 1311.25,1000.41Z" style="fill:rgb(249,164,39);fill-rule:nonzero;"/>
    </g>
    <g transform="matrix(4.16667,0,0,4.16667,-3557.96,-3104.9)">
        <path d="M1313,990.301L1311.43,998.553C1310.74,1002.18 1306.62,1003.98 1303.49,1002.02L1297.98,998.57L1307.81,976.356L1313,990.301Z" style="fill:rgb(253,197,125);fill-rule:nonzero;"/>
    </g>
    <g transform="matrix(4.16667,0,0,4.16667,-3557.96,-3104.9)">
        <path d="M1279.61,1081.05C1279.61,1081.05 1264.69,1093.11 1276.74,1152.36C1266.98,1183.24 1275.59,1234.91 1275.59,1234.91L1285.82,1234.91L1314.59,1081.05L1279.61,1081.05Z" style="fill:rgb(13,104,179);fill-rule:nonzero;"/>
    </g>
    <g transform="matrix(4.16667,0,0,4.16667,-3557.96,-3104.9)">
        <path d="M1300.15,992.116C1300.15,992.116 1287.55,999.197 1283.63,1005.52C1279.9,1011.54 1278.61,1025.26 1278.25,1037.47C1277.76,1054.23 1269.66,1098.27 1269.66,1098.27L1303.43,1098.27L1304.28,1002.4L1300.15,992.116Z" style="fill:rgb(255,207,83);fill-rule:nonzero;"/>
    </g>
    <g transform="matrix(4.16667,0,0,4.16667,-3557.96,-3104.9)">
        <path d="M1325.01,965.55C1317.37,963.615 1310.02,971.446 1310.02,971.446L1304.28,1002.4L1295.44,988.776C1295.44,988.776 1294.93,970.268 1303.48,958.012C1309.59,950.59 1321.34,952.72 1327.27,959.939C1330.16,963.45 1330.76,968.296 1330.48,972.756C1330.11,978.744 1328.41,1013.11 1328.41,1013.11L1310.91,1000.15C1310.91,1000.15 1311.33,996.656 1313,990.301C1315.89,979.364 1330.14,966.85 1325.01,965.55Z" style="fill:rgb(26,45,86);fill-rule:nonzero;"/>
    </g>
    <g transform="matrix(4.16667,0,0,4.16667,-3557.96,-3104.9)">
        <path d="M1307.74,970.971C1308.86,970.513 1310.32,971.275 1311,972.672C1311.67,974.07 1311.3,975.575 1310.17,976.034C1309.04,976.492 1307.58,975.73 1306.91,974.333C1306.24,972.934 1306.61,971.43 1307.74,970.971Z" style="fill:rgb(255,216,152);fill-rule:nonzero;"/>
    </g>
    <g transform="matrix(4.16667,0,0,4.16667,-3557.96,-3104.9)">
        <path d="M1315.93,991.752C1317.35,992.275 1318.74,992.57 1319.67,992.236C1326.31,987.421 1328.71,968.188 1328.71,968.188L1323.45,962.598L1312.97,964.901L1307.81,976.356C1306.43,979.414 1306.59,982.945 1308.24,985.867C1310.2,988.516 1312.84,990.614 1315.93,991.752Z" style="fill:rgb(255,216,152);fill-rule:nonzero;"/>
    </g>
    <g transform="matrix(4.16667,0,0,4.16667,-3557.96,-3104.9)">
        <path d="M1326.76,965.151C1326.21,970.969 1310.02,971.446 1310.02,971.446L1309.18,963.57L1318.62,958.374L1326.09,962.869C1326.09,962.869 1326.84,964.179 1326.76,965.151Z" style="fill:rgb(26,45,86);fill-rule:nonzero;"/>
    </g>
    <g transform="matrix(4.16667,0,0,4.16667,-3557.96,-3104.9)">
        <path d="M1326.41,966.28C1325.87,968.445 1328.06,972.218 1328.06,972.218L1329.35,969.891L1329.31,967.876L1328.04,966.304C1328.04,966.304 1326.94,964.115 1326.41,966.28Z" style="fill:rgb(26,45,86);fill-rule:nonzero;"/>
    </g>
    <g transform="matrix(4.16667,0,0,4.16667,-3557.96,-3104.9)">
        <path d="M1287.07,1005.52C1270.73,1007.43 1278.45,1049.59 1281.96,1066.9C1282.83,1071.16 1287.18,1073.76 1291.33,1072.45C1305.55,1067.96 1326.32,1049.34 1326.32,1049.34L1323.03,1045.19L1295.43,1051.64C1295.43,1051.64 1306.02,1003.31 1287.07,1005.52Z" style="fill:rgb(255,216,152);fill-rule:nonzero;"/>
    </g>
    <g transform="matrix(4.16667,0,0,4.16667,-3557.96,-3104.9)">
        <path d="M1319.77,1035.3L1314.43,1068.33C1314.28,1069.28 1315.02,1070.15 1315.99,1070.15L1337.11,1070.15C1337.89,1070.15 1338.55,1069.59 1338.67,1068.82L1343.91,1035.79C1344.06,1034.84 1343.32,1033.97 1342.36,1033.97L1321.32,1033.97C1320.55,1033.97 1319.89,1034.53 1319.77,1035.3Z" style="fill:rgb(1,63,96);fill-rule:nonzero;"/>
    </g>
    <g transform="matrix(4.16667,0,0,4.16667,-3557.96,-3104.9)">
        <path d="M1343.22,1049.92C1343.35,1048.76 1343.24,1048.03 1342.85,1045.63C1342.35,1042.5 1342.48,1037.61 1339.29,1040.05C1336.27,1043.83 1335.92,1047.86 1335.92,1047.86C1335.31,1050.07 1336.67,1053.16 1337.94,1054.83L1340.13,1059.61C1340.13,1059.61 1343.92,1055.2 1343.22,1049.92Z" style="fill:rgb(255,216,152);fill-rule:nonzero;"/>
    </g>
    <g transform="matrix(4.16667,0,0,4.16667,-3557.96,-3104.9)">
        <path d="M1329.4,1046.81C1329.4,1047.7 1330.12,1048.42 1331.01,1048.42C1331.9,1048.42 1332.62,1047.7 1332.62,1046.81C1332.62,1045.92 1331.9,1045.19 1331.01,1045.19C1330.12,1045.19 1329.4,1045.92 1329.4,1046.81Z" style="fill:url(#_Linear1);"/>
    </g>
    <g transform="matrix(4.16667,0,0,4.16667,-3557.96,-3104.9)">
        <path d="M1148.14,972.002L1145.5,984.553L1132.31,980.911L1140.93,962.898L1148.14,972.002Z" style="fill:rgb(247,155,130);fill-rule:nonzero;"/>
    </g>
    <g transform="matrix(4.16667,0,0,4.16667,-3557.96,-3104.9)">
        <path d="M1151.44,975.501C1152.96,975.943 1154.44,976.165 1155.36,975.8C1161.75,970.846 1162.25,952.147 1162.25,952.147L1156.21,946.982L1145.58,949.681L1141.41,960.987C1140.3,964.005 1140.83,967.412 1142.84,970.161C1145.15,972.633 1148.11,974.541 1151.44,975.501Z" style="fill:rgb(250,176,138);fill-rule:nonzero;"/>
    </g>
    <g transform="matrix(4.16667,0,0,4.16667,-3557.96,-3104.9)">
        <path d="M1144.9,956.626C1146,954.855 1147.17,950.33 1149.03,951.277C1150.38,951.967 1155.22,953.735 1156.87,954.261C1160.8,955.517 1168.3,956.216 1170.21,950.233C1171.17,947.241 1169.09,943.736 1167.5,942.382C1165.93,941.053 1163.88,940.439 1161.83,940.495C1157.02,940.626 1150.21,942.131 1148.07,940.94C1144.46,938.936 1139.9,939.968 1138.91,943.259C1137.85,946.774 1137.99,952.617 1138.65,956.506C1139.02,958.757 1139.8,960.917 1140.93,962.898L1144.9,956.626Z" style="fill:rgb(52,42,112);fill-rule:nonzero;"/>
    </g>
    <g transform="matrix(4.16667,0,0,4.16667,-3557.96,-3104.9)">
        <path d="M1140.77,955.786C1141.9,955.292 1143.49,955.961 1144.33,957.283C1145.18,958.603 1144.95,960.075 1143.82,960.569C1142.7,961.062 1141.11,960.392 1140.27,959.072C1139.42,957.751 1139.65,956.28 1140.77,955.786Z" style="fill:rgb(250,176,138);fill-rule:nonzero;"/>
    </g>
    <g transform="matrix(4.16667,0,0,4.16667,-3557.96,-3104.9)">
        <path d="M1138.03,978.12C1113.47,976.747 1111.39,998.588 1109.33,1022.32C1106.96,1049.56 1108.79,1079.3 1108.79,1079.3L1165.94,1079.3C1165.94,1079.3 1165.92,1053.99 1165.33,1028.68C1164.75,1004.13 1163.99,979.573 1138.03,978.12Z" style="fill:rgb(3,103,107);fill-rule:nonzero;"/>
    </g>
    <g transform="matrix(4.16667,0,0,4.16667,-3557.96,-3104.9)">
        <path d="M1162.87,1065.92C1162.87,1065.92 1168.48,1062.05 1170.57,1062.97C1172.65,1063.89 1171.01,1067.79 1171.01,1067.79L1162.87,1065.92Z" style="fill:rgb(247,155,130);fill-rule:nonzero;"/>
    </g>
    <g transform="matrix(4.16667,0,0,4.16667,-3557.96,-3104.9)">
        <path d="M1171.67,1053.99C1181.69,1050.46 1175.58,1015.99 1175.58,1015.99L1169.66,1015.94C1169.66,1015.94 1161.65,1057.53 1171.67,1053.99Z" style="fill:rgb(247,155,130);fill-rule:nonzero;"/>
    </g>
    <g transform="matrix(4.16667,0,0,4.16667,-3557.96,-3104.9)">
        <path d="M1177.15,1016.01L1170.16,1020.21C1170.16,1020.21 1140.64,972.457 1155.23,985.031C1170.45,998.15 1177.15,1016.01 1177.15,1016.01Z" style="fill:rgb(3,103,107);fill-rule:nonzero;"/>
    </g>
    <g transform="matrix(4.16667,0,0,4.16667,-3557.96,-3104.9)">
        <path d="M1142.43,1239.36C1142.43,1239.36 1142.46,1246.21 1156.2,1250.31C1159.02,1251.16 1158.11,1251.99 1158.64,1253.18L1142.82,1253.18L1136.63,1246.21L1134.7,1247.87L1130.24,1243.48C1130.24,1243.48 1132.32,1237.13 1135.72,1237.08C1138.53,1238.03 1142.43,1239.36 1142.43,1239.36Z" style="fill:rgb(26,45,86);fill-rule:nonzero;"/>
    </g>
    <g transform="matrix(4.16667,0,0,4.16667,-3557.96,-3104.9)">
        <path d="M1145,1233.44L1142.43,1239.36C1140.09,1240.03 1137.58,1239.27 1136,1237.41L1135.72,1237.08L1137.8,1230.98L1145,1233.44Z" style="fill:rgb(250,176,138);fill-rule:nonzero;"/>
    </g>
    <g transform="matrix(4.16667,0,0,4.16667,-3557.96,-3104.9)">
        <path d="M1100.78,1022.28C1100.78,1022.28 1110.15,978.678 1132.31,979.69C1154.46,980.701 1122.68,1025.41 1122.68,1025.41L1100.78,1022.28Z" style="fill:rgb(3,103,107);fill-rule:nonzero;"/>
    </g>
    <g transform="matrix(4.16667,0,0,4.16667,-3557.96,-3104.9)">
        <path d="M1171.54,1054.73C1185.43,1043.51 1158.15,984.901 1158.15,984.901L1151.54,985.565C1151.54,985.565 1152.05,1063.28 1171.54,1054.73Z" style="fill:rgb(250,176,138);fill-rule:nonzero;"/>
    </g>
    <g transform="matrix(4.16667,0,0,4.16667,-3557.96,-3104.9)">
        <path d="M1148.14,980.278L1147.3,975.983L1135.96,973.725L1132.31,978.262L1148.14,980.278Z" style="fill:rgb(18,139,140);fill-rule:nonzero;"/>
    </g>
    <g transform="matrix(4.16667,0,0,4.16667,-3557.96,-3104.9)">
        <path d="M1158.15,984.901L1158.99,973.725C1158.99,973.725 1153.42,965.173 1148.14,967.469C1147.17,969.809 1148.86,974.533 1148.86,974.533L1151.54,985.565L1158.15,984.901Z" style="fill:rgb(250,176,138);fill-rule:nonzero;"/>
    </g>
    <g transform="matrix(4.16667,0,0,4.16667,-3557.96,-3104.9)">
        <path d="M1165.94,1079.3C1165.94,1079.3 1173.9,1129.23 1172.03,1152.33C1170.16,1175.43 1144.84,1235.78 1144.84,1235.78L1133.82,1232.58C1133.82,1232.58 1132.99,1192.2 1143.81,1165.7C1146.18,1159.88 1146.08,1153.36 1143.81,1147.51C1134.93,1124.5 1131.46,1109.2 1131.46,1109.2L1132.31,1079.3L1165.94,1079.3Z" style="fill:rgb(26,45,86);fill-rule:nonzero;"/>
    </g>
    <g transform="matrix(4.16667,0,0,4.16667,-3557.96,-3104.9)">
        <path d="M1157.46,984.435L1157.65,984.416L1158.45,973.872C1157.71,972.794 1152.96,966.229 1148.56,967.876C1147.98,969.701 1148.93,973.141 1149.38,974.408L1149.41,974.535C1149.04,974.436 1148.65,974.377 1148.24,974.342C1147.86,973.17 1146.76,969.406 1147.65,967.264L1147.73,967.066L1147.93,966.978C1153.54,964.545 1159.2,973.068 1159.44,973.433L1159.54,973.585L1158.65,985.387L1158,985.453C1157.85,985.1 1157.66,984.76 1157.46,984.435Z" style="fill:rgb(247,155,130);fill-rule:nonzero;"/>
    </g>
    <g transform="matrix(4.16667,0,0,4.16667,-3557.96,-3104.9)">
        <path d="M1120.98,1242.98C1120.98,1242.98 1125.91,1247.56 1137.15,1250.42C1139.63,1251.05 1142.3,1250.21 1142.3,1254.29L1128.65,1254.29L1117.3,1252.33L1117.3,1254.29L1111.17,1254.29C1111.17,1254.29 1109.46,1244.27 1113.05,1242.98L1120.98,1242.98Z" style="fill:rgb(26,45,86);fill-rule:nonzero;"/>
    </g>
    <g transform="matrix(4.16667,0,0,4.16667,-3557.96,-3104.9)">
        <path d="M1119.77,1235.78L1120.98,1242.98C1118.74,1244.53 1115.8,1244.63 1113.47,1243.23L1113.05,1242.98L1113.66,1235.78L1119.77,1235.78Z" style="fill:rgb(250,176,138);fill-rule:nonzero;"/>
    </g>
    <g transform="matrix(4.16667,0,0,4.16667,-3557.96,-3104.9)">
        <path d="M1149.11,1079.3L1122.6,1237.92L1112,1237.92C1112,1237.92 1102.86,1195.19 1109.92,1160.68C1111.14,1154.69 1111.3,1148.53 1110.39,1142.48C1103.67,1097.93 1108.79,1079.3 1108.79,1079.3L1149.11,1079.3Z" style="fill:rgb(1,63,96);fill-rule:nonzero;"/>
    </g>
    <g transform="matrix(4.16667,0,0,4.16667,-3557.96,-3104.9)">
        <path d="M1226.62,1042.66L1177.42,1042.66C1176.94,1042.66 1176.51,1042.93 1176.3,1043.36L1160.44,1076.03C1160.03,1076.86 1160.64,1077.82 1161.55,1077.82L1210.76,1077.82C1211.24,1077.82 1211.67,1077.54 1211.88,1077.12L1227.74,1044.44C1228.14,1043.62 1227.54,1042.66 1226.62,1042.66Z" style="fill:rgb(26,45,86);fill-rule:nonzero;"/>
    </g>
    <g transform="matrix(4.16667,0,0,4.16667,-3557.96,-3104.9)">
        <path d="M1196.32,1055.47C1196.32,1056.62 1197.25,1057.55 1198.4,1057.55C1199.56,1057.55 1200.49,1056.62 1200.49,1055.47C1200.49,1054.32 1199.56,1053.39 1198.4,1053.39C1197.25,1053.39 1196.32,1054.32 1196.32,1055.47Z" style="fill:rgb(231,231,229);fill-rule:nonzero;"/>
    </g>
    <g transform="matrix(4.16667,0,0,4.16667,-3557.96,-3104.9)">
        <path d="M1122.68,1025.41L1120.01,1043.51L1163.77,1065.32L1158.99,1070.06C1158.99,1070.06 1109.86,1061.22 1102.92,1054.73C1095.97,1048.24 1100.78,1022.28 1100.78,1022.28L1122.68,1025.41Z" style="fill:rgb(250,176,138);fill-rule:nonzero;"/>
    </g>
    <g transform="matrix(4.16667,0,0,4.16667,-3557.96,-3104.9)">
        <path d="M1156.32,1069.15L1166.63,1075.77C1170.78,1077.68 1174.45,1074.7 1177.44,1070.49C1179.29,1067.89 1177.4,1064.31 1174.2,1064.36C1170.5,1064.42 1166,1065.17 1163.77,1065.32L1156.32,1069.15Z" style="fill:rgb(250,176,138);fill-rule:nonzero;"/>
    </g>
    <g transform="matrix(4.16667,0,0,4.16667,-3557.96,-3104.9)">
        <path d="M1045.97,990.056L1040.68,1001.86L1032.08,994.112L1038.15,976.91L1045.97,990.056Z" style="fill:rgb(253,213,191);fill-rule:nonzero;"/>
    </g>
    <g transform="matrix(4.16667,0,0,4.16667,-3557.96,-3104.9)">
        <path d="M1049.03,990.804C1050.47,990.997 1051.84,990.98 1052.64,990.472C1057.87,984.546 1056.08,967.093 1056.08,967.093L1049.95,961.815L1040.59,966.186L1038.15,975.778C1037.5,978.942 1038.39,984.493 1040.56,986.892C1042.95,988.97 1045.88,990.384 1049.03,990.804Z" style="fill:rgb(253,213,191);fill-rule:nonzero;"/>
    </g>
    <g transform="matrix(4.16667,0,0,4.16667,-3557.96,-3104.9)">
        <path d="M1050.44,1053.4C1050.44,1053.4 1052.55,1056.48 1056.78,1057.93C1061.01,1059.38 1092.52,1052.77 1092.52,1052.77L1098.84,1053.44C1102.15,1054.34 1105.67,1054.15 1108.87,1052.92L1118.13,1049.33L1063.78,1048.2L1042.97,1022.36L1050.44,1053.4Z" style="fill:rgb(251,194,164);fill-rule:nonzero;"/>
    </g>
    <g transform="matrix(4.16667,0,0,4.16667,-3557.96,-3104.9)">
        <path d="M1032.08,994.112C1032.08,994.112 1019.52,1010.2 1016.59,1020.77C1013.65,1031.35 1012.6,1060.51 1012.6,1060.51L1039.02,1060.51C1039.02,1060.51 1046.61,1046.75 1052.5,1034.27C1054.27,1030.53 1054.34,1026.2 1052.67,1022.42C1048.35,1012.64 1041.88,999.203 1041.88,999.203L1032.08,994.112Z" style="fill:rgb(52,42,112);fill-rule:nonzero;"/>
    </g>
    <g transform="matrix(4.16667,0,0,4.16667,-3557.96,-3104.9)">
        <path d="M1045.5,1236.48L1047.59,1241.94C1048.11,1243.43 1049.11,1244.71 1050.45,1245.56C1051.92,1246.5 1054.23,1247.82 1057.66,1248.84C1053.46,1252.42 1046.78,1248.68 1042.95,1246.03C1041.09,1244.74 1039.77,1242.81 1039.22,1240.61L1038.34,1236.48L1045.5,1236.48Z" style="fill:rgb(247,155,130);fill-rule:nonzero;"/>
    </g>
    <g transform="matrix(4.16667,0,0,4.16667,-3557.96,-3104.9)">
        <path d="M1038.8,1239.32C1038.8,1239.32 1035.96,1241.55 1036.48,1244.4C1037,1247.25 1037.73,1253.91 1037.73,1253.91L1040.66,1253.91L1040.57,1247.69C1040.57,1247.29 1046.83,1253.91 1047.89,1253.91L1063.35,1253.91C1063.35,1253.91 1064.38,1249.72 1055.3,1248.37C1046.22,1247.02 1038.8,1239.32 1038.8,1239.32Z" style="fill:rgb(1,63,96);fill-rule:nonzero;"/>
    </g>
    <g transform="matrix(4.16667,0,0,4.16667,-3557.96,-3104.9)">
        <path d="M1015.45,1236.48L1017.54,1241.94C1018.06,1243.43 1019.06,1244.71 1020.4,1245.56C1021.87,1246.5 1024.18,1247.82 1027.61,1248.84C1023.41,1252.42 1016.73,1248.68 1012.9,1246.03C1011.04,1244.74 1009.72,1242.81 1009.17,1240.61L1008.29,1236.48L1015.45,1236.48Z" style="fill:rgb(247,155,130);fill-rule:nonzero;"/>
    </g>
    <g transform="matrix(4.16667,0,0,4.16667,-3557.96,-3104.9)">
        <path d="M1008.75,1239.32C1008.75,1239.32 1005.91,1241.55 1006.43,1244.4C1006.95,1247.25 1007.68,1253.91 1007.68,1253.91L1010.61,1253.91L1010.52,1247.69C1010.52,1247.29 1016.78,1253.91 1017.84,1253.91L1033.3,1253.91C1033.3,1253.91 1034.33,1249.72 1025.25,1248.37C1016.17,1247.02 1008.75,1239.32 1008.75,1239.32Z" style="fill:rgb(1,63,96);fill-rule:nonzero;"/>
    </g>
    <g transform="matrix(4.16667,0,0,4.16667,-3557.96,-3104.9)">
        <path d="M1039.02,1060.97C1039.02,1060.97 1052.14,1080.63 1040.92,1158.99C1042.68,1188.61 1045.97,1237.35 1045.97,1237.35L1038.52,1237.35C1038.52,1237.35 1017.89,1185.43 1024.81,1159.57C1026.46,1133.95 1020.11,1060.51 1020.11,1060.51L1039.02,1060.97Z" style="fill:rgb(109,95,169);fill-rule:nonzero;"/>
    </g>
    <g transform="matrix(4.16667,0,0,4.16667,-3557.96,-3104.9)">
        <path d="M1012.6,1060.51C1012.6,1060.51 998.87,1071.55 998.87,1087.94C998.87,1100.8 1005.07,1127.44 1008.62,1144.88C1009.91,1151.21 1008.61,1157.75 1006.83,1163.96C999.568,1189.26 1008.39,1237.35 1008.39,1237.35L1015.79,1237.35C1015.79,1237.35 1016.2,1212.61 1026.33,1157.16C1037.96,1093.47 1039.02,1060.51 1039.02,1060.51L1012.6,1060.51Z" style="fill:rgb(120,104,174);fill-rule:nonzero;"/>
    </g>
    <g transform="matrix(4.16667,0,0,4.16667,-3557.96,-3104.9)">
        <path d="M1119.62,1049.33L1076.44,1049.33L1076.44,1046.16L1117.7,1046.16L1136.03,1011.31L1138.84,1012.79L1119.62,1049.33Z" style="fill:white;fill-rule:nonzero;"/>
    </g>
    <g transform="matrix(4.16667,0,0,4.16667,-3557.96,-3104.9)">
        <path d="M1020.11,1023.6C1020.11,1023.6 1033.9,1055.7 1040.53,1055.7C1047.16,1055.7 1083.85,1040 1083.85,1040L1082.87,1034.52L1045.41,1040.87C1045.41,1040.87 1042.09,1032.02 1039.79,1021.87C1038.87,1017.85 1035.76,1014.57 1031.71,1013.8C1022.85,1012.13 1020.11,1023.6 1020.11,1023.6Z" style="fill:rgb(253,213,191);fill-rule:nonzero;"/>
    </g>
    <g transform="matrix(4.16667,0,0,4.16667,-3557.96,-3104.9)">
        <path d="M1038.41,972.647C1038.41,972.647 1042.5,975.119 1055.02,967.093C1056.94,967.594 1053.88,949.552 1037.68,954.852C1026.34,958.562 1026.89,969.537 1027.41,975.608C1027.98,982.168 1024.56,986.496 1020.05,991.293C1016.27,995.317 1016.33,1002.72 1013.81,1006.7C1010.71,1011.6 1007.42,1011.31 1004.96,1016.28C1002.39,1021.48 1002.04,1027.84 1005.48,1032.51C1007.44,1035.16 1012.01,1041.57 1019.23,1039.29C1023.29,1038.01 1024.38,1030.93 1024.56,1024.96C1024.72,1019.65 1027.29,1014.72 1031.45,1011.41C1035.34,1008.31 1039.6,1004.05 1040.74,999.619C1042.97,990.918 1038.41,972.647 1038.41,972.647Z" style="fill:rgb(255,207,83);fill-rule:nonzero;"/>
    </g>
    <g transform="matrix(4.16667,0,0,4.16667,-3557.96,-3104.9)">
        <path d="M1036.94,972.996C1037.91,972.328 1039.44,972.736 1040.37,973.908C1041.29,975.081 1041.26,976.573 1040.3,977.242C1039.33,977.911 1037.8,977.501 1036.87,976.33C1035.95,975.157 1035.98,973.665 1036.94,972.996Z" style="fill:rgb(253,213,191);fill-rule:nonzero;"/>
    </g>
    <g transform="matrix(4.16667,0,0,4.16667,-3557.96,-3104.9)">
        <path d="M1103.4,1037.34C1103.49,1036.55 1103.06,1035.8 1102.33,1035.48L1095.28,1032.42C1093.54,1031.66 1091.58,1031.57 1089.77,1032.17L1082.79,1034.49L1081.84,1034.53L1081.09,1041.03C1082.49,1040.52 1083.31,1040.2 1083.31,1040.2L1087.73,1038.59C1087.73,1038.59 1097.37,1046.77 1100.81,1039.35C1101.85,1046.7 1103.94,1045.88 1103.94,1045.88L1103.4,1037.34Z" style="fill:rgb(253,213,191);fill-rule:nonzero;"/>
    </g>
    <g transform="matrix(4.16667,0,0,4.16667,-3557.96,-3104.9)">
        <path d="M1032.2,966.329C1033.59,971.35 1040.72,973.759 1048.14,971.71C1055.56,969.662 1059.58,964.092 1059.06,958.909C1058.37,952.101 1050.53,951.478 1043.12,953.527C1035.7,955.576 1030.81,961.307 1032.2,966.329Z" style="fill:rgb(255,207,83);fill-rule:nonzero;"/>
    </g>
    <g transform="matrix(4.16667,0,0,4.16667,-3557.96,-3104.9)">
        <path d="M1063.31,1244.85C1063.31,1244.85 1068.23,1249.33 1079.45,1252.13C1081.92,1252.74 1084.59,1251.92 1084.59,1255.92L1070.97,1255.92L1059.64,1254L1059.64,1255.92L1053.53,1255.92C1053.53,1255.92 1051.82,1246.11 1055.4,1244.85L1063.31,1244.85Z" style="fill:rgb(26,45,86);fill-rule:nonzero;"/>
    </g>
    <g transform="matrix(4.16667,0,0,4.16667,-3557.96,-3104.9)">
        <path d="M1062.62,1237.81L1063.31,1244.85C1061.08,1246.37 1058.15,1246.46 1055.82,1245.1L1055.4,1244.85L1054.13,1237.81L1062.62,1237.81Z" style="fill:rgb(122,92,59);fill-rule:nonzero;"/>
    </g>
    <g transform="matrix(4.16667,0,0,4.16667,-3557.96,-3104.9)">
        <path d="M1121.37,1244.85C1121.37,1244.85 1126.29,1249.33 1137.51,1252.13C1139.98,1252.74 1142.64,1251.92 1142.64,1255.92L1129.02,1255.92L1117.7,1254L1117.7,1255.92L1111.58,1255.92C1111.58,1255.92 1109.88,1246.11 1113.45,1244.85L1121.37,1244.85Z" style="fill:rgb(26,45,86);fill-rule:nonzero;"/>
    </g>
    <g transform="matrix(4.16667,0,0,4.16667,-3557.96,-3104.9)">
        <path d="M1118.46,1237.81L1121.37,1244.85C1119.13,1246.37 1116.2,1246.46 1113.87,1245.1L1113.45,1244.85L1108.86,1237.81L1118.46,1237.81Z" style="fill:rgb(122,92,59);fill-rule:nonzero;"/>
    </g>
    <g transform="matrix(4.16667,0,0,4.16667,-3557.96,-3104.9)">
        <path d="M921.373,1255.92L943.203,1181.28L940.025,1180.26L917.894,1255.92L921.373,1255.92Z" style="fill:rgb(255,216,117);fill-rule:nonzero;"/>
    </g>
    <g transform="matrix(4.16667,0,0,4.16667,-3557.96,-3104.9)">
        <path d="M1023.64,1255.92L1001.51,1180.26L998.332,1181.28L1020.16,1255.92L1023.64,1255.92Z" style="fill:rgb(255,216,117);fill-rule:nonzero;"/>
    </g>
    <g transform="matrix(4.16667,0,0,4.16667,-3557.96,-3104.9)">
        <path d="M941.614,1053.65L937.746,1066.28L924.553,1061.33L935.058,1043.65L941.614,1053.65Z" style="fill:rgb(96,73,46);fill-rule:nonzero;"/>
    </g>
    <g transform="matrix(4.16667,0,0,4.16667,-3557.96,-3104.9)">
        <path d="M944.668,1057.55C946.194,1058.14 947.686,1058.5 948.667,1058.21C955.679,1053.72 957.903,1034.59 957.903,1034.59L952.186,1028.74L941.037,1030.53L935.724,1041.74C934.306,1044.73 934.538,1048.27 936.349,1051.28C938.485,1054.03 941.348,1056.26 944.668,1057.55Z" style="fill:rgb(122,92,59);fill-rule:nonzero;"/>
    </g>
    <g transform="matrix(4.16667,0,0,4.16667,-3557.96,-3104.9)">
        <path d="M939.702,1037.59C940.995,1035.87 942.606,1031.34 944.425,1032.48C945.752,1033.32 950.552,1035.57 952.195,1036.27C956.112,1037.91 963.739,1039.32 966.249,1033.36C967.503,1030.38 965.695,1026.6 964.186,1025.06C962.705,1023.55 960.661,1022.74 958.552,1022.6C953.604,1022.3 946.484,1023.21 944.396,1021.79C940.883,1019.41 936.106,1020.05 934.788,1023.33C933.379,1026.84 932.99,1032.84 933.301,1036.89C933.481,1039.23 934.079,1041.52 935.058,1043.65L939.702,1037.59Z" style="fill:rgb(52,42,112);fill-rule:nonzero;"/>
    </g>
    <g transform="matrix(4.16667,0,0,4.16667,-3557.96,-3104.9)">
        <path d="M935.549,1036.35C936.747,1035.94 938.319,1036.78 939.061,1038.21C939.803,1039.64 939.434,1041.13 938.237,1041.53C937.04,1041.94 935.467,1041.1 934.725,1039.67C933.983,1038.24 934.352,1036.75 935.549,1036.35Z" style="fill:rgb(122,92,59);fill-rule:nonzero;"/>
    </g>
    <g transform="matrix(4.16667,0,0,4.16667,-3557.96,-3104.9)">
        <path d="M916.452,1071.43L875.629,1090.46C875.629,1090.46 907.223,1181.54 962.649,1190.6C1018.08,1199.65 1051.17,1174.08 1054.13,1172.67C974.565,1150.32 916.452,1071.43 916.452,1071.43Z" style="fill:rgb(249,164,39);fill-rule:nonzero;"/>
    </g>
    <g transform="matrix(4.16667,0,0,4.16667,-3557.96,-3104.9)">
        <path d="M916.452,1071.43L875.629,1090.46C875.629,1090.46 911.657,1172.67 967.083,1181.73C1022.51,1190.79 1052.21,1173.96 1054.13,1172.67C971.24,1149.77 916.452,1071.43 916.452,1071.43Z" style="fill:rgb(255,216,117);fill-rule:nonzero;"/>
    </g>
    <g transform="matrix(4.16667,0,0,4.16667,-3557.96,-3104.9)">
        <path d="M980.385,1133.7L1041.86,1132.74C1047.45,1132.65 1052.21,1136.81 1052.88,1142.36L1063.5,1239.75L1054.29,1239.75C1054.29,1239.75 1032.35,1193.13 1035.93,1168.82C1039.51,1144.52 950.508,1148.48 950.508,1148.48L980.385,1133.7Z" style="fill:rgb(26,45,86);fill-rule:nonzero;"/>
    </g>
    <g transform="matrix(4.16667,0,0,4.16667,-3557.96,-3104.9)">
        <path d="M924.951,1059.71C888.058,1097.39 935.301,1162.89 935.301,1162.89L980.385,1133.7C963.318,1103.66 962.271,1101.8 938.361,1061.41C935.517,1056.61 928.857,1055.72 924.951,1059.71Z" style="fill:rgb(90,163,217);fill-rule:nonzero;"/>
    </g>
    <g transform="matrix(4.16667,0,0,4.16667,-3557.96,-3104.9)">
        <path d="M1009.57,1112.46C1009.57,1111.63 1009.02,1110.89 1008.23,1110.65L1000.53,1108.31C998.62,1107.74 996.567,1107.88 994.761,1108.72L987.769,1111.98L986.79,1112.13L986.79,1118.99C988.181,1118.28 988.994,1117.86 988.994,1117.86L993.402,1115.65C993.402,1115.65 1004.42,1123 1007.12,1114.86C1009.08,1122.39 1011.16,1121.28 1011.16,1121.28L1009.57,1112.46Z" style="fill:rgb(122,92,59);fill-rule:nonzero;"/>
    </g>
    <g transform="matrix(4.16667,0,0,4.16667,-3557.96,-3104.9)">
        <path d="M928.285,1067.39C908.146,1067.39 909.511,1112.29 911.626,1133.74C912.264,1140.21 918.199,1144.86 924.618,1143.82C954.211,1139.05 990.362,1118.18 990.362,1118.18L987.776,1111.9L935.301,1122.24C935.301,1122.24 954.15,1067.39 928.285,1067.39Z" style="fill:rgb(90,163,217);fill-rule:nonzero;"/>
    </g>
    <g transform="matrix(4.16667,0,0,4.16667,-3557.96,-3104.9)">
        <path d="M988.115,1111.26L936.129,1121.51C937.455,1117.46 942.446,1101.3 942.505,1087.58C942.126,1087.82 941.741,1088.04 941.351,1088.27C941.064,1103.51 934.866,1121.8 934.777,1122.06L934.464,1122.97L987.436,1112.53L989.664,1117.94C985.529,1120.27 951.979,1138.85 924.529,1143.27C921.604,1143.74 918.691,1143.01 916.334,1141.19C913.95,1139.35 912.473,1136.69 912.177,1133.69C911.62,1128.04 910.655,1115.76 911.23,1103.32C910.864,1103.44 910.496,1103.55 910.125,1103.65C909.569,1116.05 910.52,1128.17 911.074,1133.8C911.396,1137.06 913.066,1140.07 915.657,1142.07C917.747,1143.68 920.23,1144.52 922.802,1144.52C923.433,1144.52 924.069,1144.47 924.706,1144.37C954.061,1139.63 990.277,1118.87 990.639,1118.66L991.06,1118.42L988.115,1111.26Z" style="fill:white;fill-rule:nonzero;"/>
    </g>
    <g transform="matrix(4.16667,0,0,4.16667,-3557.96,-3104.9)">
        <path d="M935.301,1162.89C935.301,1162.89 945.166,1184.69 986.667,1184.69C1028.17,1184.69 1056.5,1169.91 1056.5,1169.91C1056.5,1169.91 1068.85,1201.32 1110.07,1239.75L1119.93,1239.75L1078.24,1153.27C1074.47,1145.66 1066.52,1141.02 1058.03,1141.48L960.12,1146.82L935.301,1162.89Z" style="fill:rgb(1,63,96);fill-rule:nonzero;"/>
    </g>
    <g transform="matrix(4.16667,0,0,4.16667,-3557.96,-3104.9)">
        <path d="M930.473,1051.37L939.823,1059.5L939.159,1062.76L925.662,1059.12L930.473,1051.37Z" style="fill:white;fill-rule:nonzero;"/>
    </g>
    <g transform="matrix(4.16667,0,0,4.16667,-3557.96,-3104.9)">
        <path d="M1026.44,1135.91L978.168,1135.91L978.168,1132.59L1024.36,1132.59L1049.41,1081.03L1052.4,1082.48L1026.44,1135.91Z" style="fill:white;fill-rule:nonzero;"/>
    </g>
    <g transform="matrix(4.16667,0,0,4.16667,-3557.96,-3104.9)">
        <path d="M922.796,1246.99L921.579,1245.13L1003.06,1191.61L1004.27,1193.46L922.796,1246.99Z" style="fill:rgb(255,216,117);fill-rule:nonzero;"/>
    </g>
    <g transform="matrix(4.16667,0,0,4.16667,-3557.96,-3104.9)">
        <path d="M1019.41,1246.99L1020.62,1245.13L939.146,1191.61L937.93,1193.46L1019.41,1246.99Z" style="fill:rgb(255,216,117);fill-rule:nonzero;"/>
    </g>
    <g transform="matrix(4.16667,0,0,4.16667,-3557.96,-3104.9)">
        <path d="M1649.71,1241.68C1649.71,1241.68 1645.23,1245.83 1635.02,1248.43C1632.77,1249 1630.35,1248.24 1630.35,1251.95L1642.74,1251.95L1653.04,1250.16L1653.04,1251.95L1658.61,1251.95C1658.61,1251.95 1660.16,1242.85 1656.91,1241.68L1649.71,1241.68Z" style="fill:rgb(26,45,86);fill-rule:nonzero;"/>
    </g>
    <g transform="matrix(4.16667,0,0,4.16667,-3557.96,-3104.9)">
        <path d="M1650.33,1235.14L1649.71,1241.68C1651.74,1243.09 1654.4,1243.18 1656.53,1241.91L1656.91,1241.68L1659.22,1235.14L1650.33,1235.14Z" style="fill:rgb(250,176,138);fill-rule:nonzero;"/>
    </g>
    <g transform="matrix(4.16667,0,0,4.16667,-3557.96,-3104.9)">
        <path d="M1699.22,1241.68C1699.22,1241.68 1694.75,1245.83 1684.54,1248.43C1682.29,1249 1679.87,1248.24 1679.87,1251.95L1692.25,1251.95L1702.56,1250.16L1702.56,1251.95L1708.12,1251.95C1708.12,1251.95 1709.67,1242.85 1706.42,1241.68L1699.22,1241.68Z" style="fill:rgb(26,45,86);fill-rule:nonzero;"/>
    </g>
    <g transform="matrix(4.16667,0,0,4.16667,-3557.96,-3104.9)">
        <path d="M1699.85,1235.14L1699.22,1241.68C1701.25,1243.09 1703.92,1243.18 1706.04,1241.91L1706.42,1241.68L1708.73,1235.14L1699.85,1235.14Z" style="fill:rgb(250,176,138);fill-rule:nonzero;"/>
    </g>
    <g transform="matrix(4.16667,0,0,4.16667,-3557.96,-3104.9)">
        <path d="M1669.44,1071.52L1655.19,1071.52L1650.18,1236.7L1659.81,1236.7L1688.1,1102.26L1669.44,1071.52Z" style="fill:rgb(71,46,140);fill-rule:nonzero;"/>
    </g>
    <g transform="matrix(4.16667,0,0,4.16667,-3557.96,-3104.9)">
        <path d="M1664.82,1071.52L1698.13,1236.7L1708.73,1236.7L1704.39,1071.52L1664.82,1071.52Z" style="fill:rgb(86,67,155);fill-rule:nonzero;"/>
    </g>
    <g transform="matrix(4.16667,0,0,4.16667,-3557.96,-3104.9)">
        <path d="M1693.76,1107.84L1696.96,1107.61C1696.96,1107.6 1696.84,1105.35 1698.44,1103.72C1699.68,1102.46 1701.67,1101.82 1704.35,1101.82C1707.29,1101.82 1709.49,1102.47 1710.72,1103.7C1711.94,1104.91 1711.89,1106.33 1711.89,1106.39L1715.09,1106.57C1715.11,1106.29 1715.21,1103.8 1713.1,1101.64C1711.23,1099.72 1708.28,1098.75 1704.35,1098.75C1700.72,1098.75 1697.94,1099.72 1696.07,1101.65C1693.52,1104.28 1693.75,1107.69 1693.76,1107.84Z" style="fill:rgb(26,45,86);fill-rule:nonzero;"/>
    </g>
    <g transform="matrix(4.16667,0,0,4.16667,-3557.96,-3104.9)">
        <rect x="1680.13" y="1111.55" width="47.7" height="30.69" style="fill:rgb(26,45,86);fill-rule:nonzero;"/>
    </g>
    <g transform="matrix(4.16667,0,0,4.16667,-3557.96,-3104.9)">
        <path d="M1702.23,1132.24C1702.23,1134.11 1703.12,1134.32 1704.23,1134.32C1705.32,1134.32 1706.22,1134.11 1706.22,1132.24L1706.22,1125.73C1719.96,1124.3 1727.83,1121.86 1727.83,1121.86L1727.83,1146.07C1727.83,1148.23 1726.99,1149.98 1725.72,1149.98L1682.24,1149.98C1680.97,1149.98 1680.13,1148.23 1680.13,1146.07L1680.13,1121.94C1690.09,1124.25 1690.73,1124.3 1702.23,1125.68L1702.23,1132.24Z" style="fill:rgb(255,216,117);fill-rule:nonzero;"/>
    </g>
    <g transform="matrix(4.16667,0,0,4.16667,-3557.96,-3104.9)">
        <path d="M1689.74,1124.01C1691.96,1128.33 1694.26,1132.56 1697.15,1136.51C1700.61,1141.25 1704.5,1145.71 1708.57,1149.98L1682.24,1149.98C1680.97,1149.98 1680.13,1148.23 1680.13,1146.07L1680.13,1121.94C1684.6,1122.98 1687.2,1123.56 1689.74,1124.01Z" style="fill:rgb(249,164,39);fill-rule:nonzero;"/>
    </g>
    <g transform="matrix(4.16667,0,0,4.16667,-3557.96,-3104.9)">
        <path d="M1682.24,1104.97L1725.72,1104.97C1726.99,1104.97 1727.83,1106.72 1727.83,1108.88L1727.83,1120.62C1720.22,1123.15 1712.82,1124.14 1706.22,1124.3L1706.22,1122.71C1706.22,1120.84 1705.32,1120.62 1704.23,1120.62C1703.12,1120.62 1702.23,1120.84 1702.23,1122.71L1702.23,1124.29C1689.22,1123.96 1680.13,1120.62 1680.13,1120.62L1680.13,1108.88C1680.13,1106.72 1680.97,1104.97 1682.24,1104.97Z" style="fill:rgb(87,196,196);fill-rule:nonzero;"/>
    </g>
    <g transform="matrix(4.16667,0,0,4.16667,-3557.96,-3104.9)">
        <path d="M1702.48,1126.79C1702.14,1126.79 1701.86,1127.07 1701.86,1127.41L1701.86,1129.43C1701.86,1129.77 1702.14,1130.04 1702.48,1130.04L1705.93,1130.04C1706.27,1130.04 1706.54,1129.77 1706.54,1129.43L1706.54,1127.41C1706.54,1127.07 1706.27,1126.79 1705.93,1126.79L1702.48,1126.79ZM1701.61,1129.43L1701.61,1127.41C1701.61,1126.93 1702,1126.55 1702.48,1126.55L1705.93,1126.55C1706.4,1126.55 1706.79,1126.93 1706.79,1127.41L1706.79,1129.43C1706.79,1129.9 1706.4,1130.29 1705.93,1130.29L1702.48,1130.29C1702,1130.29 1701.61,1129.9 1701.61,1129.43Z" style="fill:white;fill-rule:nonzero;"/>
    </g>
    <g transform="matrix(4.16667,0,0,4.16667,-3557.96,-3104.9)">
        <path d="M1703.98,1128.19C1703.98,1128.3 1704.08,1128.4 1704.2,1128.4C1704.32,1128.4 1704.42,1128.3 1704.42,1128.19L1704.42,1125.37C1704.42,1125.26 1704.32,1125.17 1704.2,1125.17C1704.08,1125.17 1703.98,1125.26 1703.98,1125.37L1703.98,1128.19Z" style="fill:white;fill-rule:nonzero;"/>
    </g>
    <g transform="matrix(4.16667,0,0,4.16667,-3557.96,-3104.9)">
        <path d="M1586.63,1046.96C1586.13,1047.35 1584.31,1048.54 1579.9,1048.91C1575.93,1049.24 1567.49,1047.51 1569.1,1051.43C1572.89,1053.48 1577.11,1056.34 1577.11,1056.34C1579.53,1057.35 1583.81,1056.3 1586.36,1055.14L1593.75,1050.62C1593.75,1050.62 1594.39,1046.46 1594.45,1046.27L1592.76,1045.58C1590.79,1046.37 1588.71,1046.81 1586.63,1046.96Z" style="fill:rgb(252,190,133);fill-rule:nonzero;"/>
    </g>
    <g transform="matrix(4.16667,0,0,4.16667,-3557.96,-3104.9)">
        <path d="M1585.27,1048.7C1585.27,1048.7 1585.14,1048.89 1584.83,1049.18C1585.36,1049.39 1585.86,1049.63 1586.36,1049.88C1588.44,1049.94 1590.51,1050.06 1592.59,1050.13C1592.46,1048.94 1592.28,1047.26 1592.29,1047.14L1578.8,1043.92C1578.8,1043.92 1577.71,1045.35 1580.18,1046.87C1582.64,1048.4 1585.27,1048.7 1585.27,1048.7Z" style="fill:rgb(252,190,133);fill-rule:nonzero;"/>
    </g>
    <g transform="matrix(4.16667,0,0,4.16667,-3557.96,-3104.9)">
        <path d="M1702.14,1090.74L1697.66,1100.6C1697.66,1100.6 1698.62,1106.02 1700.6,1108.13C1701.2,1108.76 1702.15,1108.94 1702.95,1108.6C1704.82,1107.83 1709.13,1105.96 1709.84,1104.94C1710.19,1104.43 1710.25,1103.77 1710.06,1103.18L1708.76,1098.84L1708.59,1088.72L1702.14,1090.74Z" style="fill:rgb(252,190,133);fill-rule:nonzero;"/>
    </g>
    <g transform="matrix(4.16667,0,0,4.16667,-3557.96,-3104.9)">
        <path d="M1675.75,972.233L1675.6,985.44L1687.36,984.807L1688.1,964.334L1675.75,972.233Z" style="fill:rgb(249,178,123);fill-rule:nonzero;"/>
    </g>
    <g transform="matrix(4.16667,0,0,4.16667,-3557.96,-3104.9)">
        <path d="M1673.78,973.454C1672.14,973.409 1670.62,973.163 1669.82,972.512C1665.08,965.617 1670.48,947.026 1670.48,947.026L1678.06,943.835L1687.69,949.842L1688.23,962.299C1688.38,965.626 1686.79,968.816 1683.94,970.892C1680.88,972.605 1677.36,973.552 1673.78,973.454Z" style="fill:rgb(252,190,133);fill-rule:nonzero;"/>
    </g>
    <g transform="matrix(4.16667,0,0,4.16667,-3557.96,-3104.9)">
        <path d="M1685.01,956.902C1684.48,954.809 1685.92,949.981 1683.79,950.33C1682.23,950.585 1676.9,950.803 1675.11,950.803C1670.84,950.803 1663.23,949.132 1663.23,942.631C1663.23,939.381 1665.22,937.736 1667.22,936.903C1669.18,936.085 1671.39,938.435 1673.4,939.136C1678.1,940.78 1687.81,942.112 1690.29,941.596C1693.11,941.011 1696.07,943.889 1696.28,945.61C1696.76,949.379 1694.24,955.123 1692.37,958.752C1691.29,960.853 1689.85,962.737 1688.1,964.334L1685.01,956.902Z" style="fill:rgb(26,45,86);fill-rule:nonzero;"/>
    </g>
    <g transform="matrix(4.16667,0,0,4.16667,-3557.96,-3104.9)">
        <path d="M1690.5,957.373C1689.55,956.532 1687.77,956.691 1686.52,957.728C1685.27,958.764 1685.04,960.287 1685.99,961.127C1686.94,961.968 1688.72,961.809 1689.97,960.772C1691.21,959.735 1691.45,958.212 1690.5,957.373Z" style="fill:rgb(252,190,133);fill-rule:nonzero;"/>
    </g>
    <g transform="matrix(4.16667,0,0,4.16667,-3557.96,-3104.9)">
        <path d="M1681.85,981.295C1687.22,981.295 1691.81,982.427 1695.66,984.126C1705.16,988.309 1711.88,997.006 1714.26,1007.11C1718,1023 1724.28,1060.72 1709.89,1093.78C1705.65,1094.17 1700.26,1093.78 1700.26,1093.78L1698.72,1015.84L1699.81,1071.52L1655.19,1071.52L1655.19,1035.61C1655.19,1035.61 1654.03,1043.72 1643.25,1051.21C1632.46,1058.7 1592.01,1053.72 1592.01,1053.72L1592.01,1045.28C1592.01,1045.28 1627.45,1037.83 1633.23,1033.45C1639.01,1029.06 1651.49,997.469 1651.49,997.469C1655.4,989.756 1662.54,984.069 1671.01,982.323C1674.08,981.689 1677.67,981.295 1681.85,981.295Z" style="fill:white;fill-rule:nonzero;"/>
    </g>
    <g transform="matrix(4.16667,0,0,4.16667,-3557.96,-3104.9)">
        <path d="M1699.19,1071.83L1698.14,1018.18L1699.3,1018.14L1700.36,1071.83L1699.19,1071.83Z" style="fill:rgb(161,214,197);fill-rule:nonzero;"/>
    </g>
    <g transform="matrix(4.16667,0,0,4.16667,-3557.96,-3104.9)">
        <path d="M1687.58,977.535L1688.31,981.873L1674.79,981.847L1675.67,977.535L1687.58,977.535Z" style="fill:white;fill-rule:nonzero;"/>
    </g>
    <g transform="matrix(4.16667,0,0,4.16667,-3557.96,-3104.9)">
        <path d="M1451.39,1238.37C1451.39,1238.37 1448.33,1240 1448.33,1242.77C1448.34,1245.55 1447.89,1251.97 1447.89,1251.97L1450.65,1252.47L1451.63,1246.59C1451.71,1246.2 1456.58,1252.81 1459.89,1256.12L1472.08,1256.36C1472.08,1256.36 1473.77,1252.57 1465.43,1249.74C1457.09,1246.92 1451.39,1238.37 1451.39,1238.37Z" style="fill:rgb(52,42,112);fill-rule:nonzero;"/>
    </g>
    <g transform="matrix(4.16667,0,0,4.16667,-3557.96,-3104.9)">
        <path d="M1461.3,1189.7C1461.35,1187.64 1461.62,1184.28 1462.02,1182.26C1463.41,1175.18 1466.34,1169.75 1468.11,1166.96C1471.1,1165.85 1473.96,1164.47 1477.01,1163.26C1480.21,1161.99 1483.66,1161.19 1487.81,1160.19C1487.66,1160.61 1487.51,1161.02 1487.35,1161.43C1469.49,1208.54 1459.51,1229.94 1457.95,1235C1457.71,1235.78 1457.5,1236.54 1457.58,1237.35C1457.84,1239.79 1458.98,1245.02 1466.13,1250C1458.53,1251.89 1451.39,1238.37 1451.39,1238.37C1451.39,1238.37 1460.92,1205.91 1461.3,1189.7Z" style="fill:rgb(137,105,86);fill-rule:nonzero;"/>
    </g>
    <g transform="matrix(4.16667,0,0,4.16667,-3557.96,-3104.9)">
        <path d="M1498.09,999.159L1497.29,1011.96L1484.78,1009.38L1486.28,991.974L1498.09,999.159Z" style="fill:rgb(137,105,86);fill-rule:nonzero;"/>
    </g>
    <g transform="matrix(4.16667,0,0,4.16667,-3557.96,-3104.9)">
        <path d="M1500.98,999.292C1502.81,999.236 1504.5,998.937 1505.38,998.145C1510.65,989.748 1504.65,967.11 1504.65,967.11L1485.53,970.539L1484.92,985.709C1484.76,989.758 1486.53,993.643 1489.7,996.172C1493.09,998.257 1497,999.412 1500.98,999.292Z" style="fill:rgb(158,120,98);fill-rule:nonzero;"/>
    </g>
    <g transform="matrix(4.16667,0,0,4.16667,-3557.96,-3104.9)">
        <path d="M1488.67,1242.84C1488.67,1242.84 1486.04,1244.91 1486.52,1247.54C1487,1250.18 1487.69,1256.36 1487.69,1256.36L1490.39,1256.36L1490.31,1250.6C1490.32,1250.22 1496.11,1256.36 1497.09,1256.36L1511.41,1256.36C1511.41,1256.36 1512.36,1252.47 1503.95,1251.22C1495.55,1249.97 1488.67,1242.84 1488.67,1242.84Z" style="fill:rgb(52,42,112);fill-rule:nonzero;"/>
    </g>
    <g transform="matrix(4.16667,0,0,4.16667,-3557.96,-3104.9)">
        <path d="M1481.41,1194.2C1480.74,1192.25 1479.83,1189.01 1479.5,1186.97C1478.36,1179.85 1478.26,1169.86 1478.94,1166.63C1481.36,1164.55 1484.53,1166.15 1486.98,1163.95C1489.54,1161.66 1492.5,1159.7 1496.04,1157.34C1496.05,1157.77 1496.04,1158.21 1496.04,1158.65C1495.63,1209.04 1493.68,1232.57 1493.98,1237.86C1494.02,1238.66 1496.41,1249.08 1504.85,1251.26C1498.38,1255.67 1488.67,1242.84 1488.67,1242.84C1488.67,1242.84 1486.68,1209.54 1481.41,1194.2Z" style="fill:rgb(158,120,98);fill-rule:nonzero;"/>
    </g>
    <g transform="matrix(4.16667,0,0,4.16667,-3557.96,-3104.9)">
        <path d="M1497.42,1009.78L1509.44,1029.41C1510.91,1032.52 1511.3,1036.05 1510.54,1039.41L1502.91,1072.9C1502.46,1074.85 1502.22,1076.83 1502.18,1078.82L1500.35,1166.63L1462,1166.63C1462,1166.63 1466.87,1149.3 1469.3,1126.92C1471.74,1104.55 1464.61,1094.82 1466.6,1085.02C1467.77,1079.25 1471.2,1071.95 1476.04,1065.91C1478.58,1062.74 1479.91,1058.78 1480.01,1054.72C1480.42,1038.11 1463.03,992.264 1479.63,1003.42C1496.23,1014.58 1497.42,1009.78 1497.42,1009.78Z" style="fill:rgb(125,194,235);fill-rule:nonzero;"/>
    </g>
    <g transform="matrix(4.16667,0,0,4.16667,-3557.96,-3104.9)">
        <path d="M1498.09,1059.44L1498.99,1062.66C1499.49,1064.45 1500.12,1065.13 1501.57,1067.53C1505.8,1074.58 1520.04,1091.85 1520.04,1091.85L1531.56,1098.38C1531.56,1098.38 1531.32,1100.04 1528.71,1099.56C1526.1,1099.09 1524.2,1097.66 1524.2,1097.66C1524.2,1097.66 1523.72,1099.56 1526.1,1103.36C1527.87,1106.2 1533.57,1111.04 1529.66,1111.91C1526.1,1110.36 1521.73,1107.52 1521.73,1107.52C1519.69,1106.39 1518.27,1104.4 1517.88,1102.1L1516.84,1096L1492.39,1076.02C1489.68,1073.8 1487.65,1070.85 1486.54,1067.52L1486.46,1067.28L1498.09,1059.44Z" style="fill:rgb(158,120,98);fill-rule:nonzero;"/>
    </g>
    <g transform="matrix(4.16667,0,0,4.16667,-3557.96,-3104.9)">
        <path d="M1564.56,1039.51C1565.14,1039.55 1567.13,1039.49 1570.52,1037.42C1573.57,1035.56 1578.67,1029.72 1579.75,1033.6C1578.18,1037.2 1576.78,1041.66 1576.78,1041.66C1575.61,1043.73 1571.92,1045.21 1569.42,1045.67L1561.51,1046.14C1561.51,1046.14 1558.68,1043.27 1558.53,1043.16L1559.35,1041.73C1561.22,1041.28 1562.97,1040.51 1564.56,1039.51Z" style="fill:rgb(158,120,98);fill-rule:nonzero;"/>
    </g>
    <g transform="matrix(4.16667,0,0,4.16667,-3557.96,-3104.9)">
        <path d="M1486.12,1068.23L1498.73,1059.73L1493.93,1026.13L1492.75,1026.3L1497.44,1059.16L1486.8,1066.33L1478.96,1039.57L1477.81,1039.91L1486.12,1068.23Z" style="fill:rgb(78,147,207);fill-rule:nonzero;"/>
    </g>
    <g transform="matrix(4.16667,0,0,4.16667,-3557.96,-3104.9)">
        <path d="M1491.2,976.122C1494.87,978.186 1498.62,978.616 1501.52,978.508C1505.3,978.369 1510.04,975.278 1511.63,971.849C1512.97,968.958 1513.27,965.953 1508.81,962.591C1505.75,960.321 1501.96,961.744 1500.32,963.214C1499.11,964.308 1497.32,964.387 1496.07,963.331C1493.72,961.335 1489.48,958.793 1483.13,958.793C1476.48,958.793 1476.66,965.244 1477.67,969.928C1478.27,972.714 1477.12,975.599 1474.69,977.099C1470.74,979.544 1465.72,983.531 1466.75,987.517C1467.58,990.721 1469.48,993.668 1471.17,995.812C1472.82,997.905 1472.84,1000.88 1471.23,1003C1468.77,1006.24 1465.9,1010.94 1466.75,1014.34C1467.56,1017.56 1469.96,1021.7 1471.89,1024.68C1473.26,1026.8 1473.25,1029.5 1471.9,1031.62C1470.84,1033.29 1469.99,1035.53 1470.55,1038.08C1470.96,1039.99 1471.91,1041.78 1472.98,1043.3C1474.78,1045.89 1478.72,1045.58 1480.12,1042.75C1484.48,1033.96 1492.1,1015.96 1489.44,1002.23C1488.1,995.351 1486.28,983.205 1486.28,983.205C1486.28,983.205 1484.32,973.193 1491.2,976.122Z" style="fill:rgb(26,45,86);fill-rule:nonzero;"/>
    </g>
    <g transform="matrix(4.16667,0,0,4.16667,-3557.96,-3104.9)">
        <path d="M1501.14,1050.46L1515.78,1058.05C1517.61,1059 1519.73,1059.21 1521.71,1058.63L1561.98,1045.91L1561.98,1040.83L1522.73,1045.6L1510.46,1039.07L1501.14,1050.46Z" style="fill:rgb(158,120,98);fill-rule:nonzero;"/>
    </g>
    <g transform="matrix(4.16667,0,0,4.16667,-3557.96,-3104.9)">
        <path d="M1483.78,979.709C1484.83,978.685 1486.82,978.878 1488.2,980.141C1489.58,981.404 1489.85,983.257 1488.79,984.282C1487.73,985.305 1485.75,985.111 1484.37,983.848C1482.98,982.585 1482.72,980.732 1483.78,979.709Z" style="fill:rgb(158,120,98);fill-rule:nonzero;"/>
    </g>
    <g transform="matrix(4.16667,0,0,4.16667,-3557.96,-3104.9)">
        <path d="M1498.09,1049.02L1502.14,1023.98L1519.53,1043.96L1514.76,1059.51L1498.19,1050.94C1498.69,1049.03 1498.19,1050.94 1498.09,1049.02Z" style="fill:rgb(125,194,235);fill-rule:nonzero;"/>
    </g>
    <g transform="matrix(4.16667,0,0,4.16667,-3557.96,-3104.9)">
        <path d="M1505.31,1062.37C1504.84,1062.03 1504.84,1062.03 1504.37,1061.72L1509.84,1039.25C1510.57,1036.06 1510.2,1032.67 1508.83,1029.78L1496.97,1010.36C1497.35,1010.09 1497.23,1010.13 1497.42,1009.78C1497.47,1009.7 1497.95,1009.68 1498.08,1009.66L1510.08,1029.1C1511.62,1032.35 1512.03,1036.07 1511.23,1039.57" style="fill:rgb(78,147,207);fill-rule:nonzero;"/>
    </g>
    <g transform="matrix(4.16667,0,0,4.16667,-3557.96,-3104.9)">
        <path d="M1566.53,1040.13C1566.53,1040.13 1566.74,1040.21 1567.12,1040.26C1566.86,1040.71 1566.63,1041.16 1566.42,1041.62C1564.95,1042.77 1563.53,1043.97 1562.08,1045.14C1561.49,1044.15 1560.65,1042.76 1560.58,1042.67L1568.47,1033C1568.47,1033 1570.06,1033.51 1569.16,1036C1568.25,1038.5 1566.53,1040.13 1566.53,1040.13Z" style="fill:rgb(158,120,98);fill-rule:nonzero;"/>
    </g>
    <defs>
        <linearGradient id="_Linear1" x1="0" y1="0" x2="1" y2="0" gradientUnits="userSpaceOnUse" gradientTransform="matrix(3.22414,0,0,3.22414,1329.4,1046.81)"><stop offset="0" style="stop-color:rgb(213,236,229);stop-opacity:1"/><stop offset="1" style="stop-color:rgb(177,224,233);stop-opacity:1"/></linearGradient>
    </defs>
</svg>
