<?xml version="1.0" encoding="UTF-8" standalone="no"?>
<!DOCTYPE svg PUBLIC "-//W3C//DTD SVG 1.1//EN" "http://www.w3.org/Graphics/SVG/1.1/DTD/svg11.dtd">
<svg width="100%" height="100%" viewBox="0 0 3467 2771" version="1.1" xmlns="http://www.w3.org/2000/svg" xmlns:xlink="http://www.w3.org/1999/xlink" xml:space="preserve" xmlns:serif="http://www.serif.com/" style="fill-rule:evenodd;clip-rule:evenodd;stroke-linejoin:round;stroke-miterlimit:2;">
    <g transform="matrix(4.16667,0,0,4.16667,-3731.16,-5679.08)">
        <path d="M1029.04,1890.3L1029.04,1517.21C1029.04,1513.59 1031.97,1510.66 1035.59,1510.66L1587.41,1510.66C1591.03,1510.66 1593.96,1513.59 1593.96,1517.21L1593.96,1890.3C1593.96,1893.91 1591.03,1896.85 1587.41,1896.85L1035.59,1896.85C1031.97,1896.85 1029.04,1893.91 1029.04,1890.3Z" style="fill:rgb(180,204,227);fill-rule:nonzero;"/>
    </g>
    <g transform="matrix(4.16667,0,0,4.16667,-3731.16,-5679.08)">
        <path d="M1588.46,1851.85L1034.54,1851.85C1031.51,1851.85 1029.04,1849.37 1029.04,1846.34L1029.04,1516.17C1029.04,1513.14 1031.51,1510.66 1034.54,1510.66L1588.46,1510.66C1591.48,1510.66 1593.96,1513.14 1593.96,1516.17L1593.96,1846.34C1593.96,1849.37 1591.48,1851.85 1588.46,1851.85Z" style="fill:rgb(38,77,138);fill-rule:nonzero;"/>
    </g>
    <g transform="matrix(4.16667,0,0,4.16667,-3731.16,-5679.08)">
        <path d="M1559.41,1825.66L1062.06,1825.66C1054.72,1825.66 1048.79,1819.7 1048.81,1812.37L1049.53,1546.39C1049.55,1539.08 1055.48,1533.17 1062.78,1533.17L1560.14,1533.17C1567.48,1533.17 1573.41,1539.13 1573.39,1546.46L1572.67,1812.44C1572.65,1819.75 1566.72,1825.66 1559.41,1825.66Z" style="fill:rgb(70,110,181);fill-rule:nonzero;"/>
    </g>
    <g transform="matrix(4.16667,0,0,4.16667,-3731.16,-5679.08)">
        <path d="M1523.35,1637.88C1479.83,1701.19 1425.85,1757.26 1364.06,1802.92C1353.36,1810.83 1342.42,1818.41 1331.28,1825.66L1559.42,1825.66C1566.72,1825.66 1572.65,1819.75 1572.67,1812.44L1573.38,1552.67C1558.75,1582.21 1542.03,1610.71 1523.35,1637.88Z" style="fill:rgb(60,105,178);fill-rule:nonzero;"/>
    </g>
    <g transform="matrix(4.16667,0,0,4.16667,-3731.16,-5679.08)">
        <path d="M1707.71,2000.79L915.29,2000.79L915.29,2008.17C915.29,2012.29 918.75,2012 918.75,2012L1704.25,2012C1704.25,2012 1707.71,2012.29 1707.71,2008.17L1707.71,2000.79Z" style="fill:rgb(38,77,138);fill-rule:nonzero;"/>
    </g>
    <g transform="matrix(4.16667,0,0,4.16667,-3731.16,-5679.08)">
        <path d="M1705.81,2002.94L917.189,2002.94C915.454,2002.94 914.631,2000.81 915.918,1999.64L1028.93,1897.45C1029.28,1897.13 1029.73,1896.96 1030.2,1896.96L1592.8,1896.96C1593.27,1896.96 1593.72,1897.13 1594.07,1897.45L1707.08,1999.64C1708.37,2000.81 1707.55,2002.94 1705.81,2002.94Z" style="fill:rgb(217,228,241);fill-rule:nonzero;"/>
    </g>
    <g transform="matrix(4.16667,0,0,4.16667,-3731.16,-5679.08)">
        <path d="M1423.38,1991.49L1199.69,1991.49C1196.77,1991.49 1195.61,1989.22 1197.08,1986.5L1208.18,1965.96C1209.35,1963.79 1212.35,1962.06 1214.87,1962.06L1408.19,1962.06C1410.72,1962.06 1413.72,1963.79 1414.89,1965.96L1425.99,1986.5C1427.46,1989.22 1426.3,1991.49 1423.38,1991.49Z" style="fill:rgb(180,204,227);fill-rule:nonzero;"/>
    </g>
    <g transform="matrix(4.16667,0,0,4.16667,-3731.16,-5679.08)">
        <path d="M1082.53,1907.17L1060.53,1907.17C1057.46,1907.17 1055.6,1906.6 1056.36,1905.9L1058.59,1903.85C1059.33,1903.17 1062.37,1902.62 1065.38,1902.62L1086.95,1902.62C1089.96,1902.62 1091.88,1903.17 1091.23,1903.85L1089.29,1905.9C1088.62,1906.6 1085.6,1907.17 1082.53,1907.17Z" style="fill:rgb(180,204,227);fill-rule:nonzero;"/>
    </g>
    <g transform="matrix(4.16667,0,0,4.16667,-3731.16,-5679.08)">
        <path d="M1119.63,1907.17L1097.63,1907.17C1094.56,1907.17 1092.61,1906.6 1093.26,1905.9L1095.17,1903.85C1095.8,1903.17 1098.75,1902.62 1101.76,1902.62L1123.34,1902.62C1126.34,1902.62 1128.35,1903.17 1127.81,1903.85L1126.19,1905.9C1125.63,1906.6 1122.7,1907.17 1119.63,1907.17Z" style="fill:rgb(180,204,227);fill-rule:nonzero;"/>
    </g>
    <g transform="matrix(4.16667,0,0,4.16667,-3731.16,-5679.08)">
        <path d="M1156.73,1907.17L1134.73,1907.17C1131.66,1907.17 1129.62,1906.6 1130.16,1905.9L1131.74,1903.85C1132.27,1903.17 1135.14,1902.62 1138.15,1902.62L1159.72,1902.62C1162.73,1902.62 1164.82,1903.17 1164.39,1903.85L1163.09,1905.9C1162.64,1906.6 1159.8,1907.17 1156.73,1907.17Z" style="fill:rgb(180,204,227);fill-rule:nonzero;"/>
    </g>
    <g transform="matrix(4.16667,0,0,4.16667,-3731.16,-5679.08)">
        <path d="M1193.83,1907.17L1171.83,1907.17C1168.76,1907.17 1166.63,1906.6 1167.06,1905.9L1168.32,1903.85C1168.74,1903.17 1171.52,1902.62 1174.53,1902.62L1196.1,1902.62C1199.11,1902.62 1201.29,1903.17 1200.97,1903.85L1199.99,1905.9C1199.65,1906.6 1196.9,1907.17 1193.83,1907.17Z" style="fill:rgb(180,204,227);fill-rule:nonzero;"/>
    </g>
    <g transform="matrix(4.16667,0,0,4.16667,-3731.16,-5679.08)">
        <path d="M1230.93,1907.17L1208.93,1907.17C1205.86,1907.17 1203.64,1906.6 1203.96,1905.9L1204.9,1903.85C1205.21,1903.17 1207.91,1902.62 1210.92,1902.62L1232.49,1902.62C1235.5,1902.62 1237.76,1903.17 1237.54,1903.85L1236.89,1905.9C1236.66,1906.6 1233.99,1907.17 1230.93,1907.17Z" style="fill:rgb(180,204,227);fill-rule:nonzero;"/>
    </g>
    <g transform="matrix(4.16667,0,0,4.16667,-3731.16,-5679.08)">
        <path d="M1268.03,1907.17L1246.03,1907.17C1242.96,1907.17 1240.65,1906.6 1240.86,1905.9L1241.48,1903.85C1241.69,1903.17 1244.29,1902.62 1247.3,1902.62L1268.87,1902.62C1271.88,1902.62 1274.23,1903.17 1274.12,1903.85L1273.79,1905.9C1273.67,1906.6 1271.09,1907.17 1268.03,1907.17Z" style="fill:rgb(180,204,227);fill-rule:nonzero;"/>
    </g>
    <g transform="matrix(4.16667,0,0,4.16667,-3731.16,-5679.08)">
        <path d="M1305.13,1907.17L1283.13,1907.17C1280.06,1907.17 1277.66,1906.6 1277.76,1905.9L1278.06,1903.85C1278.16,1903.17 1280.68,1902.62 1283.68,1902.62L1305.26,1902.62C1308.27,1902.62 1310.7,1903.17 1310.7,1903.85L1310.69,1905.9C1310.68,1906.6 1308.19,1907.17 1305.13,1907.17Z" style="fill:rgb(180,204,227);fill-rule:nonzero;"/>
    </g>
    <g transform="matrix(4.16667,0,0,4.16667,-3731.16,-5679.08)">
        <path d="M1342.22,1907.17L1320.23,1907.17C1317.16,1907.17 1314.67,1906.6 1314.66,1905.9L1314.63,1903.85C1314.63,1903.17 1317.06,1902.62 1320.07,1902.62L1341.64,1902.62C1344.65,1902.62 1347.17,1903.17 1347.28,1903.85L1347.59,1905.9C1347.69,1906.6 1345.29,1907.17 1342.22,1907.17Z" style="fill:rgb(180,204,227);fill-rule:nonzero;"/>
    </g>
    <g transform="matrix(4.16667,0,0,4.16667,-3731.16,-5679.08)">
        <path d="M1379.32,1907.17L1357.33,1907.17C1354.26,1907.17 1351.67,1906.6 1351.56,1905.9L1351.21,1903.85C1351.1,1903.17 1353.44,1902.62 1356.45,1902.62L1378.03,1902.62C1381.04,1902.62 1383.65,1903.17 1383.86,1903.85L1384.49,1905.9C1384.7,1906.6 1382.39,1907.17 1379.32,1907.17Z" style="fill:rgb(180,204,227);fill-rule:nonzero;"/>
    </g>
    <g transform="matrix(4.16667,0,0,4.16667,-3731.16,-5679.08)">
        <path d="M1416.42,1907.17L1394.42,1907.17C1391.36,1907.17 1388.69,1906.6 1388.46,1905.9L1387.79,1903.85C1387.57,1903.17 1389.83,1902.62 1392.84,1902.62L1414.41,1902.62C1417.42,1902.62 1420.12,1903.17 1420.43,1903.85L1421.39,1905.9C1421.71,1906.6 1419.49,1907.17 1416.42,1907.17Z" style="fill:rgb(180,204,227);fill-rule:nonzero;"/>
    </g>
    <g transform="matrix(4.16667,0,0,4.16667,-3731.16,-5679.08)">
        <path d="M1453.52,1907.17L1431.52,1907.17C1428.46,1907.17 1425.69,1906.6 1425.36,1905.9L1424.37,1903.85C1424.04,1903.17 1426.21,1902.62 1429.22,1902.62L1450.8,1902.62C1453.81,1902.62 1456.59,1903.17 1457.01,1903.85L1458.29,1905.9C1458.72,1906.6 1456.59,1907.17 1453.52,1907.17Z" style="fill:rgb(180,204,227);fill-rule:nonzero;"/>
    </g>
    <g transform="matrix(4.16667,0,0,4.16667,-3731.16,-5679.08)">
        <path d="M1490.62,1907.17L1468.62,1907.17C1465.56,1907.17 1462.7,1906.6 1462.26,1905.9L1460.95,1903.85C1460.51,1903.17 1462.6,1902.62 1465.61,1902.62L1487.18,1902.62C1490.19,1902.62 1493.06,1903.17 1493.59,1903.85L1495.19,1905.9C1495.73,1906.6 1493.69,1907.17 1490.62,1907.17Z" style="fill:rgb(180,204,227);fill-rule:nonzero;"/>
    </g>
    <g transform="matrix(4.16667,0,0,4.16667,-3731.16,-5679.08)">
        <path d="M1527.72,1907.17L1505.72,1907.17C1502.65,1907.17 1499.71,1906.6 1499.16,1905.9L1497.52,1903.85C1496.98,1903.17 1498.98,1902.62 1501.99,1902.62L1523.57,1902.62C1526.58,1902.62 1529.53,1903.17 1530.17,1903.85L1532.09,1905.9C1532.74,1906.6 1530.79,1907.17 1527.72,1907.17Z" style="fill:rgb(180,204,227);fill-rule:nonzero;"/>
    </g>
    <g transform="matrix(4.16667,0,0,4.16667,-3731.16,-5679.08)">
        <path d="M1564.82,1907.17L1542.82,1907.17C1539.75,1907.17 1536.72,1906.6 1536.06,1905.9L1534.1,1903.85C1533.45,1903.17 1535.37,1902.62 1538.38,1902.62L1559.95,1902.62C1562.96,1902.62 1566,1903.17 1566.75,1903.85L1568.99,1905.9C1569.75,1906.6 1567.89,1907.17 1564.82,1907.17Z" style="fill:rgb(180,204,227);fill-rule:nonzero;"/>
    </g>
    <g transform="matrix(4.16667,0,0,4.16667,-3731.16,-5679.08)">
        <path d="M1077.4,1915.01L1048.95,1915.01C1048.24,1915.01 1047.82,1914.87 1048,1914.7L1055.09,1908.16C1055.26,1908 1055.96,1907.87 1056.64,1907.87L1084.26,1907.87C1084.95,1907.87 1085.38,1908 1085.23,1908.16L1078.97,1914.7C1078.81,1914.87 1078.11,1915.01 1077.4,1915.01Z" style="fill:rgb(180,204,227);fill-rule:nonzero;"/>
    </g>
    <g transform="matrix(4.16667,0,0,4.16667,-3731.16,-5679.08)">
        <path d="M1127.21,1923.83L1097.73,1923.83C1097,1923.83 1096.53,1923.69 1096.68,1923.51L1102.66,1916.48C1102.81,1916.31 1103.5,1916.18 1104.21,1916.18L1132.8,1916.18C1133.51,1916.18 1133.99,1916.31 1133.86,1916.48L1128.77,1923.51C1128.64,1923.69 1127.94,1923.83 1127.21,1923.83Z" style="fill:rgb(180,204,227);fill-rule:nonzero;"/>
    </g>
    <g transform="matrix(4.16667,0,0,4.16667,-3731.16,-5679.08)">
        <path d="M1129.18,1933.32L1098.6,1933.32C1097.84,1933.32 1097.35,1933.16 1097.51,1932.97L1103.69,1925.42C1103.84,1925.23 1104.56,1925.09 1105.29,1925.09L1134.92,1925.09C1135.65,1925.09 1136.15,1925.23 1136.02,1925.42L1130.8,1932.97C1130.67,1933.16 1129.94,1933.32 1129.18,1933.32Z" style="fill:rgb(180,204,227);fill-rule:nonzero;"/>
    </g>
    <g transform="matrix(4.16667,0,0,4.16667,-3731.16,-5679.08)">
        <path d="M1143.62,1943.54L1111.85,1943.54C1111.06,1943.54 1110.55,1943.37 1110.7,1943.16L1116.72,1935.02C1116.86,1934.82 1117.6,1934.67 1118.37,1934.67L1149.1,1934.67C1149.87,1934.67 1150.39,1934.82 1150.27,1935.02L1145.29,1943.16C1145.16,1943.37 1144.42,1943.54 1143.62,1943.54Z" style="fill:rgb(180,204,227);fill-rule:nonzero;"/>
    </g>
    <g transform="matrix(4.16667,0,0,4.16667,-3731.16,-5679.08)">
        <path d="M1038.06,1955.86L1005.04,1955.86C1004.16,1955.86 1003.66,1955.66 1003.93,1955.42L1014.77,1945.4C1015.02,1945.18 1015.9,1944.99 1016.74,1944.99L1048.5,1944.99C1049.35,1944.99 1049.86,1945.18 1049.64,1945.4L1040.07,1955.42C1039.84,1955.66 1038.94,1955.86 1038.06,1955.86Z" style="fill:rgb(180,204,227);fill-rule:nonzero;"/>
    </g>
    <g transform="matrix(4.16667,0,0,4.16667,-3731.16,-5679.08)">
        <path d="M1082.16,1955.86L1049.14,1955.86C1048.26,1955.86 1047.73,1955.66 1047.96,1955.42L1057.25,1945.4C1057.46,1945.18 1058.31,1944.99 1059.16,1944.99L1090.92,1944.99C1091.76,1944.99 1092.3,1945.18 1092.12,1945.4L1084.1,1955.42C1083.91,1955.66 1083.04,1955.86 1082.16,1955.86Z" style="fill:rgb(180,204,227);fill-rule:nonzero;"/>
    </g>
    <g transform="matrix(4.16667,0,0,4.16667,-3731.16,-5679.08)">
        <path d="M1124.92,1955.86L1091.9,1955.86C1091.02,1955.86 1090.47,1955.66 1090.65,1955.42L1098.45,1945.4C1098.62,1945.18 1099.45,1944.99 1100.29,1944.99L1132.06,1944.99C1132.9,1944.99 1133.47,1945.18 1133.32,1945.4L1126.8,1955.42C1126.64,1955.66 1125.8,1955.86 1124.92,1955.86Z" style="fill:rgb(180,204,227);fill-rule:nonzero;"/>
    </g>
    <g transform="matrix(4.16667,0,0,4.16667,-3731.16,-5679.08)">
        <path d="M1178.82,1955.86L1135.25,1955.86C1134.25,1955.86 1133.57,1955.63 1133.75,1955.36L1139.95,1945.46C1140.11,1945.2 1141.02,1944.99 1141.99,1944.99L1183.9,1944.99C1184.86,1944.99 1185.55,1945.2 1185.43,1945.46L1180.87,1955.36C1180.74,1955.63 1179.82,1955.86 1178.82,1955.86Z" style="fill:rgb(180,204,227);fill-rule:nonzero;"/>
    </g>
    <g transform="matrix(4.16667,0,0,4.16667,-3731.16,-5679.08)">
        <path d="M1446.86,1955.86L1403.29,1955.86C1402.29,1955.86 1401.4,1955.63 1401.32,1955.36L1398.21,1945.46C1398.13,1945.2 1398.85,1944.99 1399.81,1944.99L1441.72,1944.99C1442.69,1944.99 1443.57,1945.2 1443.69,1945.46L1448.43,1955.36C1448.57,1955.63 1447.86,1955.86 1446.86,1955.86Z" style="fill:rgb(180,204,227);fill-rule:nonzero;"/>
    </g>
    <g transform="matrix(4.16667,0,0,4.16667,-3731.16,-5679.08)">
        <path d="M1490.97,1955.86L1458.42,1955.86C1457.54,1955.86 1456.74,1955.66 1456.62,1955.42L1451.53,1945.4C1451.41,1945.17 1452,1944.99 1452.84,1944.99L1484.15,1944.99C1484.99,1944.99 1485.79,1945.17 1485.93,1945.4L1492.27,1955.42C1492.43,1955.66 1491.84,1955.86 1490.97,1955.86Z" style="fill:rgb(180,204,227);fill-rule:nonzero;"/>
    </g>
    <g transform="matrix(4.16667,0,0,4.16667,-3731.16,-5679.08)">
        <path d="M1392.42,1955.86L1191.37,1955.86C1189.27,1955.86 1187.76,1955.39 1188.02,1954.81L1191.87,1945.97C1192.11,1945.43 1193.94,1944.99 1195.97,1944.99L1389.36,1944.99C1391.39,1944.99 1393.16,1945.43 1393.32,1945.97L1395.93,1954.81C1396.1,1955.39 1394.53,1955.86 1392.42,1955.86Z" style="fill:rgb(180,204,227);fill-rule:nonzero;"/>
    </g>
    <g transform="matrix(4.16667,0,0,4.16667,-3731.16,-5679.08)">
        <path d="M1184.88,1943.54L1153.11,1943.54C1152.32,1943.54 1151.78,1943.37 1151.9,1943.16L1156.69,1935.02C1156.8,1934.82 1157.52,1934.67 1158.28,1934.67L1189.02,1934.67C1189.78,1934.67 1190.33,1934.82 1190.24,1935.02L1186.49,1943.16C1186.39,1943.37 1185.67,1943.54 1184.88,1943.54Z" style="fill:rgb(180,204,227);fill-rule:nonzero;"/>
    </g>
    <g transform="matrix(4.16667,0,0,4.16667,-3731.16,-5679.08)">
        <path d="M1226.14,1943.54L1194.37,1943.54C1193.58,1943.54 1193.01,1943.37 1193.1,1943.16L1196.66,1935.02C1196.74,1934.82 1197.43,1934.67 1198.2,1934.67L1228.93,1934.67C1229.7,1934.67 1230.27,1934.82 1230.21,1935.02L1227.69,1943.16C1227.62,1943.37 1226.93,1943.54 1226.14,1943.54Z" style="fill:rgb(180,204,227);fill-rule:nonzero;"/>
    </g>
    <g transform="matrix(4.16667,0,0,4.16667,-3731.16,-5679.08)">
        <path d="M1267.4,1943.54L1235.63,1943.54C1234.83,1943.54 1234.24,1943.37 1234.3,1943.16L1236.62,1935.02C1236.68,1934.82 1237.35,1934.67 1238.11,1934.67L1268.85,1934.67C1269.61,1934.67 1270.21,1934.82 1270.18,1935.02L1268.89,1943.16C1268.86,1943.37 1268.19,1943.54 1267.4,1943.54Z" style="fill:rgb(180,204,227);fill-rule:nonzero;"/>
    </g>
    <g transform="matrix(4.16667,0,0,4.16667,-3731.16,-5679.08)">
        <path d="M1308.65,1943.54L1276.88,1943.54C1276.09,1943.54 1275.47,1943.37 1275.5,1943.16L1276.59,1935.02C1276.62,1934.82 1277.26,1934.67 1278.03,1934.67L1308.76,1934.67C1309.53,1934.67 1310.15,1934.82 1310.15,1935.02L1310.09,1943.16C1310.09,1943.37 1309.44,1943.54 1308.65,1943.54Z" style="fill:rgb(180,204,227);fill-rule:nonzero;"/>
    </g>
    <g transform="matrix(4.16667,0,0,4.16667,-3731.16,-5679.08)">
        <path d="M1349.91,1943.54L1318.14,1943.54C1317.35,1943.54 1316.7,1943.37 1316.7,1943.16L1316.56,1935.02C1316.56,1934.82 1317.18,1934.67 1317.94,1934.67L1348.68,1934.67C1349.44,1934.67 1350.09,1934.82 1350.12,1935.02L1351.29,1943.16C1351.32,1943.37 1350.7,1943.54 1349.91,1943.54Z" style="fill:rgb(180,204,227);fill-rule:nonzero;"/>
    </g>
    <g transform="matrix(4.16667,0,0,4.16667,-3731.16,-5679.08)">
        <path d="M1391.17,1943.54L1359.4,1943.54C1358.61,1943.54 1357.94,1943.37 1357.9,1943.16L1356.53,1935.02C1356.5,1934.82 1357.09,1934.67 1357.86,1934.67L1388.59,1934.67C1389.36,1934.67 1390.03,1934.82 1390.09,1935.02L1392.49,1943.16C1392.55,1943.37 1391.96,1943.54 1391.17,1943.54Z" style="fill:rgb(180,204,227);fill-rule:nonzero;"/>
    </g>
    <g transform="matrix(4.16667,0,0,4.16667,-3731.16,-5679.08)">
        <path d="M1432.43,1943.54L1400.65,1943.54C1399.86,1943.54 1399.17,1943.37 1399.1,1943.16L1396.5,1935.02C1396.44,1934.82 1397.01,1934.67 1397.77,1934.67L1428.51,1934.67C1429.28,1934.67 1429.97,1934.82 1430.05,1935.02L1433.69,1943.16C1433.78,1943.37 1433.22,1943.54 1432.43,1943.54Z" style="fill:rgb(180,204,227);fill-rule:nonzero;"/>
    </g>
    <g transform="matrix(4.16667,0,0,4.16667,-3731.16,-5679.08)">
        <path d="M1473.68,1943.54L1441.91,1943.54C1441.12,1943.54 1440.4,1943.37 1440.3,1943.16L1436.47,1935.02C1436.38,1934.82 1436.92,1934.67 1437.69,1934.67L1468.42,1934.67C1469.19,1934.67 1469.91,1934.82 1470.02,1935.02L1474.89,1943.16C1475.01,1943.37 1474.47,1943.54 1473.68,1943.54Z" style="fill:rgb(180,204,227);fill-rule:nonzero;"/>
    </g>
    <g transform="matrix(4.16667,0,0,4.16667,-3731.16,-5679.08)">
        <path d="M1530.03,1956.03L1504.78,1956.03C1501.56,1956.03 1498.49,1955.31 1497.91,1954.43L1496.24,1951.88C1495.68,1951.02 1497.77,1950.32 1500.92,1950.32L1525.67,1950.32C1528.82,1950.32 1531.91,1951.02 1532.59,1951.88L1534.59,1954.43C1535.28,1955.31 1533.25,1956.03 1530.03,1956.03Z" style="fill:rgb(180,204,227);fill-rule:nonzero;"/>
    </g>
    <g transform="matrix(4.16667,0,0,4.16667,-3731.16,-5679.08)">
        <path d="M1573.31,1956.03L1548.06,1956.03C1544.84,1956.03 1541.66,1955.31 1540.95,1954.43L1538.89,1951.88C1538.19,1951.02 1540.19,1950.32 1543.33,1950.32L1568.08,1950.32C1571.23,1950.32 1574.43,1951.02 1575.24,1951.88L1577.63,1954.43C1578.46,1955.31 1576.53,1956.03 1573.31,1956.03Z" style="fill:rgb(180,204,227);fill-rule:nonzero;"/>
    </g>
    <g transform="matrix(4.16667,0,0,4.16667,-3731.16,-5679.08)">
        <path d="M1567.47,1949.65L1542.77,1949.65C1539.63,1949.65 1536.53,1948.96 1535.85,1948.11L1533.88,1945.67C1533.22,1944.85 1535.18,1944.19 1538.26,1944.19L1562.47,1944.19C1565.54,1944.19 1568.66,1944.85 1569.43,1945.67L1571.72,1948.11C1572.51,1948.96 1570.61,1949.65 1567.47,1949.65Z" style="fill:rgb(180,204,227);fill-rule:nonzero;"/>
    </g>
    <g transform="matrix(4.16667,0,0,4.16667,-3731.16,-5679.08)">
        <path d="M1616.59,1956.03L1591.34,1956.03C1588.12,1956.03 1584.83,1955.31 1583.99,1954.43L1581.54,1951.88C1580.71,1951.02 1582.6,1950.32 1585.75,1950.32L1610.5,1950.32C1613.64,1950.32 1616.95,1951.02 1617.89,1951.88L1620.67,1954.43C1621.63,1955.31 1619.81,1956.03 1616.59,1956.03Z" style="fill:rgb(180,204,227);fill-rule:nonzero;"/>
    </g>
    <g transform="matrix(4.16667,0,0,4.16667,-3731.16,-5679.08)">
        <path d="M1169.26,1933.32L1138.68,1933.32C1137.92,1933.32 1137.41,1933.16 1137.54,1932.97L1142.56,1925.42C1142.68,1925.23 1143.38,1925.09 1144.12,1925.09L1173.74,1925.09C1174.48,1925.09 1174.99,1925.23 1174.9,1925.42L1170.83,1932.97C1170.72,1933.16 1170.02,1933.32 1169.26,1933.32Z" style="fill:rgb(180,204,227);fill-rule:nonzero;"/>
    </g>
    <g transform="matrix(4.16667,0,0,4.16667,-3731.16,-5679.08)">
        <path d="M1209.34,1933.32L1178.76,1933.32C1178,1933.32 1177.46,1933.16 1177.56,1932.97L1181.43,1925.42C1181.53,1925.23 1182.2,1925.09 1182.94,1925.09L1212.56,1925.09C1213.3,1925.09 1213.84,1925.23 1213.77,1925.42L1210.85,1932.97C1210.78,1933.16 1210.1,1933.32 1209.34,1933.32Z" style="fill:rgb(180,204,227);fill-rule:nonzero;"/>
    </g>
    <g transform="matrix(4.16667,0,0,4.16667,-3731.16,-5679.08)">
        <path d="M1249.42,1933.32L1218.84,1933.32C1218.08,1933.32 1217.52,1933.16 1217.59,1932.97L1220.31,1925.42C1220.37,1925.23 1221.02,1925.09 1221.76,1925.09L1251.38,1925.09C1252.12,1925.09 1252.68,1925.23 1252.64,1925.42L1250.88,1932.97C1250.83,1933.16 1250.18,1933.32 1249.42,1933.32Z" style="fill:rgb(180,204,227);fill-rule:nonzero;"/>
    </g>
    <g transform="matrix(4.16667,0,0,4.16667,-3731.16,-5679.08)">
        <path d="M1289.25,1933.32L1258.67,1933.32C1257.91,1933.32 1257.33,1933.16 1257.37,1932.97L1258.94,1925.42C1258.98,1925.23 1259.61,1925.09 1260.35,1925.09L1289.97,1925.09C1290.71,1925.09 1291.29,1925.23 1291.28,1925.42L1290.66,1932.97C1290.64,1933.16 1290.01,1933.32 1289.25,1933.32Z" style="fill:rgb(180,204,227);fill-rule:nonzero;"/>
    </g>
    <g transform="matrix(4.16667,0,0,4.16667,-3731.16,-5679.08)">
        <path d="M1329.33,1933.32L1298.75,1933.32C1297.99,1933.32 1297.38,1933.16 1297.39,1932.97L1297.81,1925.42C1297.82,1925.23 1298.43,1925.09 1299.17,1925.09L1328.79,1925.09C1329.53,1925.09 1330.14,1925.23 1330.15,1925.42L1330.69,1932.97C1330.7,1933.16 1330.09,1933.32 1329.33,1933.32Z" style="fill:rgb(180,204,227);fill-rule:nonzero;"/>
    </g>
    <g transform="matrix(4.16667,0,0,4.16667,-3731.16,-5679.08)">
        <path d="M1367.69,1933.32L1337.11,1933.32C1336.35,1933.32 1335.72,1933.16 1335.7,1932.97L1335.02,1925.42C1335.01,1925.23 1335.59,1925.09 1336.33,1925.09L1365.95,1925.09C1366.69,1925.09 1367.32,1925.23 1367.36,1925.42L1369,1932.97C1369.04,1933.16 1368.46,1933.32 1367.69,1933.32Z" style="fill:rgb(180,204,227);fill-rule:nonzero;"/>
    </g>
    <g transform="matrix(4.16667,0,0,4.16667,-3731.16,-5679.08)">
        <path d="M1407.4,1933.32L1376.82,1933.32C1376.06,1933.32 1375.41,1933.16 1375.36,1932.97L1373.54,1925.42C1373.49,1925.23 1374.06,1925.09 1374.79,1925.09L1404.42,1925.09C1405.15,1925.09 1405.81,1925.23 1405.87,1925.42L1408.65,1932.97C1408.73,1933.16 1408.17,1933.32 1407.4,1933.32Z" style="fill:rgb(180,204,227);fill-rule:nonzero;"/>
    </g>
    <g transform="matrix(4.16667,0,0,4.16667,-3731.16,-5679.08)">
        <path d="M1447.12,1933.32L1416.54,1933.32C1415.77,1933.32 1415.1,1933.16 1415.02,1932.97L1412.05,1925.42C1411.98,1925.23 1412.52,1925.09 1413.26,1925.09L1442.88,1925.09C1443.62,1925.09 1444.29,1925.23 1444.39,1925.42L1448.31,1932.97C1448.41,1933.16 1447.88,1933.32 1447.12,1933.32Z" style="fill:rgb(180,204,227);fill-rule:nonzero;"/>
    </g>
    <g transform="matrix(4.16667,0,0,4.16667,-3731.16,-5679.08)">
        <path d="M1486.58,1933.32L1456,1933.32C1455.24,1933.32 1454.54,1933.16 1454.43,1932.97L1450.33,1925.42C1450.23,1925.23 1450.75,1925.09 1451.49,1925.09L1481.11,1925.09C1481.85,1925.09 1482.54,1925.23 1482.67,1925.42L1487.73,1932.97C1487.85,1933.16 1487.34,1933.32 1486.58,1933.32Z" style="fill:rgb(180,204,227);fill-rule:nonzero;"/>
    </g>
    <g transform="matrix(4.16667,0,0,4.16667,-3731.16,-5679.08)">
        <path d="M1526.05,1933.32L1495.47,1933.32C1494.71,1933.32 1493.98,1933.16 1493.85,1932.97L1488.61,1925.42C1488.48,1925.23 1488.98,1925.09 1489.72,1925.09L1519.34,1925.09C1520.08,1925.09 1520.8,1925.23 1520.95,1925.42L1527.14,1932.97C1527.3,1933.16 1526.81,1933.32 1526.05,1933.32Z" style="fill:rgb(180,204,227);fill-rule:nonzero;"/>
    </g>
    <g transform="matrix(4.16667,0,0,4.16667,-3731.16,-5679.08)">
        <path d="M1514.54,1943.54L1482.77,1943.54C1481.97,1943.54 1481.23,1943.37 1481.1,1943.16L1476.05,1935.02C1475.93,1934.82 1476.45,1934.67 1477.21,1934.67L1507.95,1934.67C1508.71,1934.67 1509.45,1934.82 1509.6,1935.02L1515.69,1943.16C1515.84,1943.37 1515.33,1943.54 1514.54,1943.54Z" style="fill:rgb(180,204,227);fill-rule:nonzero;"/>
    </g>
    <g transform="matrix(4.16667,0,0,4.16667,-3731.16,-5679.08)">
        <path d="M1595.97,1933.32L1536.92,1933.32C1535.87,1933.32 1534.84,1933.1 1534.62,1932.83L1528.42,1925.54C1528.21,1925.29 1528.86,1925.09 1529.87,1925.09L1587.07,1925.09C1588.08,1925.09 1589.12,1925.29 1589.39,1925.54L1597.34,1932.83C1597.63,1933.1 1597.01,1933.32 1595.97,1933.32Z" style="fill:rgb(180,204,227);fill-rule:nonzero;"/>
    </g>
    <g transform="matrix(4.16667,0,0,4.16667,-3731.16,-5679.08)">
        <path d="M1606.72,1943.54L1524.46,1943.54C1523.2,1943.54 1521.98,1943.27 1521.73,1942.94L1515.79,1935.23C1515.55,1934.92 1516.33,1934.67 1517.55,1934.67L1597.14,1934.67C1598.35,1934.67 1599.6,1934.92 1599.94,1935.23L1608.34,1942.94C1608.7,1943.27 1607.97,1943.54 1606.72,1943.54Z" style="fill:rgb(180,204,227);fill-rule:nonzero;"/>
    </g>
    <g transform="matrix(4.16667,0,0,4.16667,-3731.16,-5679.08)">
        <path d="M1089.44,1933.32L1029.76,1933.32C1028.7,1933.32 1028.09,1933.1 1028.38,1932.83L1036.27,1925.54C1036.54,1925.29 1037.59,1925.09 1038.61,1925.09L1096.42,1925.09C1097.44,1925.09 1098.09,1925.29 1097.88,1925.54L1091.75,1932.83C1091.52,1933.1 1090.49,1933.32 1089.44,1933.32Z" style="fill:rgb(180,204,227);fill-rule:nonzero;"/>
    </g>
    <g transform="matrix(4.16667,0,0,4.16667,-3731.16,-5679.08)">
        <path d="M1101.86,1943.54L1018.39,1943.54C1017.13,1943.54 1016.4,1943.27 1016.76,1942.94L1025.12,1935.23C1025.46,1934.92 1026.72,1934.67 1027.94,1934.67L1108.69,1934.67C1109.91,1934.67 1110.71,1934.92 1110.47,1935.23L1104.6,1942.94C1104.35,1943.27 1103.12,1943.54 1101.86,1943.54Z" style="fill:rgb(180,204,227);fill-rule:nonzero;"/>
    </g>
    <g transform="matrix(4.16667,0,0,4.16667,-3731.16,-5679.08)">
        <path d="M1165.64,1923.83L1136.16,1923.83C1135.43,1923.83 1134.94,1923.69 1135.06,1923.51L1139.98,1916.48C1140.1,1916.31 1140.77,1916.18 1141.48,1916.18L1170.07,1916.18C1170.78,1916.18 1171.28,1916.31 1171.18,1916.48L1167.15,1923.51C1167.05,1923.69 1166.37,1923.83 1165.64,1923.83Z" style="fill:rgb(180,204,227);fill-rule:nonzero;"/>
    </g>
    <g transform="matrix(4.16667,0,0,4.16667,-3731.16,-5679.08)">
        <path d="M1203.84,1923.83L1174.36,1923.83C1173.63,1923.83 1173.11,1923.69 1173.21,1923.51L1177.07,1916.48C1177.16,1916.31 1177.81,1916.18 1178.53,1916.18L1207.11,1916.18C1207.82,1916.18 1208.34,1916.31 1208.27,1916.48L1205.3,1923.51C1205.23,1923.69 1204.57,1923.83 1203.84,1923.83Z" style="fill:rgb(180,204,227);fill-rule:nonzero;"/>
    </g>
    <g transform="matrix(4.16667,0,0,4.16667,-3731.16,-5679.08)">
        <path d="M1242.27,1923.83L1212.79,1923.83C1212.06,1923.83 1211.52,1923.69 1211.6,1923.51L1214.39,1916.48C1214.45,1916.31 1215.09,1916.18 1215.8,1916.18L1244.38,1916.18C1245.09,1916.18 1245.63,1916.31 1245.59,1916.48L1243.69,1923.51C1243.64,1923.69 1243,1923.83 1242.27,1923.83Z" style="fill:rgb(180,204,227);fill-rule:nonzero;"/>
    </g>
    <g transform="matrix(4.16667,0,0,4.16667,-3731.16,-5679.08)">
        <path d="M1280.7,1923.83L1251.23,1923.83C1250.5,1923.83 1249.94,1923.69 1249.98,1923.51L1251.7,1916.48C1251.75,1916.31 1252.36,1916.18 1253.07,1916.18L1281.65,1916.18C1282.36,1916.18 1282.93,1916.31 1282.9,1916.48L1282.07,1923.51C1282.05,1923.69 1281.44,1923.83 1280.7,1923.83Z" style="fill:rgb(180,204,227);fill-rule:nonzero;"/>
    </g>
    <g transform="matrix(4.16667,0,0,4.16667,-3731.16,-5679.08)">
        <path d="M1318.9,1923.83L1289.43,1923.83C1288.69,1923.83 1288.11,1923.69 1288.13,1923.51L1288.79,1916.48C1288.81,1916.31 1289.4,1916.18 1290.11,1916.18L1318.69,1916.18C1319.41,1916.18 1319.99,1916.31 1319.99,1916.48L1320.22,1923.51C1320.23,1923.69 1319.64,1923.83 1318.9,1923.83Z" style="fill:rgb(180,204,227);fill-rule:nonzero;"/>
    </g>
    <g transform="matrix(4.16667,0,0,4.16667,-3731.16,-5679.08)">
        <path d="M1356.23,1923.83L1326.76,1923.83C1326.02,1923.83 1325.42,1923.69 1325.41,1923.51L1325.04,1916.48C1325.03,1916.31 1325.6,1916.18 1326.31,1916.18L1354.9,1916.18C1355.61,1916.18 1356.21,1916.31 1356.24,1916.48L1357.5,1923.51C1357.54,1923.69 1356.97,1923.83 1356.23,1923.83Z" style="fill:rgb(180,204,227);fill-rule:nonzero;"/>
    </g>
    <g transform="matrix(4.16667,0,0,4.16667,-3731.16,-5679.08)">
        <path d="M1394.98,1923.83L1365.51,1923.83C1364.77,1923.83 1364.15,1923.69 1364.11,1923.51L1362.66,1916.48C1362.63,1916.31 1363.18,1916.18 1363.89,1916.18L1392.47,1916.18C1393.19,1916.18 1393.81,1916.31 1393.86,1916.48L1396.2,1923.51C1396.26,1923.69 1395.72,1923.83 1394.98,1923.83Z" style="fill:rgb(180,204,227);fill-rule:nonzero;"/>
    </g>
    <g transform="matrix(4.16667,0,0,4.16667,-3731.16,-5679.08)">
        <path d="M1433.26,1923.83L1403.78,1923.83C1403.05,1923.83 1402.4,1923.69 1402.34,1923.51L1399.83,1916.48C1399.77,1916.31 1400.3,1916.18 1401.01,1916.18L1429.59,1916.18C1430.3,1916.18 1430.95,1916.31 1431.03,1916.48L1434.43,1923.51C1434.52,1923.69 1433.99,1923.83 1433.26,1923.83Z" style="fill:rgb(180,204,227);fill-rule:nonzero;"/>
    </g>
    <g transform="matrix(4.16667,0,0,4.16667,-3731.16,-5679.08)">
        <path d="M1470.9,1923.83L1441.43,1923.83C1440.7,1923.83 1440.03,1923.69 1439.94,1923.51L1436.38,1916.48C1436.3,1916.31 1436.8,1916.18 1437.52,1916.18L1466.1,1916.18C1466.81,1916.18 1467.48,1916.31 1467.58,1916.48L1472.03,1923.51C1472.14,1923.69 1471.64,1923.83 1470.9,1923.83Z" style="fill:rgb(180,204,227);fill-rule:nonzero;"/>
    </g>
    <g transform="matrix(4.16667,0,0,4.16667,-3731.16,-5679.08)">
        <path d="M1510.13,1923.83L1480.65,1923.83C1479.92,1923.83 1479.23,1923.69 1479.11,1923.51L1474.47,1916.48C1474.35,1916.31 1474.84,1916.18 1475.55,1916.18L1504.13,1916.18C1504.85,1916.18 1505.53,1916.31 1505.67,1916.48L1511.2,1923.51C1511.34,1923.69 1510.86,1923.83 1510.13,1923.83Z" style="fill:rgb(180,204,227);fill-rule:nonzero;"/>
    </g>
    <g transform="matrix(4.16667,0,0,4.16667,-3731.16,-5679.08)">
        <path d="M1547.62,1923.83L1518.14,1923.83C1517.41,1923.83 1516.69,1923.69 1516.55,1923.51L1510.87,1916.48C1510.73,1916.31 1511.19,1916.18 1511.91,1916.18L1540.49,1916.18C1541.2,1916.18 1541.91,1916.31 1542.07,1916.48L1548.64,1923.51C1548.81,1923.69 1548.35,1923.83 1547.62,1923.83Z" style="fill:rgb(180,204,227);fill-rule:nonzero;"/>
    </g>
    <g transform="matrix(4.16667,0,0,4.16667,-3731.16,-5679.08)">
        <path d="M1586.21,1923.83L1556.73,1923.83C1556,1923.83 1555.26,1923.69 1555.09,1923.51L1548.34,1916.48C1548.17,1916.31 1548.62,1916.18 1549.33,1916.18L1577.91,1916.18C1578.63,1916.18 1579.35,1916.31 1579.54,1916.48L1587.18,1923.51C1587.38,1923.69 1586.94,1923.83 1586.21,1923.83Z" style="fill:rgb(180,204,227);fill-rule:nonzero;"/>
    </g>
    <g transform="matrix(4.16667,0,0,4.16667,-3731.16,-5679.08)">
        <path d="M1115.03,1915.01L1086.58,1915.01C1085.87,1915.01 1085.42,1914.87 1085.58,1914.7L1091.66,1908.16C1091.81,1908 1092.48,1907.87 1093.17,1907.87L1120.79,1907.87C1121.47,1907.87 1121.93,1908 1121.8,1908.16L1116.55,1914.7C1116.42,1914.87 1115.74,1915.01 1115.03,1915.01Z" style="fill:rgb(180,204,227);fill-rule:nonzero;"/>
    </g>
    <g transform="matrix(4.16667,0,0,4.16667,-3731.16,-5679.08)">
        <path d="M1151.51,1915.01L1123.06,1915.01C1122.36,1915.01 1121.89,1914.87 1122.02,1914.7L1127.12,1908.16C1127.24,1908 1127.9,1907.87 1128.59,1907.87L1156.21,1907.87C1156.89,1907.87 1157.37,1908 1157.26,1908.16L1152.99,1914.7C1152.88,1914.87 1152.22,1915.01 1151.51,1915.01Z" style="fill:rgb(180,204,227);fill-rule:nonzero;"/>
    </g>
    <g transform="matrix(4.16667,0,0,4.16667,-3731.16,-5679.08)">
        <path d="M1188.91,1915.01L1160.46,1915.01C1159.75,1915.01 1159.27,1914.87 1159.37,1914.7L1163.47,1908.16C1163.57,1908 1164.21,1907.87 1164.89,1907.87L1192.51,1907.87C1193.2,1907.87 1193.69,1908 1193.61,1908.16L1190.34,1914.7C1190.26,1914.87 1189.62,1915.01 1188.91,1915.01Z" style="fill:rgb(180,204,227);fill-rule:nonzero;"/>
    </g>
    <g transform="matrix(4.16667,0,0,4.16667,-3731.16,-5679.08)">
        <path d="M1225.38,1915.01L1196.93,1915.01C1196.22,1915.01 1195.71,1914.87 1195.79,1914.7L1198.91,1908.16C1198.99,1908 1199.61,1907.87 1200.29,1907.87L1227.91,1907.87C1228.6,1907.87 1229.11,1908 1229.06,1908.16L1226.77,1914.7C1226.71,1914.87 1226.09,1915.01 1225.38,1915.01Z" style="fill:rgb(180,204,227);fill-rule:nonzero;"/>
    </g>
    <g transform="matrix(4.16667,0,0,4.16667,-3731.16,-5679.08)">
        <path d="M1262.98,1915.01L1234.54,1915.01C1233.83,1915.01 1233.3,1914.87 1233.35,1914.7L1235.46,1908.16C1235.52,1908 1236.11,1907.87 1236.8,1907.87L1264.42,1907.87C1265.11,1907.87 1265.64,1908 1265.61,1908.16L1264.33,1914.7C1264.29,1914.87 1263.69,1915.01 1262.98,1915.01Z" style="fill:rgb(180,204,227);fill-rule:nonzero;"/>
    </g>
    <g transform="matrix(4.16667,0,0,4.16667,-3731.16,-5679.08)">
        <path d="M1299.13,1915.01L1270.68,1915.01C1269.97,1915.01 1269.42,1914.87 1269.45,1914.7L1270.59,1908.16C1270.62,1908 1271.2,1907.87 1271.89,1907.87L1299.51,1907.87C1300.19,1907.87 1300.75,1908 1300.74,1908.16L1300.43,1914.7C1300.42,1914.87 1299.84,1915.01 1299.13,1915.01Z" style="fill:rgb(180,204,227);fill-rule:nonzero;"/>
    </g>
    <g transform="matrix(4.16667,0,0,4.16667,-3731.16,-5679.08)">
        <path d="M1336.68,1915.01L1308.23,1915.01C1307.52,1915.01 1306.95,1914.87 1306.95,1914.7L1307.09,1908.16C1307.09,1908 1307.65,1907.87 1308.34,1907.87L1335.96,1907.87C1336.65,1907.87 1337.22,1908 1337.23,1908.16L1337.93,1914.7C1337.95,1914.87 1337.39,1915.01 1336.68,1915.01Z" style="fill:rgb(180,204,227);fill-rule:nonzero;"/>
    </g>
    <g transform="matrix(4.16667,0,0,4.16667,-3731.16,-5679.08)">
        <path d="M1373.16,1915.01L1344.72,1915.01C1344.01,1915.01 1343.42,1914.87 1343.39,1914.7L1342.55,1908.16C1342.53,1908 1343.07,1907.87 1343.76,1907.87L1371.38,1907.87C1372.07,1907.87 1372.66,1908 1372.7,1908.16L1374.37,1914.7C1374.41,1914.87 1373.87,1915.01 1373.16,1915.01Z" style="fill:rgb(180,204,227);fill-rule:nonzero;"/>
    </g>
    <g transform="matrix(4.16667,0,0,4.16667,-3731.16,-5679.08)">
        <path d="M1410.64,1915.01L1382.19,1915.01C1381.48,1915.01 1380.87,1914.87 1380.82,1914.7L1378.98,1908.16C1378.93,1908 1379.45,1907.87 1380.14,1907.87L1407.76,1907.87C1408.44,1907.87 1409.05,1908 1409.12,1908.16L1411.8,1914.7C1411.86,1914.87 1411.35,1915.01 1410.64,1915.01Z" style="fill:rgb(180,204,227);fill-rule:nonzero;"/>
    </g>
    <g transform="matrix(4.16667,0,0,4.16667,-3731.16,-5679.08)">
        <path d="M1448.04,1915.01L1419.59,1915.01C1418.88,1915.01 1418.25,1914.87 1418.17,1914.7L1415.33,1908.16C1415.26,1908 1415.76,1907.87 1416.45,1907.87L1444.06,1907.87C1444.75,1907.87 1445.38,1908 1445.47,1908.16L1449.15,1914.7C1449.24,1914.87 1448.74,1915.01 1448.04,1915.01Z" style="fill:rgb(180,204,227);fill-rule:nonzero;"/>
    </g>
    <g transform="matrix(4.16667,0,0,4.16667,-3731.16,-5679.08)">
        <path d="M1485.05,1915.01L1456.61,1915.01C1455.9,1915.01 1455.24,1914.87 1455.15,1914.7L1451.3,1908.16C1451.21,1908 1451.69,1907.87 1452.38,1907.87L1480,1907.87C1480.69,1907.87 1481.33,1908 1481.45,1908.16L1486.12,1914.7C1486.24,1914.87 1485.76,1915.01 1485.05,1915.01Z" style="fill:rgb(180,204,227);fill-rule:nonzero;"/>
    </g>
    <g transform="matrix(4.16667,0,0,4.16667,-3731.16,-5679.08)">
        <path d="M1520.63,1915.01L1492.18,1915.01C1491.47,1915.01 1490.8,1914.87 1490.67,1914.7L1485.88,1908.16C1485.76,1908 1486.23,1907.87 1486.92,1907.87L1514.53,1907.87C1515.22,1907.87 1515.89,1908 1516.02,1908.16L1521.65,1914.7C1521.79,1914.87 1521.34,1915.01 1520.63,1915.01Z" style="fill:rgb(180,204,227);fill-rule:nonzero;"/>
    </g>
    <g transform="matrix(4.16667,0,0,4.16667,-3731.16,-5679.08)">
        <path d="M1573.95,1915.01L1531.4,1915.01C1529.43,1915.01 1527.51,1914.63 1527.1,1914.17L1522.24,1908.67C1521.85,1908.23 1523.08,1907.87 1524.99,1907.87L1566.3,1907.87C1568.21,1907.87 1570.14,1908.23 1570.62,1908.67L1576.6,1914.17C1577.1,1914.63 1575.92,1915.01 1573.95,1915.01Z" style="fill:rgb(180,204,227);fill-rule:nonzero;"/>
    </g>
    <g transform="matrix(4.16667,0,0,4.16667,-3731.16,-5679.08)">
        <path d="M1085.9,1923.83L1041.81,1923.83C1039.77,1923.83 1038.56,1923.43 1039.1,1922.93L1045.48,1917.03C1045.99,1916.56 1048.01,1916.18 1049.99,1916.18L1092.74,1916.18C1094.72,1916.18 1095.98,1916.56 1095.57,1917.03L1090.38,1922.93C1089.94,1923.43 1087.94,1923.83 1085.9,1923.83Z" style="fill:rgb(180,204,227);fill-rule:nonzero;"/>
    </g>
    <g transform="matrix(4.16667,0,0,4.16667,-3731.16,-5679.08)">
        <path d="M1516.75,1378.81L1258.19,1378.81C1248.48,1378.81 1240.61,1386.68 1240.61,1396.39L1240.61,1579.24C1240.61,1588.95 1248.48,1596.82 1258.19,1596.82L1460.01,1596.82C1486.99,1596.82 1499.17,1574.96 1499.17,1547.98L1499.17,1396.39C1499.17,1386.68 1507.04,1378.81 1516.75,1378.81Z" style="fill:rgb(140,192,232);fill-rule:nonzero;"/>
    </g>
    <g transform="matrix(4.16667,0,0,4.16667,-3731.16,-5679.08)">
        <path d="M1463.64,1579.24L1463.64,1460.04C1463.64,1450.33 1455.77,1442.46 1446.06,1442.46L1444.82,1442.46C1435.11,1442.46 1427.24,1450.33 1427.24,1460.04L1427.24,1596.82L1481.23,1596.82C1471.52,1596.82 1463.64,1588.95 1463.64,1579.24Z" style="fill:rgb(127,170,214);fill-rule:nonzero;"/>
    </g>
    <g transform="matrix(4.16667,0,0,4.16667,-3731.16,-5679.08)">
        <path d="M1535.43,1533.17L1535.43,1396.39C1535.43,1386.68 1527.56,1378.81 1517.85,1378.81L1516.6,1378.81C1506.89,1378.81 1499.02,1386.68 1499.02,1396.39L1499.02,1533.17L1535.43,1533.17Z" style="fill:rgb(127,170,214);fill-rule:nonzero;"/>
    </g>
    <g transform="matrix(4.16667,0,0,4.16667,-3731.16,-5679.08)">
        <path d="M1481.59,1378.81L1481.23,1378.81C1471.52,1378.81 1463.64,1386.68 1463.64,1396.39L1463.64,1579.24C1463.64,1588.95 1471.52,1596.82 1481.23,1596.82L1481.59,1596.82C1491.3,1596.82 1499.17,1588.95 1499.17,1579.24L1499.17,1396.39C1499.17,1386.68 1491.3,1378.81 1481.59,1378.81Z" style="fill:rgb(140,192,232);fill-rule:nonzero;"/>
    </g>
    <g transform="matrix(4.16667,0,0,4.16667,-3731.16,-5679.08)">
        <path d="M1444.82,1442.46L1167.77,1442.46C1158.06,1442.46 1150.19,1450.33 1150.19,1460.04L1152.86,1825.66L1429.9,1825.66L1427.24,1460.04C1427.24,1450.33 1435.11,1442.46 1444.82,1442.46Z" style="fill:rgb(210,223,241);fill-rule:nonzero;"/>
    </g>
    <g transform="matrix(4.16667,0,0,4.16667,-3731.16,-5679.08)">
        <clipPath id="_clip1">
            <path d="M1225.3,1560.58C1203.33,1560.58 1185.47,1542.56 1185.41,1520.34C1185.34,1498.11 1203.1,1480.09 1225.07,1480.09C1247.04,1480.09 1264.9,1498.11 1264.96,1520.34C1265.03,1542.56 1247.27,1560.58 1225.3,1560.58Z"/>
        </clipPath>
        <g clip-path="url(#_clip1)">
            <rect x="1185.34" y="1480.09" width="79.69" height="80.49" style="fill:rgb(154,183,220);fill-rule:nonzero;"/>
        </g>
    </g>
    <g transform="matrix(4.16667,0,0,4.16667,-3731.16,-5679.08)">
        <path d="M1391.73,1504.91L1292.43,1504.91C1289.14,1504.91 1286.44,1502.18 1286.43,1498.85C1286.42,1495.53 1289.11,1492.8 1292.4,1492.8L1391.7,1492.8C1394.99,1492.8 1397.69,1495.53 1397.7,1498.85C1397.71,1502.18 1395.02,1504.91 1391.73,1504.91Z" style="fill:white;fill-rule:nonzero;"/>
    </g>
    <g transform="matrix(4.16667,0,0,4.16667,-3731.16,-5679.08)">
        <path d="M1391.81,1532.44L1292.51,1532.44C1289.23,1532.44 1286.53,1529.72 1286.52,1526.39C1286.51,1523.06 1289.19,1520.34 1292.48,1520.34L1391.78,1520.34C1395.07,1520.34 1397.77,1523.06 1397.78,1526.39C1397.79,1529.72 1395.1,1532.44 1391.81,1532.44Z" style="fill:rgb(180,204,227);fill-rule:nonzero;"/>
    </g>
    <g transform="matrix(4.16667,0,0,4.16667,-3731.16,-5679.08)">
        <path d="M1259.98,1519.27C1259.16,1541.4 1240.26,1559.35 1217.76,1559.35C1195.26,1559.35 1177.69,1541.4 1178.51,1519.27C1179.33,1497.12 1198.24,1479.18 1220.73,1479.18C1243.23,1479.18 1260.8,1497.12 1259.98,1519.27Z" style="fill:rgb(180,204,227);fill-rule:nonzero;"/>
    </g>
    <g transform="matrix(4.16667,0,0,4.16667,-3731.16,-5679.08)">
        <clipPath id="_clip2">
            <path d="M1259.98,1519.26C1259.16,1541.4 1240.26,1559.35 1217.76,1559.35C1195.26,1559.35 1177.69,1541.4 1178.51,1519.26C1179.33,1497.12 1198.24,1479.18 1220.73,1479.18C1243.23,1479.18 1260.8,1497.12 1259.98,1519.26Z"/>
        </clipPath>
        <g clip-path="url(#_clip2)">
            <path d="M1207.78,1519.95C1208.23,1521.48 1208.84,1523.04 1210.12,1524.1C1212,1525.66 1214.84,1525.78 1217.43,1525.82C1220.43,1525.86 1223.71,1525.81 1226.06,1524.07C1227.39,1523.08 1228.24,1521.66 1228.87,1520.23C1231.04,1515.26 1230.92,1509.56 1228.52,1504.81C1228.09,1503.95 1227.57,1503.1 1226.77,1502.49C1225.73,1501.69 1224.32,1501.37 1222.94,1501.25C1219.44,1500.95 1215.78,1501.82 1212.82,1503.67C1209.98,1505.44 1207.62,1508.22 1206.68,1511.22C1205.83,1513.92 1207.02,1517.38 1207.78,1519.95Z" style="fill:rgb(67,35,19);fill-rule:nonzero;"/>
            <path d="M1224.14,1540.24C1222.7,1541.17 1218.58,1540.6 1217.21,1541.37C1215.84,1542.13 1211.26,1542.36 1209.95,1542.01C1210.19,1535.39 1213.52,1528.69 1213.81,1522.59C1216.31,1528.2 1219.27,1525.12 1222.18,1521.29C1221.9,1527.24 1224.28,1534.25 1224.14,1540.24Z" style="fill:rgb(248,163,127);fill-rule:nonzero;"/>
            <path d="M1213.51,1527.33C1213.71,1528 1214.08,1528.66 1214.41,1529.19C1215.1,1530.29 1216.18,1531.04 1217.46,1531.4C1218.96,1531.83 1220.54,1531.07 1221.72,1530.11C1222.11,1529.79 1222.48,1529.46 1222.84,1529.12C1222.41,1526.42 1222.06,1523.76 1222.18,1521.29C1219.27,1525.12 1216.31,1528.2 1213.81,1522.59C1213.96,1522.95 1213.71,1523.84 1213.66,1524.23C1213.59,1524.83 1213.46,1525.43 1213.38,1526.03C1213.32,1526.45 1213.38,1526.89 1213.51,1527.33Z" style="fill:rgb(246,147,111);fill-rule:nonzero;"/>
            <path d="M1238.94,1567.59C1238.71,1565.31 1238.49,1563.02 1238.24,1560.74C1238.04,1558.89 1237.83,1557.05 1237.59,1555.21C1237.35,1553.32 1237.13,1551.39 1236.87,1549.45C1236.16,1544 1235.53,1537.23 1233.39,1532.27C1233.32,1532.11 1233.27,1531.96 1233.24,1531.81C1233.13,1531.78 1225.26,1528.93 1222.78,1528.74C1222.78,1530.55 1221.19,1534.8 1217.6,1534.76C1215.35,1534.74 1212.77,1531.5 1212.77,1528.74C1209.44,1529.04 1202.09,1531.85 1202.06,1531.85C1200.28,1532.22 1198.75,1542.45 1198.49,1543.77C1197.37,1549.52 1196.14,1555.15 1195.17,1560.9L1195.14,1561.07C1194.78,1563.24 1194.43,1565.42 1194.08,1567.59L1238.94,1567.59Z" style="fill:rgb(255,209,63);fill-rule:nonzero;"/>
            <path d="M1202.06,1531.85L1202.16,1531.84C1200.18,1532.43 1196.5,1534.67 1194.56,1535.72C1191.36,1537.46 1188.64,1540.25 1186.48,1543.6C1184.54,1546.61 1183.06,1549.98 1181.88,1553.5C1182.83,1555.24 1184.11,1556.69 1185.75,1557.84C1188.07,1559.46 1192.78,1561.18 1193.25,1561.39C1194.38,1559.4 1195.41,1558.19 1195.86,1557.12C1196.66,1552.93 1197.67,1548 1198.49,1543.77C1198.75,1542.45 1200.28,1532.22 1202.06,1531.85Z" style="fill:rgb(242,194,59);fill-rule:nonzero;"/>
            <path d="M1248.18,1543.16C1246.28,1539.76 1243.76,1536.93 1240.69,1535.17C1238.65,1533.99 1233.13,1531.78 1233.24,1531.81C1233.27,1531.96 1236.16,1544 1236.87,1549.45C1237.13,1551.39 1237.11,1551.43 1237.35,1553.32C1237.59,1555.16 1239.69,1559.77 1241.19,1561.69C1243.33,1561.1 1246.74,1559.23 1248.3,1558.25C1250.68,1556.77 1251.1,1555.83 1251.99,1554.71C1251.07,1551.14 1249.9,1546.21 1248.18,1543.16Z" style="fill:rgb(242,194,59);fill-rule:nonzero;"/>
            <path d="M1207.94,1515.51C1208.27,1518.38 1208.92,1521.28 1210.48,1523.69C1212.05,1526.1 1214.66,1527.96 1217.61,1528.06C1221.34,1528.18 1224.79,1525.45 1226.59,1522.16C1228.38,1518.87 1228.83,1515.09 1229.18,1511.42C1229.47,1508.3 1229.68,1505 1228.28,1502.24C1227.77,1501.24 1227.04,1500.33 1226.1,1499.71C1225.43,1499.27 1224.66,1498.98 1223.88,1498.75C1220.55,1497.81 1216.77,1498.14 1213.67,1499.87C1207.6,1503.27 1207.25,1509.55 1207.94,1515.51Z" style="fill:rgb(248,163,127);fill-rule:nonzero;"/>
            <path d="M1232.21,1502.69C1233.18,1501.71 1233.86,1500.46 1233.93,1499.13C1233.96,1498.69 1233.67,1498.09 1233.26,1498.28C1233.17,1498.56 1233.08,1498.84 1233,1499.12C1232.39,1499.29 1231.84,1498.79 1231.43,1498.34C1230.95,1497.8 1230.46,1497.26 1230,1496.7C1229.71,1496.25 1229.39,1495.81 1229.04,1495.41C1228.98,1495.32 1228.92,1495.23 1228.86,1495.13C1228.32,1494.29 1227.88,1493.37 1227.21,1492.63C1225.31,1490.52 1222.06,1490.26 1219.14,1490.37C1217.34,1490.44 1215.5,1490.61 1213.81,1491.29C1212.12,1491.97 1210.57,1493.24 1209.95,1494.92C1209.88,1495.13 1209.82,1495.33 1209.78,1495.53C1205.76,1497.99 1203.36,1503.05 1204.38,1507.52C1204.72,1509.03 1205.4,1510.56 1205.03,1512.09C1205.13,1512.97 1205.19,1513.86 1205.23,1514.75C1205.85,1515.47 1206.88,1515.83 1207.59,1515.19C1208.1,1514.73 1208.17,1513.99 1208.2,1513.32C1208.31,1511.34 1208.41,1509.37 1208.51,1507.39C1208.53,1507.02 1208.56,1506.64 1208.75,1506.32C1208.94,1505.99 1209.27,1505.77 1209.58,1505.55C1210.86,1504.63 1211.92,1503.43 1212.67,1502.07C1213.96,1503.28 1215.46,1504.22 1216.71,1504.69C1219.39,1505.7 1222.37,1505.78 1225.26,1505.45C1226.06,1505.36 1226.87,1505.23 1227.66,1505.05C1227.72,1507.79 1227.79,1510.53 1227.85,1513.27C1227.88,1514.28 1228.07,1515.53 1229.05,1515.82C1229.71,1516.01 1230.46,1515.61 1230.88,1515.05C1231.3,1514.48 1231.46,1513.77 1231.6,1513.09C1232.28,1509.73 1232.72,1506.28 1232.25,1502.93L1232.21,1502.69Z" style="fill:rgb(67,35,19);fill-rule:nonzero;"/>
            <path d="M1208.65,1516.74C1208.58,1515.22 1208.28,1513.6 1208.31,1512.06C1208.05,1511.91 1207.94,1511.9 1207.64,1511.87C1207.39,1511.85 1207.12,1511.86 1206.89,1512C1206.49,1512.24 1206.31,1512.75 1206.19,1513.22C1205.8,1514.75 1205.68,1516.39 1206.08,1517.88C1206.48,1519.37 1207.46,1520.7 1208.8,1521.2C1208.98,1521.26 1209.09,1521.29 1209.27,1521.24C1208.89,1519.76 1208.71,1518.33 1208.65,1516.74Z" style="fill:rgb(246,147,111);fill-rule:nonzero;"/>
            <path d="M1230.88,1513.22C1230.79,1512.75 1230.65,1512.24 1230.27,1512C1230.05,1511.86 1229.78,1511.85 1229.52,1511.87C1228.93,1511.94 1228.39,1512.26 1227.96,1512.73L1227.79,1512.81C1227.79,1513.71 1227.75,1514.61 1227.72,1515.52C1227.65,1517.3 1227.67,1518.35 1227.35,1520.12C1227.32,1520.3 1227.07,1521.23 1227,1521.39C1227.17,1521.41 1227.5,1521.26 1227.67,1521.2C1229.05,1520.7 1230.13,1519.37 1230.64,1517.88C1231.15,1516.39 1231.15,1514.75 1230.88,1513.22Z" style="fill:rgb(246,147,111);fill-rule:nonzero;"/>
        </g>
    </g>
    <g transform="matrix(4.16667,0,0,4.16667,-3731.16,-5679.08)">
        <path d="M1196.14,1598.04C1193.24,1598.04 1190.88,1600.4 1190.88,1603.3L1190.88,1620.08C1190.88,1622.98 1193.24,1625.34 1196.14,1625.34L1212.92,1625.34C1215.82,1625.34 1218.18,1622.98 1218.18,1620.08L1218.18,1603.3C1218.18,1600.4 1215.82,1598.04 1212.92,1598.04L1196.14,1598.04ZM1212.92,1628.92L1196.14,1628.92C1191.26,1628.92 1187.3,1624.96 1187.3,1620.08L1187.3,1603.3C1187.3,1598.42 1191.26,1594.45 1196.14,1594.45L1212.92,1594.45C1217.8,1594.45 1221.76,1598.42 1221.76,1603.3L1221.76,1620.08C1221.76,1624.96 1217.8,1628.92 1212.92,1628.92Z" style="fill:rgb(127,170,214);fill-rule:nonzero;"/>
    </g>
    <g transform="matrix(4.16667,0,0,4.16667,-3731.16,-5679.08)">
        <path d="M1196.14,1648.57C1193.24,1648.57 1190.88,1650.93 1190.88,1653.83L1190.88,1670.62C1190.88,1673.52 1193.24,1675.88 1196.14,1675.88L1212.92,1675.88C1215.82,1675.88 1218.18,1673.52 1218.18,1670.62L1218.18,1653.83C1218.18,1650.93 1215.82,1648.57 1212.92,1648.57L1196.14,1648.57ZM1212.92,1679.46L1196.14,1679.46C1191.26,1679.46 1187.3,1675.49 1187.3,1670.62L1187.3,1653.83C1187.3,1648.96 1191.26,1644.99 1196.14,1644.99L1212.92,1644.99C1217.8,1644.99 1221.76,1648.96 1221.76,1653.83L1221.76,1670.62C1221.76,1675.49 1217.8,1679.46 1212.92,1679.46Z" style="fill:rgb(127,170,214);fill-rule:nonzero;"/>
    </g>
    <g transform="matrix(4.16667,0,0,4.16667,-3731.16,-5679.08)">
        <path d="M1196.14,1698.41C1193.24,1698.41 1190.88,1700.77 1190.88,1703.67L1190.88,1720.46C1190.88,1723.36 1193.24,1725.71 1196.14,1725.71L1212.92,1725.71C1215.82,1725.71 1218.18,1723.36 1218.18,1720.46L1218.18,1703.67C1218.18,1700.77 1215.82,1698.41 1212.92,1698.41L1196.14,1698.41ZM1212.92,1729.3L1196.14,1729.3C1191.26,1729.3 1187.3,1725.33 1187.3,1720.46L1187.3,1703.67C1187.3,1698.79 1191.26,1694.83 1196.14,1694.83L1212.92,1694.83C1217.8,1694.83 1221.76,1698.79 1221.76,1703.67L1221.76,1720.46C1221.76,1725.33 1217.8,1729.3 1212.92,1729.3Z" style="fill:rgb(127,170,214);fill-rule:nonzero;"/>
    </g>
    <g transform="matrix(4.16667,0,0,4.16667,-3731.16,-5679.08)">
        <path d="M1398.12,1603.25L1273.86,1603.25C1272.98,1603.25 1272.26,1602.53 1272.26,1601.65L1272.26,1601.34C1272.26,1600.46 1272.98,1599.75 1273.86,1599.75L1398.12,1599.75C1398.99,1599.75 1399.71,1600.46 1399.71,1601.34L1399.71,1601.65C1399.71,1602.53 1398.99,1603.25 1398.12,1603.25Z" style="fill:white;fill-rule:nonzero;"/>
    </g>
    <g transform="matrix(4.16667,0,0,4.16667,-3731.16,-5679.08)">
        <path d="M1398.12,1613.44L1251.74,1613.44C1250.86,1613.44 1250.14,1612.72 1250.14,1611.85L1250.14,1611.53C1250.14,1610.66 1250.86,1609.94 1251.74,1609.94L1398.12,1609.94C1398.99,1609.94 1399.71,1610.66 1399.71,1611.53L1399.71,1611.85C1399.71,1612.72 1398.99,1613.44 1398.12,1613.44Z" style="fill:white;fill-rule:nonzero;"/>
    </g>
    <g transform="matrix(4.16667,0,0,4.16667,-3731.16,-5679.08)">
        <path d="M1383.37,1623.63L1251.74,1623.63C1250.86,1623.63 1250.14,1622.91 1250.14,1622.04L1250.14,1621.72C1250.14,1620.85 1250.86,1620.13 1251.74,1620.13L1383.37,1620.13C1384.25,1620.13 1384.96,1620.85 1384.96,1621.72L1384.96,1622.04C1384.96,1622.91 1384.25,1623.63 1383.37,1623.63Z" style="fill:white;fill-rule:nonzero;"/>
    </g>
    <g transform="matrix(4.16667,0,0,4.16667,-3731.16,-5679.08)">
        <path d="M1398.12,1652.12L1273.86,1652.12C1272.98,1652.12 1272.26,1651.4 1272.26,1650.53L1272.26,1650.21C1272.26,1649.34 1272.98,1648.62 1273.86,1648.62L1398.12,1648.62C1398.99,1648.62 1399.71,1649.34 1399.71,1650.21L1399.71,1650.53C1399.71,1651.4 1398.99,1652.12 1398.12,1652.12Z" style="fill:white;fill-rule:nonzero;"/>
    </g>
    <g transform="matrix(4.16667,0,0,4.16667,-3731.16,-5679.08)">
        <path d="M1398.12,1662.31L1251.74,1662.31C1250.86,1662.31 1250.14,1661.6 1250.14,1660.72L1250.14,1660.4C1250.14,1659.53 1250.86,1658.81 1251.74,1658.81L1398.12,1658.81C1398.99,1658.81 1399.71,1659.53 1399.71,1660.4L1399.71,1660.72C1399.71,1661.6 1398.99,1662.31 1398.12,1662.31Z" style="fill:white;fill-rule:nonzero;"/>
    </g>
    <g transform="matrix(4.16667,0,0,4.16667,-3731.16,-5679.08)">
        <path d="M1309.63,1672.5L1251.74,1672.5C1250.86,1672.5 1250.14,1671.79 1250.14,1670.91L1250.14,1670.6C1250.14,1669.72 1250.86,1669 1251.74,1669L1309.63,1669C1310.51,1669 1311.23,1669.72 1311.23,1670.6L1311.23,1670.91C1311.23,1671.79 1310.51,1672.5 1309.63,1672.5Z" style="fill:white;fill-rule:nonzero;"/>
    </g>
    <g transform="matrix(4.16667,0,0,4.16667,-3731.16,-5679.08)">
        <path d="M1398.12,1703.62L1273.86,1703.62C1272.98,1703.62 1272.26,1702.9 1272.26,1702.03L1272.26,1701.72C1272.26,1700.84 1272.98,1700.12 1273.86,1700.12L1398.12,1700.12C1398.99,1700.12 1399.71,1700.84 1399.71,1701.72L1399.71,1702.03C1399.71,1702.9 1398.99,1703.62 1398.12,1703.62Z" style="fill:white;fill-rule:nonzero;"/>
    </g>
    <g transform="matrix(4.16667,0,0,4.16667,-3731.16,-5679.08)">
        <path d="M1398.12,1713.81L1251.74,1713.81C1250.86,1713.81 1250.14,1713.1 1250.14,1712.22L1250.14,1711.91C1250.14,1711.03 1250.86,1710.31 1251.74,1710.31L1398.12,1710.31C1398.99,1710.31 1399.71,1711.03 1399.71,1711.91L1399.71,1712.22C1399.71,1713.1 1398.99,1713.81 1398.12,1713.81Z" style="fill:white;fill-rule:nonzero;"/>
    </g>
    <g transform="matrix(4.16667,0,0,4.16667,-3731.16,-5679.08)">
        <path d="M1251.74,1724C1250.86,1724 1250.14,1723.29 1250.14,1722.41L1250.14,1722.1C1250.14,1721.22 1250.86,1720.5 1251.74,1720.5L1368.62,1720.5C1369.5,1720.5 1370.22,1721.22 1370.22,1722.1L1370.22,1722.41C1370.22,1723.29 1369.5,1724 1368.62,1724" style="fill:white;fill-rule:nonzero;"/>
    </g>
    <g transform="matrix(4.16667,0,0,4.16667,-3731.16,-5679.08)">
        <path d="M1397.96,1757.7L1192.63,1757.7C1191.67,1757.7 1190.88,1756.91 1190.88,1755.95C1190.88,1754.99 1191.67,1754.2 1192.63,1754.2L1397.96,1754.2C1398.92,1754.2 1399.71,1754.99 1399.71,1755.95C1399.71,1756.91 1398.92,1757.7 1397.96,1757.7Z" style="fill:white;fill-rule:nonzero;"/>
    </g>
    <g transform="matrix(4.16667,0,0,4.16667,-3731.16,-5679.08)">
        <path d="M1301.3,1767.89L1192.63,1767.89C1191.67,1767.89 1190.88,1767.1 1190.88,1766.14C1190.88,1765.18 1191.67,1764.39 1192.63,1764.39L1301.3,1764.39C1302.27,1764.39 1303.05,1765.18 1303.05,1766.14C1303.05,1767.1 1302.27,1767.89 1301.3,1767.89Z" style="fill:white;fill-rule:nonzero;"/>
    </g>
    <g transform="matrix(4.16667,0,0,4.16667,-3731.16,-5679.08)">
        <path d="M1301.3,1788.72L1192.63,1788.72C1191.67,1788.72 1190.88,1787.93 1190.88,1786.97C1190.88,1786.01 1191.67,1785.22 1192.63,1785.22L1301.3,1785.22C1302.27,1785.22 1303.05,1786.01 1303.05,1786.97C1303.05,1787.93 1302.27,1788.72 1301.3,1788.72Z" style="fill:white;fill-rule:nonzero;"/>
    </g>
    <g transform="matrix(4.16667,0,0,4.16667,-3731.16,-5679.08)">
        <path d="M1385.88,1778.08L1192.63,1778.08C1191.67,1778.08 1190.88,1777.29 1190.88,1776.33C1190.88,1775.37 1191.67,1774.58 1192.63,1774.58L1385.88,1774.58C1386.84,1774.58 1387.63,1775.37 1387.63,1776.33C1387.63,1777.29 1386.84,1778.08 1385.88,1778.08Z" style="fill:white;fill-rule:nonzero;"/>
    </g>
    <g transform="matrix(4.16667,0,0,4.16667,-3731.16,-5679.08)">
        <path d="M1208.5,1619.07C1207.8,1619.07 1207.09,1618.82 1206.52,1618.32L1196.86,1609.88C1195.61,1608.78 1195.48,1606.88 1196.58,1605.62C1197.67,1604.37 1199.58,1604.24 1200.84,1605.34L1208.26,1611.83L1235.93,1581.42C1237.05,1580.18 1238.96,1580.09 1240.19,1581.21C1241.42,1582.33 1241.51,1584.24 1240.39,1585.48L1210.74,1618.08C1210.14,1618.73 1209.33,1619.07 1208.5,1619.07Z" style="fill:rgb(242,103,66);fill-rule:nonzero;"/>
    </g>
    <g transform="matrix(4.16667,0,0,4.16667,-3731.16,-5679.08)">
        <path d="M1208.5,1667.94C1207.8,1667.94 1207.09,1667.69 1206.52,1667.19L1196.86,1658.75C1195.61,1657.66 1195.48,1655.75 1196.58,1654.5C1197.67,1653.24 1199.58,1653.11 1200.84,1654.21L1208.26,1660.7L1235.93,1630.29C1237.05,1629.06 1238.96,1628.96 1240.19,1630.09C1241.42,1631.21 1241.51,1633.11 1240.39,1634.35L1210.74,1666.95C1210.14,1667.61 1209.33,1667.94 1208.5,1667.94Z" style="fill:rgb(242,103,66);fill-rule:nonzero;"/>
    </g>
    <g transform="matrix(4.16667,0,0,4.16667,-3731.16,-5679.08)">
        <path d="M1208.5,1717.77C1207.8,1717.77 1207.09,1717.53 1206.52,1717.03L1196.86,1708.59C1195.61,1707.49 1195.48,1705.59 1196.58,1704.33C1197.67,1703.08 1199.58,1702.95 1200.84,1704.05L1208.26,1710.54L1235.93,1680.12C1237.05,1678.89 1238.96,1678.8 1240.19,1679.92C1241.42,1681.04 1241.51,1682.95 1240.39,1684.18L1210.74,1716.79C1210.14,1717.44 1209.33,1717.77 1208.5,1717.77Z" style="fill:rgb(242,103,66);fill-rule:nonzero;"/>
    </g>
    <g transform="matrix(4.16667,0,0,4.16667,-3731.16,-5679.08)">
        <path d="M1430.26,1910.65L1404.5,1924.95L1430.21,1939.33L1430.26,1910.65Z" style="fill:rgb(140,192,232);fill-rule:nonzero;"/>
    </g>
    <g transform="matrix(4.16667,0,0,4.16667,-3731.16,-5679.08)">
        <path d="M1410.64,1920.89L1404.5,1924.95L1410.63,1929.04L1410.64,1920.89Z" style="fill:rgb(8,31,62);fill-rule:nonzero;"/>
    </g>
    <g transform="matrix(4.16667,0,0,4.16667,-3731.16,-5679.08)">
        <path d="M1564.32,1933.58L1564.35,1916.64C1564.35,1913.41 1567,1910.78 1570.22,1910.78L1605.4,1910.84C1608.63,1910.85 1611.26,1913.49 1611.25,1916.72L1611.23,1933.66C1611.22,1936.89 1608.58,1939.52 1605.35,1939.52L1570.17,1939.46C1566.95,1939.45 1564.31,1936.81 1564.32,1933.58Z" style="fill:rgb(239,83,130);fill-rule:nonzero;"/>
    </g>
    <g transform="matrix(4.16667,0,0,4.16667,-3731.16,-5679.08)">
        <path d="M1430.24,1920.21L1571.72,1920.34L1571.74,1910.79L1430.26,1910.65L1430.24,1920.21Z" style="fill:rgb(80,85,125);fill-rule:nonzero;"/>
    </g>
    <g transform="matrix(4.16667,0,0,4.16667,-3731.16,-5679.08)">
        <path d="M1430.22,1929.77L1571.71,1929.9L1571.72,1920.34L1430.24,1920.21L1430.22,1929.77Z" style="fill:rgb(67,72,111);fill-rule:nonzero;"/>
    </g>
    <g transform="matrix(4.16667,0,0,4.16667,-3731.16,-5679.08)">
        <path d="M1430.21,1939.33L1571.69,1939.46L1571.71,1929.9L1430.22,1929.77L1430.21,1939.33Z" style="fill:rgb(40,45,92);fill-rule:nonzero;"/>
    </g>
    <g transform="matrix(4.16667,0,0,4.16667,-3731.16,-5679.08)">
        <path d="M1568.08,1939.46L1568.13,1910.78L1573.91,1910.79L1573.87,1939.47L1568.08,1939.46Z" style="fill:rgb(236,237,236);fill-rule:nonzero;"/>
    </g>
    <g transform="matrix(4.16667,0,0,4.16667,-3731.16,-5679.08)">
        <path d="M1330.96,1679.31C1330.96,1679.31 1354.87,1666.02 1359.04,1662.61C1363.22,1659.19 1364.73,1656.53 1363.22,1645.15C1361.7,1633.76 1359.67,1621.36 1358.54,1619.72C1357.4,1618.08 1354.87,1617.19 1351.7,1615.92C1348.54,1614.66 1343.86,1612.13 1345.63,1611.62C1347.4,1611.12 1350.69,1611.88 1351.32,1612.38C1351.96,1612.89 1354.99,1613.65 1354.99,1613.65C1354.99,1613.65 1356,1610.99 1354.87,1609.85C1353.73,1608.71 1347.15,1608.59 1346.39,1608.46C1345.63,1608.33 1344.87,1606.69 1348.54,1605.93C1352.21,1605.17 1353.22,1605.3 1354.87,1605.93C1356.51,1606.56 1360.69,1609.22 1361.57,1610.36C1362.46,1611.5 1362.33,1616.18 1362.84,1617.95C1363.34,1619.72 1370.68,1638.19 1372.45,1644.77C1374.22,1651.35 1380.17,1658.05 1370.17,1669.31C1360.18,1680.57 1328.93,1709.54 1328.93,1709.54C1328.93,1709.54 1320.58,1702.58 1320.08,1694.49C1319.57,1686.39 1330.96,1679.31 1330.96,1679.31Z" style="fill:rgb(248,163,127);fill-rule:nonzero;"/>
    </g>
    <g transform="matrix(4.16667,0,0,4.16667,-3731.16,-5679.08)">
        <path d="M1359.99,1679.12C1359.94,1679.07 1359.83,1678.95 1359.61,1678.68C1359.09,1678.06 1358.56,1677.45 1358.02,1676.85C1356.81,1675.53 1355.54,1674.3 1354.21,1673.11C1354.07,1672.99 1353.94,1672.88 1353.8,1672.76C1353.75,1672.73 1353.6,1672.63 1353.35,1672.46C1352.73,1672.06 1352.09,1671.68 1351.46,1671.28C1351.22,1671.13 1350.17,1670.66 1350.05,1670.58C1349.6,1670.44 1349.16,1670.3 1348.71,1670.18C1348.33,1670.07 1347.97,1669.94 1347.61,1669.81C1339.76,1674.42 1330.96,1679.31 1330.96,1679.31C1330.96,1679.31 1319.57,1686.39 1320.08,1694.49C1320.58,1702.58 1328.93,1709.54 1328.93,1709.54C1328.93,1709.54 1347.24,1692.57 1360.31,1679.56C1360.19,1679.39 1360.08,1679.24 1359.99,1679.12Z" style="fill:rgb(255,209,63);fill-rule:nonzero;"/>
    </g>
    <g transform="matrix(4.16667,0,0,4.16667,-3731.16,-5679.08)">
        <path d="M1298.05,1955C1297.38,1960.4 1296.76,1967.89 1296.87,1973.63C1296.87,1973.63 1297.32,1973.81 1298.05,1974.11C1297.61,1977.85 1297.46,1981.61 1297.25,1985.37C1293.45,1984.81 1290.44,1983.86 1290.44,1983.86C1288.71,1979.79 1287.95,1966.72 1287.78,1956.03C1291.07,1956.86 1294.78,1955.24 1298.05,1955Z" style="fill:rgb(67,35,19);fill-rule:nonzero;"/>
    </g>
    <g transform="matrix(4.16667,0,0,4.16667,-3731.16,-5679.08)">
        <path d="M1323.91,1953.04C1322.8,1958.36 1321.36,1967.56 1321,1973.3C1321,1973.3 1333.53,1979.49 1334.99,1982C1336.44,1984.52 1334.76,1985.49 1328.27,1985.88C1321.79,1986.28 1313.74,1982.96 1313.74,1982.96C1312.36,1978.75 1312.68,1965.67 1313.4,1955C1316.61,1956.11 1320.63,1953 1323.91,1953.04Z" style="fill:rgb(67,35,19);fill-rule:nonzero;"/>
    </g>
    <g transform="matrix(4.16667,0,0,4.16667,-3731.16,-5679.08)">
        <path d="M1322.54,1767.33C1318.69,1767.32 1315.87,1768.61 1313.8,1770.56C1311.84,1768.75 1309.18,1767.54 1305.59,1767.42C1288.86,1766.82 1282.83,1778.73 1283.3,1791.43C1283.35,1792.84 1284.16,1891.53 1287.59,1956.22C1290.16,1956.15 1295.72,1956.07 1298.29,1956.04C1299.31,1936.99 1305.81,1879.62 1311.45,1837.71C1312.74,1879.65 1313.09,1936.71 1313.42,1955.72C1315.98,1955.84 1320.76,1956.12 1323.32,1956.29C1334.23,1897.99 1343.84,1793.54 1343.94,1792.13C1344.87,1779.46 1339.28,1767.35 1322.54,1767.33Z" style="fill:rgb(67,35,19);fill-rule:nonzero;"/>
    </g>
    <g transform="matrix(4.16667,0,0,4.16667,-3731.16,-5679.08)">
        <path d="M1310.17,1774.29C1310.17,1774.29 1303.13,1773.44 1295.27,1771.03C1296.02,1773.68 1296.37,1776.39 1296.43,1779.14C1299.63,1779.39 1302.32,1779.5 1304.07,1779.62C1311.15,1780.1 1318.88,1780.19 1321.04,1780.26C1319.05,1777.99 1317.01,1775.03 1315.32,1772.51C1313.06,1773.15 1310.17,1774.29 1310.17,1774.29Z" style="fill:rgb(248,163,127);fill-rule:nonzero;"/>
    </g>
    <g transform="matrix(4.16667,0,0,4.16667,-3731.16,-5679.08)">
        <path d="M1301.55,1779.47C1301.3,1776.93 1300.7,1774.49 1299.63,1772.24C1289.6,1769.72 1275.82,1764.53 1274.21,1754.84C1272.56,1744.92 1283.15,1714.35 1287.45,1701.16C1285.68,1700.72 1283.87,1700.34 1282.03,1700.04C1278.1,1699.39 1273.55,1699.38 1269.57,1698.28C1266.54,1706.5 1255.05,1739.46 1258.82,1757.81C1262.81,1777.23 1290.34,1778.86 1301.55,1779.47Z" style="fill:rgb(248,163,127);fill-rule:nonzero;"/>
    </g>
    <g transform="matrix(4.16667,0,0,4.16667,-3731.16,-5679.08)">
        <path d="M1293.27,1668.68C1293.31,1668.39 1293.37,1668.09 1293.42,1667.8C1293.15,1667.35 1292.9,1666.89 1292.68,1666.42C1290.74,1662.21 1291,1657.01 1293.5,1653.11C1296.4,1648.57 1304.88,1644.23 1309.29,1649.16C1313.91,1654.32 1315.46,1664.11 1312.82,1670.36C1312.36,1671.46 1311.75,1672.53 1310.87,1673.35C1309.88,1674.25 1308.63,1674.76 1307.3,1674.97C1307.06,1677.77 1306.45,1680.78 1306.28,1683.34C1306.08,1686.41 1305.84,1690.04 1304.33,1691.76C1303.09,1693.17 1301.58,1692.56 1300.26,1691.9C1297.28,1690.41 1294.09,1688.65 1292.41,1684.09C1292.03,1683.05 1291.73,1681.86 1291.67,1680.57C1291.6,1679.03 1291.85,1677.45 1292.1,1675.92C1292.49,1673.51 1292.88,1671.09 1293.27,1668.68Z" style="fill:rgb(248,163,127);fill-rule:nonzero;"/>
    </g>
    <g transform="matrix(4.16667,0,0,4.16667,-3731.16,-5679.08)">
        <path d="M1310.59,1658.55C1311.8,1658.23 1313.14,1658.22 1314.42,1658.05C1314.98,1657.97 1315.49,1657.68 1315.84,1657.23C1317.19,1655.5 1317.69,1653.5 1316.66,1650.95C1316.09,1649.55 1314.97,1648.44 1314.43,1647.05C1313.86,1645.61 1314.03,1644.81 1314.07,1643.27C1314.12,1641.47 1313.9,1639.98 1313.33,1638.85C1312.95,1638.1 1312.14,1637.67 1311.3,1637.75L1311.29,1637.75C1309.26,1637.93 1307.36,1638.45 1305.52,1639.08C1305.19,1639.19 1304.84,1639.22 1304.49,1639.16C1296.81,1637.92 1286.62,1641.77 1284.2,1646.4C1283.96,1646.86 1283.78,1647.35 1283.71,1647.85C1283.66,1648.26 1283.49,1648.65 1283.22,1648.96C1282.62,1649.61 1282.18,1650.33 1281.98,1651.14C1280.86,1655.69 1287.34,1659.68 1288.21,1664.34C1288.42,1665.43 1288.3,1666.53 1288.48,1667.63C1289.13,1671.52 1293.97,1674.95 1299.25,1675.23C1304.53,1675.52 1309.58,1672.64 1310.47,1668.83C1310.61,1668.24 1310.66,1667.62 1310.36,1667.04C1309.96,1666.26 1308.99,1665.71 1308.3,1665.04C1306.09,1662.91 1307.32,1659.44 1310.59,1658.55Z" style="fill:rgb(67,35,19);fill-rule:nonzero;"/>
    </g>
    <g transform="matrix(4.16667,0,0,4.16667,-3731.16,-5679.08)">
        <path d="M1335.24,1711.89C1334.57,1709.36 1333.76,1706.87 1332.82,1704.46C1333.96,1704.31 1329.53,1689.15 1327.5,1681.45C1321.04,1680.74 1315.16,1680.05 1312.35,1680.04L1312.2,1679.97C1312.2,1679.97 1311.93,1679.93 1311.45,1679.87C1311.69,1678.49 1311.43,1677.38 1308.46,1677.02C1302.9,1676.35 1293.64,1677.49 1290.77,1678.16C1289.3,1678.51 1289.42,1679.49 1289.79,1680.73L1289.63,1680.56C1289.42,1680.73 1289.29,1680.83 1289.29,1680.83C1289.29,1680.83 1268.16,1679.92 1262.38,1721.3C1264.59,1726.64 1276.12,1728.33 1278.79,1728.55C1279.22,1727.81 1279.58,1725.85 1280.07,1724.18C1281.62,1734.34 1282.36,1736.98 1283.97,1755.96C1282.96,1770.4 1282.48,1781.43 1283.28,1782C1285.4,1783.52 1330.6,1783.02 1340.38,1779.23C1340.69,1779.18 1341,1779.14 1341.31,1779.1C1346.36,1778.34 1342.96,1770.99 1342.73,1769.77C1339.09,1750.79 1340.2,1730.57 1335.24,1711.89Z" style="fill:rgb(255,209,63);fill-rule:nonzero;"/>
    </g>
    <g transform="matrix(4.16667,0,0,4.16667,-3731.16,-5679.08)">
        <path d="M1341.91,1776.37C1327.2,1775.98 1312.14,1770.28 1301.89,1759.48C1292.35,1749.43 1286.62,1735.97 1281.87,1723.15C1280.73,1720.05 1279.68,1716.89 1278.72,1713.7L1278.46,1713.93C1280.01,1724.06 1282.38,1737.16 1283.97,1755.96C1282.96,1770.4 1282.48,1781.43 1283.28,1782C1285.4,1783.52 1330.6,1783.02 1340.38,1779.23C1340.69,1779.18 1341,1779.14 1341.31,1779.1C1343.09,1778.83 1343.82,1777.73 1344.01,1776.38C1343.31,1776.38 1342.61,1776.39 1341.91,1776.37Z" style="fill:rgb(242,194,59);fill-rule:nonzero;"/>
    </g>
    <g transform="matrix(4.16667,0,0,4.16667,-3731.16,-5679.08)">
        <path d="M1311.45,1679.87C1311.69,1678.49 1311.43,1677.38 1308.46,1677.02C1302.9,1676.35 1293.64,1677.49 1290.77,1678.16C1289.39,1678.49 1289.42,1679.37 1289.73,1680.5C1296.85,1682.17 1311.53,1679.88 1311.45,1679.87Z" style="fill:rgb(67,72,111);fill-rule:nonzero;"/>
    </g>
    <g transform="matrix(4.16667,0,0,4.16667,-3731.16,-5679.08)">
        <path d="M1301.84,1979.86C1301.41,1978.13 1300.54,1976.56 1299.67,1975.01C1298.86,1973.55 1298.02,1972.07 1296.86,1970.86C1296.87,1969.37 1296.9,1967.9 1296.97,1966.44C1293.97,1966.95 1291.03,1966.96 1288.13,1966.58C1288.25,1968.71 1288.26,1970.8 1288.24,1972.77C1287.85,1974.6 1287.66,1976.54 1287.45,1978.37C1287.21,1980.49 1286.85,1983.14 1288.46,1984.85C1289.65,1986.12 1291.58,1986.37 1293.32,1986.23C1295.05,1986.1 1299.8,1986.11 1300.37,1985.85C1300.74,1985.68 1301.02,1985.35 1301.24,1985C1302.19,1983.5 1302.26,1981.58 1301.84,1979.86Z" style="fill:rgb(34,41,84);fill-rule:nonzero;"/>
    </g>
    <g transform="matrix(4.16667,0,0,4.16667,-3731.16,-5679.08)">
        <path d="M1334.99,1982C1333.95,1980.21 1327.33,1976.57 1323.58,1974.62C1322.88,1973.37 1322.14,1972.14 1321.18,1971.08C1321.32,1969.41 1321.49,1967.76 1321.69,1966.14C1318.66,1966.4 1315.73,1966.16 1312.88,1965.54C1312.82,1967.49 1312.79,1969.39 1312.79,1971.2C1312.74,1971.32 1312.69,1971.44 1312.65,1971.57C1312.03,1973.74 1311.84,1976.13 1311.58,1978.37C1311.34,1980.49 1310.98,1983.14 1312.59,1984.85C1313.78,1986.12 1315.71,1986.37 1317.45,1986.23C1319.18,1986.1 1323.93,1986.11 1324.5,1985.85L1324.63,1985.77C1325.86,1985.9 1327.09,1985.96 1328.27,1985.88C1334.76,1985.49 1336.44,1984.52 1334.99,1982Z" style="fill:rgb(34,41,84);fill-rule:nonzero;"/>
    </g>
    <g transform="matrix(4.16667,0,0,4.16667,-3731.16,-5679.08)">
        <path d="M1336.66,1606.8L1334.16,1603.79L1338.04,1603.25L1336.66,1606.8Z" style="fill:white;fill-rule:nonzero;"/>
    </g>
    <g transform="matrix(4.16667,0,0,4.16667,-3731.16,-5679.08)">
        <path d="M1334.72,1604.59L1334.16,1603.79L1335.12,1603.58L1334.72,1604.59Z" style="fill:rgb(8,31,62);fill-rule:nonzero;"/>
    </g>
    <g transform="matrix(4.16667,0,0,4.16667,-3731.16,-5679.08)">
        <path d="M1367.18,1615.44L1366.37,1617.55C1366.21,1617.94 1366.41,1618.4 1366.81,1618.56L1371.17,1620.25C1371.57,1620.4 1372.03,1620.2 1372.18,1619.8L1373,1617.7C1373.16,1617.3 1372.96,1616.85 1372.56,1616.69L1368.19,1615C1367.79,1614.84 1367.34,1615.04 1367.18,1615.44Z" style="fill:rgb(34,41,84);fill-rule:nonzero;"/>
    </g>
    <g transform="matrix(4.16667,0,0,4.16667,-3731.16,-5679.08)">
        <path d="M1337.12,1605.62L1367.46,1617.44L1367,1618.63L1336.66,1606.8L1337.12,1605.62Z" style="fill:rgb(127,170,214);fill-rule:nonzero;"/>
    </g>
    <g transform="matrix(4.16667,0,0,4.16667,-3731.16,-5679.08)">
        <path d="M1337.58,1604.43L1367.92,1616.26L1367.46,1617.44L1337.12,1605.62L1337.58,1604.43Z" style="fill:rgb(108,158,202);fill-rule:nonzero;"/>
    </g>
    <g transform="matrix(4.16667,0,0,4.16667,-3731.16,-5679.08)">
        <path d="M1338.04,1603.25L1368.38,1615.07L1367.92,1616.26L1337.58,1604.43L1338.04,1603.25Z" style="fill:rgb(127,170,214);fill-rule:nonzero;"/>
    </g>
    <g transform="matrix(4.16667,0,0,4.16667,-3731.16,-5679.08)">
        <path d="M1367.93,1614.9L1366.55,1618.45L1367.27,1618.73L1368.65,1615.18L1367.93,1614.9Z" style="fill:rgb(236,237,236);fill-rule:nonzero;"/>
    </g>
    <g transform="matrix(4.16667,0,0,4.16667,-3731.16,-5679.08)">
        <path d="M1354.74,1609.88C1354.84,1609.89 1354.93,1609.9 1355.03,1609.95C1357.3,1610.95 1359.67,1611.71 1362,1612.58L1362.06,1612.63C1361.93,1611.62 1361.74,1610.76 1361.43,1610.36C1360.54,1609.22 1356.37,1606.56 1354.72,1605.93C1353.08,1605.3 1352.07,1605.17 1348.4,1605.93C1344.73,1606.69 1345.49,1608.33 1346.25,1608.46C1347.01,1608.59 1353.58,1608.71 1354.72,1609.85L1354.74,1609.88Z" style="fill:rgb(248,163,127);fill-rule:nonzero;"/>
    </g>
    <g transform="matrix(4.16667,0,0,4.16667,-3731.16,-5679.08)">
        <path d="M1362.71,1617.28C1361.9,1616.8 1361.07,1616.33 1360.25,1615.86C1359.33,1615.34 1358.22,1614.43 1357.19,1614.2C1357.1,1614.18 1357.03,1614.14 1356.96,1614.1C1355.83,1613.83 1355.01,1613.65 1355.01,1613.65C1355.01,1613.65 1351.97,1612.89 1351.34,1612.38C1350.71,1611.88 1347.42,1611.12 1345.65,1611.62C1343.88,1612.13 1348.56,1614.66 1351.72,1615.92C1354.88,1617.19 1357.41,1618.08 1358.55,1619.72C1358.82,1620.11 1359.14,1621.09 1359.48,1622.5C1361.06,1622.24 1362.64,1621.96 1364.21,1621.67C1363.48,1619.74 1362.97,1618.37 1362.85,1617.95C1362.8,1617.76 1362.76,1617.53 1362.71,1617.28Z" style="fill:rgb(248,163,127);fill-rule:nonzero;"/>
    </g>
    <g transform="matrix(4.16667,0,0,4.16667,-3731.16,-5679.08)">
        <path d="M1136.52,1950.94C1134.35,1950.78 1132.26,1950.5 1130.25,1950.11L1133.32,1945.4C1133.47,1945.18 1132.9,1944.99 1132.06,1944.99L1116.49,1944.99C1115.76,1944.53 1115.07,1944.04 1114.43,1943.54L1143.62,1943.54C1144.42,1943.54 1145.16,1943.37 1145.29,1943.16L1150.27,1935.02C1150.39,1934.82 1149.87,1934.67 1149.1,1934.67L1118.37,1934.67C1117.6,1934.67 1116.86,1934.82 1116.72,1935.02L1112.06,1941.33C1110.77,1939.89 1109.84,1938.34 1109.34,1936.72L1110.47,1935.23C1110.69,1934.94 1110.01,1934.7 1108.93,1934.67C1108.91,1934.4 1108.89,1934.13 1108.89,1933.86C1108.89,1933.67 1108.9,1933.5 1108.91,1933.32L1129.18,1933.32C1129.94,1933.32 1130.67,1933.16 1130.8,1932.97L1136.02,1925.42C1136.15,1925.23 1135.65,1925.09 1134.92,1925.09L1113.35,1925.09C1113.83,1924.66 1114.33,1924.24 1114.87,1923.83L1127.21,1923.83C1127.94,1923.83 1128.64,1923.69 1128.77,1923.51L1133.42,1917.09C1135.51,1916.82 1137.67,1916.65 1139.89,1916.61L1135.06,1923.51C1134.94,1923.69 1135.43,1923.83 1136.16,1923.83L1165.64,1923.83C1166.18,1923.83 1166.7,1923.75 1166.97,1923.64C1167.61,1924.1 1168.21,1924.59 1168.76,1925.09L1144.12,1925.09C1143.38,1925.09 1142.68,1925.23 1142.56,1925.42L1137.54,1932.97C1137.41,1933.16 1137.92,1933.32 1138.68,1933.32L1169.26,1933.32C1170.02,1933.32 1170.72,1933.16 1170.83,1932.97L1172.42,1930.02C1172.94,1931.25 1173.21,1932.54 1173.21,1933.86C1173.21,1934.13 1173.2,1934.4 1173.18,1934.67L1158.28,1934.67C1157.52,1934.67 1156.8,1934.82 1156.69,1935.02L1151.9,1943.16C1151.78,1943.37 1152.32,1943.54 1153.11,1943.54L1167.67,1943.54C1167.04,1944.04 1166.35,1944.53 1165.62,1944.99L1141.99,1944.99C1141.02,1944.99 1140.11,1945.2 1139.95,1945.46L1136.52,1950.94Z" style="fill:rgb(144,207,242);fill-rule:nonzero;"/>
    </g>
    <g transform="matrix(4.16667,0,0,4.16667,-3731.16,-5679.08)">
        <path d="M1127.21,1923.83L1114.87,1923.83C1119.29,1920.52 1125.83,1918.08 1133.42,1917.09L1128.77,1923.51C1128.64,1923.69 1127.94,1923.83 1127.21,1923.83Z" style="fill:rgb(129,196,236);fill-rule:nonzero;"/>
    </g>
    <g transform="matrix(4.16667,0,0,4.16667,-3731.16,-5679.08)">
        <path d="M1129.18,1933.32L1108.91,1933.32C1109.08,1930.32 1110.68,1927.51 1113.35,1925.09L1134.92,1925.09C1135.65,1925.09 1136.15,1925.23 1136.02,1925.42L1130.8,1932.97C1130.67,1933.16 1129.94,1933.32 1129.18,1933.32Z" style="fill:rgb(129,196,236);fill-rule:nonzero;"/>
    </g>
    <g transform="matrix(4.16667,0,0,4.16667,-3731.16,-5679.08)">
        <path d="M1143.62,1943.54L1114.43,1943.54C1113.54,1942.84 1112.75,1942.1 1112.06,1941.33L1116.72,1935.02C1116.86,1934.82 1117.6,1934.67 1118.37,1934.67L1149.1,1934.67C1149.87,1934.67 1150.39,1934.82 1150.27,1935.02L1145.29,1943.16C1145.16,1943.37 1144.42,1943.54 1143.62,1943.54Z" style="fill:rgb(129,196,236);fill-rule:nonzero;"/>
    </g>
    <g transform="matrix(4.16667,0,0,4.16667,-3731.16,-5679.08)">
        <path d="M1130.25,1950.11C1124.85,1949.08 1120.12,1947.3 1116.49,1944.99L1132.06,1944.99C1132.9,1944.99 1133.47,1945.18 1133.32,1945.4L1130.25,1950.11Z" style="fill:rgb(129,196,236);fill-rule:nonzero;"/>
    </g>
    <g transform="matrix(4.16667,0,0,4.16667,-3731.16,-5679.08)">
        <path d="M1141.05,1951.11C1139.51,1951.11 1138,1951.05 1136.52,1950.94L1139.95,1945.46C1140.11,1945.2 1141.02,1944.99 1141.99,1944.99L1165.62,1944.99C1159.72,1948.74 1150.9,1951.11 1141.05,1951.11Z" style="fill:rgb(129,196,236);fill-rule:nonzero;"/>
    </g>
    <g transform="matrix(4.16667,0,0,4.16667,-3731.16,-5679.08)">
        <path d="M1167.67,1943.54L1153.11,1943.54C1152.32,1943.54 1151.78,1943.37 1151.9,1943.16L1156.69,1935.02C1156.8,1934.82 1157.52,1934.67 1158.28,1934.67L1173.18,1934.67C1172.9,1937.95 1170.91,1940.99 1167.67,1943.54Z" style="fill:rgb(129,196,236);fill-rule:nonzero;"/>
    </g>
    <g transform="matrix(4.16667,0,0,4.16667,-3731.16,-5679.08)">
        <path d="M1169.26,1933.32L1138.68,1933.32C1137.92,1933.32 1137.41,1933.16 1137.54,1932.97L1142.56,1925.42C1142.68,1925.23 1143.38,1925.09 1144.12,1925.09L1168.76,1925.09C1170.42,1926.6 1171.67,1928.26 1172.42,1930.02L1170.83,1932.97C1170.72,1933.16 1170.02,1933.32 1169.26,1933.32Z" style="fill:rgb(129,196,236);fill-rule:nonzero;"/>
    </g>
    <g transform="matrix(4.16667,0,0,4.16667,-3731.16,-5679.08)">
        <path d="M1109.34,1936.72C1109.13,1936.05 1108.99,1935.36 1108.93,1934.67C1110.01,1934.7 1110.69,1934.94 1110.47,1935.23L1109.34,1936.72Z" style="fill:rgb(129,196,236);fill-rule:nonzero;"/>
    </g>
    <g transform="matrix(4.16667,0,0,4.16667,-3731.16,-5679.08)">
        <path d="M1165.64,1923.83L1136.16,1923.83C1135.43,1923.83 1134.94,1923.69 1135.06,1923.51L1139.89,1916.61C1140.28,1916.6 1140.66,1916.6 1141.05,1916.6C1151.69,1916.6 1161.11,1919.37 1166.97,1923.64C1166.7,1923.75 1166.18,1923.83 1165.64,1923.83Z" style="fill:rgb(129,196,236);fill-rule:nonzero;"/>
    </g>
    <g transform="matrix(4.16667,0,0,4.16667,-3731.16,-5679.08)">
        <path d="M1140.72,1921.58C1124.06,1921.58 1109.99,1929.2 1109.99,1938.21C1109.99,1947.23 1124.06,1954.84 1140.72,1954.84C1157.38,1954.84 1171.45,1947.23 1171.45,1938.21C1171.45,1929.2 1157.38,1921.58 1140.72,1921.58ZM1140.72,1960.55C1120.29,1960.55 1104.29,1950.74 1104.29,1938.21C1104.29,1925.69 1120.29,1915.88 1140.72,1915.88C1161.15,1915.88 1177.15,1925.69 1177.15,1938.21C1177.15,1950.74 1161.15,1960.55 1140.72,1960.55Z" style="fill:rgb(80,85,125);fill-rule:nonzero;"/>
    </g>
    <g transform="matrix(4.16667,0,0,4.16667,-3731.16,-5679.08)">
        <path d="M1140.72,1916.6C1124.06,1916.6 1109.99,1924.22 1109.99,1933.23C1109.99,1942.24 1124.06,1949.86 1140.72,1949.86C1157.38,1949.86 1171.45,1942.24 1171.45,1933.23C1171.45,1924.22 1157.38,1916.6 1140.72,1916.6ZM1140.72,1955.56C1120.29,1955.56 1104.29,1945.75 1104.29,1933.23C1104.29,1920.71 1120.29,1910.9 1140.72,1910.9C1161.15,1910.9 1177.15,1920.71 1177.15,1933.23C1177.15,1945.75 1161.15,1955.56 1140.72,1955.56Z" style="fill:rgb(127,170,214);fill-rule:nonzero;"/>
    </g>
    <g transform="matrix(4.16667,0,0,4.16667,-3731.16,-5679.08)">
        <path d="M1097.31,1955.36L1110.05,1948.34C1110.05,1948.34 1111.48,1947.24 1114.25,1950.12C1116.14,1952.1 1113.7,1953.19 1113.7,1953.19L1099.99,1960.55L1097.31,1955.36Z" style="fill:rgb(111,117,163);fill-rule:nonzero;"/>
    </g>
    <g transform="matrix(4.16667,0,0,4.16667,-3731.16,-5679.08)">
        <path d="M1107.92,1962.67C1109.96,1960.22 1108.69,1955.82 1105.11,1952.84C1101.52,1949.86 1098.13,1949.86 1094.93,1951.88L1064.95,1969.84L1076.75,1981.78L1107.92,1962.67Z" style="fill:rgb(127,170,214);fill-rule:nonzero;"/>
    </g>
    <g transform="matrix(4.16667,0,0,4.16667,-3731.16,-5679.08)">
        <path d="M1074.36,1971.52C1077.94,1974.5 1079.21,1978.9 1077.17,1981.35C1075.14,1983.79 1070.59,1983.36 1067,1980.38C1063.41,1977.4 1062.15,1973 1064.18,1970.56C1066.21,1968.11 1070.77,1968.54 1074.36,1971.52Z" style="fill:rgb(80,85,125);fill-rule:nonzero;"/>
    </g>
    <g transform="matrix(4.16667,0,0,4.16667,-3731.16,-5679.08)">
        <path d="M1137.64,1927.9C1137.64,1929.45 1134.43,1930.72 1130.47,1930.72C1126.51,1930.72 1123.3,1929.45 1123.3,1927.9C1123.3,1926.35 1126.51,1925.09 1130.47,1925.09C1134.43,1925.09 1137.64,1926.35 1137.64,1927.9Z" style="fill:white;fill-rule:nonzero;"/>
    </g>
    <g transform="matrix(4.16667,0,0,4.16667,-3731.16,-5679.08)">
        <path d="M1124.97,1932.04C1124.97,1932.94 1123.11,1933.67 1120.83,1933.67C1118.54,1933.67 1116.69,1932.94 1116.69,1932.04C1116.69,1931.14 1118.54,1930.42 1120.83,1930.42C1123.11,1930.42 1124.97,1931.14 1124.97,1932.04Z" style="fill:white;fill-rule:nonzero;"/>
    </g>
</svg>
